<?xml version="1.0" encoding="UTF-8"?>
<svg xmlns="http://www.w3.org/2000/svg" xmlns:xlink="http://www.w3.org/1999/xlink" font-size="10px" font-family="sans-serif" width="262" height="262" viewBox="-5.5 -5.5 262 262"><g shape-rendering="crispEdges"><path fill="white" stroke="none" d="M -0.5 -0.5 L 252.5 -0.5 252.5 252.5 -0.5 252.5 z"></path></g><g shape-rendering="crispEdges"><path fill="black" stroke="none" d="M 71.5 -0.5 L 108.5 -0.5 108.5 36.5 71.5 36.5 z"></path><path fill="black" stroke="none" d="M 107.5 35.5 L 144.5 35.5 144.5 72.5 107.5 72.5 z"></path><path fill="black" stroke="none" d="M 71.5 71.5 L 108.5 71.5 108.5 108.5 71.5 108.5 z"></path><path fill="black" stroke="none" d="M 107.5 107.5 L 144.5 107.5 144.5 144.5 107.5 144.5 z"></path><path fill="black" stroke="none" d="M 215.5 143.5 L 252.5 143.5 252.5 180.5 215.5 180.5 z"></path><path fill="black" stroke="none" d="M -0.5 179.5 L 36.5 179.5 36.5 216.5 -0.5 216.5 z"></path><path fill="black" stroke="none" d="M 215.5 179.5 L 252.5 179.5 252.5 216.5 215.5 216.5 z"></path></g><g shape-rendering="crispEdges"><path fill="none" stroke="rgb(160, 160, 160)" d="M 36 0 L 36 36" stroke-width="1" stroke-dasharray="2.8125 3.375 5.625 3.375 5.625 3.375 5.625 3.375 2.8125 0"></path><path fill="none" stroke="rgb(160, 160, 160)" d="M 144 0 L 144 36" stroke-width="1" stroke-dasharray="2.8125 3.375 5.625 3.375 5.625 3.375 5.625 3.375 2.8125 0"></path><path fill="none" stroke="rgb(160, 160, 160)" d="M 180 0 L 180 36" stroke-width="1" stroke-dasharray="2.8125 3.375 5.625 3.375 5.625 3.375 5.625 3.375 2.8125 0"></path><path fill="none" stroke="rgb(160, 160, 160)" d="M 216 0 L 216 36" stroke-width="1" stroke-dasharray="2.8125 3.375 5.625 3.375 5.625 3.375 5.625 3.375 2.8125 0"></path><path fill="none" stroke="rgb(160, 160, 160)" d="M 0 36 L 36 36" stroke-width="1" stroke-dasharray="2.8125 3.375 5.625 3.375 5.625 3.375 5.625 3.375 2.8125 0"></path><path fill="none" stroke="rgb(160, 160, 160)" d="M 36 36 L 72 36" stroke-width="1" stroke-dasharray="2.8125 3.375 5.625 3.375 5.625 3.375 5.625 3.375 2.8125 0"></path><path fill="none" stroke="rgb(160, 160, 160)" d="M 144 36 L 180 36" stroke-width="1" stroke-dasharray="2.8125 3.375 5.625 3.375 5.625 3.375 5.625 3.375 2.8125 0"></path><path fill="none" stroke="rgb(160, 160, 160)" d="M 180 36 L 216 36" stroke-width="1" stroke-dasharray="2.8125 3.375 5.625 3.375 5.625 3.375 5.625 3.375 2.8125 0"></path><path fill="none" stroke="rgb(160, 160, 160)" d="M 216 36 L 252 36" stroke-width="1" stroke-dasharray="2.8125 3.375 5.625 3.375 5.625 3.375 5.625 3.375 2.8125 0"></path><path fill="none" stroke="rgb(160, 160, 160)" d="M 36 36 L 36 72" stroke-width="1" stroke-dasharray="2.8125 3.375 5.625 3.375 5.625 3.375 5.625 3.375 2.8125 0"></path><path fill="none" stroke="rgb(160, 160, 160)" d="M 72 36 L 72 72" stroke-width="1" stroke-dasharray="2.8125 3.375 5.625 3.375 5.625 3.375 5.625 3.375 2.8125 0"></path><path fill="none" stroke="rgb(160, 160, 160)" d="M 180 36 L 180 72" stroke-width="1" stroke-dasharray="2.8125 3.375 5.625 3.375 5.625 3.375 5.625 3.375 2.8125 0"></path><path fill="none" stroke="rgb(160, 160, 160)" d="M 216 36 L 216 72" stroke-width="1" stroke-dasharray="2.8125 3.375 5.625 3.375 5.625 3.375 5.625 3.375 2.8125 0"></path><path fill="none" stroke="rgb(160, 160, 160)" d="M 0 72 L 36 72" stroke-width="1" stroke-dasharray="2.8125 3.375 5.625 3.375 5.625 3.375 5.625 3.375 2.8125 0"></path><path fill="none" stroke="rgb(160, 160, 160)" d="M 36 72 L 72 72" stroke-width="1" stroke-dasharray="2.8125 3.375 5.625 3.375 5.625 3.375 5.625 3.375 2.8125 0"></path><path fill="none" stroke="rgb(160, 160, 160)" d="M 144 72 L 180 72" stroke-width="1" stroke-dasharray="2.8125 3.375 5.625 3.375 5.625 3.375 5.625 3.375 2.8125 0"></path><path fill="none" stroke="rgb(160, 160, 160)" d="M 180 72 L 216 72" stroke-width="1" stroke-dasharray="2.8125 3.375 5.625 3.375 5.625 3.375 5.625 3.375 2.8125 0"></path><path fill="none" stroke="rgb(160, 160, 160)" d="M 216 72 L 252 72" stroke-width="1" stroke-dasharray="2.8125 3.375 5.625 3.375 5.625 3.375 5.625 3.375 2.8125 0"></path><path fill="none" stroke="rgb(160, 160, 160)" d="M 36 72 L 36 108" stroke-width="1" stroke-dasharray="2.8125 3.375 5.625 3.375 5.625 3.375 5.625 3.375 2.8125 0"></path><path fill="none" stroke="rgb(160, 160, 160)" d="M 144 72 L 144 108" stroke-width="1" stroke-dasharray="2.8125 3.375 5.625 3.375 5.625 3.375 5.625 3.375 2.8125 0"></path><path fill="none" stroke="rgb(160, 160, 160)" d="M 180 72 L 180 108" stroke-width="1" stroke-dasharray="2.8125 3.375 5.625 3.375 5.625 3.375 5.625 3.375 2.8125 0"></path><path fill="none" stroke="rgb(160, 160, 160)" d="M 216 72 L 216 108" stroke-width="1" stroke-dasharray="2.8125 3.375 5.625 3.375 5.625 3.375 5.625 3.375 2.8125 0"></path><path fill="none" stroke="rgb(160, 160, 160)" d="M 0 108 L 36 108" stroke-width="1" stroke-dasharray="2.8125 3.375 5.625 3.375 5.625 3.375 5.625 3.375 2.8125 0"></path><path fill="none" stroke="rgb(160, 160, 160)" d="M 36 108 L 72 108" stroke-width="1" stroke-dasharray="2.8125 3.375 5.625 3.375 5.625 3.375 5.625 3.375 2.8125 0"></path><path fill="none" stroke="rgb(160, 160, 160)" d="M 144 108 L 180 108" stroke-width="1" stroke-dasharray="2.8125 3.375 5.625 3.375 5.625 3.375 5.625 3.375 2.8125 0"></path><path fill="none" stroke="rgb(160, 160, 160)" d="M 180 108 L 216 108" stroke-width="1" stroke-dasharray="2.8125 3.375 5.625 3.375 5.625 3.375 5.625 3.375 2.8125 0"></path><path fill="none" stroke="rgb(160, 160, 160)" d="M 216 108 L 252 108" stroke-width="1" stroke-dasharray="2.8125 3.375 5.625 3.375 5.625 3.375 5.625 3.375 2.8125 0"></path><path fill="none" stroke="rgb(160, 160, 160)" d="M 36 108 L 36 144" stroke-width="1" stroke-dasharray="2.8125 3.375 5.625 3.375 5.625 3.375 5.625 3.375 2.8125 0"></path><path fill="none" stroke="rgb(160, 160, 160)" d="M 72 108 L 72 144" stroke-width="1" stroke-dasharray="2.8125 3.375 5.625 3.375 5.625 3.375 5.625 3.375 2.8125 0"></path><path fill="none" stroke="rgb(160, 160, 160)" d="M 180 108 L 180 144" stroke-width="1" stroke-dasharray="2.8125 3.375 5.625 3.375 5.625 3.375 5.625 3.375 2.8125 0"></path><path fill="none" stroke="rgb(160, 160, 160)" d="M 216 108 L 216 144" stroke-width="1" stroke-dasharray="2.8125 3.375 5.625 3.375 5.625 3.375 5.625 3.375 2.8125 0"></path><path fill="none" stroke="rgb(160, 160, 160)" d="M 0 144 L 36 144" stroke-width="1" stroke-dasharray="2.8125 3.375 5.625 3.375 5.625 3.375 5.625 3.375 2.8125 0"></path><path fill="none" stroke="rgb(160, 160, 160)" d="M 36 144 L 72 144" stroke-width="1" stroke-dasharray="2.8125 3.375 5.625 3.375 5.625 3.375 5.625 3.375 2.8125 0"></path><path fill="none" stroke="rgb(160, 160, 160)" d="M 72 144 L 108 144" stroke-width="1" stroke-dasharray="2.8125 3.375 5.625 3.375 5.625 3.375 5.625 3.375 2.8125 0"></path><path fill="none" stroke="rgb(160, 160, 160)" d="M 144 144 L 180 144" stroke-width="1" stroke-dasharray="2.8125 3.375 5.625 3.375 5.625 3.375 5.625 3.375 2.8125 0"></path><path fill="none" stroke="rgb(160, 160, 160)" d="M 180 144 L 216 144" stroke-width="1" stroke-dasharray="2.8125 3.375 5.625 3.375 5.625 3.375 5.625 3.375 2.8125 0"></path><path fill="none" stroke="rgb(160, 160, 160)" d="M 36 144 L 36 180" stroke-width="1" stroke-dasharray="2.8125 3.375 5.625 3.375 5.625 3.375 5.625 3.375 2.8125 0"></path><path fill="none" stroke="rgb(160, 160, 160)" d="M 72 144 L 72 180" stroke-width="1" stroke-dasharray="2.8125 3.375 5.625 3.375 5.625 3.375 5.625 3.375 2.8125 0"></path><path fill="none" stroke="rgb(160, 160, 160)" d="M 108 144 L 108 180" stroke-width="1" stroke-dasharray="2.8125 3.375 5.625 3.375 5.625 3.375 5.625 3.375 2.8125 0"></path><path fill="none" stroke="rgb(160, 160, 160)" d="M 144 144 L 144 180" stroke-width="1" stroke-dasharray="2.8125 3.375 5.625 3.375 5.625 3.375 5.625 3.375 2.8125 0"></path><path fill="none" stroke="rgb(160, 160, 160)" d="M 180 144 L 180 180" stroke-width="1" stroke-dasharray="2.8125 3.375 5.625 3.375 5.625 3.375 5.625 3.375 2.8125 0"></path><path fill="none" stroke="rgb(160, 160, 160)" d="M 36 180 L 72 180" stroke-width="1" stroke-dasharray="2.8125 3.375 5.625 3.375 5.625 3.375 5.625 3.375 2.8125 0"></path><path fill="none" stroke="rgb(160, 160, 160)" d="M 72 180 L 108 180" stroke-width="1" stroke-dasharray="2.8125 3.375 5.625 3.375 5.625 3.375 5.625 3.375 2.8125 0"></path><path fill="none" stroke="rgb(160, 160, 160)" d="M 108 180 L 144 180" stroke-width="1" stroke-dasharray="2.8125 3.375 5.625 3.375 5.625 3.375 5.625 3.375 2.8125 0"></path><path fill="none" stroke="rgb(160, 160, 160)" d="M 144 180 L 180 180" stroke-width="1" stroke-dasharray="2.8125 3.375 5.625 3.375 5.625 3.375 5.625 3.375 2.8125 0"></path><path fill="none" stroke="rgb(160, 160, 160)" d="M 180 180 L 216 180" stroke-width="1" stroke-dasharray="2.8125 3.375 5.625 3.375 5.625 3.375 5.625 3.375 2.8125 0"></path><path fill="none" stroke="rgb(160, 160, 160)" d="M 72 180 L 72 216" stroke-width="1" stroke-dasharray="2.8125 3.375 5.625 3.375 5.625 3.375 5.625 3.375 2.8125 0"></path><path fill="none" stroke="rgb(160, 160, 160)" d="M 108 180 L 108 216" stroke-width="1" stroke-dasharray="2.8125 3.375 5.625 3.375 5.625 3.375 5.625 3.375 2.8125 0"></path><path fill="none" stroke="rgb(160, 160, 160)" d="M 144 180 L 144 216" stroke-width="1" stroke-dasharray="2.8125 3.375 5.625 3.375 5.625 3.375 5.625 3.375 2.8125 0"></path><path fill="none" stroke="rgb(160, 160, 160)" d="M 180 180 L 180 216" stroke-width="1" stroke-dasharray="2.8125 3.375 5.625 3.375 5.625 3.375 5.625 3.375 2.8125 0"></path><path fill="none" stroke="rgb(160, 160, 160)" d="M 36 216 L 72 216" stroke-width="1" stroke-dasharray="2.8125 3.375 5.625 3.375 5.625 3.375 5.625 3.375 2.8125 0"></path><path fill="none" stroke="rgb(160, 160, 160)" d="M 72 216 L 108 216" stroke-width="1" stroke-dasharray="2.8125 3.375 5.625 3.375 5.625 3.375 5.625 3.375 2.8125 0"></path><path fill="none" stroke="rgb(160, 160, 160)" d="M 108 216 L 144 216" stroke-width="1" stroke-dasharray="2.8125 3.375 5.625 3.375 5.625 3.375 5.625 3.375 2.8125 0"></path><path fill="none" stroke="rgb(160, 160, 160)" d="M 144 216 L 180 216" stroke-width="1" stroke-dasharray="2.8125 3.375 5.625 3.375 5.625 3.375 5.625 3.375 2.8125 0"></path><path fill="none" stroke="rgb(160, 160, 160)" d="M 180 216 L 216 216" stroke-width="1" stroke-dasharray="2.8125 3.375 5.625 3.375 5.625 3.375 5.625 3.375 2.8125 0"></path><path fill="none" stroke="rgb(160, 160, 160)" d="M 36 216 L 36 252" stroke-width="1" stroke-dasharray="2.8125 3.375 5.625 3.375 5.625 3.375 5.625 3.375 2.8125 0"></path><path fill="none" stroke="rgb(160, 160, 160)" d="M 72 216 L 72 252" stroke-width="1" stroke-dasharray="2.8125 3.375 5.625 3.375 5.625 3.375 5.625 3.375 2.8125 0"></path><path fill="none" stroke="rgb(160, 160, 160)" d="M 108 216 L 108 252" stroke-width="1" stroke-dasharray="2.8125 3.375 5.625 3.375 5.625 3.375 5.625 3.375 2.8125 0"></path><path fill="none" stroke="rgb(160, 160, 160)" d="M 144 216 L 144 252" stroke-width="1" stroke-dasharray="2.8125 3.375 5.625 3.375 5.625 3.375 5.625 3.375 2.8125 0"></path><path fill="none" stroke="rgb(160, 160, 160)" d="M 180 216 L 180 252" stroke-width="1" stroke-dasharray="2.8125 3.375 5.625 3.375 5.625 3.375 5.625 3.375 2.8125 0"></path><path fill="none" stroke="rgb(160, 160, 160)" d="M 216 216 L 216 252" stroke-width="1" stroke-dasharray="2.8125 3.375 5.625 3.375 5.625 3.375 5.625 3.375 2.8125 0"></path></g><g shape-rendering="crispEdges"><path fill="rgb(0, 160, 0)" stroke="none" d="M 34 -2 L 38 -2 38 38 34 38 z"></path><path fill="rgb(0, 160, 0)" stroke="none" d="M 178 -2 L 182 -2 182 38 178 38 z"></path><path fill="rgb(0, 160, 0)" stroke="none" d="M 214 34 L 254 34 254 38 214 38 z"></path><path fill="rgb(0, 160, 0)" stroke="none" d="M 34 34 L 38 34 38 74 34 74 z"></path><path fill="rgb(0, 160, 0)" stroke="none" d="M 178 34 L 182 34 182 74 178 74 z"></path><path fill="rgb(0, 160, 0)" stroke="none" d="M 214 34 L 218 34 218 74 214 74 z"></path><path fill="rgb(0, 160, 0)" stroke="none" d="M 34 70 L 74 70 74 74 34 74 z"></path><path fill="rgb(0, 160, 0)" stroke="none" d="M 142 70 L 182 70 182 74 142 74 z"></path><path fill="rgb(0, 160, 0)" stroke="none" d="M 178 70 L 218 70 218 74 178 74 z"></path><path fill="rgb(0, 160, 0)" stroke="none" d="M 34 70 L 38 70 38 110 34 110 z"></path><path fill="rgb(0, 160, 0)" stroke="none" d="M 214 70 L 218 70 218 110 214 110 z"></path><path fill="rgb(0, 160, 0)" stroke="none" d="M -2 106 L 38 106 38 110 -2 110 z"></path><path fill="rgb(0, 160, 0)" stroke="none" d="M 142 106 L 182 106 182 110 142 110 z"></path><path fill="rgb(0, 160, 0)" stroke="none" d="M 178 106 L 218 106 218 110 178 110 z"></path><path fill="rgb(0, 160, 0)" stroke="none" d="M 70 106 L 74 106 74 146 70 146 z"></path><path fill="rgb(0, 160, 0)" stroke="none" d="M 214 106 L 218 106 218 146 214 146 z"></path><path fill="rgb(0, 160, 0)" stroke="none" d="M -2 142 L 38 142 38 146 -2 146 z"></path><path fill="rgb(0, 160, 0)" stroke="none" d="M 34 142 L 74 142 74 146 34 146 z"></path><path fill="rgb(0, 160, 0)" stroke="none" d="M 142 142 L 182 142 182 146 142 146 z"></path><path fill="rgb(0, 160, 0)" stroke="none" d="M 70 142 L 74 142 74 182 70 182 z"></path><path fill="rgb(0, 160, 0)" stroke="none" d="M 106 142 L 110 142 110 182 106 182 z"></path><path fill="rgb(0, 160, 0)" stroke="none" d="M 178 142 L 182 142 182 182 178 182 z"></path><path fill="rgb(0, 160, 0)" stroke="none" d="M 142 178 L 182 178 182 182 142 182 z"></path><path fill="rgb(0, 160, 0)" stroke="none" d="M 178 178 L 218 178 218 182 178 182 z"></path><path fill="rgb(0, 160, 0)" stroke="none" d="M 70 178 L 74 178 74 218 70 218 z"></path><path fill="rgb(0, 160, 0)" stroke="none" d="M 106 178 L 110 178 110 218 106 218 z"></path><path fill="rgb(0, 160, 0)" stroke="none" d="M 142 178 L 146 178 146 218 142 218 z"></path><path fill="rgb(0, 160, 0)" stroke="none" d="M 178 178 L 182 178 182 218 178 218 z"></path><path fill="rgb(0, 160, 0)" stroke="none" d="M 34 214 L 74 214 74 218 34 218 z"></path><path fill="rgb(0, 160, 0)" stroke="none" d="M 70 214 L 110 214 110 218 70 218 z"></path><path fill="rgb(0, 160, 0)" stroke="none" d="M 106 214 L 146 214 146 218 106 218 z"></path><path fill="rgb(0, 160, 0)" stroke="none" d="M 106 214 L 110 214 110 254 106 254 z"></path><path fill="rgb(0, 160, 0)" stroke="none" d="M 178 214 L 182 214 182 254 178 254 z"></path></g><g shape-rendering="crispEdges"><path fill="black" stroke="none" d="M -2 -2 L 38 -2 38 2 -2 2 z"></path><path fill="black" stroke="none" d="M 34 -2 L 74 -2 74 2 34 2 z"></path><path fill="black" stroke="none" d="M 106 -2 L 146 -2 146 2 106 2 z"></path><path fill="black" stroke="none" d="M 142 -2 L 182 -2 182 2 142 2 z"></path><path fill="black" stroke="none" d="M 178 -2 L 218 -2 218 2 178 2 z"></path><path fill="black" stroke="none" d="M 214 -2 L 254 -2 254 2 214 2 z"></path><path fill="black" stroke="none" d="M -2 -2 L 2 -2 2 38 -2 38 z"></path><path fill="black" stroke="none" d="M 70 -2 L 74 -2 74 38 70 38 z"></path><path fill="black" stroke="none" d="M 106 -2 L 110 -2 110 38 106 38 z"></path><path fill="black" stroke="none" d="M 250 -2 L 254 -2 254 38 250 38 z"></path><path fill="black" stroke="none" d="M 70 34 L 110 34 110 38 70 38 z"></path><path fill="black" stroke="none" d="M 106 34 L 146 34 146 38 106 38 z"></path><path fill="black" stroke="none" d="M -2 34 L 2 34 2 74 -2 74 z"></path><path fill="black" stroke="none" d="M 106 34 L 110 34 110 74 106 74 z"></path><path fill="black" stroke="none" d="M 142 34 L 146 34 146 74 142 74 z"></path><path fill="black" stroke="none" d="M 250 34 L 254 34 254 74 250 74 z"></path><path fill="black" stroke="none" d="M 70 70 L 110 70 110 74 70 74 z"></path><path fill="black" stroke="none" d="M 106 70 L 146 70 146 74 106 74 z"></path><path fill="black" stroke="none" d="M -2 70 L 2 70 2 110 -2 110 z"></path><path fill="black" stroke="none" d="M 70 70 L 74 70 74 110 70 110 z"></path><path fill="black" stroke="none" d="M 106 70 L 110 70 110 110 106 110 z"></path><path fill="black" stroke="none" d="M 250 70 L 254 70 254 110 250 110 z"></path><path fill="black" stroke="none" d="M 70 106 L 110 106 110 110 70 110 z"></path><path fill="black" stroke="none" d="M 106 106 L 146 106 146 110 106 110 z"></path><path fill="black" stroke="none" d="M -2 106 L 2 106 2 146 -2 146 z"></path><path fill="black" stroke="none" d="M 106 106 L 110 106 110 146 106 146 z"></path><path fill="black" stroke="none" d="M 142 106 L 146 106 146 146 142 146 z"></path><path fill="black" stroke="none" d="M 250 106 L 254 106 254 146 250 146 z"></path><path fill="black" stroke="none" d="M 106 142 L 146 142 146 146 106 146 z"></path><path fill="black" stroke="none" d="M 214 142 L 254 142 254 146 214 146 z"></path><path fill="black" stroke="none" d="M -2 142 L 2 142 2 182 -2 182 z"></path><path fill="black" stroke="none" d="M 214 142 L 218 142 218 182 214 182 z"></path><path fill="black" stroke="none" d="M -2 178 L 38 178 38 182 -2 182 z"></path><path fill="black" stroke="none" d="M 34 178 L 38 178 38 218 34 218 z"></path><path fill="black" stroke="none" d="M 214 178 L 218 178 218 218 214 218 z"></path><path fill="black" stroke="none" d="M -2 214 L 38 214 38 218 -2 218 z"></path><path fill="black" stroke="none" d="M 214 214 L 254 214 254 218 214 218 z"></path><path fill="black" stroke="none" d="M -2 214 L 2 214 2 254 -2 254 z"></path><path fill="black" stroke="none" d="M 250 214 L 254 214 254 254 250 254 z"></path><path fill="black" stroke="none" d="M -2 250 L 38 250 38 254 -2 254 z"></path><path fill="black" stroke="none" d="M 34 250 L 74 250 74 254 34 254 z"></path><path fill="black" stroke="none" d="M 70 250 L 110 250 110 254 70 254 z"></path><path fill="black" stroke="none" d="M 106 250 L 146 250 146 254 106 254 z"></path><path fill="black" stroke="none" d="M 142 250 L 182 250 182 254 142 254 z"></path><path fill="black" stroke="none" d="M 178 250 L 218 250 218 254 178 254 z"></path><path fill="black" stroke="none" d="M 214 250 L 254 250 254 254 214 254 z"></path></g><g shape-rendering="auto"></g><g shape-rendering="crispEdges"></g><g shape-rendering="crispEdges"><path fill="black" stroke="none" d="M -2 -2 L 2 -2 2 254 -2 254 z"></path><path fill="black" stroke="none" d="M 250 -2 L 254 -2 254 254 250 254 z"></path><path fill="black" stroke="none" d="M -2 -2 L 254 -2 254 2 -2 2 z"></path><path fill="black" stroke="none" d="M -2 250 L 254 250 254 254 -2 254 z"></path></g><g shape-rendering="crispEdges"></g></svg>