<?xml version="1.0" encoding="UTF-8"?>
<svg xmlns="http://www.w3.org/2000/svg" xmlns:xlink="http://www.w3.org/1999/xlink" font-size="10px" font-family="sans-serif" width="370" height="370" viewBox="-5.5 -5.5 370 370"><g shape-rendering="crispEdges"><path fill="white" stroke="none" d="M -0.5 -0.5 L 360.5 -0.5 360.5 360.5 -0.5 360.5 z"></path></g><g shape-rendering="crispEdges"><path fill="black" stroke="none" d="M 35.5 35.5 L 72.5 35.5 72.5 72.5 35.5 72.5 z"></path><path fill="black" stroke="none" d="M 143.5 35.5 L 180.5 35.5 180.5 72.5 143.5 72.5 z"></path><path fill="black" stroke="none" d="M 287.5 35.5 L 324.5 35.5 324.5 72.5 287.5 72.5 z"></path><path fill="black" stroke="none" d="M 179.5 71.5 L 216.5 71.5 216.5 108.5 179.5 108.5 z"></path><path fill="black" stroke="none" d="M 107.5 107.5 L 144.5 107.5 144.5 144.5 107.5 144.5 z"></path><path fill="black" stroke="none" d="M 215.5 107.5 L 252.5 107.5 252.5 144.5 215.5 144.5 z"></path><path fill="black" stroke="none" d="M 71.5 143.5 L 108.5 143.5 108.5 180.5 71.5 180.5 z"></path><path fill="black" stroke="none" d="M 251.5 143.5 L 288.5 143.5 288.5 180.5 251.5 180.5 z"></path><path fill="black" stroke="none" d="M 35.5 179.5 L 72.5 179.5 72.5 216.5 35.5 216.5 z"></path><path fill="black" stroke="none" d="M 71.5 215.5 L 108.5 215.5 108.5 252.5 71.5 252.5 z"></path><path fill="black" stroke="none" d="M 215.5 215.5 L 252.5 215.5 252.5 252.5 215.5 252.5 z"></path><path fill="black" stroke="none" d="M 287.5 215.5 L 324.5 215.5 324.5 252.5 287.5 252.5 z"></path><path fill="black" stroke="none" d="M 35.5 251.5 L 72.5 251.5 72.5 288.5 35.5 288.5 z"></path><path fill="black" stroke="none" d="M 107.5 251.5 L 144.5 251.5 144.5 288.5 107.5 288.5 z"></path><path fill="black" stroke="none" d="M 251.5 251.5 L 288.5 251.5 288.5 288.5 251.5 288.5 z"></path><path fill="black" stroke="none" d="M 215.5 287.5 L 252.5 287.5 252.5 324.5 215.5 324.5 z"></path></g><g shape-rendering="crispEdges"><path fill="none" stroke="rgb(160, 160, 160)" d="M 36 0 L 36 36" stroke-width="1" stroke-dasharray="2.8125 3.375 5.625 3.375 5.625 3.375 5.625 3.375 2.8125 0"></path><path fill="none" stroke="rgb(160, 160, 160)" d="M 72 0 L 72 36" stroke-width="1" stroke-dasharray="2.8125 3.375 5.625 3.375 5.625 3.375 5.625 3.375 2.8125 0"></path><path fill="none" stroke="rgb(160, 160, 160)" d="M 108 0 L 108 36" stroke-width="1" stroke-dasharray="2.8125 3.375 5.625 3.375 5.625 3.375 5.625 3.375 2.8125 0"></path><path fill="none" stroke="rgb(160, 160, 160)" d="M 144 0 L 144 36" stroke-width="1" stroke-dasharray="2.8125 3.375 5.625 3.375 5.625 3.375 5.625 3.375 2.8125 0"></path><path fill="none" stroke="rgb(160, 160, 160)" d="M 180 0 L 180 36" stroke-width="1" stroke-dasharray="2.8125 3.375 5.625 3.375 5.625 3.375 5.625 3.375 2.8125 0"></path><path fill="none" stroke="rgb(160, 160, 160)" d="M 216 0 L 216 36" stroke-width="1" stroke-dasharray="2.8125 3.375 5.625 3.375 5.625 3.375 5.625 3.375 2.8125 0"></path><path fill="none" stroke="rgb(160, 160, 160)" d="M 252 0 L 252 36" stroke-width="1" stroke-dasharray="2.8125 3.375 5.625 3.375 5.625 3.375 5.625 3.375 2.8125 0"></path><path fill="none" stroke="rgb(160, 160, 160)" d="M 288 0 L 288 36" stroke-width="1" stroke-dasharray="2.8125 3.375 5.625 3.375 5.625 3.375 5.625 3.375 2.8125 0"></path><path fill="none" stroke="rgb(160, 160, 160)" d="M 324 0 L 324 36" stroke-width="1" stroke-dasharray="2.8125 3.375 5.625 3.375 5.625 3.375 5.625 3.375 2.8125 0"></path><path fill="none" stroke="rgb(160, 160, 160)" d="M 0 36 L 36 36" stroke-width="1" stroke-dasharray="2.8125 3.375 5.625 3.375 5.625 3.375 5.625 3.375 2.8125 0"></path><path fill="none" stroke="rgb(160, 160, 160)" d="M 72 36 L 108 36" stroke-width="1" stroke-dasharray="2.8125 3.375 5.625 3.375 5.625 3.375 5.625 3.375 2.8125 0"></path><path fill="none" stroke="rgb(160, 160, 160)" d="M 108 36 L 144 36" stroke-width="1" stroke-dasharray="2.8125 3.375 5.625 3.375 5.625 3.375 5.625 3.375 2.8125 0"></path><path fill="none" stroke="rgb(160, 160, 160)" d="M 180 36 L 216 36" stroke-width="1" stroke-dasharray="2.8125 3.375 5.625 3.375 5.625 3.375 5.625 3.375 2.8125 0"></path><path fill="none" stroke="rgb(160, 160, 160)" d="M 216 36 L 252 36" stroke-width="1" stroke-dasharray="2.8125 3.375 5.625 3.375 5.625 3.375 5.625 3.375 2.8125 0"></path><path fill="none" stroke="rgb(160, 160, 160)" d="M 252 36 L 288 36" stroke-width="1" stroke-dasharray="2.8125 3.375 5.625 3.375 5.625 3.375 5.625 3.375 2.8125 0"></path><path fill="none" stroke="rgb(160, 160, 160)" d="M 324 36 L 360 36" stroke-width="1" stroke-dasharray="2.8125 3.375 5.625 3.375 5.625 3.375 5.625 3.375 2.8125 0"></path><path fill="none" stroke="rgb(160, 160, 160)" d="M 108 36 L 108 72" stroke-width="1" stroke-dasharray="2.8125 3.375 5.625 3.375 5.625 3.375 5.625 3.375 2.8125 0"></path><path fill="none" stroke="rgb(160, 160, 160)" d="M 216 36 L 216 72" stroke-width="1" stroke-dasharray="2.8125 3.375 5.625 3.375 5.625 3.375 5.625 3.375 2.8125 0"></path><path fill="none" stroke="rgb(160, 160, 160)" d="M 252 36 L 252 72" stroke-width="1" stroke-dasharray="2.8125 3.375 5.625 3.375 5.625 3.375 5.625 3.375 2.8125 0"></path><path fill="none" stroke="rgb(160, 160, 160)" d="M 0 72 L 36 72" stroke-width="1" stroke-dasharray="2.8125 3.375 5.625 3.375 5.625 3.375 5.625 3.375 2.8125 0"></path><path fill="none" stroke="rgb(160, 160, 160)" d="M 72 72 L 108 72" stroke-width="1" stroke-dasharray="2.8125 3.375 5.625 3.375 5.625 3.375 5.625 3.375 2.8125 0"></path><path fill="none" stroke="rgb(160, 160, 160)" d="M 108 72 L 144 72" stroke-width="1" stroke-dasharray="2.8125 3.375 5.625 3.375 5.625 3.375 5.625 3.375 2.8125 0"></path><path fill="none" stroke="rgb(160, 160, 160)" d="M 216 72 L 252 72" stroke-width="1" stroke-dasharray="2.8125 3.375 5.625 3.375 5.625 3.375 5.625 3.375 2.8125 0"></path><path fill="none" stroke="rgb(160, 160, 160)" d="M 252 72 L 288 72" stroke-width="1" stroke-dasharray="2.8125 3.375 5.625 3.375 5.625 3.375 5.625 3.375 2.8125 0"></path><path fill="none" stroke="rgb(160, 160, 160)" d="M 324 72 L 360 72" stroke-width="1" stroke-dasharray="2.8125 3.375 5.625 3.375 5.625 3.375 5.625 3.375 2.8125 0"></path><path fill="none" stroke="rgb(160, 160, 160)" d="M 36 72 L 36 108" stroke-width="1" stroke-dasharray="2.8125 3.375 5.625 3.375 5.625 3.375 5.625 3.375 2.8125 0"></path><path fill="none" stroke="rgb(160, 160, 160)" d="M 72 72 L 72 108" stroke-width="1" stroke-dasharray="2.8125 3.375 5.625 3.375 5.625 3.375 5.625 3.375 2.8125 0"></path><path fill="none" stroke="rgb(160, 160, 160)" d="M 108 72 L 108 108" stroke-width="1" stroke-dasharray="2.8125 3.375 5.625 3.375 5.625 3.375 5.625 3.375 2.8125 0"></path><path fill="none" stroke="rgb(160, 160, 160)" d="M 144 72 L 144 108" stroke-width="1" stroke-dasharray="2.8125 3.375 5.625 3.375 5.625 3.375 5.625 3.375 2.8125 0"></path><path fill="none" stroke="rgb(160, 160, 160)" d="M 252 72 L 252 108" stroke-width="1" stroke-dasharray="2.8125 3.375 5.625 3.375 5.625 3.375 5.625 3.375 2.8125 0"></path><path fill="none" stroke="rgb(160, 160, 160)" d="M 288 72 L 288 108" stroke-width="1" stroke-dasharray="2.8125 3.375 5.625 3.375 5.625 3.375 5.625 3.375 2.8125 0"></path><path fill="none" stroke="rgb(160, 160, 160)" d="M 324 72 L 324 108" stroke-width="1" stroke-dasharray="2.8125 3.375 5.625 3.375 5.625 3.375 5.625 3.375 2.8125 0"></path><path fill="none" stroke="rgb(160, 160, 160)" d="M 0 108 L 36 108" stroke-width="1" stroke-dasharray="2.8125 3.375 5.625 3.375 5.625 3.375 5.625 3.375 2.8125 0"></path><path fill="none" stroke="rgb(160, 160, 160)" d="M 36 108 L 72 108" stroke-width="1" stroke-dasharray="2.8125 3.375 5.625 3.375 5.625 3.375 5.625 3.375 2.8125 0"></path><path fill="none" stroke="rgb(160, 160, 160)" d="M 72 108 L 108 108" stroke-width="1" stroke-dasharray="2.8125 3.375 5.625 3.375 5.625 3.375 5.625 3.375 2.8125 0"></path><path fill="none" stroke="rgb(160, 160, 160)" d="M 144 108 L 180 108" stroke-width="1" stroke-dasharray="2.8125 3.375 5.625 3.375 5.625 3.375 5.625 3.375 2.8125 0"></path><path fill="none" stroke="rgb(160, 160, 160)" d="M 252 108 L 288 108" stroke-width="1" stroke-dasharray="2.8125 3.375 5.625 3.375 5.625 3.375 5.625 3.375 2.8125 0"></path><path fill="none" stroke="rgb(160, 160, 160)" d="M 288 108 L 324 108" stroke-width="1" stroke-dasharray="2.8125 3.375 5.625 3.375 5.625 3.375 5.625 3.375 2.8125 0"></path><path fill="none" stroke="rgb(160, 160, 160)" d="M 324 108 L 360 108" stroke-width="1" stroke-dasharray="2.8125 3.375 5.625 3.375 5.625 3.375 5.625 3.375 2.8125 0"></path><path fill="none" stroke="rgb(160, 160, 160)" d="M 36 108 L 36 144" stroke-width="1" stroke-dasharray="2.8125 3.375 5.625 3.375 5.625 3.375 5.625 3.375 2.8125 0"></path><path fill="none" stroke="rgb(160, 160, 160)" d="M 72 108 L 72 144" stroke-width="1" stroke-dasharray="2.8125 3.375 5.625 3.375 5.625 3.375 5.625 3.375 2.8125 0"></path><path fill="none" stroke="rgb(160, 160, 160)" d="M 180 108 L 180 144" stroke-width="1" stroke-dasharray="2.8125 3.375 5.625 3.375 5.625 3.375 5.625 3.375 2.8125 0"></path><path fill="none" stroke="rgb(160, 160, 160)" d="M 288 108 L 288 144" stroke-width="1" stroke-dasharray="2.8125 3.375 5.625 3.375 5.625 3.375 5.625 3.375 2.8125 0"></path><path fill="none" stroke="rgb(160, 160, 160)" d="M 324 108 L 324 144" stroke-width="1" stroke-dasharray="2.8125 3.375 5.625 3.375 5.625 3.375 5.625 3.375 2.8125 0"></path><path fill="none" stroke="rgb(160, 160, 160)" d="M 0 144 L 36 144" stroke-width="1" stroke-dasharray="2.8125 3.375 5.625 3.375 5.625 3.375 5.625 3.375 2.8125 0"></path><path fill="none" stroke="rgb(160, 160, 160)" d="M 36 144 L 72 144" stroke-width="1" stroke-dasharray="2.8125 3.375 5.625 3.375 5.625 3.375 5.625 3.375 2.8125 0"></path><path fill="none" stroke="rgb(160, 160, 160)" d="M 144 144 L 180 144" stroke-width="1" stroke-dasharray="2.8125 3.375 5.625 3.375 5.625 3.375 5.625 3.375 2.8125 0"></path><path fill="none" stroke="rgb(160, 160, 160)" d="M 180 144 L 216 144" stroke-width="1" stroke-dasharray="2.8125 3.375 5.625 3.375 5.625 3.375 5.625 3.375 2.8125 0"></path><path fill="none" stroke="rgb(160, 160, 160)" d="M 288 144 L 324 144" stroke-width="1" stroke-dasharray="2.8125 3.375 5.625 3.375 5.625 3.375 5.625 3.375 2.8125 0"></path><path fill="none" stroke="rgb(160, 160, 160)" d="M 324 144 L 360 144" stroke-width="1" stroke-dasharray="2.8125 3.375 5.625 3.375 5.625 3.375 5.625 3.375 2.8125 0"></path><path fill="none" stroke="rgb(160, 160, 160)" d="M 36 144 L 36 180" stroke-width="1" stroke-dasharray="2.8125 3.375 5.625 3.375 5.625 3.375 5.625 3.375 2.8125 0"></path><path fill="none" stroke="rgb(160, 160, 160)" d="M 144 144 L 144 180" stroke-width="1" stroke-dasharray="2.8125 3.375 5.625 3.375 5.625 3.375 5.625 3.375 2.8125 0"></path><path fill="none" stroke="rgb(160, 160, 160)" d="M 180 144 L 180 180" stroke-width="1" stroke-dasharray="2.8125 3.375 5.625 3.375 5.625 3.375 5.625 3.375 2.8125 0"></path><path fill="none" stroke="rgb(160, 160, 160)" d="M 216 144 L 216 180" stroke-width="1" stroke-dasharray="2.8125 3.375 5.625 3.375 5.625 3.375 5.625 3.375 2.8125 0"></path><path fill="none" stroke="rgb(160, 160, 160)" d="M 324 144 L 324 180" stroke-width="1" stroke-dasharray="2.8125 3.375 5.625 3.375 5.625 3.375 5.625 3.375 2.8125 0"></path><path fill="none" stroke="rgb(160, 160, 160)" d="M 0 180 L 36 180" stroke-width="1" stroke-dasharray="2.8125 3.375 5.625 3.375 5.625 3.375 5.625 3.375 2.8125 0"></path><path fill="none" stroke="rgb(160, 160, 160)" d="M 108 180 L 144 180" stroke-width="1" stroke-dasharray="2.8125 3.375 5.625 3.375 5.625 3.375 5.625 3.375 2.8125 0"></path><path fill="none" stroke="rgb(160, 160, 160)" d="M 144 180 L 180 180" stroke-width="1" stroke-dasharray="2.8125 3.375 5.625 3.375 5.625 3.375 5.625 3.375 2.8125 0"></path><path fill="none" stroke="rgb(160, 160, 160)" d="M 180 180 L 216 180" stroke-width="1" stroke-dasharray="2.8125 3.375 5.625 3.375 5.625 3.375 5.625 3.375 2.8125 0"></path><path fill="none" stroke="rgb(160, 160, 160)" d="M 216 180 L 252 180" stroke-width="1" stroke-dasharray="2.8125 3.375 5.625 3.375 5.625 3.375 5.625 3.375 2.8125 0"></path><path fill="none" stroke="rgb(160, 160, 160)" d="M 288 180 L 324 180" stroke-width="1" stroke-dasharray="2.8125 3.375 5.625 3.375 5.625 3.375 5.625 3.375 2.8125 0"></path><path fill="none" stroke="rgb(160, 160, 160)" d="M 324 180 L 360 180" stroke-width="1" stroke-dasharray="2.8125 3.375 5.625 3.375 5.625 3.375 5.625 3.375 2.8125 0"></path><path fill="none" stroke="rgb(160, 160, 160)" d="M 108 180 L 108 216" stroke-width="1" stroke-dasharray="2.8125 3.375 5.625 3.375 5.625 3.375 5.625 3.375 2.8125 0"></path><path fill="none" stroke="rgb(160, 160, 160)" d="M 144 180 L 144 216" stroke-width="1" stroke-dasharray="2.8125 3.375 5.625 3.375 5.625 3.375 5.625 3.375 2.8125 0"></path><path fill="none" stroke="rgb(160, 160, 160)" d="M 180 180 L 180 216" stroke-width="1" stroke-dasharray="2.8125 3.375 5.625 3.375 5.625 3.375 5.625 3.375 2.8125 0"></path><path fill="none" stroke="rgb(160, 160, 160)" d="M 216 180 L 216 216" stroke-width="1" stroke-dasharray="2.8125 3.375 5.625 3.375 5.625 3.375 5.625 3.375 2.8125 0"></path><path fill="none" stroke="rgb(160, 160, 160)" d="M 252 180 L 252 216" stroke-width="1" stroke-dasharray="2.8125 3.375 5.625 3.375 5.625 3.375 5.625 3.375 2.8125 0"></path><path fill="none" stroke="rgb(160, 160, 160)" d="M 288 180 L 288 216" stroke-width="1" stroke-dasharray="2.8125 3.375 5.625 3.375 5.625 3.375 5.625 3.375 2.8125 0"></path><path fill="none" stroke="rgb(160, 160, 160)" d="M 324 180 L 324 216" stroke-width="1" stroke-dasharray="2.8125 3.375 5.625 3.375 5.625 3.375 5.625 3.375 2.8125 0"></path><path fill="none" stroke="rgb(160, 160, 160)" d="M 0 216 L 36 216" stroke-width="1" stroke-dasharray="2.8125 3.375 5.625 3.375 5.625 3.375 5.625 3.375 2.8125 0"></path><path fill="none" stroke="rgb(160, 160, 160)" d="M 108 216 L 144 216" stroke-width="1" stroke-dasharray="2.8125 3.375 5.625 3.375 5.625 3.375 5.625 3.375 2.8125 0"></path><path fill="none" stroke="rgb(160, 160, 160)" d="M 144 216 L 180 216" stroke-width="1" stroke-dasharray="2.8125 3.375 5.625 3.375 5.625 3.375 5.625 3.375 2.8125 0"></path><path fill="none" stroke="rgb(160, 160, 160)" d="M 180 216 L 216 216" stroke-width="1" stroke-dasharray="2.8125 3.375 5.625 3.375 5.625 3.375 5.625 3.375 2.8125 0"></path><path fill="none" stroke="rgb(160, 160, 160)" d="M 252 216 L 288 216" stroke-width="1" stroke-dasharray="2.8125 3.375 5.625 3.375 5.625 3.375 5.625 3.375 2.8125 0"></path><path fill="none" stroke="rgb(160, 160, 160)" d="M 324 216 L 360 216" stroke-width="1" stroke-dasharray="2.8125 3.375 5.625 3.375 5.625 3.375 5.625 3.375 2.8125 0"></path><path fill="none" stroke="rgb(160, 160, 160)" d="M 36 216 L 36 252" stroke-width="1" stroke-dasharray="2.8125 3.375 5.625 3.375 5.625 3.375 5.625 3.375 2.8125 0"></path><path fill="none" stroke="rgb(160, 160, 160)" d="M 144 216 L 144 252" stroke-width="1" stroke-dasharray="2.8125 3.375 5.625 3.375 5.625 3.375 5.625 3.375 2.8125 0"></path><path fill="none" stroke="rgb(160, 160, 160)" d="M 180 216 L 180 252" stroke-width="1" stroke-dasharray="2.8125 3.375 5.625 3.375 5.625 3.375 5.625 3.375 2.8125 0"></path><path fill="none" stroke="rgb(160, 160, 160)" d="M 0 252 L 36 252" stroke-width="1" stroke-dasharray="2.8125 3.375 5.625 3.375 5.625 3.375 5.625 3.375 2.8125 0"></path><path fill="none" stroke="rgb(160, 160, 160)" d="M 144 252 L 180 252" stroke-width="1" stroke-dasharray="2.8125 3.375 5.625 3.375 5.625 3.375 5.625 3.375 2.8125 0"></path><path fill="none" stroke="rgb(160, 160, 160)" d="M 180 252 L 216 252" stroke-width="1" stroke-dasharray="2.8125 3.375 5.625 3.375 5.625 3.375 5.625 3.375 2.8125 0"></path><path fill="none" stroke="rgb(160, 160, 160)" d="M 324 252 L 360 252" stroke-width="1" stroke-dasharray="2.8125 3.375 5.625 3.375 5.625 3.375 5.625 3.375 2.8125 0"></path><path fill="none" stroke="rgb(160, 160, 160)" d="M 180 252 L 180 288" stroke-width="1" stroke-dasharray="2.8125 3.375 5.625 3.375 5.625 3.375 5.625 3.375 2.8125 0"></path><path fill="none" stroke="rgb(160, 160, 160)" d="M 216 252 L 216 288" stroke-width="1" stroke-dasharray="2.8125 3.375 5.625 3.375 5.625 3.375 5.625 3.375 2.8125 0"></path><path fill="none" stroke="rgb(160, 160, 160)" d="M 324 252 L 324 288" stroke-width="1" stroke-dasharray="2.8125 3.375 5.625 3.375 5.625 3.375 5.625 3.375 2.8125 0"></path><path fill="none" stroke="rgb(160, 160, 160)" d="M 0 288 L 36 288" stroke-width="1" stroke-dasharray="2.8125 3.375 5.625 3.375 5.625 3.375 5.625 3.375 2.8125 0"></path><path fill="none" stroke="rgb(160, 160, 160)" d="M 72 288 L 108 288" stroke-width="1" stroke-dasharray="2.8125 3.375 5.625 3.375 5.625 3.375 5.625 3.375 2.8125 0"></path><path fill="none" stroke="rgb(160, 160, 160)" d="M 144 288 L 180 288" stroke-width="1" stroke-dasharray="2.8125 3.375 5.625 3.375 5.625 3.375 5.625 3.375 2.8125 0"></path><path fill="none" stroke="rgb(160, 160, 160)" d="M 180 288 L 216 288" stroke-width="1" stroke-dasharray="2.8125 3.375 5.625 3.375 5.625 3.375 5.625 3.375 2.8125 0"></path><path fill="none" stroke="rgb(160, 160, 160)" d="M 288 288 L 324 288" stroke-width="1" stroke-dasharray="2.8125 3.375 5.625 3.375 5.625 3.375 5.625 3.375 2.8125 0"></path><path fill="none" stroke="rgb(160, 160, 160)" d="M 324 288 L 360 288" stroke-width="1" stroke-dasharray="2.8125 3.375 5.625 3.375 5.625 3.375 5.625 3.375 2.8125 0"></path><path fill="none" stroke="rgb(160, 160, 160)" d="M 36 288 L 36 324" stroke-width="1" stroke-dasharray="2.8125 3.375 5.625 3.375 5.625 3.375 5.625 3.375 2.8125 0"></path><path fill="none" stroke="rgb(160, 160, 160)" d="M 72 288 L 72 324" stroke-width="1" stroke-dasharray="2.8125 3.375 5.625 3.375 5.625 3.375 5.625 3.375 2.8125 0"></path><path fill="none" stroke="rgb(160, 160, 160)" d="M 108 288 L 108 324" stroke-width="1" stroke-dasharray="2.8125 3.375 5.625 3.375 5.625 3.375 5.625 3.375 2.8125 0"></path><path fill="none" stroke="rgb(160, 160, 160)" d="M 144 288 L 144 324" stroke-width="1" stroke-dasharray="2.8125 3.375 5.625 3.375 5.625 3.375 5.625 3.375 2.8125 0"></path><path fill="none" stroke="rgb(160, 160, 160)" d="M 180 288 L 180 324" stroke-width="1" stroke-dasharray="2.8125 3.375 5.625 3.375 5.625 3.375 5.625 3.375 2.8125 0"></path><path fill="none" stroke="rgb(160, 160, 160)" d="M 288 288 L 288 324" stroke-width="1" stroke-dasharray="2.8125 3.375 5.625 3.375 5.625 3.375 5.625 3.375 2.8125 0"></path><path fill="none" stroke="rgb(160, 160, 160)" d="M 324 288 L 324 324" stroke-width="1" stroke-dasharray="2.8125 3.375 5.625 3.375 5.625 3.375 5.625 3.375 2.8125 0"></path><path fill="none" stroke="rgb(160, 160, 160)" d="M 0 324 L 36 324" stroke-width="1" stroke-dasharray="2.8125 3.375 5.625 3.375 5.625 3.375 5.625 3.375 2.8125 0"></path><path fill="none" stroke="rgb(160, 160, 160)" d="M 36 324 L 72 324" stroke-width="1" stroke-dasharray="2.8125 3.375 5.625 3.375 5.625 3.375 5.625 3.375 2.8125 0"></path><path fill="none" stroke="rgb(160, 160, 160)" d="M 72 324 L 108 324" stroke-width="1" stroke-dasharray="2.8125 3.375 5.625 3.375 5.625 3.375 5.625 3.375 2.8125 0"></path><path fill="none" stroke="rgb(160, 160, 160)" d="M 108 324 L 144 324" stroke-width="1" stroke-dasharray="2.8125 3.375 5.625 3.375 5.625 3.375 5.625 3.375 2.8125 0"></path><path fill="none" stroke="rgb(160, 160, 160)" d="M 144 324 L 180 324" stroke-width="1" stroke-dasharray="2.8125 3.375 5.625 3.375 5.625 3.375 5.625 3.375 2.8125 0"></path><path fill="none" stroke="rgb(160, 160, 160)" d="M 180 324 L 216 324" stroke-width="1" stroke-dasharray="2.8125 3.375 5.625 3.375 5.625 3.375 5.625 3.375 2.8125 0"></path><path fill="none" stroke="rgb(160, 160, 160)" d="M 252 324 L 288 324" stroke-width="1" stroke-dasharray="2.8125 3.375 5.625 3.375 5.625 3.375 5.625 3.375 2.8125 0"></path><path fill="none" stroke="rgb(160, 160, 160)" d="M 288 324 L 324 324" stroke-width="1" stroke-dasharray="2.8125 3.375 5.625 3.375 5.625 3.375 5.625 3.375 2.8125 0"></path><path fill="none" stroke="rgb(160, 160, 160)" d="M 324 324 L 360 324" stroke-width="1" stroke-dasharray="2.8125 3.375 5.625 3.375 5.625 3.375 5.625 3.375 2.8125 0"></path><path fill="none" stroke="rgb(160, 160, 160)" d="M 36 324 L 36 360" stroke-width="1" stroke-dasharray="2.8125 3.375 5.625 3.375 5.625 3.375 5.625 3.375 2.8125 0"></path><path fill="none" stroke="rgb(160, 160, 160)" d="M 72 324 L 72 360" stroke-width="1" stroke-dasharray="2.8125 3.375 5.625 3.375 5.625 3.375 5.625 3.375 2.8125 0"></path><path fill="none" stroke="rgb(160, 160, 160)" d="M 108 324 L 108 360" stroke-width="1" stroke-dasharray="2.8125 3.375 5.625 3.375 5.625 3.375 5.625 3.375 2.8125 0"></path><path fill="none" stroke="rgb(160, 160, 160)" d="M 144 324 L 144 360" stroke-width="1" stroke-dasharray="2.8125 3.375 5.625 3.375 5.625 3.375 5.625 3.375 2.8125 0"></path><path fill="none" stroke="rgb(160, 160, 160)" d="M 180 324 L 180 360" stroke-width="1" stroke-dasharray="2.8125 3.375 5.625 3.375 5.625 3.375 5.625 3.375 2.8125 0"></path><path fill="none" stroke="rgb(160, 160, 160)" d="M 216 324 L 216 360" stroke-width="1" stroke-dasharray="2.8125 3.375 5.625 3.375 5.625 3.375 5.625 3.375 2.8125 0"></path><path fill="none" stroke="rgb(160, 160, 160)" d="M 252 324 L 252 360" stroke-width="1" stroke-dasharray="2.8125 3.375 5.625 3.375 5.625 3.375 5.625 3.375 2.8125 0"></path><path fill="none" stroke="rgb(160, 160, 160)" d="M 288 324 L 288 360" stroke-width="1" stroke-dasharray="2.8125 3.375 5.625 3.375 5.625 3.375 5.625 3.375 2.8125 0"></path><path fill="none" stroke="rgb(160, 160, 160)" d="M 324 324 L 324 360" stroke-width="1" stroke-dasharray="2.8125 3.375 5.625 3.375 5.625 3.375 5.625 3.375 2.8125 0"></path></g><g shape-rendering="crispEdges"></g><g shape-rendering="crispEdges"><path fill="black" stroke="none" d="M -2 -2 L 38 -2 38 2 -2 2 z"></path><path fill="black" stroke="none" d="M 34 -2 L 74 -2 74 2 34 2 z"></path><path fill="black" stroke="none" d="M 70 -2 L 110 -2 110 2 70 2 z"></path><path fill="black" stroke="none" d="M 106 -2 L 146 -2 146 2 106 2 z"></path><path fill="black" stroke="none" d="M 142 -2 L 182 -2 182 2 142 2 z"></path><path fill="black" stroke="none" d="M 178 -2 L 218 -2 218 2 178 2 z"></path><path fill="black" stroke="none" d="M 214 -2 L 254 -2 254 2 214 2 z"></path><path fill="black" stroke="none" d="M 250 -2 L 290 -2 290 2 250 2 z"></path><path fill="black" stroke="none" d="M 286 -2 L 326 -2 326 2 286 2 z"></path><path fill="black" stroke="none" d="M 322 -2 L 362 -2 362 2 322 2 z"></path><path fill="black" stroke="none" d="M -2 -2 L 2 -2 2 38 -2 38 z"></path><path fill="black" stroke="none" d="M 358 -2 L 362 -2 362 38 358 38 z"></path><path fill="black" stroke="none" d="M 34 34 L 74 34 74 38 34 38 z"></path><path fill="black" stroke="none" d="M 142 34 L 182 34 182 38 142 38 z"></path><path fill="black" stroke="none" d="M 286 34 L 326 34 326 38 286 38 z"></path><path fill="black" stroke="none" d="M -2 34 L 2 34 2 74 -2 74 z"></path><path fill="black" stroke="none" d="M 34 34 L 38 34 38 74 34 74 z"></path><path fill="black" stroke="none" d="M 70 34 L 74 34 74 74 70 74 z"></path><path fill="black" stroke="none" d="M 142 34 L 146 34 146 74 142 74 z"></path><path fill="black" stroke="none" d="M 178 34 L 182 34 182 74 178 74 z"></path><path fill="black" stroke="none" d="M 286 34 L 290 34 290 74 286 74 z"></path><path fill="black" stroke="none" d="M 322 34 L 326 34 326 74 322 74 z"></path><path fill="black" stroke="none" d="M 358 34 L 362 34 362 74 358 74 z"></path><path fill="black" stroke="none" d="M 34 70 L 74 70 74 74 34 74 z"></path><path fill="black" stroke="none" d="M 142 70 L 182 70 182 74 142 74 z"></path><path fill="black" stroke="none" d="M 178 70 L 218 70 218 74 178 74 z"></path><path fill="black" stroke="none" d="M 286 70 L 326 70 326 74 286 74 z"></path><path fill="black" stroke="none" d="M -2 70 L 2 70 2 110 -2 110 z"></path><path fill="black" stroke="none" d="M 178 70 L 182 70 182 110 178 110 z"></path><path fill="black" stroke="none" d="M 214 70 L 218 70 218 110 214 110 z"></path><path fill="black" stroke="none" d="M 358 70 L 362 70 362 110 358 110 z"></path><path fill="black" stroke="none" d="M 106 106 L 146 106 146 110 106 110 z"></path><path fill="black" stroke="none" d="M 178 106 L 218 106 218 110 178 110 z"></path><path fill="black" stroke="none" d="M 214 106 L 254 106 254 110 214 110 z"></path><path fill="black" stroke="none" d="M -2 106 L 2 106 2 146 -2 146 z"></path><path fill="black" stroke="none" d="M 106 106 L 110 106 110 146 106 146 z"></path><path fill="black" stroke="none" d="M 142 106 L 146 106 146 146 142 146 z"></path><path fill="black" stroke="none" d="M 214 106 L 218 106 218 146 214 146 z"></path><path fill="black" stroke="none" d="M 250 106 L 254 106 254 146 250 146 z"></path><path fill="black" stroke="none" d="M 358 106 L 362 106 362 146 358 146 z"></path><path fill="black" stroke="none" d="M 70 142 L 110 142 110 146 70 146 z"></path><path fill="black" stroke="none" d="M 106 142 L 146 142 146 146 106 146 z"></path><path fill="black" stroke="none" d="M 214 142 L 254 142 254 146 214 146 z"></path><path fill="black" stroke="none" d="M 250 142 L 290 142 290 146 250 146 z"></path><path fill="black" stroke="none" d="M -2 142 L 2 142 2 182 -2 182 z"></path><path fill="black" stroke="none" d="M 70 142 L 74 142 74 182 70 182 z"></path><path fill="black" stroke="none" d="M 106 142 L 110 142 110 182 106 182 z"></path><path fill="black" stroke="none" d="M 250 142 L 254 142 254 182 250 182 z"></path><path fill="black" stroke="none" d="M 286 142 L 290 142 290 182 286 182 z"></path><path fill="black" stroke="none" d="M 358 142 L 362 142 362 182 358 182 z"></path><path fill="black" stroke="none" d="M 34 178 L 74 178 74 182 34 182 z"></path><path fill="black" stroke="none" d="M 70 178 L 110 178 110 182 70 182 z"></path><path fill="black" stroke="none" d="M 250 178 L 290 178 290 182 250 182 z"></path><path fill="black" stroke="none" d="M -2 178 L 2 178 2 218 -2 218 z"></path><path fill="black" stroke="none" d="M 34 178 L 38 178 38 218 34 218 z"></path><path fill="black" stroke="none" d="M 70 178 L 74 178 74 218 70 218 z"></path><path fill="black" stroke="none" d="M 358 178 L 362 178 362 218 358 218 z"></path><path fill="black" stroke="none" d="M 34 214 L 74 214 74 218 34 218 z"></path><path fill="black" stroke="none" d="M 70 214 L 110 214 110 218 70 218 z"></path><path fill="black" stroke="none" d="M 214 214 L 254 214 254 218 214 218 z"></path><path fill="black" stroke="none" d="M 286 214 L 326 214 326 218 286 218 z"></path><path fill="black" stroke="none" d="M -2 214 L 2 214 2 254 -2 254 z"></path><path fill="black" stroke="none" d="M 70 214 L 74 214 74 254 70 254 z"></path><path fill="black" stroke="none" d="M 106 214 L 110 214 110 254 106 254 z"></path><path fill="black" stroke="none" d="M 214 214 L 218 214 218 254 214 254 z"></path><path fill="black" stroke="none" d="M 250 214 L 254 214 254 254 250 254 z"></path><path fill="black" stroke="none" d="M 286 214 L 290 214 290 254 286 254 z"></path><path fill="black" stroke="none" d="M 322 214 L 326 214 326 254 322 254 z"></path><path fill="black" stroke="none" d="M 358 214 L 362 214 362 254 358 254 z"></path><path fill="black" stroke="none" d="M 34 250 L 74 250 74 254 34 254 z"></path><path fill="black" stroke="none" d="M 70 250 L 110 250 110 254 70 254 z"></path><path fill="black" stroke="none" d="M 106 250 L 146 250 146 254 106 254 z"></path><path fill="black" stroke="none" d="M 214 250 L 254 250 254 254 214 254 z"></path><path fill="black" stroke="none" d="M 250 250 L 290 250 290 254 250 254 z"></path><path fill="black" stroke="none" d="M 286 250 L 326 250 326 254 286 254 z"></path><path fill="black" stroke="none" d="M -2 250 L 2 250 2 290 -2 290 z"></path><path fill="black" stroke="none" d="M 34 250 L 38 250 38 290 34 290 z"></path><path fill="black" stroke="none" d="M 70 250 L 74 250 74 290 70 290 z"></path><path fill="black" stroke="none" d="M 106 250 L 110 250 110 290 106 290 z"></path><path fill="black" stroke="none" d="M 142 250 L 146 250 146 290 142 290 z"></path><path fill="black" stroke="none" d="M 250 250 L 254 250 254 290 250 290 z"></path><path fill="black" stroke="none" d="M 286 250 L 290 250 290 290 286 290 z"></path><path fill="black" stroke="none" d="M 358 250 L 362 250 362 290 358 290 z"></path><path fill="black" stroke="none" d="M 34 286 L 74 286 74 290 34 290 z"></path><path fill="black" stroke="none" d="M 106 286 L 146 286 146 290 106 290 z"></path><path fill="black" stroke="none" d="M 214 286 L 254 286 254 290 214 290 z"></path><path fill="black" stroke="none" d="M 250 286 L 290 286 290 290 250 290 z"></path><path fill="black" stroke="none" d="M -2 286 L 2 286 2 326 -2 326 z"></path><path fill="black" stroke="none" d="M 214 286 L 218 286 218 326 214 326 z"></path><path fill="black" stroke="none" d="M 250 286 L 254 286 254 326 250 326 z"></path><path fill="black" stroke="none" d="M 358 286 L 362 286 362 326 358 326 z"></path><path fill="black" stroke="none" d="M 214 322 L 254 322 254 326 214 326 z"></path><path fill="black" stroke="none" d="M -2 322 L 2 322 2 362 -2 362 z"></path><path fill="black" stroke="none" d="M 358 322 L 362 322 362 362 358 362 z"></path><path fill="black" stroke="none" d="M -2 358 L 38 358 38 362 -2 362 z"></path><path fill="black" stroke="none" d="M 34 358 L 74 358 74 362 34 362 z"></path><path fill="black" stroke="none" d="M 70 358 L 110 358 110 362 70 362 z"></path><path fill="black" stroke="none" d="M 106 358 L 146 358 146 362 106 362 z"></path><path fill="black" stroke="none" d="M 142 358 L 182 358 182 362 142 362 z"></path><path fill="black" stroke="none" d="M 178 358 L 218 358 218 362 178 362 z"></path><path fill="black" stroke="none" d="M 214 358 L 254 358 254 362 214 362 z"></path><path fill="black" stroke="none" d="M 250 358 L 290 358 290 362 250 362 z"></path><path fill="black" stroke="none" d="M 286 358 L 326 358 326 362 286 362 z"></path><path fill="black" stroke="none" d="M 322 358 L 362 358 362 362 322 362 z"></path></g><g shape-rendering="auto"></g><g shape-rendering="crispEdges"></g><g shape-rendering="crispEdges"><path fill="black" stroke="none" d="M -2 -2 L 2 -2 2 362 -2 362 z"></path><path fill="black" stroke="none" d="M 358 -2 L 362 -2 362 362 358 362 z"></path><path fill="black" stroke="none" d="M -2 -2 L 362 -2 362 2 -2 2 z"></path><path fill="black" stroke="none" d="M -2 358 L 362 358 362 362 -2 362 z"></path></g><g shape-rendering="crispEdges"></g></svg>