<?xml version="1.0" encoding="UTF-8"?>
<svg xmlns="http://www.w3.org/2000/svg" xmlns:xlink="http://www.w3.org/1999/xlink" font-size="10px" font-family="sans-serif" width="190" height="190" viewBox="-5.5 -5.5 190 190"><g shape-rendering="crispEdges"><path fill="white" stroke="none" d="M -0.5 -0.5 L 180.5 -0.5 180.5 180.5 -0.5 180.5 z"></path></g><g shape-rendering="crispEdges"><path fill="black" stroke="none" d="M 143.5 -0.5 L 180.5 -0.5 180.5 36.5 143.5 36.5 z"></path><path fill="black" stroke="none" d="M 71.5 35.5 L 108.5 35.5 108.5 72.5 71.5 72.5 z"></path><path fill="black" stroke="none" d="M 143.5 35.5 L 180.5 35.5 180.5 72.5 143.5 72.5 z"></path><path fill="black" stroke="none" d="M 71.5 71.5 L 108.5 71.5 108.5 108.5 71.5 108.5 z"></path><path fill="black" stroke="none" d="M -0.5 107.5 L 36.5 107.5 36.5 144.5 -0.5 144.5 z"></path><path fill="black" stroke="none" d="M 35.5 107.5 L 72.5 107.5 72.5 144.5 35.5 144.5 z"></path><path fill="black" stroke="none" d="M -0.5 143.5 L 36.5 143.5 36.5 180.5 -0.5 180.5 z"></path></g><g shape-rendering="crispEdges"><path fill="none" stroke="rgb(160, 160, 160)" d="M 36 0 L 36 36" stroke-width="1" stroke-dasharray="2.8125 3.375 5.625 3.375 5.625 3.375 5.625 3.375 2.8125 0"></path><path fill="none" stroke="rgb(160, 160, 160)" d="M 72 0 L 72 36" stroke-width="1" stroke-dasharray="2.8125 3.375 5.625 3.375 5.625 3.375 5.625 3.375 2.8125 0"></path><path fill="none" stroke="rgb(160, 160, 160)" d="M 108 0 L 108 36" stroke-width="1" stroke-dasharray="2.8125 3.375 5.625 3.375 5.625 3.375 5.625 3.375 2.8125 0"></path><path fill="none" stroke="rgb(160, 160, 160)" d="M 0 36 L 36 36" stroke-width="1" stroke-dasharray="2.8125 3.375 5.625 3.375 5.625 3.375 5.625 3.375 2.8125 0"></path><path fill="none" stroke="rgb(160, 160, 160)" d="M 36 36 L 72 36" stroke-width="1" stroke-dasharray="2.8125 3.375 5.625 3.375 5.625 3.375 5.625 3.375 2.8125 0"></path><path fill="none" stroke="rgb(160, 160, 160)" d="M 108 36 L 144 36" stroke-width="1" stroke-dasharray="2.8125 3.375 5.625 3.375 5.625 3.375 5.625 3.375 2.8125 0"></path><path fill="none" stroke="rgb(160, 160, 160)" d="M 36 36 L 36 72" stroke-width="1" stroke-dasharray="2.8125 3.375 5.625 3.375 5.625 3.375 5.625 3.375 2.8125 0"></path><path fill="none" stroke="rgb(160, 160, 160)" d="M 0 72 L 36 72" stroke-width="1" stroke-dasharray="2.8125 3.375 5.625 3.375 5.625 3.375 5.625 3.375 2.8125 0"></path><path fill="none" stroke="rgb(160, 160, 160)" d="M 36 72 L 72 72" stroke-width="1" stroke-dasharray="2.8125 3.375 5.625 3.375 5.625 3.375 5.625 3.375 2.8125 0"></path><path fill="none" stroke="rgb(160, 160, 160)" d="M 108 72 L 144 72" stroke-width="1" stroke-dasharray="2.8125 3.375 5.625 3.375 5.625 3.375 5.625 3.375 2.8125 0"></path><path fill="none" stroke="rgb(160, 160, 160)" d="M 36 72 L 36 108" stroke-width="1" stroke-dasharray="2.8125 3.375 5.625 3.375 5.625 3.375 5.625 3.375 2.8125 0"></path><path fill="none" stroke="rgb(160, 160, 160)" d="M 144 72 L 144 108" stroke-width="1" stroke-dasharray="2.8125 3.375 5.625 3.375 5.625 3.375 5.625 3.375 2.8125 0"></path><path fill="none" stroke="rgb(160, 160, 160)" d="M 108 108 L 144 108" stroke-width="1" stroke-dasharray="2.8125 3.375 5.625 3.375 5.625 3.375 5.625 3.375 2.8125 0"></path><path fill="none" stroke="rgb(160, 160, 160)" d="M 144 108 L 180 108" stroke-width="1" stroke-dasharray="2.8125 3.375 5.625 3.375 5.625 3.375 5.625 3.375 2.8125 0"></path><path fill="none" stroke="rgb(160, 160, 160)" d="M 108 108 L 108 144" stroke-width="1" stroke-dasharray="2.8125 3.375 5.625 3.375 5.625 3.375 5.625 3.375 2.8125 0"></path><path fill="none" stroke="rgb(160, 160, 160)" d="M 144 108 L 144 144" stroke-width="1" stroke-dasharray="2.8125 3.375 5.625 3.375 5.625 3.375 5.625 3.375 2.8125 0"></path><path fill="none" stroke="rgb(160, 160, 160)" d="M 72 144 L 108 144" stroke-width="1" stroke-dasharray="2.8125 3.375 5.625 3.375 5.625 3.375 5.625 3.375 2.8125 0"></path><path fill="none" stroke="rgb(160, 160, 160)" d="M 108 144 L 144 144" stroke-width="1" stroke-dasharray="2.8125 3.375 5.625 3.375 5.625 3.375 5.625 3.375 2.8125 0"></path><path fill="none" stroke="rgb(160, 160, 160)" d="M 144 144 L 180 144" stroke-width="1" stroke-dasharray="2.8125 3.375 5.625 3.375 5.625 3.375 5.625 3.375 2.8125 0"></path><path fill="none" stroke="rgb(160, 160, 160)" d="M 72 144 L 72 180" stroke-width="1" stroke-dasharray="2.8125 3.375 5.625 3.375 5.625 3.375 5.625 3.375 2.8125 0"></path><path fill="none" stroke="rgb(160, 160, 160)" d="M 108 144 L 108 180" stroke-width="1" stroke-dasharray="2.8125 3.375 5.625 3.375 5.625 3.375 5.625 3.375 2.8125 0"></path><path fill="none" stroke="rgb(160, 160, 160)" d="M 144 144 L 144 180" stroke-width="1" stroke-dasharray="2.8125 3.375 5.625 3.375 5.625 3.375 5.625 3.375 2.8125 0"></path></g><g shape-rendering="crispEdges"><path fill="rgb(0, 160, 0)" stroke="none" d="M 70 -2 L 74 -2 74 38 70 38 z"></path><path fill="rgb(0, 160, 0)" stroke="none" d="M 34 34 L 74 34 74 38 34 38 z"></path><path fill="rgb(0, 160, 0)" stroke="none" d="M 34 34 L 38 34 38 74 34 74 z"></path><path fill="rgb(0, 160, 0)" stroke="none" d="M -2 70 L 38 70 38 74 -2 74 z"></path><path fill="rgb(0, 160, 0)" stroke="none" d="M 106 70 L 146 70 146 74 106 74 z"></path><path fill="rgb(0, 160, 0)" stroke="none" d="M 142 70 L 146 70 146 110 142 110 z"></path><path fill="rgb(0, 160, 0)" stroke="none" d="M 142 106 L 146 106 146 146 142 146 z"></path><path fill="rgb(0, 160, 0)" stroke="none" d="M 70 142 L 110 142 110 146 70 146 z"></path><path fill="rgb(0, 160, 0)" stroke="none" d="M 106 142 L 146 142 146 146 106 146 z"></path><path fill="rgb(0, 160, 0)" stroke="none" d="M 142 142 L 146 142 146 182 142 182 z"></path></g><g shape-rendering="crispEdges"><path fill="black" stroke="none" d="M -2 -2 L 38 -2 38 2 -2 2 z"></path><path fill="black" stroke="none" d="M 34 -2 L 74 -2 74 2 34 2 z"></path><path fill="black" stroke="none" d="M 70 -2 L 110 -2 110 2 70 2 z"></path><path fill="black" stroke="none" d="M 106 -2 L 146 -2 146 2 106 2 z"></path><path fill="black" stroke="none" d="M -2 -2 L 2 -2 2 38 -2 38 z"></path><path fill="black" stroke="none" d="M 142 -2 L 146 -2 146 38 142 38 z"></path><path fill="black" stroke="none" d="M 70 34 L 110 34 110 38 70 38 z"></path><path fill="black" stroke="none" d="M -2 34 L 2 34 2 74 -2 74 z"></path><path fill="black" stroke="none" d="M 70 34 L 74 34 74 74 70 74 z"></path><path fill="black" stroke="none" d="M 106 34 L 110 34 110 74 106 74 z"></path><path fill="black" stroke="none" d="M 142 34 L 146 34 146 74 142 74 z"></path><path fill="black" stroke="none" d="M 142 70 L 182 70 182 74 142 74 z"></path><path fill="black" stroke="none" d="M -2 70 L 2 70 2 110 -2 110 z"></path><path fill="black" stroke="none" d="M 70 70 L 74 70 74 110 70 110 z"></path><path fill="black" stroke="none" d="M 106 70 L 110 70 110 110 106 110 z"></path><path fill="black" stroke="none" d="M 178 70 L 182 70 182 110 178 110 z"></path><path fill="black" stroke="none" d="M -2 106 L 38 106 38 110 -2 110 z"></path><path fill="black" stroke="none" d="M 34 106 L 74 106 74 110 34 110 z"></path><path fill="black" stroke="none" d="M 70 106 L 110 106 110 110 70 110 z"></path><path fill="black" stroke="none" d="M 70 106 L 74 106 74 146 70 146 z"></path><path fill="black" stroke="none" d="M 178 106 L 182 106 182 146 178 146 z"></path><path fill="black" stroke="none" d="M 34 142 L 74 142 74 146 34 146 z"></path><path fill="black" stroke="none" d="M 34 142 L 38 142 38 182 34 182 z"></path><path fill="black" stroke="none" d="M 178 142 L 182 142 182 182 178 182 z"></path><path fill="black" stroke="none" d="M 34 178 L 74 178 74 182 34 182 z"></path><path fill="black" stroke="none" d="M 70 178 L 110 178 110 182 70 182 z"></path><path fill="black" stroke="none" d="M 106 178 L 146 178 146 182 106 182 z"></path><path fill="black" stroke="none" d="M 142 178 L 182 178 182 182 142 182 z"></path></g><g shape-rendering="auto"></g><g shape-rendering="crispEdges"></g><g shape-rendering="crispEdges"><path fill="black" stroke="none" d="M -2 -2 L 2 -2 2 182 -2 182 z"></path><path fill="black" stroke="none" d="M 178 -2 L 182 -2 182 182 178 182 z"></path><path fill="black" stroke="none" d="M -2 -2 L 182 -2 182 2 -2 2 z"></path><path fill="black" stroke="none" d="M -2 178 L 182 178 182 182 -2 182 z"></path></g><g shape-rendering="crispEdges"></g></svg>