<?xml version="1.0" encoding="UTF-8"?>
<svg xmlns="http://www.w3.org/2000/svg" xmlns:xlink="http://www.w3.org/1999/xlink" font-size="10px" font-family="sans-serif" width="298" height="298" viewBox="-5.5 -5.5 298 298"><g shape-rendering="crispEdges"><path fill="white" stroke="none" d="M -0.5 -0.5 L 288.5 -0.5 288.5 288.5 -0.5 288.5 z"></path></g><g shape-rendering="crispEdges"></g><g shape-rendering="crispEdges"></g><g shape-rendering="crispEdges"><path fill="none" stroke="rgb(127, 127, 127)" d="M 36 0 L 36 288" stroke-width="1"></path><path fill="none" stroke="rgb(127, 127, 127)" d="M 72 0 L 72 288" stroke-width="1"></path><path fill="none" stroke="rgb(127, 127, 127)" d="M 108 0 L 108 288" stroke-width="1"></path><path fill="none" stroke="rgb(127, 127, 127)" d="M 144 0 L 144 288" stroke-width="1"></path><path fill="none" stroke="rgb(127, 127, 127)" d="M 180 0 L 180 288" stroke-width="1"></path><path fill="none" stroke="rgb(127, 127, 127)" d="M 216 0 L 216 288" stroke-width="1"></path><path fill="none" stroke="rgb(127, 127, 127)" d="M 252 0 L 252 288" stroke-width="1"></path><path fill="none" stroke="rgb(127, 127, 127)" d="M 0 36 L 288 36" stroke-width="1"></path><path fill="none" stroke="rgb(127, 127, 127)" d="M 0 72 L 288 72" stroke-width="1"></path><path fill="none" stroke="rgb(127, 127, 127)" d="M 0 108 L 288 108" stroke-width="1"></path><path fill="none" stroke="rgb(127, 127, 127)" d="M 0 144 L 288 144" stroke-width="1"></path><path fill="none" stroke="rgb(127, 127, 127)" d="M 0 180 L 288 180" stroke-width="1"></path><path fill="none" stroke="rgb(127, 127, 127)" d="M 0 216 L 288 216" stroke-width="1"></path><path fill="none" stroke="rgb(127, 127, 127)" d="M 0 252 L 288 252" stroke-width="1"></path></g><g shape-rendering="crispEdges"></g><g shape-rendering="auto"></g><g shape-rendering="auto"></g><g shape-rendering="auto"></g><g shape-rendering="auto"><text fill="black" x="18" y="27.799999999999997" text-anchor="middle" font-size="28">3</text><text fill="black" x="126" y="27.799999999999997" text-anchor="middle" font-size="28">3</text><text fill="black" x="198" y="63.8" text-anchor="middle" font-size="28">3</text><text fill="black" x="270" y="63.8" text-anchor="middle" font-size="28">1</text><text fill="black" x="54" y="99.8" text-anchor="middle" font-size="28">1</text><text fill="black" x="162" y="99.8" text-anchor="middle" font-size="28">?</text><text fill="black" x="234" y="99.8" text-anchor="middle" font-size="28">1</text><text fill="black" x="126" y="135.8" text-anchor="middle" font-size="28">?</text><text fill="black" x="162" y="135.8" text-anchor="middle" font-size="28">?</text><text fill="black" x="90" y="171.8" text-anchor="middle" font-size="28">?</text><text fill="black" x="270" y="171.8" text-anchor="middle" font-size="28">?</text><text fill="black" x="54" y="207.8" text-anchor="middle" font-size="28">3</text><text fill="black" x="198" y="207.8" text-anchor="middle" font-size="28">?</text><text fill="black" x="54" y="243.8" text-anchor="middle" font-size="28">3</text><text fill="black" x="90" y="243.8" text-anchor="middle" font-size="28">1</text><text fill="black" x="234" y="243.8" text-anchor="middle" font-size="28">3</text><text fill="black" x="234" y="279.8" text-anchor="middle" font-size="28">1</text></g><g shape-rendering="crispEdges"></g><g shape-rendering="crispEdges"><path fill="black" stroke="none" d="M -2 -2 L 2 -2 2 290 -2 290 z"></path><path fill="black" stroke="none" d="M 286 -2 L 290 -2 290 290 286 290 z"></path><path fill="black" stroke="none" d="M -2 -2 L 290 -2 290 2 -2 2 z"></path><path fill="black" stroke="none" d="M -2 286 L 290 286 290 290 -2 290 z"></path></g><g shape-rendering="crispEdges"></g></svg>