<?xml version="1.0" encoding="UTF-8"?>
<svg xmlns="http://www.w3.org/2000/svg" xmlns:xlink="http://www.w3.org/1999/xlink" font-size="10px" font-family="sans-serif" width="298" height="298" viewBox="-5.5 -5.5 298 298"><g shape-rendering="crispEdges"><path fill="white" stroke="none" d="M -0.5 -0.5 L 288.5 -0.5 288.5 288.5 -0.5 288.5 z"></path></g><g shape-rendering="crispEdges"></g><g shape-rendering="crispEdges"></g><g shape-rendering="crispEdges"><path fill="none" stroke="rgb(127, 127, 127)" d="M 36 0 L 36 288" stroke-width="1"></path><path fill="none" stroke="rgb(127, 127, 127)" d="M 72 0 L 72 288" stroke-width="1"></path><path fill="none" stroke="rgb(127, 127, 127)" d="M 108 0 L 108 288" stroke-width="1"></path><path fill="none" stroke="rgb(127, 127, 127)" d="M 144 0 L 144 288" stroke-width="1"></path><path fill="none" stroke="rgb(127, 127, 127)" d="M 180 0 L 180 288" stroke-width="1"></path><path fill="none" stroke="rgb(127, 127, 127)" d="M 216 0 L 216 288" stroke-width="1"></path><path fill="none" stroke="rgb(127, 127, 127)" d="M 252 0 L 252 288" stroke-width="1"></path><path fill="none" stroke="rgb(127, 127, 127)" d="M 0 36 L 288 36" stroke-width="1"></path><path fill="none" stroke="rgb(127, 127, 127)" d="M 0 72 L 288 72" stroke-width="1"></path><path fill="none" stroke="rgb(127, 127, 127)" d="M 0 108 L 288 108" stroke-width="1"></path><path fill="none" stroke="rgb(127, 127, 127)" d="M 0 144 L 288 144" stroke-width="1"></path><path fill="none" stroke="rgb(127, 127, 127)" d="M 0 180 L 288 180" stroke-width="1"></path><path fill="none" stroke="rgb(127, 127, 127)" d="M 0 216 L 288 216" stroke-width="1"></path><path fill="none" stroke="rgb(127, 127, 127)" d="M 0 252 L 288 252" stroke-width="1"></path></g><g shape-rendering="crispEdges"><path fill="black" stroke="none" d="M 35.5 -0.5 L 72.5 -0.5 72.5 36.5 35.5 36.5 z"></path><path fill="black" stroke="none" d="M 179.5 -0.5 L 216.5 -0.5 216.5 36.5 179.5 36.5 z"></path><path fill="black" stroke="none" d="M 71.5 35.5 L 108.5 35.5 108.5 72.5 71.5 72.5 z"></path><path fill="black" stroke="none" d="M -0.5 71.5 L 36.5 71.5 36.5 108.5 -0.5 108.5 z"></path><path fill="black" stroke="none" d="M 107.5 71.5 L 144.5 71.5 144.5 108.5 107.5 108.5 z"></path><path fill="black" stroke="none" d="M 107.5 143.5 L 144.5 143.5 144.5 180.5 107.5 180.5 z"></path><path fill="black" stroke="none" d="M 215.5 143.5 L 252.5 143.5 252.5 180.5 215.5 180.5 z"></path><path fill="black" stroke="none" d="M -0.5 179.5 L 36.5 179.5 36.5 216.5 -0.5 216.5 z"></path><path fill="black" stroke="none" d="M 143.5 179.5 L 180.5 179.5 180.5 216.5 143.5 216.5 z"></path><path fill="black" stroke="none" d="M 251.5 179.5 L 288.5 179.5 288.5 216.5 251.5 216.5 z"></path><path fill="black" stroke="none" d="M -0.5 251.5 L 36.5 251.5 36.5 288.5 -0.5 288.5 z"></path><path fill="black" stroke="none" d="M 71.5 251.5 L 108.5 251.5 108.5 288.5 71.5 288.5 z"></path><path fill="black" stroke="none" d="M 251.5 251.5 L 288.5 251.5 288.5 288.5 251.5 288.5 z"></path></g><g shape-rendering="auto"></g><g shape-rendering="auto"></g><g shape-rendering="auto"></g><g shape-rendering="auto"><text fill="black" x="18" y="27.799999999999997" text-anchor="middle" font-size="28">3</text><text fill="black" x="126" y="27.799999999999997" text-anchor="middle" font-size="28">3</text><text fill="black" x="198" y="63.8" text-anchor="middle" font-size="28">3</text><text fill="black" x="270" y="63.8" text-anchor="middle" font-size="28">1</text><text fill="black" x="54" y="99.8" text-anchor="middle" font-size="28">1</text><text fill="black" x="162" y="99.8" text-anchor="middle" font-size="28">?</text><text fill="black" x="234" y="99.8" text-anchor="middle" font-size="28">1</text><text fill="black" x="126" y="135.8" text-anchor="middle" font-size="28">?</text><text fill="black" x="162" y="135.8" text-anchor="middle" font-size="28">?</text><text fill="black" x="90" y="171.8" text-anchor="middle" font-size="28">?</text><text fill="black" x="270" y="171.8" text-anchor="middle" font-size="28">?</text><text fill="black" x="54" y="207.8" text-anchor="middle" font-size="28">3</text><text fill="black" x="198" y="207.8" text-anchor="middle" font-size="28">?</text><text fill="black" x="54" y="243.8" text-anchor="middle" font-size="28">3</text><text fill="black" x="90" y="243.8" text-anchor="middle" font-size="28">1</text><text fill="black" x="234" y="243.8" text-anchor="middle" font-size="28">3</text><text fill="black" x="234" y="279.8" text-anchor="middle" font-size="28">1</text></g><g shape-rendering="crispEdges"><path fill="black" stroke="none" d="M 34 -2 L 38 -2 38 38 34 38 z"></path><path fill="black" stroke="none" d="M 70 -2 L 74 -2 74 38 70 38 z"></path><path fill="black" stroke="none" d="M 178 -2 L 182 -2 182 38 178 38 z"></path><path fill="black" stroke="none" d="M 214 -2 L 218 -2 218 38 214 38 z"></path><path fill="black" stroke="none" d="M 34 34 L 74 34 74 38 34 38 z"></path><path fill="black" stroke="none" d="M 70 34 L 110 34 110 38 70 38 z"></path><path fill="black" stroke="none" d="M 106 34 L 146 34 146 38 106 38 z"></path><path fill="black" stroke="none" d="M 142 34 L 182 34 182 38 142 38 z"></path><path fill="black" stroke="none" d="M 178 34 L 218 34 218 38 178 38 z"></path><path fill="black" stroke="none" d="M 214 34 L 254 34 254 38 214 38 z"></path><path fill="black" stroke="none" d="M 70 34 L 74 34 74 74 70 74 z"></path><path fill="black" stroke="none" d="M 106 34 L 110 34 110 74 106 74 z"></path><path fill="black" stroke="none" d="M 214 34 L 218 34 218 74 214 74 z"></path><path fill="black" stroke="none" d="M 250 34 L 254 34 254 74 250 74 z"></path><path fill="black" stroke="none" d="M -2 70 L 38 70 38 74 -2 74 z"></path><path fill="black" stroke="none" d="M 34 70 L 74 70 74 74 34 74 z"></path><path fill="black" stroke="none" d="M 70 70 L 110 70 110 74 70 74 z"></path><path fill="black" stroke="none" d="M 106 70 L 146 70 146 74 106 74 z"></path><path fill="black" stroke="none" d="M 142 70 L 182 70 182 74 142 74 z"></path><path fill="black" stroke="none" d="M 178 70 L 218 70 218 74 178 74 z"></path><path fill="black" stroke="none" d="M 250 70 L 290 70 290 74 250 74 z"></path><path fill="black" stroke="none" d="M 34 70 L 38 70 38 110 34 110 z"></path><path fill="black" stroke="none" d="M 70 70 L 74 70 74 110 70 110 z"></path><path fill="black" stroke="none" d="M 106 70 L 110 70 110 110 106 110 z"></path><path fill="black" stroke="none" d="M 142 70 L 146 70 146 110 142 110 z"></path><path fill="black" stroke="none" d="M 214 70 L 218 70 218 110 214 110 z"></path><path fill="black" stroke="none" d="M 250 70 L 254 70 254 110 250 110 z"></path><path fill="black" stroke="none" d="M -2 106 L 38 106 38 110 -2 110 z"></path><path fill="black" stroke="none" d="M 106 106 L 146 106 146 110 106 110 z"></path><path fill="black" stroke="none" d="M 142 106 L 182 106 182 110 142 110 z"></path><path fill="black" stroke="none" d="M 70 106 L 74 106 74 146 70 146 z"></path><path fill="black" stroke="none" d="M 142 106 L 146 106 146 146 142 146 z"></path><path fill="black" stroke="none" d="M 178 106 L 182 106 182 146 178 146 z"></path><path fill="black" stroke="none" d="M 214 106 L 218 106 218 146 214 146 z"></path><path fill="black" stroke="none" d="M 250 106 L 254 106 254 146 250 146 z"></path><path fill="black" stroke="none" d="M -2 142 L 38 142 38 146 -2 146 z"></path><path fill="black" stroke="none" d="M 34 142 L 74 142 74 146 34 146 z"></path><path fill="black" stroke="none" d="M 70 142 L 110 142 110 146 70 146 z"></path><path fill="black" stroke="none" d="M 106 142 L 146 142 146 146 106 146 z"></path><path fill="black" stroke="none" d="M 178 142 L 218 142 218 146 178 146 z"></path><path fill="black" stroke="none" d="M 214 142 L 254 142 254 146 214 146 z"></path><path fill="black" stroke="none" d="M 106 142 L 110 142 110 182 106 182 z"></path><path fill="black" stroke="none" d="M 142 142 L 146 142 146 182 142 182 z"></path><path fill="black" stroke="none" d="M 214 142 L 218 142 218 182 214 182 z"></path><path fill="black" stroke="none" d="M 250 142 L 254 142 254 182 250 182 z"></path><path fill="black" stroke="none" d="M -2 178 L 38 178 38 182 -2 182 z"></path><path fill="black" stroke="none" d="M 34 178 L 74 178 74 182 34 182 z"></path><path fill="black" stroke="none" d="M 70 178 L 110 178 110 182 70 182 z"></path><path fill="black" stroke="none" d="M 106 178 L 146 178 146 182 106 182 z"></path><path fill="black" stroke="none" d="M 142 178 L 182 178 182 182 142 182 z"></path><path fill="black" stroke="none" d="M 178 178 L 218 178 218 182 178 182 z"></path><path fill="black" stroke="none" d="M 214 178 L 254 178 254 182 214 182 z"></path><path fill="black" stroke="none" d="M 250 178 L 290 178 290 182 250 182 z"></path><path fill="black" stroke="none" d="M 34 178 L 38 178 38 218 34 218 z"></path><path fill="black" stroke="none" d="M 142 178 L 146 178 146 218 142 218 z"></path><path fill="black" stroke="none" d="M 178 178 L 182 178 182 218 178 218 z"></path><path fill="black" stroke="none" d="M 214 178 L 218 178 218 218 214 218 z"></path><path fill="black" stroke="none" d="M 250 178 L 254 178 254 218 250 218 z"></path><path fill="black" stroke="none" d="M -2 214 L 38 214 38 218 -2 218 z"></path><path fill="black" stroke="none" d="M 34 214 L 74 214 74 218 34 218 z"></path><path fill="black" stroke="none" d="M 70 214 L 110 214 110 218 70 218 z"></path><path fill="black" stroke="none" d="M 106 214 L 146 214 146 218 106 218 z"></path><path fill="black" stroke="none" d="M 142 214 L 182 214 182 218 142 218 z"></path><path fill="black" stroke="none" d="M 250 214 L 290 214 290 218 250 218 z"></path><path fill="black" stroke="none" d="M 70 214 L 74 214 74 254 70 254 z"></path><path fill="black" stroke="none" d="M 142 214 L 146 214 146 254 142 254 z"></path><path fill="black" stroke="none" d="M 214 214 L 218 214 218 254 214 254 z"></path><path fill="black" stroke="none" d="M -2 250 L 38 250 38 254 -2 254 z"></path><path fill="black" stroke="none" d="M 70 250 L 110 250 110 254 70 254 z"></path><path fill="black" stroke="none" d="M 142 250 L 182 250 182 254 142 254 z"></path><path fill="black" stroke="none" d="M 178 250 L 218 250 218 254 178 254 z"></path><path fill="black" stroke="none" d="M 214 250 L 254 250 254 254 214 254 z"></path><path fill="black" stroke="none" d="M 250 250 L 290 250 290 254 250 254 z"></path><path fill="black" stroke="none" d="M 34 250 L 38 250 38 290 34 290 z"></path><path fill="black" stroke="none" d="M 70 250 L 74 250 74 290 70 290 z"></path><path fill="black" stroke="none" d="M 106 250 L 110 250 110 290 106 290 z"></path><path fill="black" stroke="none" d="M 142 250 L 146 250 146 290 142 290 z"></path><path fill="black" stroke="none" d="M 250 250 L 254 250 254 290 250 290 z"></path></g><g shape-rendering="crispEdges"><path fill="black" stroke="none" d="M -2 -2 L 2 -2 2 290 -2 290 z"></path><path fill="black" stroke="none" d="M 286 -2 L 290 -2 290 290 286 290 z"></path><path fill="black" stroke="none" d="M -2 -2 L 290 -2 290 2 -2 2 z"></path><path fill="black" stroke="none" d="M -2 286 L 290 286 290 290 -2 290 z"></path></g><g shape-rendering="crispEdges"></g></svg>