<?xml version="1.0" encoding="UTF-8"?>
<svg xmlns="http://www.w3.org/2000/svg" xmlns:xlink="http://www.w3.org/1999/xlink" font-size="10px" font-family="sans-serif" width="406" height="262" viewBox="-5.5 -5.5 406 262"><g shape-rendering="crispEdges"><path fill="white" stroke="none" d="M -0.5 -0.5 L 396.5 -0.5 396.5 252.5 -0.5 252.5 z"></path></g><g shape-rendering="crispEdges"></g><g shape-rendering="crispEdges"><path fill="black" stroke="none" d="M 107.5 -0.5 L 144.5 -0.5 144.5 36.5 107.5 36.5 z"></path><path fill="black" stroke="none" d="M 251.5 -0.5 L 288.5 -0.5 288.5 36.5 251.5 36.5 z"></path><path fill="black" stroke="none" d="M -0.5 35.5 L 36.5 35.5 36.5 72.5 -0.5 72.5 z"></path><path fill="black" stroke="none" d="M 359.5 35.5 L 396.5 35.5 396.5 72.5 359.5 72.5 z"></path><path fill="black" stroke="none" d="M -0.5 179.5 L 36.5 179.5 36.5 216.5 -0.5 216.5 z"></path><path fill="black" stroke="none" d="M 359.5 179.5 L 396.5 179.5 396.5 216.5 359.5 216.5 z"></path><path fill="black" stroke="none" d="M 107.5 215.5 L 144.5 215.5 144.5 252.5 107.5 252.5 z"></path><path fill="black" stroke="none" d="M 251.5 215.5 L 288.5 215.5 288.5 252.5 251.5 252.5 z"></path></g><g shape-rendering="crispEdges"><path fill="none" stroke="black" d="M 36 0 L 36 252" stroke-width="1"></path><path fill="none" stroke="black" d="M 72 0 L 72 252" stroke-width="1"></path><path fill="none" stroke="black" d="M 108 0 L 108 252" stroke-width="1"></path><path fill="none" stroke="black" d="M 144 0 L 144 252" stroke-width="1"></path><path fill="none" stroke="black" d="M 180 0 L 180 252" stroke-width="1"></path><path fill="none" stroke="black" d="M 216 0 L 216 252" stroke-width="1"></path><path fill="none" stroke="black" d="M 252 0 L 252 252" stroke-width="1"></path><path fill="none" stroke="black" d="M 288 0 L 288 252" stroke-width="1"></path><path fill="none" stroke="black" d="M 324 0 L 324 252" stroke-width="1"></path><path fill="none" stroke="black" d="M 360 0 L 360 252" stroke-width="1"></path><path fill="none" stroke="black" d="M 0 36 L 396 36" stroke-width="1"></path><path fill="none" stroke="black" d="M 0 72 L 396 72" stroke-width="1"></path><path fill="none" stroke="black" d="M 0 108 L 396 108" stroke-width="1"></path><path fill="none" stroke="black" d="M 0 144 L 396 144" stroke-width="1"></path><path fill="none" stroke="black" d="M 0 180 L 396 180" stroke-width="1"></path><path fill="none" stroke="black" d="M 0 216 L 396 216" stroke-width="1"></path></g><g shape-rendering="auto"><text fill="black" x="18" y="27.799999999999997" text-anchor="middle" font-size="28">2</text><text fill="black" x="198" y="27.799999999999997" text-anchor="middle" font-size="28">2</text><text fill="black" x="378" y="27.799999999999997" text-anchor="middle" font-size="28">2</text><text fill="black" x="90" y="63.8" text-anchor="middle" font-size="28">?</text><text fill="black" x="162" y="99.8" text-anchor="middle" font-size="28">0</text><text fill="black" x="198" y="99.8" text-anchor="middle" font-size="28">0</text><text fill="black" x="270" y="99.8" text-anchor="middle" font-size="28">?</text><text fill="black" x="306" y="99.8" text-anchor="middle" font-size="28">?</text><text fill="black" x="18" y="135.8" text-anchor="middle" font-size="28">2</text><text fill="black" x="126" y="135.8" text-anchor="middle" font-size="28">0</text><text fill="black" x="198" y="135.8" text-anchor="middle" font-size="28">0</text><text fill="black" x="234" y="135.8" text-anchor="middle" font-size="28">0</text><text fill="black" x="342" y="135.8" text-anchor="middle" font-size="28">?</text><text fill="black" x="378" y="135.8" text-anchor="middle" font-size="28">2</text><text fill="black" x="54" y="171.8" text-anchor="middle" font-size="28">0</text><text fill="black" x="90" y="171.8" text-anchor="middle" font-size="28">0</text><text fill="black" x="126" y="171.8" text-anchor="middle" font-size="28">0</text><text fill="black" x="234" y="171.8" text-anchor="middle" font-size="28">0</text><text fill="black" x="306" y="171.8" text-anchor="middle" font-size="28">?</text><text fill="black" x="90" y="207.8" text-anchor="middle" font-size="28">?</text><text fill="black" x="18" y="243.8" text-anchor="middle" font-size="28">2</text><text fill="black" x="198" y="243.8" text-anchor="middle" font-size="28">2</text><text fill="black" x="378" y="243.8" text-anchor="middle" font-size="28">2</text></g><g shape-rendering="crispEdges"><path fill="black" stroke="none" d="M 106 -2 L 110 -2 110 38 106 38 z"></path><path fill="black" stroke="none" d="M 142 -2 L 146 -2 146 38 142 38 z"></path><path fill="black" stroke="none" d="M 250 -2 L 254 -2 254 38 250 38 z"></path><path fill="black" stroke="none" d="M 286 -2 L 290 -2 290 38 286 38 z"></path><path fill="black" stroke="none" d="M -2 34 L 38 34 38 38 -2 38 z"></path><path fill="black" stroke="none" d="M 34 34 L 74 34 74 38 34 38 z"></path><path fill="black" stroke="none" d="M 70 34 L 110 34 110 38 70 38 z"></path><path fill="black" stroke="none" d="M 106 34 L 146 34 146 38 106 38 z"></path><path fill="black" stroke="none" d="M 142 34 L 182 34 182 38 142 38 z"></path><path fill="black" stroke="none" d="M 178 34 L 218 34 218 38 178 38 z"></path><path fill="black" stroke="none" d="M 214 34 L 254 34 254 38 214 38 z"></path><path fill="black" stroke="none" d="M 250 34 L 290 34 290 38 250 38 z"></path><path fill="black" stroke="none" d="M 286 34 L 326 34 326 38 286 38 z"></path><path fill="black" stroke="none" d="M 322 34 L 362 34 362 38 322 38 z"></path><path fill="black" stroke="none" d="M 358 34 L 398 34 398 38 358 38 z"></path><path fill="black" stroke="none" d="M 34 34 L 38 34 38 74 34 74 z"></path><path fill="black" stroke="none" d="M 142 34 L 146 34 146 74 142 74 z"></path><path fill="black" stroke="none" d="M 214 34 L 218 34 218 74 214 74 z"></path><path fill="black" stroke="none" d="M 250 34 L 254 34 254 74 250 74 z"></path><path fill="black" stroke="none" d="M 322 34 L 326 34 326 74 322 74 z"></path><path fill="black" stroke="none" d="M 358 34 L 362 34 362 74 358 74 z"></path><path fill="black" stroke="none" d="M -2 70 L 38 70 38 74 -2 74 z"></path><path fill="black" stroke="none" d="M 34 70 L 74 70 74 74 34 74 z"></path><path fill="black" stroke="none" d="M 70 70 L 110 70 110 74 70 74 z"></path><path fill="black" stroke="none" d="M 106 70 L 146 70 146 74 106 74 z"></path><path fill="black" stroke="none" d="M 178 70 L 218 70 218 74 178 74 z"></path><path fill="black" stroke="none" d="M 286 70 L 326 70 326 74 286 74 z"></path><path fill="black" stroke="none" d="M 358 70 L 398 70 398 74 358 74 z"></path><path fill="black" stroke="none" d="M 34 70 L 38 70 38 110 34 110 z"></path><path fill="black" stroke="none" d="M 70 70 L 74 70 74 110 70 110 z"></path><path fill="black" stroke="none" d="M 106 70 L 110 70 110 110 106 110 z"></path><path fill="black" stroke="none" d="M 142 70 L 146 70 146 110 142 110 z"></path><path fill="black" stroke="none" d="M 178 70 L 182 70 182 110 178 110 z"></path><path fill="black" stroke="none" d="M 250 70 L 254 70 254 110 250 110 z"></path><path fill="black" stroke="none" d="M 286 70 L 290 70 290 110 286 110 z"></path><path fill="black" stroke="none" d="M 358 70 L 362 70 362 110 358 110 z"></path><path fill="black" stroke="none" d="M 142 106 L 182 106 182 110 142 110 z"></path><path fill="black" stroke="none" d="M 178 106 L 218 106 218 110 178 110 z"></path><path fill="black" stroke="none" d="M 214 106 L 254 106 254 110 214 110 z"></path><path fill="black" stroke="none" d="M 250 106 L 290 106 290 110 250 110 z"></path><path fill="black" stroke="none" d="M 286 106 L 326 106 326 110 286 110 z"></path><path fill="black" stroke="none" d="M 322 106 L 362 106 362 110 322 110 z"></path><path fill="black" stroke="none" d="M 34 106 L 38 106 38 146 34 146 z"></path><path fill="black" stroke="none" d="M 70 106 L 74 106 74 146 70 146 z"></path><path fill="black" stroke="none" d="M 106 106 L 110 106 110 146 106 146 z"></path><path fill="black" stroke="none" d="M 178 106 L 182 106 182 146 178 146 z"></path><path fill="black" stroke="none" d="M 214 106 L 218 106 218 146 214 146 z"></path><path fill="black" stroke="none" d="M 322 106 L 326 106 326 146 322 146 z"></path><path fill="black" stroke="none" d="M 358 106 L 362 106 362 146 358 146 z"></path><path fill="black" stroke="none" d="M 106 142 L 146 142 146 146 106 146 z"></path><path fill="black" stroke="none" d="M 142 142 L 182 142 182 146 142 146 z"></path><path fill="black" stroke="none" d="M 214 142 L 254 142 254 146 214 146 z"></path><path fill="black" stroke="none" d="M 250 142 L 290 142 290 146 250 146 z"></path><path fill="black" stroke="none" d="M 286 142 L 326 142 326 146 286 146 z"></path><path fill="black" stroke="none" d="M 34 142 L 38 142 38 182 34 182 z"></path><path fill="black" stroke="none" d="M 70 142 L 74 142 74 182 70 182 z"></path><path fill="black" stroke="none" d="M 106 142 L 110 142 110 182 106 182 z"></path><path fill="black" stroke="none" d="M 178 142 L 182 142 182 182 178 182 z"></path><path fill="black" stroke="none" d="M 214 142 L 218 142 218 182 214 182 z"></path><path fill="black" stroke="none" d="M 286 142 L 290 142 290 182 286 182 z"></path><path fill="black" stroke="none" d="M 322 142 L 326 142 326 182 322 182 z"></path><path fill="black" stroke="none" d="M 358 142 L 362 142 362 182 358 182 z"></path><path fill="black" stroke="none" d="M -2 178 L 38 178 38 182 -2 182 z"></path><path fill="black" stroke="none" d="M 34 178 L 74 178 74 182 34 182 z"></path><path fill="black" stroke="none" d="M 70 178 L 110 178 110 182 70 182 z"></path><path fill="black" stroke="none" d="M 106 178 L 146 178 146 182 106 182 z"></path><path fill="black" stroke="none" d="M 250 178 L 290 178 290 182 250 182 z"></path><path fill="black" stroke="none" d="M 358 178 L 398 178 398 182 358 182 z"></path><path fill="black" stroke="none" d="M 34 178 L 38 178 38 218 34 218 z"></path><path fill="black" stroke="none" d="M 142 178 L 146 178 146 218 142 218 z"></path><path fill="black" stroke="none" d="M 178 178 L 182 178 182 218 178 218 z"></path><path fill="black" stroke="none" d="M 214 178 L 218 178 218 218 214 218 z"></path><path fill="black" stroke="none" d="M 250 178 L 254 178 254 218 250 218 z"></path><path fill="black" stroke="none" d="M 322 178 L 326 178 326 218 322 218 z"></path><path fill="black" stroke="none" d="M 358 178 L 362 178 362 218 358 218 z"></path><path fill="black" stroke="none" d="M -2 214 L 38 214 38 218 -2 218 z"></path><path fill="black" stroke="none" d="M 34 214 L 74 214 74 218 34 218 z"></path><path fill="black" stroke="none" d="M 70 214 L 110 214 110 218 70 218 z"></path><path fill="black" stroke="none" d="M 106 214 L 146 214 146 218 106 218 z"></path><path fill="black" stroke="none" d="M 142 214 L 182 214 182 218 142 218 z"></path><path fill="black" stroke="none" d="M 178 214 L 218 214 218 218 178 218 z"></path><path fill="black" stroke="none" d="M 214 214 L 254 214 254 218 214 218 z"></path><path fill="black" stroke="none" d="M 250 214 L 290 214 290 218 250 218 z"></path><path fill="black" stroke="none" d="M 286 214 L 326 214 326 218 286 218 z"></path><path fill="black" stroke="none" d="M 322 214 L 362 214 362 218 322 218 z"></path><path fill="black" stroke="none" d="M 358 214 L 398 214 398 218 358 218 z"></path><path fill="black" stroke="none" d="M 106 214 L 110 214 110 254 106 254 z"></path><path fill="black" stroke="none" d="M 142 214 L 146 214 146 254 142 254 z"></path><path fill="black" stroke="none" d="M 250 214 L 254 214 254 254 250 254 z"></path><path fill="black" stroke="none" d="M 286 214 L 290 214 290 254 286 254 z"></path></g><g shape-rendering="crispEdges"><path fill="black" stroke="none" d="M -2 -2 L 2 -2 2 254 -2 254 z"></path><path fill="black" stroke="none" d="M 394 -2 L 398 -2 398 254 394 254 z"></path><path fill="black" stroke="none" d="M -2 -2 L 398 -2 398 2 -2 2 z"></path><path fill="black" stroke="none" d="M -2 250 L 398 250 398 254 -2 254 z"></path></g><g shape-rendering="crispEdges"><path fill="none" stroke="rgb(96, 96, 96)" d="M 110.5 2.5 L 141.5 2.5 141.5 33.5 110.5 33.5 110.5 2.5" stroke-width="1"></path><path fill="none" stroke="rgb(96, 96, 96)" d="M 254.5 2.5 L 285.5 2.5 285.5 33.5 254.5 33.5 254.5 2.5" stroke-width="1"></path><path fill="none" stroke="rgb(96, 96, 96)" d="M 2.5 38.5 L 33.5 38.5 33.5 69.5 2.5 69.5 2.5 38.5" stroke-width="1"></path><path fill="none" stroke="rgb(96, 96, 96)" d="M 362.5 38.5 L 393.5 38.5 393.5 69.5 362.5 69.5 362.5 38.5" stroke-width="1"></path><path fill="none" stroke="rgb(96, 96, 96)" d="M 2.5 182.5 L 33.5 182.5 33.5 213.5 2.5 213.5 2.5 182.5" stroke-width="1"></path><path fill="none" stroke="rgb(96, 96, 96)" d="M 362.5 182.5 L 393.5 182.5 393.5 213.5 362.5 213.5 362.5 182.5" stroke-width="1"></path><path fill="none" stroke="rgb(96, 96, 96)" d="M 110.5 218.5 L 141.5 218.5 141.5 249.5 110.5 249.5 110.5 218.5" stroke-width="1"></path><path fill="none" stroke="rgb(96, 96, 96)" d="M 254.5 218.5 L 285.5 218.5 285.5 249.5 254.5 249.5 254.5 218.5" stroke-width="1"></path></g><g shape-rendering="crispEdges"></g></svg>