<?xml version="1.0" encoding="UTF-8"?>
<svg xmlns="http://www.w3.org/2000/svg" xmlns:xlink="http://www.w3.org/1999/xlink" font-size="10px" font-family="sans-serif" width="226" height="226" viewBox="-5.5 -5.5 226 226"><g shape-rendering="crispEdges"><path fill="white" stroke="none" d="M -0.5 -0.5 L 216.5 -0.5 216.5 216.5 -0.5 216.5 z"></path></g><g shape-rendering="crispEdges"></g><g shape-rendering="crispEdges"></g><g shape-rendering="crispEdges"><path fill="none" stroke="rgb(127, 127, 127)" d="M 36 0 L 36 216" stroke-width="1"></path><path fill="none" stroke="rgb(127, 127, 127)" d="M 72 0 L 72 216" stroke-width="1"></path><path fill="none" stroke="rgb(127, 127, 127)" d="M 108 0 L 108 216" stroke-width="1"></path><path fill="none" stroke="rgb(127, 127, 127)" d="M 144 0 L 144 216" stroke-width="1"></path><path fill="none" stroke="rgb(127, 127, 127)" d="M 180 0 L 180 216" stroke-width="1"></path><path fill="none" stroke="rgb(127, 127, 127)" d="M 0 36 L 216 36" stroke-width="1"></path><path fill="none" stroke="rgb(127, 127, 127)" d="M 0 72 L 216 72" stroke-width="1"></path><path fill="none" stroke="rgb(127, 127, 127)" d="M 0 108 L 216 108" stroke-width="1"></path><path fill="none" stroke="rgb(127, 127, 127)" d="M 0 144 L 216 144" stroke-width="1"></path><path fill="none" stroke="rgb(127, 127, 127)" d="M 0 180 L 216 180" stroke-width="1"></path></g><g shape-rendering="crispEdges"></g><g shape-rendering="auto"></g><g shape-rendering="auto"></g><g shape-rendering="auto"></g><g shape-rendering="auto"><text fill="black" x="54" y="27.799999999999997" text-anchor="middle" font-size="28">1</text><text fill="black" x="54" y="63.8" text-anchor="middle" font-size="28">3</text><text fill="black" x="90" y="63.8" text-anchor="middle" font-size="28">2</text><text fill="black" x="198" y="63.8" text-anchor="middle" font-size="28">2</text><text fill="black" x="126" y="99.8" text-anchor="middle" font-size="28">3</text><text fill="black" x="198" y="99.8" text-anchor="middle" font-size="28">1</text><text fill="black" x="126" y="171.8" text-anchor="middle" font-size="28">1</text><text fill="black" x="198" y="171.8" text-anchor="middle" font-size="28">1</text><text fill="black" x="18" y="207.8" text-anchor="middle" font-size="28">2</text><text fill="black" x="54" y="207.8" text-anchor="middle" font-size="28">3</text></g><g shape-rendering="crispEdges"></g><g shape-rendering="crispEdges"><path fill="black" stroke="none" d="M -2 -2 L 2 -2 2 218 -2 218 z"></path><path fill="black" stroke="none" d="M 214 -2 L 218 -2 218 218 214 218 z"></path><path fill="black" stroke="none" d="M -2 -2 L 218 -2 218 2 -2 2 z"></path><path fill="black" stroke="none" d="M -2 214 L 218 214 218 218 -2 218 z"></path></g><g shape-rendering="crispEdges"></g></svg>