<?xml version="1.0" encoding="UTF-8"?>
<svg xmlns="http://www.w3.org/2000/svg" xmlns:xlink="http://www.w3.org/1999/xlink" font-size="10px" font-family="sans-serif" width="226" height="226" viewBox="-5.5 -5.5 226 226"><g shape-rendering="crispEdges"><path fill="white" stroke="none" d="M -0.5 -0.5 L 216.5 -0.5 216.5 216.5 -0.5 216.5 z"></path></g><g shape-rendering="crispEdges"></g><g shape-rendering="crispEdges"></g><g shape-rendering="crispEdges"><path fill="none" stroke="rgb(127, 127, 127)" d="M 36 0 L 36 216" stroke-width="1"></path><path fill="none" stroke="rgb(127, 127, 127)" d="M 72 0 L 72 216" stroke-width="1"></path><path fill="none" stroke="rgb(127, 127, 127)" d="M 108 0 L 108 216" stroke-width="1"></path><path fill="none" stroke="rgb(127, 127, 127)" d="M 144 0 L 144 216" stroke-width="1"></path><path fill="none" stroke="rgb(127, 127, 127)" d="M 180 0 L 180 216" stroke-width="1"></path><path fill="none" stroke="rgb(127, 127, 127)" d="M 0 36 L 216 36" stroke-width="1"></path><path fill="none" stroke="rgb(127, 127, 127)" d="M 0 72 L 216 72" stroke-width="1"></path><path fill="none" stroke="rgb(127, 127, 127)" d="M 0 108 L 216 108" stroke-width="1"></path><path fill="none" stroke="rgb(127, 127, 127)" d="M 0 144 L 216 144" stroke-width="1"></path><path fill="none" stroke="rgb(127, 127, 127)" d="M 0 180 L 216 180" stroke-width="1"></path></g><g shape-rendering="crispEdges"><path fill="black" stroke="none" d="M 107.5 -0.5 L 144.5 -0.5 144.5 36.5 107.5 36.5 z"></path><path fill="black" stroke="none" d="M 143.5 35.5 L 180.5 35.5 180.5 72.5 143.5 72.5 z"></path><path fill="black" stroke="none" d="M -0.5 71.5 L 36.5 71.5 36.5 108.5 -0.5 108.5 z"></path><path fill="black" stroke="none" d="M 71.5 107.5 L 108.5 107.5 108.5 144.5 71.5 144.5 z"></path><path fill="black" stroke="none" d="M 35.5 143.5 L 72.5 143.5 72.5 180.5 35.5 180.5 z"></path><path fill="black" stroke="none" d="M 107.5 179.5 L 144.5 179.5 144.5 216.5 107.5 216.5 z"></path></g><g shape-rendering="auto"></g><g shape-rendering="auto"></g><g shape-rendering="auto"></g><g shape-rendering="auto"><text fill="black" x="54" y="27.799999999999997" text-anchor="middle" font-size="28">1</text><text fill="black" x="54" y="63.8" text-anchor="middle" font-size="28">3</text><text fill="black" x="90" y="63.8" text-anchor="middle" font-size="28">2</text><text fill="black" x="198" y="63.8" text-anchor="middle" font-size="28">2</text><text fill="black" x="126" y="99.8" text-anchor="middle" font-size="28">3</text><text fill="black" x="198" y="99.8" text-anchor="middle" font-size="28">1</text><text fill="black" x="126" y="171.8" text-anchor="middle" font-size="28">1</text><text fill="black" x="198" y="171.8" text-anchor="middle" font-size="28">1</text><text fill="black" x="18" y="207.8" text-anchor="middle" font-size="28">2</text><text fill="black" x="54" y="207.8" text-anchor="middle" font-size="28">3</text></g><g shape-rendering="crispEdges"><path fill="black" stroke="none" d="M 70 -2 L 74 -2 74 38 70 38 z"></path><path fill="black" stroke="none" d="M 106 -2 L 110 -2 110 38 106 38 z"></path><path fill="black" stroke="none" d="M 142 -2 L 146 -2 146 38 142 38 z"></path><path fill="black" stroke="none" d="M 34 34 L 74 34 74 38 34 38 z"></path><path fill="black" stroke="none" d="M 106 34 L 146 34 146 38 106 38 z"></path><path fill="black" stroke="none" d="M 142 34 L 182 34 182 38 142 38 z"></path><path fill="black" stroke="none" d="M 34 34 L 38 34 38 74 34 74 z"></path><path fill="black" stroke="none" d="M 70 34 L 74 34 74 74 70 74 z"></path><path fill="black" stroke="none" d="M 106 34 L 110 34 110 74 106 74 z"></path><path fill="black" stroke="none" d="M 142 34 L 146 34 146 74 142 74 z"></path><path fill="black" stroke="none" d="M 178 34 L 182 34 182 74 178 74 z"></path><path fill="black" stroke="none" d="M -2 70 L 38 70 38 74 -2 74 z"></path><path fill="black" stroke="none" d="M 142 70 L 182 70 182 74 142 74 z"></path><path fill="black" stroke="none" d="M 178 70 L 218 70 218 74 178 74 z"></path><path fill="black" stroke="none" d="M 34 70 L 38 70 38 110 34 110 z"></path><path fill="black" stroke="none" d="M 70 70 L 74 70 74 110 70 110 z"></path><path fill="black" stroke="none" d="M 106 70 L 110 70 110 110 106 110 z"></path><path fill="black" stroke="none" d="M 142 70 L 146 70 146 110 142 110 z"></path><path fill="black" stroke="none" d="M -2 106 L 38 106 38 110 -2 110 z"></path><path fill="black" stroke="none" d="M 70 106 L 110 106 110 110 70 110 z"></path><path fill="black" stroke="none" d="M 142 106 L 182 106 182 110 142 110 z"></path><path fill="black" stroke="none" d="M 34 106 L 38 106 38 146 34 146 z"></path><path fill="black" stroke="none" d="M 70 106 L 74 106 74 146 70 146 z"></path><path fill="black" stroke="none" d="M 106 106 L 110 106 110 146 106 146 z"></path><path fill="black" stroke="none" d="M 142 106 L 146 106 146 146 142 146 z"></path><path fill="black" stroke="none" d="M 178 106 L 182 106 182 146 178 146 z"></path><path fill="black" stroke="none" d="M 34 142 L 74 142 74 146 34 146 z"></path><path fill="black" stroke="none" d="M 70 142 L 110 142 110 146 70 146 z"></path><path fill="black" stroke="none" d="M 106 142 L 146 142 146 146 106 146 z"></path><path fill="black" stroke="none" d="M 178 142 L 218 142 218 146 178 146 z"></path><path fill="black" stroke="none" d="M 34 142 L 38 142 38 182 34 182 z"></path><path fill="black" stroke="none" d="M 70 142 L 74 142 74 182 70 182 z"></path><path fill="black" stroke="none" d="M 106 142 L 110 142 110 182 106 182 z"></path><path fill="black" stroke="none" d="M 178 142 L 182 142 182 182 178 182 z"></path><path fill="black" stroke="none" d="M 34 178 L 74 178 74 182 34 182 z"></path><path fill="black" stroke="none" d="M 106 178 L 146 178 146 182 106 182 z"></path><path fill="black" stroke="none" d="M 142 178 L 182 178 182 182 142 182 z"></path><path fill="black" stroke="none" d="M 34 178 L 38 178 38 218 34 218 z"></path><path fill="black" stroke="none" d="M 106 178 L 110 178 110 218 106 218 z"></path><path fill="black" stroke="none" d="M 142 178 L 146 178 146 218 142 218 z"></path></g><g shape-rendering="crispEdges"><path fill="black" stroke="none" d="M -2 -2 L 2 -2 2 218 -2 218 z"></path><path fill="black" stroke="none" d="M 214 -2 L 218 -2 218 218 214 218 z"></path><path fill="black" stroke="none" d="M -2 -2 L 218 -2 218 2 -2 2 z"></path><path fill="black" stroke="none" d="M -2 214 L 218 214 218 218 -2 218 z"></path></g><g shape-rendering="crispEdges"></g></svg>