<?xml version="1.0" encoding="UTF-8"?>
<svg xmlns="http://www.w3.org/2000/svg" xmlns:xlink="http://www.w3.org/1999/xlink" font-size="10px" font-family="sans-serif" width="262" height="262" viewBox="-5.5 -5.5 262 262"><g shape-rendering="crispEdges"><path fill="white" stroke="none" d="M -0.5 -0.5 L 252.5 -0.5 252.5 252.5 -0.5 252.5 z"></path></g><g shape-rendering="crispEdges"></g><g shape-rendering="crispEdges"><path fill="black" stroke="none" d="M 107.5 -0.5 L 144.5 -0.5 144.5 36.5 107.5 36.5 z"></path><path fill="black" stroke="none" d="M 143.5 -0.5 L 180.5 -0.5 180.5 36.5 143.5 36.5 z"></path><path fill="black" stroke="none" d="M 215.5 -0.5 L 252.5 -0.5 252.5 36.5 215.5 36.5 z"></path><path fill="black" stroke="none" d="M -0.5 35.5 L 36.5 35.5 36.5 72.5 -0.5 72.5 z"></path><path fill="black" stroke="none" d="M 71.5 35.5 L 108.5 35.5 108.5 72.5 71.5 72.5 z"></path><path fill="black" stroke="none" d="M 215.5 35.5 L 252.5 35.5 252.5 72.5 215.5 72.5 z"></path><path fill="black" stroke="none" d="M -0.5 71.5 L 36.5 71.5 36.5 108.5 -0.5 108.5 z"></path><path fill="black" stroke="none" d="M 71.5 71.5 L 108.5 71.5 108.5 108.5 71.5 108.5 z"></path><path fill="black" stroke="none" d="M 179.5 107.5 L 216.5 107.5 216.5 144.5 179.5 144.5 z"></path><path fill="black" stroke="none" d="M 107.5 143.5 L 144.5 143.5 144.5 180.5 107.5 180.5 z"></path><path fill="black" stroke="none" d="M 179.5 143.5 L 216.5 143.5 216.5 180.5 179.5 180.5 z"></path><path fill="black" stroke="none" d="M 107.5 179.5 L 144.5 179.5 144.5 216.5 107.5 216.5 z"></path><path fill="black" stroke="none" d="M -0.5 215.5 L 36.5 215.5 36.5 252.5 -0.5 252.5 z"></path><path fill="black" stroke="none" d="M 35.5 215.5 L 72.5 215.5 72.5 252.5 35.5 252.5 z"></path><path fill="black" stroke="none" d="M 143.5 215.5 L 180.5 215.5 180.5 252.5 143.5 252.5 z"></path><path fill="black" stroke="none" d="M 179.5 215.5 L 216.5 215.5 216.5 252.5 179.5 252.5 z"></path></g><g shape-rendering="crispEdges"><path fill="none" stroke="black" d="M 36 0 L 36 252" stroke-width="1"></path><path fill="none" stroke="black" d="M 72 0 L 72 252" stroke-width="1"></path><path fill="none" stroke="black" d="M 108 0 L 108 252" stroke-width="1"></path><path fill="none" stroke="black" d="M 144 0 L 144 252" stroke-width="1"></path><path fill="none" stroke="black" d="M 180 0 L 180 252" stroke-width="1"></path><path fill="none" stroke="black" d="M 216 0 L 216 252" stroke-width="1"></path><path fill="none" stroke="black" d="M 0 36 L 252 36" stroke-width="1"></path><path fill="none" stroke="black" d="M 0 72 L 252 72" stroke-width="1"></path><path fill="none" stroke="black" d="M 0 108 L 252 108" stroke-width="1"></path><path fill="none" stroke="black" d="M 0 144 L 252 144" stroke-width="1"></path><path fill="none" stroke="black" d="M 0 180 L 252 180" stroke-width="1"></path><path fill="none" stroke="black" d="M 0 216 L 252 216" stroke-width="1"></path></g><g shape-rendering="auto"><text fill="black" x="18" y="27.799999999999997" text-anchor="middle" font-size="28">3</text><text fill="black" x="198" y="27.799999999999997" text-anchor="middle" font-size="28">?</text><text fill="black" x="126" y="63.8" text-anchor="middle" font-size="28">?</text><text fill="black" x="54" y="99.8" text-anchor="middle" font-size="28">?</text><text fill="black" x="234" y="99.8" text-anchor="middle" font-size="28">?</text><text fill="black" x="162" y="135.8" text-anchor="middle" font-size="28">?</text><text fill="black" x="90" y="171.8" text-anchor="middle" font-size="28">?</text><text fill="black" x="234" y="171.8" text-anchor="middle" font-size="28">?</text><text fill="black" x="18" y="207.8" text-anchor="middle" font-size="28">?</text><text fill="black" x="198" y="207.8" text-anchor="middle" font-size="28">?</text><text fill="black" x="126" y="243.8" text-anchor="middle" font-size="28">3</text></g><g shape-rendering="crispEdges"><path fill="black" stroke="none" d="M 106 -2 L 110 -2 110 38 106 38 z"></path><path fill="black" stroke="none" d="M 178 -2 L 182 -2 182 38 178 38 z"></path><path fill="black" stroke="none" d="M 214 -2 L 218 -2 218 38 214 38 z"></path><path fill="black" stroke="none" d="M -2 34 L 38 34 38 38 -2 38 z"></path><path fill="black" stroke="none" d="M 34 34 L 74 34 74 38 34 38 z"></path><path fill="black" stroke="none" d="M 70 34 L 110 34 110 38 70 38 z"></path><path fill="black" stroke="none" d="M 106 34 L 146 34 146 38 106 38 z"></path><path fill="black" stroke="none" d="M 142 34 L 182 34 182 38 142 38 z"></path><path fill="black" stroke="none" d="M 34 34 L 38 34 38 74 34 74 z"></path><path fill="black" stroke="none" d="M 70 34 L 74 34 74 74 70 74 z"></path><path fill="black" stroke="none" d="M 106 34 L 110 34 110 74 106 74 z"></path><path fill="black" stroke="none" d="M 142 34 L 146 34 146 74 142 74 z"></path><path fill="black" stroke="none" d="M 214 34 L 218 34 218 74 214 74 z"></path><path fill="black" stroke="none" d="M 142 70 L 182 70 182 74 142 74 z"></path><path fill="black" stroke="none" d="M 178 70 L 218 70 218 74 178 74 z"></path><path fill="black" stroke="none" d="M 214 70 L 254 70 254 74 214 74 z"></path><path fill="black" stroke="none" d="M 34 70 L 38 70 38 110 34 110 z"></path><path fill="black" stroke="none" d="M 70 70 L 74 70 74 110 70 110 z"></path><path fill="black" stroke="none" d="M 106 70 L 110 70 110 110 106 110 z"></path><path fill="black" stroke="none" d="M 178 70 L 182 70 182 110 178 110 z"></path><path fill="black" stroke="none" d="M -2 106 L 38 106 38 110 -2 110 z"></path><path fill="black" stroke="none" d="M 70 106 L 110 106 110 110 70 110 z"></path><path fill="black" stroke="none" d="M 106 106 L 146 106 146 110 106 110 z"></path><path fill="black" stroke="none" d="M 142 106 L 182 106 182 110 142 110 z"></path><path fill="black" stroke="none" d="M 178 106 L 218 106 218 110 178 110 z"></path><path fill="black" stroke="none" d="M 34 106 L 38 106 38 146 34 146 z"></path><path fill="black" stroke="none" d="M 70 106 L 74 106 74 146 70 146 z"></path><path fill="black" stroke="none" d="M 178 106 L 182 106 182 146 178 146 z"></path><path fill="black" stroke="none" d="M 214 106 L 218 106 218 146 214 146 z"></path><path fill="black" stroke="none" d="M 34 142 L 74 142 74 146 34 146 z"></path><path fill="black" stroke="none" d="M 70 142 L 110 142 110 146 70 146 z"></path><path fill="black" stroke="none" d="M 106 142 L 146 142 146 146 106 146 z"></path><path fill="black" stroke="none" d="M 142 142 L 182 142 182 146 142 146 z"></path><path fill="black" stroke="none" d="M 214 142 L 254 142 254 146 214 146 z"></path><path fill="black" stroke="none" d="M 34 142 L 38 142 38 182 34 182 z"></path><path fill="black" stroke="none" d="M 106 142 L 110 142 110 182 106 182 z"></path><path fill="black" stroke="none" d="M 142 142 L 146 142 146 182 142 182 z"></path><path fill="black" stroke="none" d="M 178 142 L 182 142 182 182 178 182 z"></path><path fill="black" stroke="none" d="M 214 142 L 218 142 218 182 214 182 z"></path><path fill="black" stroke="none" d="M 70 178 L 110 178 110 182 70 182 z"></path><path fill="black" stroke="none" d="M 178 178 L 218 178 218 182 178 182 z"></path><path fill="black" stroke="none" d="M 34 178 L 38 178 38 218 34 218 z"></path><path fill="black" stroke="none" d="M 70 178 L 74 178 74 218 70 218 z"></path><path fill="black" stroke="none" d="M 106 178 L 110 178 110 218 106 218 z"></path><path fill="black" stroke="none" d="M 142 178 L 146 178 146 218 142 218 z"></path><path fill="black" stroke="none" d="M 214 178 L 218 178 218 218 214 218 z"></path><path fill="black" stroke="none" d="M -2 214 L 38 214 38 218 -2 218 z"></path><path fill="black" stroke="none" d="M 34 214 L 74 214 74 218 34 218 z"></path><path fill="black" stroke="none" d="M 106 214 L 146 214 146 218 106 218 z"></path><path fill="black" stroke="none" d="M 142 214 L 182 214 182 218 142 218 z"></path><path fill="black" stroke="none" d="M 178 214 L 218 214 218 218 178 218 z"></path><path fill="black" stroke="none" d="M 70 214 L 74 214 74 254 70 254 z"></path><path fill="black" stroke="none" d="M 142 214 L 146 214 146 254 142 254 z"></path><path fill="black" stroke="none" d="M 214 214 L 218 214 218 254 214 254 z"></path></g><g shape-rendering="crispEdges"><path fill="black" stroke="none" d="M -2 -2 L 2 -2 2 254 -2 254 z"></path><path fill="black" stroke="none" d="M 250 -2 L 254 -2 254 254 250 254 z"></path><path fill="black" stroke="none" d="M -2 -2 L 254 -2 254 2 -2 2 z"></path><path fill="black" stroke="none" d="M -2 250 L 254 250 254 254 -2 254 z"></path></g><g shape-rendering="crispEdges"><path fill="none" stroke="rgb(96, 96, 96)" d="M 110.5 2.5 L 141.5 2.5 144.5 2.5 M 144.5 33.5 L 141.5 33.5 110.5 33.5 110.5 2.5" stroke-width="1"></path><path fill="none" stroke="rgb(96, 96, 96)" d="M 146.5 2.5 L 177.5 2.5 177.5 33.5 146.5 33.5 143.5 33.5 M 143.5 2.5 L 146.5 2.5" stroke-width="1"></path><path fill="none" stroke="rgb(96, 96, 96)" d="M 218.5 2.5 L 249.5 2.5 249.5 33.5 249.5 36.5 M 218.5 36.5 L 218.5 33.5 218.5 2.5" stroke-width="1"></path><path fill="none" stroke="rgb(96, 96, 96)" d="M 2.5 38.5 L 33.5 38.5 33.5 69.5 33.5 72.5 M 2.5 72.5 L 2.5 69.5 2.5 38.5" stroke-width="1"></path><path fill="none" stroke="rgb(96, 96, 96)" d="M 74.5 38.5 L 105.5 38.5 105.5 69.5 105.5 72.5 M 74.5 72.5 L 74.5 69.5 74.5 38.5" stroke-width="1"></path><path fill="none" stroke="rgb(96, 96, 96)" d="M 218.5 38.5 L 218.5 35.5 M 249.5 35.5 L 249.5 38.5 249.5 69.5 218.5 69.5 218.5 38.5" stroke-width="1"></path><path fill="none" stroke="rgb(96, 96, 96)" d="M 2.5 74.5 L 2.5 71.5 M 33.5 71.5 L 33.5 74.5 33.5 105.5 2.5 105.5 2.5 74.5" stroke-width="1"></path><path fill="none" stroke="rgb(96, 96, 96)" d="M 74.5 74.5 L 74.5 71.5 M 105.5 71.5 L 105.5 74.5 105.5 105.5 74.5 105.5 74.5 74.5" stroke-width="1"></path><path fill="none" stroke="rgb(96, 96, 96)" d="M 182.5 110.5 L 213.5 110.5 213.5 141.5 213.5 144.5 M 182.5 144.5 L 182.5 141.5 182.5 110.5" stroke-width="1"></path><path fill="none" stroke="rgb(96, 96, 96)" d="M 110.5 146.5 L 141.5 146.5 141.5 177.5 141.5 180.5 M 110.5 180.5 L 110.5 177.5 110.5 146.5" stroke-width="1"></path><path fill="none" stroke="rgb(96, 96, 96)" d="M 182.5 146.5 L 182.5 143.5 M 213.5 143.5 L 213.5 146.5 213.5 177.5 182.5 177.5 182.5 146.5" stroke-width="1"></path><path fill="none" stroke="rgb(96, 96, 96)" d="M 110.5 182.5 L 110.5 179.5 M 141.5 179.5 L 141.5 182.5 141.5 213.5 110.5 213.5 110.5 182.5" stroke-width="1"></path><path fill="none" stroke="rgb(96, 96, 96)" d="M 2.5 218.5 L 33.5 218.5 36.5 218.5 M 36.5 249.5 L 33.5 249.5 2.5 249.5 2.5 218.5" stroke-width="1"></path><path fill="none" stroke="rgb(96, 96, 96)" d="M 38.5 218.5 L 69.5 218.5 69.5 249.5 38.5 249.5 35.5 249.5 M 35.5 218.5 L 38.5 218.5" stroke-width="1"></path><path fill="none" stroke="rgb(96, 96, 96)" d="M 146.5 218.5 L 177.5 218.5 180.5 218.5 M 180.5 249.5 L 177.5 249.5 146.5 249.5 146.5 218.5" stroke-width="1"></path><path fill="none" stroke="rgb(96, 96, 96)" d="M 182.5 218.5 L 213.5 218.5 213.5 249.5 182.5 249.5 179.5 249.5 M 179.5 218.5 L 182.5 218.5" stroke-width="1"></path></g><g shape-rendering="crispEdges"></g></svg>