<?xml version="1.0" encoding="UTF-8"?>
<svg xmlns="http://www.w3.org/2000/svg" xmlns:xlink="http://www.w3.org/1999/xlink" font-size="10px" font-family="sans-serif" width="262" height="262" viewBox="-5.5 -5.5 262 262"><g shape-rendering="crispEdges"><path fill="white" stroke="none" d="M -0.5 -0.5 L 252.5 -0.5 252.5 252.5 -0.5 252.5 z"></path></g><g shape-rendering="crispEdges"></g><g shape-rendering="crispEdges"></g><g shape-rendering="crispEdges"><path fill="none" stroke="black" d="M 36 0 L 36 252" stroke-width="1"></path><path fill="none" stroke="black" d="M 72 0 L 72 252" stroke-width="1"></path><path fill="none" stroke="black" d="M 108 0 L 108 252" stroke-width="1"></path><path fill="none" stroke="black" d="M 144 0 L 144 252" stroke-width="1"></path><path fill="none" stroke="black" d="M 180 0 L 180 252" stroke-width="1"></path><path fill="none" stroke="black" d="M 216 0 L 216 252" stroke-width="1"></path><path fill="none" stroke="black" d="M 0 36 L 252 36" stroke-width="1"></path><path fill="none" stroke="black" d="M 0 72 L 252 72" stroke-width="1"></path><path fill="none" stroke="black" d="M 0 108 L 252 108" stroke-width="1"></path><path fill="none" stroke="black" d="M 0 144 L 252 144" stroke-width="1"></path><path fill="none" stroke="black" d="M 0 180 L 252 180" stroke-width="1"></path><path fill="none" stroke="black" d="M 0 216 L 252 216" stroke-width="1"></path></g><g shape-rendering="auto"><text fill="black" x="18" y="27.799999999999997" text-anchor="middle" font-size="28">3</text><text fill="black" x="126" y="63.8" text-anchor="middle" font-size="28">?</text><text fill="black" x="198" y="63.8" text-anchor="middle" font-size="28">?</text><text fill="black" x="54" y="99.8" text-anchor="middle" font-size="28">?</text><text fill="black" x="162" y="135.8" text-anchor="middle" font-size="28">?</text><text fill="black" x="234" y="135.8" text-anchor="middle" font-size="28">?</text><text fill="black" x="90" y="171.8" text-anchor="middle" font-size="28">?</text><text fill="black" x="234" y="171.8" text-anchor="middle" font-size="28">?</text><text fill="black" x="18" y="207.8" text-anchor="middle" font-size="28">?</text><text fill="black" x="198" y="207.8" text-anchor="middle" font-size="28">?</text><text fill="black" x="126" y="243.8" text-anchor="middle" font-size="28">3</text></g><g shape-rendering="crispEdges"></g><g shape-rendering="crispEdges"><path fill="black" stroke="none" d="M -2 -2 L 2 -2 2 254 -2 254 z"></path><path fill="black" stroke="none" d="M 250 -2 L 254 -2 254 254 250 254 z"></path><path fill="black" stroke="none" d="M -2 -2 L 254 -2 254 2 -2 2 z"></path><path fill="black" stroke="none" d="M -2 250 L 254 250 254 254 -2 254 z"></path></g><g shape-rendering="crispEdges"></g><g shape-rendering="crispEdges"></g></svg>