<?xml version="1.0" encoding="UTF-8"?>
<svg xmlns="http://www.w3.org/2000/svg" xmlns:xlink="http://www.w3.org/1999/xlink" font-size="10px" font-family="sans-serif" width="226" height="226" viewBox="-41.5 -41.5 226 226"><g shape-rendering="crispEdges"><path fill="white" stroke="none" d="M -36.5 -36.5 L 180.5 -36.5 180.5 180.5 -36.5 180.5 z"></path></g><g shape-rendering="crispEdges"></g><g shape-rendering="crispEdges"></g><g shape-rendering="crispEdges"></g><g shape-rendering="auto"></g><g shape-rendering="crispEdges"></g><g shape-rendering="crispEdges"><path fill="none" stroke="rgb(127, 127, 127)" d="M 36 0 L 36 180" stroke-width="1"></path><path fill="none" stroke="rgb(127, 127, 127)" d="M 72 0 L 72 180" stroke-width="1"></path><path fill="none" stroke="rgb(127, 127, 127)" d="M 108 0 L 108 180" stroke-width="1"></path><path fill="none" stroke="rgb(127, 127, 127)" d="M 144 0 L 144 180" stroke-width="1"></path><path fill="none" stroke="rgb(127, 127, 127)" d="M 0 36 L 180 36" stroke-width="1"></path><path fill="none" stroke="rgb(127, 127, 127)" d="M 0 72 L 180 72" stroke-width="1"></path><path fill="none" stroke="rgb(127, 127, 127)" d="M 0 108 L 180 108" stroke-width="1"></path><path fill="none" stroke="rgb(127, 127, 127)" d="M 0 144 L 180 144" stroke-width="1"></path></g><g shape-rendering="crispEdges"></g><g shape-rendering="auto"></g><g shape-rendering="auto"></g><g shape-rendering="auto"><text fill="black" x="18" y="-8.200000000000001" text-anchor="middle" font-size="28">0</text><text fill="black" x="90" y="-8.200000000000001" text-anchor="middle" font-size="28">0</text><text fill="black" x="126" y="-8.200000000000001" text-anchor="middle" font-size="28">0</text><text fill="black" x="162" y="-8.200000000000001" text-anchor="middle" font-size="28">0</text><text fill="black" x="-18" y="99.8" text-anchor="middle" font-size="28">0</text></g><g shape-rendering="crispEdges"><path fill="black" stroke="none" d="M -2 -2 L 2 -2 2 182 -2 182 z"></path><path fill="black" stroke="none" d="M 178 -2 L 182 -2 182 182 178 182 z"></path><path fill="black" stroke="none" d="M -2 -2 L 182 -2 182 2 -2 2 z"></path><path fill="black" stroke="none" d="M -2 178 L 182 178 182 182 -2 182 z"></path></g><g shape-rendering="crispEdges"></g></svg>