<?xml version="1.0" encoding="UTF-8"?>
<svg xmlns="http://www.w3.org/2000/svg" xmlns:xlink="http://www.w3.org/1999/xlink" font-size="10px" font-family="sans-serif" width="262" height="262" viewBox="-5.5 -5.5 262 262"><g shape-rendering="crispEdges"><path fill="white" stroke="none" d="M -0.5 -0.5 L 252.5 -0.5 252.5 252.5 -0.5 252.5 z"></path></g><g shape-rendering="crispEdges"></g><g shape-rendering="crispEdges"><path fill="none" stroke="rgb(160, 160, 160)" d="M 36 0 L 36 36" stroke-width="1" stroke-dasharray="2.8125 3.375 5.625 3.375 5.625 3.375 5.625 3.375 2.8125 0"></path><path fill="none" stroke="rgb(160, 160, 160)" d="M 72 0 L 72 36" stroke-width="1" stroke-dasharray="2.8125 3.375 5.625 3.375 5.625 3.375 5.625 3.375 2.8125 0"></path><path fill="none" stroke="rgb(160, 160, 160)" d="M 108 0 L 108 36" stroke-width="1" stroke-dasharray="2.8125 3.375 5.625 3.375 5.625 3.375 5.625 3.375 2.8125 0"></path><path fill="none" stroke="rgb(160, 160, 160)" d="M 144 0 L 144 36" stroke-width="1" stroke-dasharray="2.8125 3.375 5.625 3.375 5.625 3.375 5.625 3.375 2.8125 0"></path><path fill="none" stroke="rgb(160, 160, 160)" d="M 180 0 L 180 36" stroke-width="1" stroke-dasharray="2.8125 3.375 5.625 3.375 5.625 3.375 5.625 3.375 2.8125 0"></path><path fill="none" stroke="rgb(160, 160, 160)" d="M 216 0 L 216 36" stroke-width="1" stroke-dasharray="2.8125 3.375 5.625 3.375 5.625 3.375 5.625 3.375 2.8125 0"></path><path fill="none" stroke="rgb(160, 160, 160)" d="M 0 36 L 36 36" stroke-width="1" stroke-dasharray="2.8125 3.375 5.625 3.375 5.625 3.375 5.625 3.375 2.8125 0"></path><path fill="none" stroke="rgb(160, 160, 160)" d="M 36 36 L 72 36" stroke-width="1" stroke-dasharray="2.8125 3.375 5.625 3.375 5.625 3.375 5.625 3.375 2.8125 0"></path><path fill="none" stroke="rgb(160, 160, 160)" d="M 72 36 L 108 36" stroke-width="1" stroke-dasharray="2.8125 3.375 5.625 3.375 5.625 3.375 5.625 3.375 2.8125 0"></path><path fill="none" stroke="rgb(160, 160, 160)" d="M 108 36 L 144 36" stroke-width="1" stroke-dasharray="2.8125 3.375 5.625 3.375 5.625 3.375 5.625 3.375 2.8125 0"></path><path fill="none" stroke="rgb(160, 160, 160)" d="M 144 36 L 180 36" stroke-width="1" stroke-dasharray="2.8125 3.375 5.625 3.375 5.625 3.375 5.625 3.375 2.8125 0"></path><path fill="none" stroke="rgb(160, 160, 160)" d="M 180 36 L 216 36" stroke-width="1" stroke-dasharray="2.8125 3.375 5.625 3.375 5.625 3.375 5.625 3.375 2.8125 0"></path><path fill="none" stroke="rgb(160, 160, 160)" d="M 216 36 L 252 36" stroke-width="1" stroke-dasharray="2.8125 3.375 5.625 3.375 5.625 3.375 5.625 3.375 2.8125 0"></path><path fill="none" stroke="rgb(160, 160, 160)" d="M 36 36 L 36 72" stroke-width="1" stroke-dasharray="2.8125 3.375 5.625 3.375 5.625 3.375 5.625 3.375 2.8125 0"></path><path fill="none" stroke="rgb(160, 160, 160)" d="M 72 36 L 72 72" stroke-width="1" stroke-dasharray="2.8125 3.375 5.625 3.375 5.625 3.375 5.625 3.375 2.8125 0"></path><path fill="none" stroke="rgb(160, 160, 160)" d="M 108 36 L 108 72" stroke-width="1" stroke-dasharray="2.8125 3.375 5.625 3.375 5.625 3.375 5.625 3.375 2.8125 0"></path><path fill="none" stroke="rgb(160, 160, 160)" d="M 144 36 L 144 72" stroke-width="1" stroke-dasharray="2.8125 3.375 5.625 3.375 5.625 3.375 5.625 3.375 2.8125 0"></path><path fill="none" stroke="rgb(160, 160, 160)" d="M 180 36 L 180 72" stroke-width="1" stroke-dasharray="2.8125 3.375 5.625 3.375 5.625 3.375 5.625 3.375 2.8125 0"></path><path fill="none" stroke="rgb(160, 160, 160)" d="M 216 36 L 216 72" stroke-width="1" stroke-dasharray="2.8125 3.375 5.625 3.375 5.625 3.375 5.625 3.375 2.8125 0"></path><path fill="none" stroke="rgb(160, 160, 160)" d="M 0 72 L 36 72" stroke-width="1" stroke-dasharray="2.8125 3.375 5.625 3.375 5.625 3.375 5.625 3.375 2.8125 0"></path><path fill="none" stroke="rgb(160, 160, 160)" d="M 36 72 L 72 72" stroke-width="1" stroke-dasharray="2.8125 3.375 5.625 3.375 5.625 3.375 5.625 3.375 2.8125 0"></path><path fill="none" stroke="rgb(160, 160, 160)" d="M 72 72 L 108 72" stroke-width="1" stroke-dasharray="2.8125 3.375 5.625 3.375 5.625 3.375 5.625 3.375 2.8125 0"></path><path fill="none" stroke="rgb(160, 160, 160)" d="M 108 72 L 144 72" stroke-width="1" stroke-dasharray="2.8125 3.375 5.625 3.375 5.625 3.375 5.625 3.375 2.8125 0"></path><path fill="none" stroke="rgb(160, 160, 160)" d="M 144 72 L 180 72" stroke-width="1" stroke-dasharray="2.8125 3.375 5.625 3.375 5.625 3.375 5.625 3.375 2.8125 0"></path><path fill="none" stroke="rgb(160, 160, 160)" d="M 180 72 L 216 72" stroke-width="1" stroke-dasharray="2.8125 3.375 5.625 3.375 5.625 3.375 5.625 3.375 2.8125 0"></path><path fill="none" stroke="rgb(160, 160, 160)" d="M 216 72 L 252 72" stroke-width="1" stroke-dasharray="2.8125 3.375 5.625 3.375 5.625 3.375 5.625 3.375 2.8125 0"></path><path fill="none" stroke="rgb(160, 160, 160)" d="M 36 72 L 36 108" stroke-width="1" stroke-dasharray="2.8125 3.375 5.625 3.375 5.625 3.375 5.625 3.375 2.8125 0"></path><path fill="none" stroke="rgb(160, 160, 160)" d="M 72 72 L 72 108" stroke-width="1" stroke-dasharray="2.8125 3.375 5.625 3.375 5.625 3.375 5.625 3.375 2.8125 0"></path><path fill="none" stroke="rgb(160, 160, 160)" d="M 108 72 L 108 108" stroke-width="1" stroke-dasharray="2.8125 3.375 5.625 3.375 5.625 3.375 5.625 3.375 2.8125 0"></path><path fill="none" stroke="rgb(160, 160, 160)" d="M 144 72 L 144 108" stroke-width="1" stroke-dasharray="2.8125 3.375 5.625 3.375 5.625 3.375 5.625 3.375 2.8125 0"></path><path fill="none" stroke="rgb(160, 160, 160)" d="M 180 72 L 180 108" stroke-width="1" stroke-dasharray="2.8125 3.375 5.625 3.375 5.625 3.375 5.625 3.375 2.8125 0"></path><path fill="none" stroke="rgb(160, 160, 160)" d="M 216 72 L 216 108" stroke-width="1" stroke-dasharray="2.8125 3.375 5.625 3.375 5.625 3.375 5.625 3.375 2.8125 0"></path><path fill="none" stroke="rgb(160, 160, 160)" d="M 0 108 L 36 108" stroke-width="1" stroke-dasharray="2.8125 3.375 5.625 3.375 5.625 3.375 5.625 3.375 2.8125 0"></path><path fill="none" stroke="rgb(160, 160, 160)" d="M 36 108 L 72 108" stroke-width="1" stroke-dasharray="2.8125 3.375 5.625 3.375 5.625 3.375 5.625 3.375 2.8125 0"></path><path fill="none" stroke="rgb(160, 160, 160)" d="M 72 108 L 108 108" stroke-width="1" stroke-dasharray="2.8125 3.375 5.625 3.375 5.625 3.375 5.625 3.375 2.8125 0"></path><path fill="none" stroke="rgb(160, 160, 160)" d="M 108 108 L 144 108" stroke-width="1" stroke-dasharray="2.8125 3.375 5.625 3.375 5.625 3.375 5.625 3.375 2.8125 0"></path><path fill="none" stroke="rgb(160, 160, 160)" d="M 144 108 L 180 108" stroke-width="1" stroke-dasharray="2.8125 3.375 5.625 3.375 5.625 3.375 5.625 3.375 2.8125 0"></path><path fill="none" stroke="rgb(160, 160, 160)" d="M 180 108 L 216 108" stroke-width="1" stroke-dasharray="2.8125 3.375 5.625 3.375 5.625 3.375 5.625 3.375 2.8125 0"></path><path fill="none" stroke="rgb(160, 160, 160)" d="M 216 108 L 252 108" stroke-width="1" stroke-dasharray="2.8125 3.375 5.625 3.375 5.625 3.375 5.625 3.375 2.8125 0"></path><path fill="none" stroke="rgb(160, 160, 160)" d="M 36 108 L 36 144" stroke-width="1" stroke-dasharray="2.8125 3.375 5.625 3.375 5.625 3.375 5.625 3.375 2.8125 0"></path><path fill="none" stroke="rgb(160, 160, 160)" d="M 72 108 L 72 144" stroke-width="1" stroke-dasharray="2.8125 3.375 5.625 3.375 5.625 3.375 5.625 3.375 2.8125 0"></path><path fill="none" stroke="rgb(160, 160, 160)" d="M 108 108 L 108 144" stroke-width="1" stroke-dasharray="2.8125 3.375 5.625 3.375 5.625 3.375 5.625 3.375 2.8125 0"></path><path fill="none" stroke="rgb(160, 160, 160)" d="M 144 108 L 144 144" stroke-width="1" stroke-dasharray="2.8125 3.375 5.625 3.375 5.625 3.375 5.625 3.375 2.8125 0"></path><path fill="none" stroke="rgb(160, 160, 160)" d="M 180 108 L 180 144" stroke-width="1" stroke-dasharray="2.8125 3.375 5.625 3.375 5.625 3.375 5.625 3.375 2.8125 0"></path><path fill="none" stroke="rgb(160, 160, 160)" d="M 216 108 L 216 144" stroke-width="1" stroke-dasharray="2.8125 3.375 5.625 3.375 5.625 3.375 5.625 3.375 2.8125 0"></path><path fill="none" stroke="rgb(160, 160, 160)" d="M 0 144 L 36 144" stroke-width="1" stroke-dasharray="2.8125 3.375 5.625 3.375 5.625 3.375 5.625 3.375 2.8125 0"></path><path fill="none" stroke="rgb(160, 160, 160)" d="M 36 144 L 72 144" stroke-width="1" stroke-dasharray="2.8125 3.375 5.625 3.375 5.625 3.375 5.625 3.375 2.8125 0"></path><path fill="none" stroke="rgb(160, 160, 160)" d="M 72 144 L 108 144" stroke-width="1" stroke-dasharray="2.8125 3.375 5.625 3.375 5.625 3.375 5.625 3.375 2.8125 0"></path><path fill="none" stroke="rgb(160, 160, 160)" d="M 108 144 L 144 144" stroke-width="1" stroke-dasharray="2.8125 3.375 5.625 3.375 5.625 3.375 5.625 3.375 2.8125 0"></path><path fill="none" stroke="rgb(160, 160, 160)" d="M 144 144 L 180 144" stroke-width="1" stroke-dasharray="2.8125 3.375 5.625 3.375 5.625 3.375 5.625 3.375 2.8125 0"></path><path fill="none" stroke="rgb(160, 160, 160)" d="M 180 144 L 216 144" stroke-width="1" stroke-dasharray="2.8125 3.375 5.625 3.375 5.625 3.375 5.625 3.375 2.8125 0"></path><path fill="none" stroke="rgb(160, 160, 160)" d="M 216 144 L 252 144" stroke-width="1" stroke-dasharray="2.8125 3.375 5.625 3.375 5.625 3.375 5.625 3.375 2.8125 0"></path><path fill="none" stroke="rgb(160, 160, 160)" d="M 36 144 L 36 180" stroke-width="1" stroke-dasharray="2.8125 3.375 5.625 3.375 5.625 3.375 5.625 3.375 2.8125 0"></path><path fill="none" stroke="rgb(160, 160, 160)" d="M 72 144 L 72 180" stroke-width="1" stroke-dasharray="2.8125 3.375 5.625 3.375 5.625 3.375 5.625 3.375 2.8125 0"></path><path fill="none" stroke="rgb(160, 160, 160)" d="M 108 144 L 108 180" stroke-width="1" stroke-dasharray="2.8125 3.375 5.625 3.375 5.625 3.375 5.625 3.375 2.8125 0"></path><path fill="none" stroke="rgb(160, 160, 160)" d="M 144 144 L 144 180" stroke-width="1" stroke-dasharray="2.8125 3.375 5.625 3.375 5.625 3.375 5.625 3.375 2.8125 0"></path><path fill="none" stroke="rgb(160, 160, 160)" d="M 180 144 L 180 180" stroke-width="1" stroke-dasharray="2.8125 3.375 5.625 3.375 5.625 3.375 5.625 3.375 2.8125 0"></path><path fill="none" stroke="rgb(160, 160, 160)" d="M 216 144 L 216 180" stroke-width="1" stroke-dasharray="2.8125 3.375 5.625 3.375 5.625 3.375 5.625 3.375 2.8125 0"></path><path fill="none" stroke="rgb(160, 160, 160)" d="M 0 180 L 36 180" stroke-width="1" stroke-dasharray="2.8125 3.375 5.625 3.375 5.625 3.375 5.625 3.375 2.8125 0"></path><path fill="none" stroke="rgb(160, 160, 160)" d="M 36 180 L 72 180" stroke-width="1" stroke-dasharray="2.8125 3.375 5.625 3.375 5.625 3.375 5.625 3.375 2.8125 0"></path><path fill="none" stroke="rgb(160, 160, 160)" d="M 72 180 L 108 180" stroke-width="1" stroke-dasharray="2.8125 3.375 5.625 3.375 5.625 3.375 5.625 3.375 2.8125 0"></path><path fill="none" stroke="rgb(160, 160, 160)" d="M 108 180 L 144 180" stroke-width="1" stroke-dasharray="2.8125 3.375 5.625 3.375 5.625 3.375 5.625 3.375 2.8125 0"></path><path fill="none" stroke="rgb(160, 160, 160)" d="M 144 180 L 180 180" stroke-width="1" stroke-dasharray="2.8125 3.375 5.625 3.375 5.625 3.375 5.625 3.375 2.8125 0"></path><path fill="none" stroke="rgb(160, 160, 160)" d="M 180 180 L 216 180" stroke-width="1" stroke-dasharray="2.8125 3.375 5.625 3.375 5.625 3.375 5.625 3.375 2.8125 0"></path><path fill="none" stroke="rgb(160, 160, 160)" d="M 216 180 L 252 180" stroke-width="1" stroke-dasharray="2.8125 3.375 5.625 3.375 5.625 3.375 5.625 3.375 2.8125 0"></path><path fill="none" stroke="rgb(160, 160, 160)" d="M 36 180 L 36 216" stroke-width="1" stroke-dasharray="2.8125 3.375 5.625 3.375 5.625 3.375 5.625 3.375 2.8125 0"></path><path fill="none" stroke="rgb(160, 160, 160)" d="M 72 180 L 72 216" stroke-width="1" stroke-dasharray="2.8125 3.375 5.625 3.375 5.625 3.375 5.625 3.375 2.8125 0"></path><path fill="none" stroke="rgb(160, 160, 160)" d="M 108 180 L 108 216" stroke-width="1" stroke-dasharray="2.8125 3.375 5.625 3.375 5.625 3.375 5.625 3.375 2.8125 0"></path><path fill="none" stroke="rgb(160, 160, 160)" d="M 144 180 L 144 216" stroke-width="1" stroke-dasharray="2.8125 3.375 5.625 3.375 5.625 3.375 5.625 3.375 2.8125 0"></path><path fill="none" stroke="rgb(160, 160, 160)" d="M 180 180 L 180 216" stroke-width="1" stroke-dasharray="2.8125 3.375 5.625 3.375 5.625 3.375 5.625 3.375 2.8125 0"></path><path fill="none" stroke="rgb(160, 160, 160)" d="M 216 180 L 216 216" stroke-width="1" stroke-dasharray="2.8125 3.375 5.625 3.375 5.625 3.375 5.625 3.375 2.8125 0"></path><path fill="none" stroke="rgb(160, 160, 160)" d="M 0 216 L 36 216" stroke-width="1" stroke-dasharray="2.8125 3.375 5.625 3.375 5.625 3.375 5.625 3.375 2.8125 0"></path><path fill="none" stroke="rgb(160, 160, 160)" d="M 36 216 L 72 216" stroke-width="1" stroke-dasharray="2.8125 3.375 5.625 3.375 5.625 3.375 5.625 3.375 2.8125 0"></path><path fill="none" stroke="rgb(160, 160, 160)" d="M 72 216 L 108 216" stroke-width="1" stroke-dasharray="2.8125 3.375 5.625 3.375 5.625 3.375 5.625 3.375 2.8125 0"></path><path fill="none" stroke="rgb(160, 160, 160)" d="M 108 216 L 144 216" stroke-width="1" stroke-dasharray="2.8125 3.375 5.625 3.375 5.625 3.375 5.625 3.375 2.8125 0"></path><path fill="none" stroke="rgb(160, 160, 160)" d="M 144 216 L 180 216" stroke-width="1" stroke-dasharray="2.8125 3.375 5.625 3.375 5.625 3.375 5.625 3.375 2.8125 0"></path><path fill="none" stroke="rgb(160, 160, 160)" d="M 180 216 L 216 216" stroke-width="1" stroke-dasharray="2.8125 3.375 5.625 3.375 5.625 3.375 5.625 3.375 2.8125 0"></path><path fill="none" stroke="rgb(160, 160, 160)" d="M 216 216 L 252 216" stroke-width="1" stroke-dasharray="2.8125 3.375 5.625 3.375 5.625 3.375 5.625 3.375 2.8125 0"></path><path fill="none" stroke="rgb(160, 160, 160)" d="M 36 216 L 36 252" stroke-width="1" stroke-dasharray="2.8125 3.375 5.625 3.375 5.625 3.375 5.625 3.375 2.8125 0"></path><path fill="none" stroke="rgb(160, 160, 160)" d="M 72 216 L 72 252" stroke-width="1" stroke-dasharray="2.8125 3.375 5.625 3.375 5.625 3.375 5.625 3.375 2.8125 0"></path><path fill="none" stroke="rgb(160, 160, 160)" d="M 108 216 L 108 252" stroke-width="1" stroke-dasharray="2.8125 3.375 5.625 3.375 5.625 3.375 5.625 3.375 2.8125 0"></path><path fill="none" stroke="rgb(160, 160, 160)" d="M 144 216 L 144 252" stroke-width="1" stroke-dasharray="2.8125 3.375 5.625 3.375 5.625 3.375 5.625 3.375 2.8125 0"></path><path fill="none" stroke="rgb(160, 160, 160)" d="M 180 216 L 180 252" stroke-width="1" stroke-dasharray="2.8125 3.375 5.625 3.375 5.625 3.375 5.625 3.375 2.8125 0"></path><path fill="none" stroke="rgb(160, 160, 160)" d="M 216 216 L 216 252" stroke-width="1" stroke-dasharray="2.8125 3.375 5.625 3.375 5.625 3.375 5.625 3.375 2.8125 0"></path></g><g shape-rendering="crispEdges"></g><g shape-rendering="crispEdges"><path fill="black" stroke="none" d="M -2 -2 L 38 -2 38 2 -2 2 z"></path><path fill="black" stroke="none" d="M 34 -2 L 74 -2 74 2 34 2 z"></path><path fill="black" stroke="none" d="M 70 -2 L 110 -2 110 2 70 2 z"></path><path fill="black" stroke="none" d="M 106 -2 L 146 -2 146 2 106 2 z"></path><path fill="black" stroke="none" d="M 142 -2 L 182 -2 182 2 142 2 z"></path><path fill="black" stroke="none" d="M 178 -2 L 218 -2 218 2 178 2 z"></path><path fill="black" stroke="none" d="M 214 -2 L 254 -2 254 2 214 2 z"></path><path fill="black" stroke="none" d="M -2 -2 L 2 -2 2 38 -2 38 z"></path><path fill="black" stroke="none" d="M 250 -2 L 254 -2 254 38 250 38 z"></path><path fill="black" stroke="none" d="M -2 34 L 2 34 2 74 -2 74 z"></path><path fill="black" stroke="none" d="M 250 34 L 254 34 254 74 250 74 z"></path><path fill="black" stroke="none" d="M -2 70 L 2 70 2 110 -2 110 z"></path><path fill="black" stroke="none" d="M 250 70 L 254 70 254 110 250 110 z"></path><path fill="black" stroke="none" d="M -2 106 L 2 106 2 146 -2 146 z"></path><path fill="black" stroke="none" d="M 250 106 L 254 106 254 146 250 146 z"></path><path fill="black" stroke="none" d="M -2 142 L 2 142 2 182 -2 182 z"></path><path fill="black" stroke="none" d="M 250 142 L 254 142 254 182 250 182 z"></path><path fill="black" stroke="none" d="M -2 178 L 2 178 2 218 -2 218 z"></path><path fill="black" stroke="none" d="M 250 178 L 254 178 254 218 250 218 z"></path><path fill="black" stroke="none" d="M -2 214 L 2 214 2 254 -2 254 z"></path><path fill="black" stroke="none" d="M 250 214 L 254 214 254 254 250 254 z"></path><path fill="black" stroke="none" d="M -2 250 L 38 250 38 254 -2 254 z"></path><path fill="black" stroke="none" d="M 34 250 L 74 250 74 254 34 254 z"></path><path fill="black" stroke="none" d="M 70 250 L 110 250 110 254 70 254 z"></path><path fill="black" stroke="none" d="M 106 250 L 146 250 146 254 106 254 z"></path><path fill="black" stroke="none" d="M 142 250 L 182 250 182 254 142 254 z"></path><path fill="black" stroke="none" d="M 178 250 L 218 250 218 254 178 254 z"></path><path fill="black" stroke="none" d="M 214 250 L 254 250 254 254 214 254 z"></path></g><g shape-rendering="auto"><text fill="black" x="18" y="27.799999999999997" text-anchor="middle" font-size="28">1</text><text fill="black" x="90" y="27.799999999999997" text-anchor="middle" font-size="28">2</text><text fill="black" x="162" y="27.799999999999997" text-anchor="middle" font-size="28">2</text><text fill="black" x="234" y="27.799999999999997" text-anchor="middle" font-size="28">1</text><text fill="black" x="54" y="63.8" text-anchor="middle" font-size="28">3</text><text fill="black" x="126" y="63.8" text-anchor="middle" font-size="28">4</text><text fill="black" x="198" y="63.8" text-anchor="middle" font-size="28">3</text><text fill="black" x="18" y="99.8" text-anchor="middle" font-size="28">2</text><text fill="black" x="90" y="99.8" text-anchor="middle" font-size="28">5</text><text fill="black" x="162" y="99.8" text-anchor="middle" font-size="28">5</text><text fill="black" x="54" y="135.8" text-anchor="middle" font-size="28">4</text><text fill="black" x="126" y="135.8" text-anchor="middle" font-size="28">6</text><text fill="black" x="198" y="135.8" text-anchor="middle" font-size="28">4</text><text fill="black" x="18" y="171.8" text-anchor="middle" font-size="28">2</text><text fill="black" x="90" y="171.8" text-anchor="middle" font-size="28">5</text><text fill="black" x="162" y="171.8" text-anchor="middle" font-size="28">5</text><text fill="black" x="234" y="171.8" text-anchor="middle" font-size="28">2</text><text fill="black" x="54" y="207.8" text-anchor="middle" font-size="28">3</text><text fill="black" x="126" y="207.8" text-anchor="middle" font-size="28">4</text><text fill="black" x="198" y="207.8" text-anchor="middle" font-size="28">3</text><text fill="black" x="18" y="243.8" text-anchor="middle" font-size="28">1</text><text fill="black" x="90" y="243.8" text-anchor="middle" font-size="28">2</text><text fill="black" x="162" y="243.8" text-anchor="middle" font-size="28">2</text><text fill="black" x="234" y="243.8" text-anchor="middle" font-size="28">1</text></g><g shape-rendering="crispEdges"></g><g shape-rendering="crispEdges"><path fill="black" stroke="none" d="M -2 -2 L 2 -2 2 254 -2 254 z"></path><path fill="black" stroke="none" d="M 250 -2 L 254 -2 254 254 250 254 z"></path><path fill="black" stroke="none" d="M -2 -2 L 254 -2 254 2 -2 2 z"></path><path fill="black" stroke="none" d="M -2 250 L 254 250 254 254 -2 254 z"></path></g><g shape-rendering="crispEdges"></g></svg>