<svg version="1.1" xmlns="http://www.w3.org/2000/svg" xmlns:xlink="http://www.w3.org/1999/xlink" width="342" height="342"><defs/><g><rect fill="rgb(255,255,255)" stroke="none" x="0" y="0" width="342" height="342" fill-opacity="0"/><path fill="none" stroke="#000000" paint-order="fill stroke markers" d=" M 19.5 19.5 L 57.5 19.5" stroke-linecap="round" stroke-miterlimit="10" stroke-width="3"/><path fill="none" stroke="#000000" paint-order="fill stroke markers" d=" M 19.5 19.5 L 19.5 57.5" stroke-linecap="round" stroke-miterlimit="10" stroke-width="3"/><path fill="none" stroke="#000000" paint-order="fill stroke markers" d=" M 57.5 19.5 L 95.5 19.5" stroke-linecap="round" stroke-miterlimit="10" stroke-width="3"/><path fill="none" stroke="#000000" paint-order="fill stroke markers" d=" M 95.5 19.5 L 133.5 19.5" stroke-linecap="round" stroke-miterlimit="10" stroke-width="3"/><path fill="none" stroke="#000000" paint-order="fill stroke markers" d=" M 133.5 19.5 L 171.5 19.5" stroke-linecap="round" stroke-miterlimit="10" stroke-width="3"/><path fill="none" stroke="#000000" paint-order="fill stroke markers" d=" M 171.5 19.5 L 209.5 19.5" stroke-linecap="round" stroke-miterlimit="10" stroke-width="3"/><path fill="none" stroke="#000000" paint-order="fill stroke markers" d=" M 209.5 19.5 L 247.5 19.5" stroke-linecap="round" stroke-miterlimit="10" stroke-width="3"/><path fill="none" stroke="#000000" paint-order="fill stroke markers" d=" M 247.5 19.5 L 285.5 19.5" stroke-linecap="round" stroke-miterlimit="10" stroke-width="3"/><path fill="none" stroke="#000000" paint-order="fill stroke markers" d=" M 285.5 19.5 L 323.5 19.5" stroke-linecap="round" stroke-miterlimit="10" stroke-width="3"/><path fill="none" stroke="#000000" paint-order="fill stroke markers" d=" M 323.5 19.5 L 323.5 57.5" stroke-linecap="round" stroke-miterlimit="10" stroke-width="3"/><path fill="none" stroke="#000000" paint-order="fill stroke markers" d=" M 19.5 57.5 L 19.5 95.5" stroke-linecap="round" stroke-miterlimit="10" stroke-width="3"/><path fill="none" stroke="#000000" paint-order="fill stroke markers" d=" M 323.5 57.5 L 323.5 95.5" stroke-linecap="round" stroke-miterlimit="10" stroke-width="3"/><path fill="none" stroke="#000000" paint-order="fill stroke markers" d=" M 19.5 95.5 L 19.5 133.5" stroke-linecap="round" stroke-miterlimit="10" stroke-width="3"/><path fill="none" stroke="#000000" paint-order="fill stroke markers" d=" M 323.5 95.5 L 323.5 133.5" stroke-linecap="round" stroke-miterlimit="10" stroke-width="3"/><path fill="none" stroke="#000000" paint-order="fill stroke markers" d=" M 19.5 133.5 L 19.5 171.5" stroke-linecap="round" stroke-miterlimit="10" stroke-width="3"/><path fill="none" stroke="#000000" paint-order="fill stroke markers" d=" M 323.5 133.5 L 323.5 171.5" stroke-linecap="round" stroke-miterlimit="10" stroke-width="3"/><path fill="none" stroke="#000000" paint-order="fill stroke markers" d=" M 19.5 171.5 L 19.5 209.5" stroke-linecap="round" stroke-miterlimit="10" stroke-width="3"/><path fill="none" stroke="#000000" paint-order="fill stroke markers" d=" M 323.5 171.5 L 323.5 209.5" stroke-linecap="round" stroke-miterlimit="10" stroke-width="3"/><path fill="none" stroke="#000000" paint-order="fill stroke markers" d=" M 19.5 209.5 L 19.5 247.5" stroke-linecap="round" stroke-miterlimit="10" stroke-width="3"/><path fill="none" stroke="#000000" paint-order="fill stroke markers" d=" M 323.5 209.5 L 323.5 247.5" stroke-linecap="round" stroke-miterlimit="10" stroke-width="3"/><path fill="none" stroke="#000000" paint-order="fill stroke markers" d=" M 19.5 247.5 L 19.5 285.5" stroke-linecap="round" stroke-miterlimit="10" stroke-width="3"/><path fill="none" stroke="#000000" paint-order="fill stroke markers" d=" M 323.5 247.5 L 323.5 285.5" stroke-linecap="round" stroke-miterlimit="10" stroke-width="3"/><path fill="none" stroke="#000000" paint-order="fill stroke markers" d=" M 19.5 323.5 L 57.5 323.5" stroke-linecap="round" stroke-miterlimit="10" stroke-width="3"/><path fill="none" stroke="#000000" paint-order="fill stroke markers" d=" M 19.5 285.5 L 19.5 323.5" stroke-linecap="round" stroke-miterlimit="10" stroke-width="3"/><path fill="none" stroke="#000000" paint-order="fill stroke markers" d=" M 57.5 323.5 L 95.5 323.5" stroke-linecap="round" stroke-miterlimit="10" stroke-width="3"/><path fill="none" stroke="#000000" paint-order="fill stroke markers" d=" M 95.5 323.5 L 133.5 323.5" stroke-linecap="round" stroke-miterlimit="10" stroke-width="3"/><path fill="none" stroke="#000000" paint-order="fill stroke markers" d=" M 133.5 323.5 L 171.5 323.5" stroke-linecap="round" stroke-miterlimit="10" stroke-width="3"/><path fill="none" stroke="#000000" paint-order="fill stroke markers" d=" M 171.5 323.5 L 209.5 323.5" stroke-linecap="round" stroke-miterlimit="10" stroke-width="3"/><path fill="none" stroke="#000000" paint-order="fill stroke markers" d=" M 209.5 323.5 L 247.5 323.5" stroke-linecap="round" stroke-miterlimit="10" stroke-width="3"/><path fill="none" stroke="#000000" paint-order="fill stroke markers" d=" M 247.5 323.5 L 285.5 323.5" stroke-linecap="round" stroke-miterlimit="10" stroke-width="3"/><path fill="none" stroke="#000000" paint-order="fill stroke markers" d=" M 323.5 285.5 L 323.5 323.5" stroke-linecap="round" stroke-miterlimit="10" stroke-width="3"/><path fill="none" stroke="#000000" paint-order="fill stroke markers" d=" M 285.5 323.5 L 323.5 323.5" stroke-linecap="round" stroke-miterlimit="10" stroke-width="3"/><path fill="#c0e0ff" stroke="#c0e0ff" paint-order="fill stroke markers" d=" M 19.5 19.5 L 57.5 19.5 L 57.5 57.5 L 19.5 57.5 Z" stroke-linecap="square" stroke-miterlimit="10" stroke-width="0.5"/><path fill="#c0e0ff" stroke="#c0e0ff" paint-order="fill stroke markers" d=" M 57.5 19.5 L 95.5 19.5 L 95.5 57.5 L 57.5 57.5 Z" stroke-linecap="square" stroke-miterlimit="10" stroke-width="0.5"/><path fill="#444444" stroke="#444444" paint-order="fill stroke markers" d=" M 95.5 19.5 L 133.5 19.5 L 133.5 57.5 L 95.5 57.5 Z" stroke-linecap="square" stroke-miterlimit="10" stroke-width="0.5"/><path fill="#444444" stroke="#444444" paint-order="fill stroke markers" d=" M 133.5 19.5 L 171.5 19.5 L 171.5 57.5 L 133.5 57.5 Z" stroke-linecap="square" stroke-miterlimit="10" stroke-width="0.5"/><path fill="#b3ffb3" stroke="#b3ffb3" paint-order="fill stroke markers" d=" M 171.5 19.5 L 209.5 19.5 L 209.5 57.5 L 171.5 57.5 Z" stroke-linecap="square" stroke-miterlimit="10" stroke-width="0.5"/><path fill="#b3ffb3" stroke="#b3ffb3" paint-order="fill stroke markers" d=" M 209.5 19.5 L 247.5 19.5 L 247.5 57.5 L 209.5 57.5 Z" stroke-linecap="square" stroke-miterlimit="10" stroke-width="0.5"/><path fill="#444444" stroke="#444444" paint-order="fill stroke markers" d=" M 247.5 19.5 L 285.5 19.5 L 285.5 57.5 L 247.5 57.5 Z" stroke-linecap="square" stroke-miterlimit="10" stroke-width="0.5"/><path fill="#444444" stroke="#444444" paint-order="fill stroke markers" d=" M 285.5 19.5 L 323.5 19.5 L 323.5 57.5 L 285.5 57.5 Z" stroke-linecap="square" stroke-miterlimit="10" stroke-width="0.5"/><path fill="#c0e0ff" stroke="#c0e0ff" paint-order="fill stroke markers" d=" M 19.5 57.5 L 57.5 57.5 L 57.5 95.5 L 19.5 95.5 Z" stroke-linecap="square" stroke-miterlimit="10" stroke-width="0.5"/><path fill="#b3ffb3" stroke="#b3ffb3" paint-order="fill stroke markers" d=" M 95.5 57.5 L 133.5 57.5 L 133.5 95.5 L 95.5 95.5 Z" stroke-linecap="square" stroke-miterlimit="10" stroke-width="0.5"/><path fill="#444444" stroke="#444444" paint-order="fill stroke markers" d=" M 133.5 57.5 L 171.5 57.5 L 171.5 95.5 L 133.5 95.5 Z" stroke-linecap="square" stroke-miterlimit="10" stroke-width="0.5"/><path fill="#c0e0ff" stroke="#c0e0ff" paint-order="fill stroke markers" d=" M 171.5 57.5 L 209.5 57.5 L 209.5 95.5 L 171.5 95.5 Z" stroke-linecap="square" stroke-miterlimit="10" stroke-width="0.5"/><path fill="#b3ffb3" stroke="#b3ffb3" paint-order="fill stroke markers" d=" M 209.5 57.5 L 247.5 57.5 L 247.5 95.5 L 209.5 95.5 Z" stroke-linecap="square" stroke-miterlimit="10" stroke-width="0.5"/><path fill="#c0e0ff" stroke="#c0e0ff" paint-order="fill stroke markers" d=" M 247.5 57.5 L 285.5 57.5 L 285.5 95.5 L 247.5 95.5 Z" stroke-linecap="square" stroke-miterlimit="10" stroke-width="0.5"/><path fill="#444444" stroke="#444444" paint-order="fill stroke markers" d=" M 285.5 57.5 L 323.5 57.5 L 323.5 95.5 L 285.5 95.5 Z" stroke-linecap="square" stroke-miterlimit="10" stroke-width="0.5"/><path fill="#444444" stroke="#444444" paint-order="fill stroke markers" d=" M 19.5 95.5 L 57.5 95.5 L 57.5 133.5 L 19.5 133.5 Z" stroke-linecap="square" stroke-miterlimit="10" stroke-width="0.5"/><path fill="#b3ffb3" stroke="#b3ffb3" paint-order="fill stroke markers" d=" M 57.5 95.5 L 95.5 95.5 L 95.5 133.5 L 57.5 133.5 Z" stroke-linecap="square" stroke-miterlimit="10" stroke-width="0.5"/><path fill="#b3ffb3" stroke="#b3ffb3" paint-order="fill stroke markers" d=" M 95.5 95.5 L 133.5 95.5 L 133.5 133.5 L 95.5 133.5 Z" stroke-linecap="square" stroke-miterlimit="10" stroke-width="0.5"/><path fill="#c0e0ff" stroke="#c0e0ff" paint-order="fill stroke markers" d=" M 133.5 95.5 L 171.5 95.5 L 171.5 133.5 L 133.5 133.5 Z" stroke-linecap="square" stroke-miterlimit="10" stroke-width="0.5"/><path fill="#c0e0ff" stroke="#c0e0ff" paint-order="fill stroke markers" d=" M 171.5 95.5 L 209.5 95.5 L 209.5 133.5 L 171.5 133.5 Z" stroke-linecap="square" stroke-miterlimit="10" stroke-width="0.5"/><path fill="#444444" stroke="#444444" paint-order="fill stroke markers" d=" M 209.5 95.5 L 247.5 95.5 L 247.5 133.5 L 209.5 133.5 Z" stroke-linecap="square" stroke-miterlimit="10" stroke-width="0.5"/><path fill="#c0e0ff" stroke="#c0e0ff" paint-order="fill stroke markers" d=" M 247.5 95.5 L 285.5 95.5 L 285.5 133.5 L 247.5 133.5 Z" stroke-linecap="square" stroke-miterlimit="10" stroke-width="0.5"/><path fill="#c0e0ff" stroke="#c0e0ff" paint-order="fill stroke markers" d=" M 285.5 95.5 L 323.5 95.5 L 323.5 133.5 L 285.5 133.5 Z" stroke-linecap="square" stroke-miterlimit="10" stroke-width="0.5"/><path fill="#444444" stroke="#444444" paint-order="fill stroke markers" d=" M 19.5 133.5 L 57.5 133.5 L 57.5 171.5 L 19.5 171.5 Z" stroke-linecap="square" stroke-miterlimit="10" stroke-width="0.5"/><path fill="#444444" stroke="#444444" paint-order="fill stroke markers" d=" M 57.5 133.5 L 95.5 133.5 L 95.5 171.5 L 57.5 171.5 Z" stroke-linecap="square" stroke-miterlimit="10" stroke-width="0.5"/><path fill="#c0e0ff" stroke="#c0e0ff" paint-order="fill stroke markers" d=" M 95.5 133.5 L 133.5 133.5 L 133.5 171.5 L 95.5 171.5 Z" stroke-linecap="square" stroke-miterlimit="10" stroke-width="0.5"/><path fill="#b3ffb3" stroke="#b3ffb3" paint-order="fill stroke markers" d=" M 133.5 133.5 L 171.5 133.5 L 171.5 171.5 L 133.5 171.5 Z" stroke-linecap="square" stroke-miterlimit="10" stroke-width="0.5"/><path fill="#444444" stroke="#444444" paint-order="fill stroke markers" d=" M 171.5 133.5 L 209.5 133.5 L 209.5 171.5 L 171.5 171.5 Z" stroke-linecap="square" stroke-miterlimit="10" stroke-width="0.5"/><path fill="#444444" stroke="#444444" paint-order="fill stroke markers" d=" M 209.5 133.5 L 247.5 133.5 L 247.5 171.5 L 209.5 171.5 Z" stroke-linecap="square" stroke-miterlimit="10" stroke-width="0.5"/><path fill="#b3ffb3" stroke="#b3ffb3" paint-order="fill stroke markers" d=" M 247.5 133.5 L 285.5 133.5 L 285.5 171.5 L 247.5 171.5 Z" stroke-linecap="square" stroke-miterlimit="10" stroke-width="0.5"/><path fill="#b3ffb3" stroke="#b3ffb3" paint-order="fill stroke markers" d=" M 285.5 133.5 L 323.5 133.5 L 323.5 171.5 L 285.5 171.5 Z" stroke-linecap="square" stroke-miterlimit="10" stroke-width="0.5"/><path fill="#b3ffb3" stroke="#b3ffb3" paint-order="fill stroke markers" d=" M 19.5 171.5 L 57.5 171.5 L 57.5 209.5 L 19.5 209.5 Z" stroke-linecap="square" stroke-miterlimit="10" stroke-width="0.5"/><path fill="#c0e0ff" stroke="#c0e0ff" paint-order="fill stroke markers" d=" M 57.5 171.5 L 95.5 171.5 L 95.5 209.5 L 57.5 209.5 Z" stroke-linecap="square" stroke-miterlimit="10" stroke-width="0.5"/><path fill="#c0e0ff" stroke="#c0e0ff" paint-order="fill stroke markers" d=" M 95.5 171.5 L 133.5 171.5 L 133.5 209.5 L 95.5 209.5 Z" stroke-linecap="square" stroke-miterlimit="10" stroke-width="0.5"/><path fill="#b3ffb3" stroke="#b3ffb3" paint-order="fill stroke markers" d=" M 133.5 171.5 L 171.5 171.5 L 171.5 209.5 L 133.5 209.5 Z" stroke-linecap="square" stroke-miterlimit="10" stroke-width="0.5"/><path fill="#b3ffb3" stroke="#b3ffb3" paint-order="fill stroke markers" d=" M 171.5 171.5 L 209.5 171.5 L 209.5 209.5 L 171.5 209.5 Z" stroke-linecap="square" stroke-miterlimit="10" stroke-width="0.5"/><path fill="#c0e0ff" stroke="#c0e0ff" paint-order="fill stroke markers" d=" M 209.5 171.5 L 247.5 171.5 L 247.5 209.5 L 209.5 209.5 Z" stroke-linecap="square" stroke-miterlimit="10" stroke-width="0.5"/><path fill="#b3ffb3" stroke="#b3ffb3" paint-order="fill stroke markers" d=" M 247.5 171.5 L 285.5 171.5 L 285.5 209.5 L 247.5 209.5 Z" stroke-linecap="square" stroke-miterlimit="10" stroke-width="0.5"/><path fill="#444444" stroke="#444444" paint-order="fill stroke markers" d=" M 285.5 171.5 L 323.5 171.5 L 323.5 209.5 L 285.5 209.5 Z" stroke-linecap="square" stroke-miterlimit="10" stroke-width="0.5"/><path fill="#b3ffb3" stroke="#b3ffb3" paint-order="fill stroke markers" d=" M 19.5 209.5 L 57.5 209.5 L 57.5 247.5 L 19.5 247.5 Z" stroke-linecap="square" stroke-miterlimit="10" stroke-width="0.5"/><path fill="#b3ffb3" stroke="#b3ffb3" paint-order="fill stroke markers" d=" M 57.5 209.5 L 95.5 209.5 L 95.5 247.5 L 57.5 247.5 Z" stroke-linecap="square" stroke-miterlimit="10" stroke-width="0.5"/><path fill="#444444" stroke="#444444" paint-order="fill stroke markers" d=" M 95.5 209.5 L 133.5 209.5 L 133.5 247.5 L 95.5 247.5 Z" stroke-linecap="square" stroke-miterlimit="10" stroke-width="0.5"/><path fill="#444444" stroke="#444444" paint-order="fill stroke markers" d=" M 133.5 209.5 L 171.5 209.5 L 171.5 247.5 L 133.5 247.5 Z" stroke-linecap="square" stroke-miterlimit="10" stroke-width="0.5"/><path fill="#c0e0ff" stroke="#c0e0ff" paint-order="fill stroke markers" d=" M 171.5 209.5 L 209.5 209.5 L 209.5 247.5 L 171.5 247.5 Z" stroke-linecap="square" stroke-miterlimit="10" stroke-width="0.5"/><path fill="#c0e0ff" stroke="#c0e0ff" paint-order="fill stroke markers" d=" M 209.5 209.5 L 247.5 209.5 L 247.5 247.5 L 209.5 247.5 Z" stroke-linecap="square" stroke-miterlimit="10" stroke-width="0.5"/><path fill="#444444" stroke="#444444" paint-order="fill stroke markers" d=" M 247.5 209.5 L 285.5 209.5 L 285.5 247.5 L 247.5 247.5 Z" stroke-linecap="square" stroke-miterlimit="10" stroke-width="0.5"/><path fill="#444444" stroke="#444444" paint-order="fill stroke markers" d=" M 285.5 209.5 L 323.5 209.5 L 323.5 247.5 L 285.5 247.5 Z" stroke-linecap="square" stroke-miterlimit="10" stroke-width="0.5"/><path fill="#444444" stroke="#444444" paint-order="fill stroke markers" d=" M 19.5 247.5 L 57.5 247.5 L 57.5 285.5 L 19.5 285.5 Z" stroke-linecap="square" stroke-miterlimit="10" stroke-width="0.5"/><path fill="#c0e0ff" stroke="#c0e0ff" paint-order="fill stroke markers" d=" M 57.5 247.5 L 95.5 247.5 L 95.5 285.5 L 57.5 285.5 Z" stroke-linecap="square" stroke-miterlimit="10" stroke-width="0.5"/><path fill="#c0e0ff" stroke="#c0e0ff" paint-order="fill stroke markers" d=" M 95.5 247.5 L 133.5 247.5 L 133.5 285.5 L 95.5 285.5 Z" stroke-linecap="square" stroke-miterlimit="10" stroke-width="0.5"/><path fill="#444444" stroke="#444444" paint-order="fill stroke markers" d=" M 133.5 247.5 L 171.5 247.5 L 171.5 285.5 L 133.5 285.5 Z" stroke-linecap="square" stroke-miterlimit="10" stroke-width="0.5"/><path fill="#b3ffb3" stroke="#b3ffb3" paint-order="fill stroke markers" d=" M 171.5 247.5 L 209.5 247.5 L 209.5 285.5 L 171.5 285.5 Z" stroke-linecap="square" stroke-miterlimit="10" stroke-width="0.5"/><path fill="#444444" stroke="#444444" paint-order="fill stroke markers" d=" M 209.5 247.5 L 247.5 247.5 L 247.5 285.5 L 209.5 285.5 Z" stroke-linecap="square" stroke-miterlimit="10" stroke-width="0.5"/><path fill="#b3ffb3" stroke="#b3ffb3" paint-order="fill stroke markers" d=" M 247.5 247.5 L 285.5 247.5 L 285.5 285.5 L 247.5 285.5 Z" stroke-linecap="square" stroke-miterlimit="10" stroke-width="0.5"/><path fill="#b3ffb3" stroke="#b3ffb3" paint-order="fill stroke markers" d=" M 285.5 247.5 L 323.5 247.5 L 323.5 285.5 L 285.5 285.5 Z" stroke-linecap="square" stroke-miterlimit="10" stroke-width="0.5"/><path fill="#444444" stroke="#444444" paint-order="fill stroke markers" d=" M 19.5 285.5 L 57.5 285.5 L 57.5 323.5 L 19.5 323.5 Z" stroke-linecap="square" stroke-miterlimit="10" stroke-width="0.5"/><path fill="#444444" stroke="#444444" paint-order="fill stroke markers" d=" M 57.5 285.5 L 95.5 285.5 L 95.5 323.5 L 57.5 323.5 Z" stroke-linecap="square" stroke-miterlimit="10" stroke-width="0.5"/><path fill="#c0e0ff" stroke="#c0e0ff" paint-order="fill stroke markers" d=" M 95.5 285.5 L 133.5 285.5 L 133.5 323.5 L 95.5 323.5 Z" stroke-linecap="square" stroke-miterlimit="10" stroke-width="0.5"/><path fill="#b3ffb3" stroke="#b3ffb3" paint-order="fill stroke markers" d=" M 133.5 285.5 L 171.5 285.5 L 171.5 323.5 L 133.5 323.5 Z" stroke-linecap="square" stroke-miterlimit="10" stroke-width="0.5"/><path fill="#b3ffb3" stroke="#b3ffb3" paint-order="fill stroke markers" d=" M 171.5 285.5 L 209.5 285.5 L 209.5 323.5 L 171.5 323.5 Z" stroke-linecap="square" stroke-miterlimit="10" stroke-width="0.5"/><path fill="#444444" stroke="#444444" paint-order="fill stroke markers" d=" M 209.5 285.5 L 247.5 285.5 L 247.5 323.5 L 209.5 323.5 Z" stroke-linecap="square" stroke-miterlimit="10" stroke-width="0.5"/><path fill="#444444" stroke="#444444" paint-order="fill stroke markers" d=" M 247.5 285.5 L 285.5 285.5 L 285.5 323.5 L 247.5 323.5 Z" stroke-linecap="square" stroke-miterlimit="10" stroke-width="0.5"/><path fill="#b3ffb3" stroke="#b3ffb3" paint-order="fill stroke markers" d=" M 285.5 285.5 L 323.5 285.5 L 323.5 323.5 L 285.5 323.5 Z" stroke-linecap="square" stroke-miterlimit="10" stroke-width="0.5"/><path fill="none" stroke="#000000" paint-order="fill stroke markers" d=" M 19.5 19.5 L 57.5 19.5" stroke-linecap="round" stroke-miterlimit="10" stroke-width="3"/><path fill="none" stroke="#000000" paint-order="fill stroke markers" d=" M 57.5 19.5 L 57.5 57.5" stroke-linecap="square" stroke-miterlimit="10" stroke-width="0.8"/><path fill="none" stroke="#000000" paint-order="fill stroke markers" d=" M 19.5 57.5 L 57.5 57.5" stroke-linecap="square" stroke-miterlimit="10" stroke-width="0.8"/><path fill="none" stroke="#000000" paint-order="fill stroke markers" d=" M 19.5 19.5 L 19.5 57.5" stroke-linecap="round" stroke-miterlimit="10" stroke-width="3"/><path fill="none" stroke="#000000" paint-order="fill stroke markers" d=" M 57.5 19.5 L 95.5 19.5" stroke-linecap="round" stroke-miterlimit="10" stroke-width="3"/><path fill="none" stroke="#000000" paint-order="fill stroke markers" d=" M 95.5 19.5 L 95.5 57.5" stroke-linecap="square" stroke-miterlimit="10" stroke-width="0.8"/><path fill="none" stroke="#000000" paint-order="fill stroke markers" d=" M 57.5 57.5 L 95.5 57.5" stroke-linecap="square" stroke-miterlimit="10" stroke-width="0.8"/><path fill="none" stroke="#000000" paint-order="fill stroke markers" d=" M 95.5 19.5 L 133.5 19.5" stroke-linecap="round" stroke-miterlimit="10" stroke-width="3"/><path fill="none" stroke="#000000" paint-order="fill stroke markers" d=" M 133.5 19.5 L 133.5 57.5" stroke-linecap="square" stroke-miterlimit="10" stroke-width="0.8"/><path fill="none" stroke="#000000" paint-order="fill stroke markers" d=" M 95.5 57.5 L 133.5 57.5" stroke-linecap="square" stroke-miterlimit="10" stroke-width="0.8"/><path fill="none" stroke="#000000" paint-order="fill stroke markers" d=" M 133.5 19.5 L 171.5 19.5" stroke-linecap="round" stroke-miterlimit="10" stroke-width="3"/><path fill="none" stroke="#000000" paint-order="fill stroke markers" d=" M 171.5 19.5 L 171.5 57.5" stroke-linecap="square" stroke-miterlimit="10" stroke-width="0.8"/><path fill="none" stroke="#000000" paint-order="fill stroke markers" d=" M 133.5 57.5 L 171.5 57.5" stroke-linecap="square" stroke-miterlimit="10" stroke-width="0.8"/><path fill="none" stroke="#000000" paint-order="fill stroke markers" d=" M 171.5 19.5 L 209.5 19.5" stroke-linecap="round" stroke-miterlimit="10" stroke-width="3"/><path fill="none" stroke="#000000" paint-order="fill stroke markers" d=" M 209.5 19.5 L 209.5 57.5" stroke-linecap="square" stroke-miterlimit="10" stroke-width="0.8"/><path fill="none" stroke="#000000" paint-order="fill stroke markers" d=" M 171.5 57.5 L 209.5 57.5" stroke-linecap="square" stroke-miterlimit="10" stroke-width="0.8"/><path fill="none" stroke="#000000" paint-order="fill stroke markers" d=" M 209.5 19.5 L 247.5 19.5" stroke-linecap="round" stroke-miterlimit="10" stroke-width="3"/><path fill="none" stroke="#000000" paint-order="fill stroke markers" d=" M 247.5 19.5 L 247.5 57.5" stroke-linecap="square" stroke-miterlimit="10" stroke-width="0.8"/><path fill="none" stroke="#000000" paint-order="fill stroke markers" d=" M 209.5 57.5 L 247.5 57.5" stroke-linecap="square" stroke-miterlimit="10" stroke-width="0.8"/><path fill="none" stroke="#000000" paint-order="fill stroke markers" d=" M 247.5 19.5 L 285.5 19.5" stroke-linecap="round" stroke-miterlimit="10" stroke-width="3"/><path fill="none" stroke="#000000" paint-order="fill stroke markers" d=" M 285.5 19.5 L 285.5 57.5" stroke-linecap="square" stroke-miterlimit="10" stroke-width="0.8"/><path fill="none" stroke="#000000" paint-order="fill stroke markers" d=" M 247.5 57.5 L 285.5 57.5" stroke-linecap="square" stroke-miterlimit="10" stroke-width="0.8"/><path fill="none" stroke="#000000" paint-order="fill stroke markers" d=" M 285.5 19.5 L 323.5 19.5" stroke-linecap="round" stroke-miterlimit="10" stroke-width="3"/><path fill="none" stroke="#000000" paint-order="fill stroke markers" d=" M 323.5 19.5 L 323.5 57.5" stroke-linecap="round" stroke-miterlimit="10" stroke-width="3"/><path fill="none" stroke="#000000" paint-order="fill stroke markers" d=" M 285.5 57.5 L 323.5 57.5" stroke-linecap="square" stroke-miterlimit="10" stroke-width="0.8"/><path fill="none" stroke="#000000" paint-order="fill stroke markers" d=" M 57.5 57.5 L 57.5 95.5" stroke-linecap="square" stroke-miterlimit="10" stroke-width="0.8"/><path fill="none" stroke="#000000" paint-order="fill stroke markers" d=" M 19.5 95.5 L 57.5 95.5" stroke-linecap="square" stroke-miterlimit="10" stroke-width="0.8"/><path fill="none" stroke="#000000" paint-order="fill stroke markers" d=" M 19.5 57.5 L 19.5 95.5" stroke-linecap="round" stroke-miterlimit="10" stroke-width="3"/><path fill="none" stroke="#000000" paint-order="fill stroke markers" d=" M 95.5 57.5 L 95.5 95.5" stroke-linecap="square" stroke-miterlimit="10" stroke-width="0.8"/><path fill="none" stroke="#000000" paint-order="fill stroke markers" d=" M 57.5 95.5 L 95.5 95.5" stroke-linecap="square" stroke-miterlimit="10" stroke-width="0.8"/><path fill="none" stroke="#000000" paint-order="fill stroke markers" d=" M 133.5 57.5 L 133.5 95.5" stroke-linecap="square" stroke-miterlimit="10" stroke-width="0.8"/><path fill="none" stroke="#000000" paint-order="fill stroke markers" d=" M 95.5 95.5 L 133.5 95.5" stroke-linecap="square" stroke-miterlimit="10" stroke-width="0.8"/><path fill="none" stroke="#000000" paint-order="fill stroke markers" d=" M 171.5 57.5 L 171.5 95.5" stroke-linecap="square" stroke-miterlimit="10" stroke-width="0.8"/><path fill="none" stroke="#000000" paint-order="fill stroke markers" d=" M 133.5 95.5 L 171.5 95.5" stroke-linecap="square" stroke-miterlimit="10" stroke-width="0.8"/><path fill="none" stroke="#000000" paint-order="fill stroke markers" d=" M 209.5 57.5 L 209.5 95.5" stroke-linecap="square" stroke-miterlimit="10" stroke-width="0.8"/><path fill="none" stroke="#000000" paint-order="fill stroke markers" d=" M 171.5 95.5 L 209.5 95.5" stroke-linecap="square" stroke-miterlimit="10" stroke-width="0.8"/><path fill="none" stroke="#000000" paint-order="fill stroke markers" d=" M 247.5 57.5 L 247.5 95.5" stroke-linecap="square" stroke-miterlimit="10" stroke-width="0.8"/><path fill="none" stroke="#000000" paint-order="fill stroke markers" d=" M 209.5 95.5 L 247.5 95.5" stroke-linecap="square" stroke-miterlimit="10" stroke-width="0.8"/><path fill="none" stroke="#000000" paint-order="fill stroke markers" d=" M 285.5 57.5 L 285.5 95.5" stroke-linecap="square" stroke-miterlimit="10" stroke-width="0.8"/><path fill="none" stroke="#000000" paint-order="fill stroke markers" d=" M 247.5 95.5 L 285.5 95.5" stroke-linecap="square" stroke-miterlimit="10" stroke-width="0.8"/><path fill="none" stroke="#000000" paint-order="fill stroke markers" d=" M 323.5 57.5 L 323.5 95.5" stroke-linecap="round" stroke-miterlimit="10" stroke-width="3"/><path fill="none" stroke="#000000" paint-order="fill stroke markers" d=" M 285.5 95.5 L 323.5 95.5" stroke-linecap="square" stroke-miterlimit="10" stroke-width="0.8"/><path fill="none" stroke="#000000" paint-order="fill stroke markers" d=" M 57.5 95.5 L 57.5 133.5" stroke-linecap="square" stroke-miterlimit="10" stroke-width="0.8"/><path fill="none" stroke="#000000" paint-order="fill stroke markers" d=" M 19.5 133.5 L 57.5 133.5" stroke-linecap="square" stroke-miterlimit="10" stroke-width="0.8"/><path fill="none" stroke="#000000" paint-order="fill stroke markers" d=" M 19.5 95.5 L 19.5 133.5" stroke-linecap="round" stroke-miterlimit="10" stroke-width="3"/><path fill="none" stroke="#000000" paint-order="fill stroke markers" d=" M 95.5 95.5 L 95.5 133.5" stroke-linecap="square" stroke-miterlimit="10" stroke-width="0.8"/><path fill="none" stroke="#000000" paint-order="fill stroke markers" d=" M 57.5 133.5 L 95.5 133.5" stroke-linecap="square" stroke-miterlimit="10" stroke-width="0.8"/><path fill="none" stroke="#000000" paint-order="fill stroke markers" d=" M 133.5 95.5 L 133.5 133.5" stroke-linecap="square" stroke-miterlimit="10" stroke-width="0.8"/><path fill="none" stroke="#000000" paint-order="fill stroke markers" d=" M 95.5 133.5 L 133.5 133.5" stroke-linecap="square" stroke-miterlimit="10" stroke-width="0.8"/><path fill="none" stroke="#000000" paint-order="fill stroke markers" d=" M 171.5 95.5 L 171.5 133.5" stroke-linecap="square" stroke-miterlimit="10" stroke-width="0.8"/><path fill="none" stroke="#000000" paint-order="fill stroke markers" d=" M 133.5 133.5 L 171.5 133.5" stroke-linecap="square" stroke-miterlimit="10" stroke-width="0.8"/><path fill="none" stroke="#000000" paint-order="fill stroke markers" d=" M 209.5 95.5 L 209.5 133.5" stroke-linecap="square" stroke-miterlimit="10" stroke-width="0.8"/><path fill="none" stroke="#000000" paint-order="fill stroke markers" d=" M 171.5 133.5 L 209.5 133.5" stroke-linecap="square" stroke-miterlimit="10" stroke-width="0.8"/><path fill="none" stroke="#000000" paint-order="fill stroke markers" d=" M 247.5 95.5 L 247.5 133.5" stroke-linecap="square" stroke-miterlimit="10" stroke-width="0.8"/><path fill="none" stroke="#000000" paint-order="fill stroke markers" d=" M 209.5 133.5 L 247.5 133.5" stroke-linecap="square" stroke-miterlimit="10" stroke-width="0.8"/><path fill="none" stroke="#000000" paint-order="fill stroke markers" d=" M 285.5 95.5 L 285.5 133.5" stroke-linecap="square" stroke-miterlimit="10" stroke-width="0.8"/><path fill="none" stroke="#000000" paint-order="fill stroke markers" d=" M 247.5 133.5 L 285.5 133.5" stroke-linecap="square" stroke-miterlimit="10" stroke-width="0.8"/><path fill="none" stroke="#000000" paint-order="fill stroke markers" d=" M 323.5 95.5 L 323.5 133.5" stroke-linecap="round" stroke-miterlimit="10" stroke-width="3"/><path fill="none" stroke="#000000" paint-order="fill stroke markers" d=" M 285.5 133.5 L 323.5 133.5" stroke-linecap="square" stroke-miterlimit="10" stroke-width="0.8"/><path fill="none" stroke="#000000" paint-order="fill stroke markers" d=" M 57.5 133.5 L 57.5 171.5" stroke-linecap="square" stroke-miterlimit="10" stroke-width="0.8"/><path fill="none" stroke="#000000" paint-order="fill stroke markers" d=" M 19.5 171.5 L 57.5 171.5" stroke-linecap="square" stroke-miterlimit="10" stroke-width="0.8"/><path fill="none" stroke="#000000" paint-order="fill stroke markers" d=" M 19.5 133.5 L 19.5 171.5" stroke-linecap="round" stroke-miterlimit="10" stroke-width="3"/><path fill="none" stroke="#000000" paint-order="fill stroke markers" d=" M 95.5 133.5 L 95.5 171.5" stroke-linecap="square" stroke-miterlimit="10" stroke-width="0.8"/><path fill="none" stroke="#000000" paint-order="fill stroke markers" d=" M 57.5 171.5 L 95.5 171.5" stroke-linecap="square" stroke-miterlimit="10" stroke-width="0.8"/><path fill="none" stroke="#000000" paint-order="fill stroke markers" d=" M 133.5 133.5 L 133.5 171.5" stroke-linecap="square" stroke-miterlimit="10" stroke-width="0.8"/><path fill="none" stroke="#000000" paint-order="fill stroke markers" d=" M 95.5 171.5 L 133.5 171.5" stroke-linecap="square" stroke-miterlimit="10" stroke-width="0.8"/><path fill="none" stroke="#000000" paint-order="fill stroke markers" d=" M 171.5 133.5 L 171.5 171.5" stroke-linecap="square" stroke-miterlimit="10" stroke-width="0.8"/><path fill="none" stroke="#000000" paint-order="fill stroke markers" d=" M 133.5 171.5 L 171.5 171.5" stroke-linecap="square" stroke-miterlimit="10" stroke-width="0.8"/><path fill="none" stroke="#000000" paint-order="fill stroke markers" d=" M 209.5 133.5 L 209.5 171.5" stroke-linecap="square" stroke-miterlimit="10" stroke-width="0.8"/><path fill="none" stroke="#000000" paint-order="fill stroke markers" d=" M 171.5 171.5 L 209.5 171.5" stroke-linecap="square" stroke-miterlimit="10" stroke-width="0.8"/><path fill="none" stroke="#000000" paint-order="fill stroke markers" d=" M 247.5 133.5 L 247.5 171.5" stroke-linecap="square" stroke-miterlimit="10" stroke-width="0.8"/><path fill="none" stroke="#000000" paint-order="fill stroke markers" d=" M 209.5 171.5 L 247.5 171.5" stroke-linecap="square" stroke-miterlimit="10" stroke-width="0.8"/><path fill="none" stroke="#000000" paint-order="fill stroke markers" d=" M 285.5 133.5 L 285.5 171.5" stroke-linecap="square" stroke-miterlimit="10" stroke-width="0.8"/><path fill="none" stroke="#000000" paint-order="fill stroke markers" d=" M 247.5 171.5 L 285.5 171.5" stroke-linecap="square" stroke-miterlimit="10" stroke-width="0.8"/><path fill="none" stroke="#000000" paint-order="fill stroke markers" d=" M 323.5 133.5 L 323.5 171.5" stroke-linecap="round" stroke-miterlimit="10" stroke-width="3"/><path fill="none" stroke="#000000" paint-order="fill stroke markers" d=" M 285.5 171.5 L 323.5 171.5" stroke-linecap="square" stroke-miterlimit="10" stroke-width="0.8"/><path fill="none" stroke="#000000" paint-order="fill stroke markers" d=" M 57.5 171.5 L 57.5 209.5" stroke-linecap="square" stroke-miterlimit="10" stroke-width="0.8"/><path fill="none" stroke="#000000" paint-order="fill stroke markers" d=" M 19.5 209.5 L 57.5 209.5" stroke-linecap="square" stroke-miterlimit="10" stroke-width="0.8"/><path fill="none" stroke="#000000" paint-order="fill stroke markers" d=" M 19.5 171.5 L 19.5 209.5" stroke-linecap="round" stroke-miterlimit="10" stroke-width="3"/><path fill="none" stroke="#000000" paint-order="fill stroke markers" d=" M 95.5 171.5 L 95.5 209.5" stroke-linecap="square" stroke-miterlimit="10" stroke-width="0.8"/><path fill="none" stroke="#000000" paint-order="fill stroke markers" d=" M 57.5 209.5 L 95.5 209.5" stroke-linecap="square" stroke-miterlimit="10" stroke-width="0.8"/><path fill="none" stroke="#000000" paint-order="fill stroke markers" d=" M 133.5 171.5 L 133.5 209.5" stroke-linecap="square" stroke-miterlimit="10" stroke-width="0.8"/><path fill="none" stroke="#000000" paint-order="fill stroke markers" d=" M 95.5 209.5 L 133.5 209.5" stroke-linecap="square" stroke-miterlimit="10" stroke-width="0.8"/><path fill="none" stroke="#000000" paint-order="fill stroke markers" d=" M 171.5 171.5 L 171.5 209.5" stroke-linecap="square" stroke-miterlimit="10" stroke-width="0.8"/><path fill="none" stroke="#000000" paint-order="fill stroke markers" d=" M 133.5 209.5 L 171.5 209.5" stroke-linecap="square" stroke-miterlimit="10" stroke-width="0.8"/><path fill="none" stroke="#000000" paint-order="fill stroke markers" d=" M 209.5 171.5 L 209.5 209.5" stroke-linecap="square" stroke-miterlimit="10" stroke-width="0.8"/><path fill="none" stroke="#000000" paint-order="fill stroke markers" d=" M 171.5 209.5 L 209.5 209.5" stroke-linecap="square" stroke-miterlimit="10" stroke-width="0.8"/><path fill="none" stroke="#000000" paint-order="fill stroke markers" d=" M 247.5 171.5 L 247.5 209.5" stroke-linecap="square" stroke-miterlimit="10" stroke-width="0.8"/><path fill="none" stroke="#000000" paint-order="fill stroke markers" d=" M 209.5 209.5 L 247.5 209.5" stroke-linecap="square" stroke-miterlimit="10" stroke-width="0.8"/><path fill="none" stroke="#000000" paint-order="fill stroke markers" d=" M 285.5 171.5 L 285.5 209.5" stroke-linecap="square" stroke-miterlimit="10" stroke-width="0.8"/><path fill="none" stroke="#000000" paint-order="fill stroke markers" d=" M 247.5 209.5 L 285.5 209.5" stroke-linecap="square" stroke-miterlimit="10" stroke-width="0.8"/><path fill="none" stroke="#000000" paint-order="fill stroke markers" d=" M 323.5 171.5 L 323.5 209.5" stroke-linecap="round" stroke-miterlimit="10" stroke-width="3"/><path fill="none" stroke="#000000" paint-order="fill stroke markers" d=" M 285.5 209.5 L 323.5 209.5" stroke-linecap="square" stroke-miterlimit="10" stroke-width="0.8"/><path fill="none" stroke="#000000" paint-order="fill stroke markers" d=" M 57.5 209.5 L 57.5 247.5" stroke-linecap="square" stroke-miterlimit="10" stroke-width="0.8"/><path fill="none" stroke="#000000" paint-order="fill stroke markers" d=" M 19.5 247.5 L 57.5 247.5" stroke-linecap="square" stroke-miterlimit="10" stroke-width="0.8"/><path fill="none" stroke="#000000" paint-order="fill stroke markers" d=" M 19.5 209.5 L 19.5 247.5" stroke-linecap="round" stroke-miterlimit="10" stroke-width="3"/><path fill="none" stroke="#000000" paint-order="fill stroke markers" d=" M 95.5 209.5 L 95.5 247.5" stroke-linecap="square" stroke-miterlimit="10" stroke-width="0.8"/><path fill="none" stroke="#000000" paint-order="fill stroke markers" d=" M 57.5 247.5 L 95.5 247.5" stroke-linecap="square" stroke-miterlimit="10" stroke-width="0.8"/><path fill="none" stroke="#000000" paint-order="fill stroke markers" d=" M 133.5 209.5 L 133.5 247.5" stroke-linecap="square" stroke-miterlimit="10" stroke-width="0.8"/><path fill="none" stroke="#000000" paint-order="fill stroke markers" d=" M 95.5 247.5 L 133.5 247.5" stroke-linecap="square" stroke-miterlimit="10" stroke-width="0.8"/><path fill="none" stroke="#000000" paint-order="fill stroke markers" d=" M 171.5 209.5 L 171.5 247.5" stroke-linecap="square" stroke-miterlimit="10" stroke-width="0.8"/><path fill="none" stroke="#000000" paint-order="fill stroke markers" d=" M 133.5 247.5 L 171.5 247.5" stroke-linecap="square" stroke-miterlimit="10" stroke-width="0.8"/><path fill="none" stroke="#000000" paint-order="fill stroke markers" d=" M 209.5 209.5 L 209.5 247.5" stroke-linecap="square" stroke-miterlimit="10" stroke-width="0.8"/><path fill="none" stroke="#000000" paint-order="fill stroke markers" d=" M 171.5 247.5 L 209.5 247.5" stroke-linecap="square" stroke-miterlimit="10" stroke-width="0.8"/><path fill="none" stroke="#000000" paint-order="fill stroke markers" d=" M 247.5 209.5 L 247.5 247.5" stroke-linecap="square" stroke-miterlimit="10" stroke-width="0.8"/><path fill="none" stroke="#000000" paint-order="fill stroke markers" d=" M 209.5 247.5 L 247.5 247.5" stroke-linecap="square" stroke-miterlimit="10" stroke-width="0.8"/><path fill="none" stroke="#000000" paint-order="fill stroke markers" d=" M 285.5 209.5 L 285.5 247.5" stroke-linecap="square" stroke-miterlimit="10" stroke-width="0.8"/><path fill="none" stroke="#000000" paint-order="fill stroke markers" d=" M 247.5 247.5 L 285.5 247.5" stroke-linecap="square" stroke-miterlimit="10" stroke-width="0.8"/><path fill="none" stroke="#000000" paint-order="fill stroke markers" d=" M 323.5 209.5 L 323.5 247.5" stroke-linecap="round" stroke-miterlimit="10" stroke-width="3"/><path fill="none" stroke="#000000" paint-order="fill stroke markers" d=" M 285.5 247.5 L 323.5 247.5" stroke-linecap="square" stroke-miterlimit="10" stroke-width="0.8"/><path fill="none" stroke="#000000" paint-order="fill stroke markers" d=" M 57.5 247.5 L 57.5 285.5" stroke-linecap="square" stroke-miterlimit="10" stroke-width="0.8"/><path fill="none" stroke="#000000" paint-order="fill stroke markers" d=" M 19.5 285.5 L 57.5 285.5" stroke-linecap="square" stroke-miterlimit="10" stroke-width="0.8"/><path fill="none" stroke="#000000" paint-order="fill stroke markers" d=" M 19.5 247.5 L 19.5 285.5" stroke-linecap="round" stroke-miterlimit="10" stroke-width="3"/><path fill="none" stroke="#000000" paint-order="fill stroke markers" d=" M 95.5 247.5 L 95.5 285.5" stroke-linecap="square" stroke-miterlimit="10" stroke-width="0.8"/><path fill="none" stroke="#000000" paint-order="fill stroke markers" d=" M 57.5 285.5 L 95.5 285.5" stroke-linecap="square" stroke-miterlimit="10" stroke-width="0.8"/><path fill="none" stroke="#000000" paint-order="fill stroke markers" d=" M 133.5 247.5 L 133.5 285.5" stroke-linecap="square" stroke-miterlimit="10" stroke-width="0.8"/><path fill="none" stroke="#000000" paint-order="fill stroke markers" d=" M 95.5 285.5 L 133.5 285.5" stroke-linecap="square" stroke-miterlimit="10" stroke-width="0.8"/><path fill="none" stroke="#000000" paint-order="fill stroke markers" d=" M 171.5 247.5 L 171.5 285.5" stroke-linecap="square" stroke-miterlimit="10" stroke-width="0.8"/><path fill="none" stroke="#000000" paint-order="fill stroke markers" d=" M 133.5 285.5 L 171.5 285.5" stroke-linecap="square" stroke-miterlimit="10" stroke-width="0.8"/><path fill="none" stroke="#000000" paint-order="fill stroke markers" d=" M 209.5 247.5 L 209.5 285.5" stroke-linecap="square" stroke-miterlimit="10" stroke-width="0.8"/><path fill="none" stroke="#000000" paint-order="fill stroke markers" d=" M 171.5 285.5 L 209.5 285.5" stroke-linecap="square" stroke-miterlimit="10" stroke-width="0.8"/><path fill="none" stroke="#000000" paint-order="fill stroke markers" d=" M 247.5 247.5 L 247.5 285.5" stroke-linecap="square" stroke-miterlimit="10" stroke-width="0.8"/><path fill="none" stroke="#000000" paint-order="fill stroke markers" d=" M 209.5 285.5 L 247.5 285.5" stroke-linecap="square" stroke-miterlimit="10" stroke-width="0.8"/><path fill="none" stroke="#000000" paint-order="fill stroke markers" d=" M 285.5 247.5 L 285.5 285.5" stroke-linecap="square" stroke-miterlimit="10" stroke-width="0.8"/><path fill="none" stroke="#000000" paint-order="fill stroke markers" d=" M 247.5 285.5 L 285.5 285.5" stroke-linecap="square" stroke-miterlimit="10" stroke-width="0.8"/><path fill="none" stroke="#000000" paint-order="fill stroke markers" d=" M 323.5 247.5 L 323.5 285.5" stroke-linecap="round" stroke-miterlimit="10" stroke-width="3"/><path fill="none" stroke="#000000" paint-order="fill stroke markers" d=" M 285.5 285.5 L 323.5 285.5" stroke-linecap="square" stroke-miterlimit="10" stroke-width="0.8"/><path fill="none" stroke="#000000" paint-order="fill stroke markers" d=" M 57.5 285.5 L 57.5 323.5" stroke-linecap="square" stroke-miterlimit="10" stroke-width="0.8"/><path fill="none" stroke="#000000" paint-order="fill stroke markers" d=" M 19.5 323.5 L 57.5 323.5" stroke-linecap="round" stroke-miterlimit="10" stroke-width="3"/><path fill="none" stroke="#000000" paint-order="fill stroke markers" d=" M 19.5 285.5 L 19.5 323.5" stroke-linecap="round" stroke-miterlimit="10" stroke-width="3"/><path fill="none" stroke="#000000" paint-order="fill stroke markers" d=" M 95.5 285.5 L 95.5 323.5" stroke-linecap="square" stroke-miterlimit="10" stroke-width="0.8"/><path fill="none" stroke="#000000" paint-order="fill stroke markers" d=" M 57.5 323.5 L 95.5 323.5" stroke-linecap="round" stroke-miterlimit="10" stroke-width="3"/><path fill="none" stroke="#000000" paint-order="fill stroke markers" d=" M 133.5 285.5 L 133.5 323.5" stroke-linecap="square" stroke-miterlimit="10" stroke-width="0.8"/><path fill="none" stroke="#000000" paint-order="fill stroke markers" d=" M 95.5 323.5 L 133.5 323.5" stroke-linecap="round" stroke-miterlimit="10" stroke-width="3"/><path fill="none" stroke="#000000" paint-order="fill stroke markers" d=" M 171.5 285.5 L 171.5 323.5" stroke-linecap="square" stroke-miterlimit="10" stroke-width="0.8"/><path fill="none" stroke="#000000" paint-order="fill stroke markers" d=" M 133.5 323.5 L 171.5 323.5" stroke-linecap="round" stroke-miterlimit="10" stroke-width="3"/><path fill="none" stroke="#000000" paint-order="fill stroke markers" d=" M 209.5 285.5 L 209.5 323.5" stroke-linecap="square" stroke-miterlimit="10" stroke-width="0.8"/><path fill="none" stroke="#000000" paint-order="fill stroke markers" d=" M 171.5 323.5 L 209.5 323.5" stroke-linecap="round" stroke-miterlimit="10" stroke-width="3"/><path fill="none" stroke="#000000" paint-order="fill stroke markers" d=" M 247.5 285.5 L 247.5 323.5" stroke-linecap="square" stroke-miterlimit="10" stroke-width="0.8"/><path fill="none" stroke="#000000" paint-order="fill stroke markers" d=" M 209.5 323.5 L 247.5 323.5" stroke-linecap="round" stroke-miterlimit="10" stroke-width="3"/><path fill="none" stroke="#000000" paint-order="fill stroke markers" d=" M 285.5 285.5 L 285.5 323.5" stroke-linecap="square" stroke-miterlimit="10" stroke-width="0.8"/><path fill="none" stroke="#000000" paint-order="fill stroke markers" d=" M 247.5 323.5 L 285.5 323.5" stroke-linecap="round" stroke-miterlimit="10" stroke-width="3"/><path fill="none" stroke="#000000" paint-order="fill stroke markers" d=" M 323.5 285.5 L 323.5 323.5" stroke-linecap="round" stroke-miterlimit="10" stroke-width="3"/><path fill="none" stroke="#000000" paint-order="fill stroke markers" d=" M 285.5 323.5 L 323.5 323.5" stroke-linecap="round" stroke-miterlimit="10" stroke-width="3"/><path fill="none" stroke="#000000" paint-order="fill stroke markers" d=" M 114.5 114.5 L 152.5 152.5" stroke-linecap="round" stroke-miterlimit="10" stroke-width="3"/><path fill="none" stroke="#000000" paint-order="fill stroke markers" d=" M 152.5 114.5 L 114.5 152.5" stroke-linecap="round" stroke-miterlimit="10" stroke-width="3"/><path fill="none" stroke="#000000" paint-order="fill stroke markers" d=" M 266.5 228.5 L 228.5 266.5" stroke-linecap="round" stroke-miterlimit="10" stroke-width="3"/></g></svg>