<svg xmlns="http://www.w3.org/2000/svg" version="1.1" width="418" height="190"><defs /><g><rect fill="rgb(255,255,255)" stroke="none" x="0" y="0" width="418" height="190" fill-opacity="0" /></g><g fill="#444444" stroke="#444444" paint-order="fill stroke markers" stroke-linecap="square" stroke-miterlimit="10" stroke-width="0.5"><path d=" M 133.5 95.5 L 171.5 95.5 L 171.5 133.5 L 133.5 133.5 Z" /><path d=" M 171.5 95.5 L 209.5 95.5 L 209.5 133.5 L 171.5 133.5 Z" /><path d=" M 209.5 95.5 L 247.5 95.5 L 247.5 133.5 L 209.5 133.5 Z" /><path d=" M 247.5 95.5 L 285.5 95.5 L 285.5 133.5 L 247.5 133.5 Z" /><path d=" M 209.5 133.5 L 247.5 133.5 L 247.5 171.5 L 209.5 171.5 Z" /></g><g fill="#ffa3a3" stroke="#ffa3a3" paint-order="fill stroke markers" stroke-linecap="square" stroke-miterlimit="10" stroke-width="0.5"><path d=" M 19.5 133.5 L 57.5 133.5 L 57.5 171.5 L 19.5 171.5 Z" /></g><g fill="none" stroke="#000000" paint-order="fill stroke markers" stroke-miterlimit="10" stroke-width="2"><path d=" M 160.56101730552663 160.56101730552663 L 144.43898269447337 144.43898269447337" /><path d=" M 144.43898269447337 160.56101730552663 L 160.56101730552663 144.43898269447337" /><path d=" M 198.56101730552663 160.56101730552663 L 182.43898269447337 144.43898269447337" /><path d=" M 182.43898269447337 160.56101730552663 L 198.56101730552663 144.43898269447337" /><path d=" M 274.56101730552666 160.56101730552663 L 258.43898269447334 144.43898269447337" /><path d=" M 258.43898269447334 160.56101730552663 L 274.56101730552666 144.43898269447337" /></g><g fill="none" stroke="#000000" paint-order="fill stroke markers" stroke-linecap="square" stroke-miterlimit="10" stroke-width="0.8"><path d=" M 19.5 19.5 L 57.5 19.5" /><path d=" M 57.5 19.5 L 57.5 57.5" /><path d=" M 19.5 57.5 L 57.5 57.5" /><path d=" M 19.5 19.5 L 19.5 57.5" /><path d=" M 57.5 19.5 L 95.5 19.5" /><path d=" M 95.5 19.5 L 95.5 57.5" /><path d=" M 57.5 57.5 L 95.5 57.5" /><path d=" M 95.5 19.5 L 133.5 19.5" /><path d=" M 133.5 19.5 L 133.5 57.5" /><path d=" M 95.5 57.5 L 133.5 57.5" /><path d=" M 133.5 19.5 L 171.5 19.5" /><path d=" M 171.5 19.5 L 171.5 57.5" /><path d=" M 133.5 57.5 L 171.5 57.5" /><path d=" M 171.5 19.5 L 209.5 19.5" /><path d=" M 209.5 19.5 L 209.5 57.5" /><path d=" M 171.5 57.5 L 209.5 57.5" /><path d=" M 209.5 19.5 L 247.5 19.5" /><path d=" M 247.5 19.5 L 247.5 57.5" /><path d=" M 209.5 57.5 L 247.5 57.5" /><path d=" M 247.5 19.5 L 285.5 19.5" /><path d=" M 285.5 19.5 L 285.5 57.5" /><path d=" M 247.5 57.5 L 285.5 57.5" /><path d=" M 285.5 19.5 L 323.5 19.5" /><path d=" M 323.5 19.5 L 323.5 57.5" /><path d=" M 285.5 57.5 L 323.5 57.5" /><path d=" M 323.5 19.5 L 361.5 19.5" /><path d=" M 361.5 19.5 L 361.5 57.5" /><path d=" M 323.5 57.5 L 361.5 57.5" /><path d=" M 361.5 19.5 L 399.5 19.5" /><path d=" M 399.5 19.5 L 399.5 57.5" /><path d=" M 361.5 57.5 L 399.5 57.5" /><path d=" M 57.5 57.5 L 57.5 95.5" /><path d=" M 19.5 95.5 L 57.5 95.5" /><path d=" M 19.5 57.5 L 19.5 95.5" /><path d=" M 95.5 57.5 L 95.5 95.5" /><path d=" M 57.5 95.5 L 95.5 95.5" /><path d=" M 133.5 57.5 L 133.5 95.5" /><path d=" M 95.5 95.5 L 133.5 95.5" /><path d=" M 171.5 57.5 L 171.5 95.5" /><path d=" M 133.5 95.5 L 171.5 95.5" /><path d=" M 209.5 57.5 L 209.5 95.5" /><path d=" M 171.5 95.5 L 209.5 95.5" /><path d=" M 247.5 57.5 L 247.5 95.5" /><path d=" M 209.5 95.5 L 247.5 95.5" /><path d=" M 285.5 57.5 L 285.5 95.5" /><path d=" M 247.5 95.5 L 285.5 95.5" /><path d=" M 323.5 57.5 L 323.5 95.5" /><path d=" M 285.5 95.5 L 323.5 95.5" /><path d=" M 361.5 57.5 L 361.5 95.5" /><path d=" M 323.5 95.5 L 361.5 95.5" /><path d=" M 399.5 57.5 L 399.5 95.5" /><path d=" M 361.5 95.5 L 399.5 95.5" /><path d=" M 57.5 95.5 L 57.5 133.5" /><path d=" M 19.5 133.5 L 57.5 133.5" /><path d=" M 19.5 95.5 L 19.5 133.5" /><path d=" M 95.5 95.5 L 95.5 133.5" /><path d=" M 57.5 133.5 L 95.5 133.5" /><path d=" M 133.5 95.5 L 133.5 133.5" /><path d=" M 95.5 133.5 L 133.5 133.5" /><path d=" M 171.5 95.5 L 171.5 133.5" /><path d=" M 133.5 133.5 L 171.5 133.5" /><path d=" M 209.5 95.5 L 209.5 133.5" /><path d=" M 171.5 133.5 L 209.5 133.5" /><path d=" M 247.5 95.5 L 247.5 133.5" /><path d=" M 209.5 133.5 L 247.5 133.5" /><path d=" M 285.5 95.5 L 285.5 133.5" /><path d=" M 247.5 133.5 L 285.5 133.5" /><path d=" M 323.5 95.5 L 323.5 133.5" /><path d=" M 285.5 133.5 L 323.5 133.5" /><path d=" M 361.5 95.5 L 361.5 133.5" /><path d=" M 323.5 133.5 L 361.5 133.5" /><path d=" M 399.5 95.5 L 399.5 133.5" /><path d=" M 361.5 133.5 L 399.5 133.5" /><path d=" M 57.5 133.5 L 57.5 171.5" /><path d=" M 19.5 171.5 L 57.5 171.5" /><path d=" M 19.5 133.5 L 19.5 171.5" /><path d=" M 95.5 133.5 L 95.5 171.5" /><path d=" M 57.5 171.5 L 95.5 171.5" /><path d=" M 133.5 133.5 L 133.5 171.5" /><path d=" M 95.5 171.5 L 133.5 171.5" /><path d=" M 171.5 133.5 L 171.5 171.5" /><path d=" M 133.5 171.5 L 171.5 171.5" /><path d=" M 209.5 133.5 L 209.5 171.5" /><path d=" M 171.5 171.5 L 209.5 171.5" /><path d=" M 247.5 133.5 L 247.5 171.5" /><path d=" M 209.5 171.5 L 247.5 171.5" /><path d=" M 285.5 133.5 L 285.5 171.5" /><path d=" M 247.5 171.5 L 285.5 171.5" /><path d=" M 323.5 133.5 L 323.5 171.5" /><path d=" M 285.5 171.5 L 323.5 171.5" /><path d=" M 361.5 133.5 L 361.5 171.5" /><path d=" M 323.5 171.5 L 361.5 171.5" /><path d=" M 399.5 133.5 L 399.5 171.5" /><path d=" M 361.5 171.5 L 399.5 171.5" /></g><g fill="none" stroke="#000000" paint-order="fill stroke markers" stroke-linecap="round" stroke-miterlimit="10" stroke-width="3"><path d=" M 95.5 19.5 L 95.5 57.5" /><path d=" M 95.5 57.5 L 95.5 95.5" /><path d=" M 95.5 95.5 L 95.5 133.5" /><path d=" M 95.5 133.5 L 95.5 171.5" /><path d=" M 19.5 95.5 L 57.5 95.5" /><path d=" M 57.5 95.5 L 95.5 95.5" /><path d=" M 95.5 95.5 L 133.5 95.5" /><path d=" M 133.5 95.5 L 171.5 95.5" /><path d=" M 171.5 95.5 L 209.5 95.5" /><path d=" M 209.5 95.5 L 247.5 95.5" /><path d=" M 247.5 95.5 L 285.5 95.5" /><path d=" M 285.5 95.5 L 323.5 95.5" /><path d=" M 323.5 95.5 L 361.5 95.5" /><path d=" M 361.5 95.5 L 399.5 95.5" /><path d=" M 399.5 19.5 L 399.5 57.5" /><path d=" M 399.5 57.5 L 399.5 95.5" /><path d=" M 399.5 95.5 L 399.5 133.5" /><path d=" M 399.5 133.5 L 399.5 171.5" /></g><g fill="none" stroke="rgb(255,255,255)" font-family="Helvetica,Arial" font-size="26.599999999999998px" font-style="normal" font-weight="normal" text-decoration="normal" text-anchor="middle" dominant-baseline="alphabetic" stroke-opacity="0" stroke-linecap="round" stroke-miterlimit="10" stroke-width="3"><text x="114.5" y="86.22800000000001">2</text><text x="152.5" y="86.22800000000001">1</text><text x="190.5" y="86.22800000000001">1</text><text x="228.5" y="86.22800000000001">2</text><text x="266.5" y="86.22800000000001">1</text><text x="304.5" y="86.22800000000001">1</text><text x="342.5" y="86.22800000000001">2</text><text x="380.5" y="86.22800000000001">2</text><text x="76.5" y="124.22800000000001">4</text><text x="38.5" y="162.228">3</text><text x="76.5" y="162.228">1</text></g><g fill="#000000" stroke="none" font-family="Helvetica,Arial" font-size="26.599999999999998px" font-style="normal" font-weight="normal" text-decoration="normal" text-anchor="middle" dominant-baseline="alphabetic"><text x="114.5" y="86.22800000000001">2</text><text x="152.5" y="86.22800000000001">1</text><text x="190.5" y="86.22800000000001">1</text><text x="228.5" y="86.22800000000001">2</text><text x="266.5" y="86.22800000000001">1</text><text x="304.5" y="86.22800000000001">1</text><text x="342.5" y="86.22800000000001">2</text><text x="380.5" y="86.22800000000001">2</text><text x="76.5" y="124.22800000000001">4</text><text x="38.5" y="162.228">3</text><text x="76.5" y="162.228">1</text></g></svg>
