<?xml version="1.0" encoding="UTF-8"?>
<svg xmlns="http://www.w3.org/2000/svg" xmlns:xlink="http://www.w3.org/1999/xlink" font-size="10px" font-family="sans-serif" width="298" height="298" viewBox="-5.5 -5.5 298 298"><g shape-rendering="crispEdges"><path fill="white" stroke="none" d="M -0.5 -0.5 L 288.5 -0.5 288.5 288.5 -0.5 288.5 z"></path></g><g shape-rendering="crispEdges"></g><g shape-rendering="crispEdges"><path fill="black" stroke="none" d="M 71.5 -0.5 L 108.5 -0.5 108.5 36.5 71.5 36.5 z"></path><path fill="black" stroke="none" d="M 107.5 -0.5 L 144.5 -0.5 144.5 36.5 107.5 36.5 z"></path><path fill="black" stroke="none" d="M 143.5 -0.5 L 180.5 -0.5 180.5 36.5 143.5 36.5 z"></path><path fill="black" stroke="none" d="M 215.5 -0.5 L 252.5 -0.5 252.5 36.5 215.5 36.5 z"></path><path fill="black" stroke="none" d="M 107.5 35.5 L 144.5 35.5 144.5 72.5 107.5 72.5 z"></path><path fill="black" stroke="none" d="M 179.5 35.5 L 216.5 35.5 216.5 72.5 179.5 72.5 z"></path><path fill="black" stroke="none" d="M 215.5 35.5 L 252.5 35.5 252.5 72.5 215.5 72.5 z"></path><path fill="black" stroke="none" d="M 251.5 35.5 L 288.5 35.5 288.5 72.5 251.5 72.5 z"></path><path fill="black" stroke="none" d="M 35.5 71.5 L 72.5 71.5 72.5 108.5 35.5 108.5 z"></path><path fill="black" stroke="none" d="M 71.5 71.5 L 108.5 71.5 108.5 108.5 71.5 108.5 z"></path><path fill="black" stroke="none" d="M 107.5 71.5 L 144.5 71.5 144.5 108.5 107.5 108.5 z"></path><path fill="black" stroke="none" d="M 215.5 71.5 L 252.5 71.5 252.5 108.5 215.5 108.5 z"></path><path fill="black" stroke="none" d="M 35.5 107.5 L 72.5 107.5 72.5 144.5 35.5 144.5 z"></path><path fill="black" stroke="none" d="M 179.5 107.5 L 216.5 107.5 216.5 144.5 179.5 144.5 z"></path><path fill="black" stroke="none" d="M 215.5 107.5 L 252.5 107.5 252.5 144.5 215.5 144.5 z"></path><path fill="black" stroke="none" d="M 251.5 107.5 L 288.5 107.5 288.5 144.5 251.5 144.5 z"></path><path fill="black" stroke="none" d="M -0.5 143.5 L 36.5 143.5 36.5 180.5 -0.5 180.5 z"></path><path fill="black" stroke="none" d="M 35.5 143.5 L 72.5 143.5 72.5 180.5 35.5 180.5 z"></path><path fill="black" stroke="none" d="M 179.5 143.5 L 216.5 143.5 216.5 180.5 179.5 180.5 z"></path><path fill="black" stroke="none" d="M 251.5 143.5 L 288.5 143.5 288.5 180.5 251.5 180.5 z"></path><path fill="black" stroke="none" d="M -0.5 179.5 L 36.5 179.5 36.5 216.5 -0.5 216.5 z"></path><path fill="black" stroke="none" d="M 143.5 179.5 L 180.5 179.5 180.5 216.5 143.5 216.5 z"></path><path fill="black" stroke="none" d="M 179.5 179.5 L 216.5 179.5 216.5 216.5 179.5 216.5 z"></path><path fill="black" stroke="none" d="M 251.5 179.5 L 288.5 179.5 288.5 216.5 251.5 216.5 z"></path><path fill="black" stroke="none" d="M -0.5 215.5 L 36.5 215.5 36.5 252.5 -0.5 252.5 z"></path><path fill="black" stroke="none" d="M 71.5 215.5 L 108.5 215.5 108.5 252.5 71.5 252.5 z"></path><path fill="black" stroke="none" d="M 107.5 215.5 L 144.5 215.5 144.5 252.5 107.5 252.5 z"></path><path fill="black" stroke="none" d="M 143.5 215.5 L 180.5 215.5 180.5 252.5 143.5 252.5 z"></path><path fill="black" stroke="none" d="M -0.5 251.5 L 36.5 251.5 36.5 288.5 -0.5 288.5 z"></path><path fill="black" stroke="none" d="M 35.5 251.5 L 72.5 251.5 72.5 288.5 35.5 288.5 z"></path><path fill="black" stroke="none" d="M 71.5 251.5 L 108.5 251.5 108.5 288.5 71.5 288.5 z"></path><path fill="black" stroke="none" d="M 143.5 251.5 L 180.5 251.5 180.5 288.5 143.5 288.5 z"></path></g><g shape-rendering="auto"><path fill="black" stroke="none" d="M 20.16 18.125 A 2.16 2.16 0 1 1 20.16 18 z"></path><path fill="black" stroke="none" d="M 56.16 18.125 A 2.16 2.16 0 1 1 56.16 18 z"></path><path fill="black" stroke="none" d="M 20.16 54.125 A 2.16 2.16 0 1 1 20.16 54 z"></path><path fill="black" stroke="none" d="M 56.16 54.125 A 2.16 2.16 0 1 1 56.16 54 z"></path><path fill="black" stroke="none" d="M 164.16 54.125 A 2.16 2.16 0 1 1 164.16 54 z"></path><path fill="black" stroke="none" d="M 20.16 90.125 A 2.16 2.16 0 1 1 20.16 90 z"></path><path fill="black" stroke="none" d="M 164.16 90.125 A 2.16 2.16 0 1 1 164.16 90 z"></path><path fill="black" stroke="none" d="M 200.16 90.125 A 2.16 2.16 0 1 1 200.16 90 z"></path><path fill="black" stroke="none" d="M 20.16 126.125 A 2.16 2.16 0 1 1 20.16 126 z"></path><path fill="black" stroke="none" d="M 92.16 126.125 A 2.16 2.16 0 1 1 92.16 126 z"></path><path fill="black" stroke="none" d="M 128.16 126.125 A 2.16 2.16 0 1 1 128.16 126 z"></path><path fill="black" stroke="none" d="M 164.16 126.125 A 2.16 2.16 0 1 1 164.16 126 z"></path><path fill="black" stroke="none" d="M 92.16 162.125 A 2.16 2.16 0 1 1 92.16 162 z"></path><path fill="black" stroke="none" d="M 164.16 162.125 A 2.16 2.16 0 1 1 164.16 162 z"></path><path fill="black" stroke="none" d="M 56.16 198.125 A 2.16 2.16 0 1 1 56.16 198 z"></path><path fill="black" stroke="none" d="M 92.16 198.125 A 2.16 2.16 0 1 1 92.16 198 z"></path><path fill="black" stroke="none" d="M 128.16 198.125 A 2.16 2.16 0 1 1 128.16 198 z"></path><path fill="black" stroke="none" d="M 236.16 198.125 A 2.16 2.16 0 1 1 236.16 198 z"></path><path fill="black" stroke="none" d="M 56.16 234.125 A 2.16 2.16 0 1 1 56.16 234 z"></path><path fill="black" stroke="none" d="M 200.16 234.125 A 2.16 2.16 0 1 1 200.16 234 z"></path><path fill="black" stroke="none" d="M 236.16 234.125 A 2.16 2.16 0 1 1 236.16 234 z"></path><path fill="black" stroke="none" d="M 272.16 234.125 A 2.16 2.16 0 1 1 272.16 234 z"></path><path fill="black" stroke="none" d="M 200.16 270.125 A 2.16 2.16 0 1 1 200.16 270 z"></path><path fill="black" stroke="none" d="M 236.16 270.125 A 2.16 2.16 0 1 1 236.16 270 z"></path><path fill="black" stroke="none" d="M 272.16 270.125 A 2.16 2.16 0 1 1 272.16 270 z"></path></g><g shape-rendering="crispEdges"><path fill="none" stroke="black" d="M 36 0 L 36 288" stroke-width="1"></path><path fill="none" stroke="black" d="M 72 0 L 72 288" stroke-width="1"></path><path fill="none" stroke="black" d="M 108 0 L 108 288" stroke-width="1"></path><path fill="none" stroke="black" d="M 144 0 L 144 288" stroke-width="1"></path><path fill="none" stroke="black" d="M 180 0 L 180 288" stroke-width="1"></path><path fill="none" stroke="black" d="M 216 0 L 216 288" stroke-width="1"></path><path fill="none" stroke="black" d="M 252 0 L 252 288" stroke-width="1"></path><path fill="none" stroke="black" d="M 0 36 L 288 36" stroke-width="1"></path><path fill="none" stroke="black" d="M 0 72 L 288 72" stroke-width="1"></path><path fill="none" stroke="black" d="M 0 108 L 288 108" stroke-width="1"></path><path fill="none" stroke="black" d="M 0 144 L 288 144" stroke-width="1"></path><path fill="none" stroke="black" d="M 0 180 L 288 180" stroke-width="1"></path><path fill="none" stroke="black" d="M 0 216 L 288 216" stroke-width="1"></path><path fill="none" stroke="black" d="M 0 252 L 288 252" stroke-width="1"></path></g><g shape-rendering="auto"><text fill="black" x="198" y="27.799999999999997" text-anchor="middle" font-size="28">1</text><text fill="black" x="270" y="27.799999999999997" text-anchor="middle" font-size="28">1</text><text fill="black" x="90" y="63.8" text-anchor="middle" font-size="28">7</text><text fill="black" x="270" y="99.8" text-anchor="middle" font-size="28">1</text><text fill="black" x="126" y="171.8" text-anchor="middle" font-size="28">?</text><text fill="black" x="234" y="171.8" text-anchor="middle" font-size="28">8</text><text fill="black" x="126" y="279.8" text-anchor="middle" font-size="28">1</text></g><g shape-rendering="crispEdges"><path fill="black" stroke="none" d="M -2 -2 L 2 -2 2 290 -2 290 z"></path><path fill="black" stroke="none" d="M 286 -2 L 290 -2 290 290 286 290 z"></path><path fill="black" stroke="none" d="M -2 -2 L 290 -2 290 2 -2 2 z"></path><path fill="black" stroke="none" d="M -2 286 L 290 286 290 290 -2 290 z"></path></g><g shape-rendering="crispEdges"></g></svg>