<?xml version="1.0" encoding="UTF-8"?>
<svg xmlns="http://www.w3.org/2000/svg" xmlns:xlink="http://www.w3.org/1999/xlink" font-size="10px" font-family="sans-serif" width="334" height="334" viewBox="-5.5 -5.5 334 334"><g shape-rendering="crispEdges"><path fill="white" stroke="none" d="M -0.5 -0.5 L 324.5 -0.5 324.5 324.5 -0.5 324.5 z"></path></g><g shape-rendering="crispEdges"></g><g shape-rendering="crispEdges"></g><g shape-rendering="auto"></g><g shape-rendering="crispEdges"><path fill="none" stroke="black" d="M 36 0 L 36 324" stroke-width="1"></path><path fill="none" stroke="black" d="M 72 0 L 72 324" stroke-width="1"></path><path fill="none" stroke="black" d="M 108 0 L 108 324" stroke-width="1"></path><path fill="none" stroke="black" d="M 144 0 L 144 324" stroke-width="1"></path><path fill="none" stroke="black" d="M 180 0 L 180 324" stroke-width="1"></path><path fill="none" stroke="black" d="M 216 0 L 216 324" stroke-width="1"></path><path fill="none" stroke="black" d="M 252 0 L 252 324" stroke-width="1"></path><path fill="none" stroke="black" d="M 288 0 L 288 324" stroke-width="1"></path><path fill="none" stroke="black" d="M 0 36 L 324 36" stroke-width="1"></path><path fill="none" stroke="black" d="M 0 72 L 324 72" stroke-width="1"></path><path fill="none" stroke="black" d="M 0 108 L 324 108" stroke-width="1"></path><path fill="none" stroke="black" d="M 0 144 L 324 144" stroke-width="1"></path><path fill="none" stroke="black" d="M 0 180 L 324 180" stroke-width="1"></path><path fill="none" stroke="black" d="M 0 216 L 324 216" stroke-width="1"></path><path fill="none" stroke="black" d="M 0 252 L 324 252" stroke-width="1"></path><path fill="none" stroke="black" d="M 0 288 L 324 288" stroke-width="1"></path></g><g shape-rendering="auto"><text fill="black" x="54" y="27.799999999999997" text-anchor="middle" font-size="28">4</text><text fill="black" x="270" y="27.799999999999997" text-anchor="middle" font-size="28">2</text><text fill="black" x="90" y="99.8" text-anchor="middle" font-size="28">5</text><text fill="black" x="270" y="99.8" text-anchor="middle" textLength="28" lengthAdjust="spacingAndGlyphs" font-size="28">10</text><text fill="black" x="54" y="171.8" text-anchor="middle" font-size="28">3</text><text fill="black" x="306" y="207.8" text-anchor="middle" font-size="28">1</text><text fill="black" x="54" y="243.8" text-anchor="middle" font-size="28">6</text><text fill="black" x="54" y="315.8" text-anchor="middle" font-size="28">1</text><text fill="black" x="234" y="315.8" text-anchor="middle" font-size="28">4</text></g><g shape-rendering="crispEdges"><path fill="black" stroke="none" d="M -2 -2 L 2 -2 2 326 -2 326 z"></path><path fill="black" stroke="none" d="M 322 -2 L 326 -2 326 326 322 326 z"></path><path fill="black" stroke="none" d="M -2 -2 L 326 -2 326 2 -2 2 z"></path><path fill="black" stroke="none" d="M -2 322 L 326 322 326 326 -2 326 z"></path></g><g shape-rendering="crispEdges"></g></svg>