<?xml version="1.0" encoding="UTF-8"?>
<svg xmlns="http://www.w3.org/2000/svg" xmlns:xlink="http://www.w3.org/1999/xlink" font-size="10px" font-family="sans-serif" width="334" height="334" viewBox="-5.5 -5.5 334 334"><g shape-rendering="crispEdges"><path fill="white" stroke="none" d="M -0.5 -0.5 L 324.5 -0.5 324.5 324.5 -0.5 324.5 z"></path></g><g shape-rendering="crispEdges"></g><g shape-rendering="crispEdges"><path fill="black" stroke="none" d="M 71.5 -0.5 L 108.5 -0.5 108.5 36.5 71.5 36.5 z"></path><path fill="black" stroke="none" d="M 107.5 -0.5 L 144.5 -0.5 144.5 36.5 107.5 36.5 z"></path><path fill="black" stroke="none" d="M 143.5 -0.5 L 180.5 -0.5 180.5 36.5 143.5 36.5 z"></path><path fill="black" stroke="none" d="M 179.5 -0.5 L 216.5 -0.5 216.5 36.5 179.5 36.5 z"></path><path fill="black" stroke="none" d="M 215.5 -0.5 L 252.5 -0.5 252.5 36.5 215.5 36.5 z"></path><path fill="black" stroke="none" d="M 35.5 35.5 L 72.5 35.5 72.5 72.5 35.5 72.5 z"></path><path fill="black" stroke="none" d="M 71.5 35.5 L 108.5 35.5 108.5 72.5 71.5 72.5 z"></path><path fill="black" stroke="none" d="M 215.5 35.5 L 252.5 35.5 252.5 72.5 215.5 72.5 z"></path><path fill="black" stroke="none" d="M 251.5 35.5 L 288.5 35.5 288.5 72.5 251.5 72.5 z"></path><path fill="black" stroke="none" d="M 287.5 35.5 L 324.5 35.5 324.5 72.5 287.5 72.5 z"></path><path fill="black" stroke="none" d="M 35.5 71.5 L 72.5 71.5 72.5 108.5 35.5 108.5 z"></path><path fill="black" stroke="none" d="M 143.5 71.5 L 180.5 71.5 180.5 108.5 143.5 108.5 z"></path><path fill="black" stroke="none" d="M 179.5 71.5 L 216.5 71.5 216.5 108.5 179.5 108.5 z"></path><path fill="black" stroke="none" d="M 215.5 71.5 L 252.5 71.5 252.5 108.5 215.5 108.5 z"></path><path fill="black" stroke="none" d="M 287.5 71.5 L 324.5 71.5 324.5 108.5 287.5 108.5 z"></path><path fill="black" stroke="none" d="M -0.5 107.5 L 36.5 107.5 36.5 144.5 -0.5 144.5 z"></path><path fill="black" stroke="none" d="M 35.5 107.5 L 72.5 107.5 72.5 144.5 35.5 144.5 z"></path><path fill="black" stroke="none" d="M 71.5 107.5 L 108.5 107.5 108.5 144.5 71.5 144.5 z"></path><path fill="black" stroke="none" d="M 107.5 107.5 L 144.5 107.5 144.5 144.5 107.5 144.5 z"></path><path fill="black" stroke="none" d="M 287.5 107.5 L 324.5 107.5 324.5 144.5 287.5 144.5 z"></path><path fill="black" stroke="none" d="M 107.5 143.5 L 144.5 143.5 144.5 180.5 107.5 180.5 z"></path><path fill="black" stroke="none" d="M 143.5 143.5 L 180.5 143.5 180.5 180.5 143.5 180.5 z"></path><path fill="black" stroke="none" d="M 215.5 143.5 L 252.5 143.5 252.5 180.5 215.5 180.5 z"></path><path fill="black" stroke="none" d="M 251.5 143.5 L 288.5 143.5 288.5 180.5 251.5 180.5 z"></path><path fill="black" stroke="none" d="M 287.5 143.5 L 324.5 143.5 324.5 180.5 287.5 180.5 z"></path><path fill="black" stroke="none" d="M -0.5 179.5 L 36.5 179.5 36.5 216.5 -0.5 216.5 z"></path><path fill="black" stroke="none" d="M 35.5 179.5 L 72.5 179.5 72.5 216.5 35.5 216.5 z"></path><path fill="black" stroke="none" d="M 71.5 179.5 L 108.5 179.5 108.5 216.5 71.5 216.5 z"></path><path fill="black" stroke="none" d="M 107.5 179.5 L 144.5 179.5 144.5 216.5 107.5 216.5 z"></path><path fill="black" stroke="none" d="M 251.5 179.5 L 288.5 179.5 288.5 216.5 251.5 216.5 z"></path><path fill="black" stroke="none" d="M -0.5 215.5 L 36.5 215.5 36.5 252.5 -0.5 252.5 z"></path><path fill="black" stroke="none" d="M 143.5 215.5 L 180.5 215.5 180.5 252.5 143.5 252.5 z"></path><path fill="black" stroke="none" d="M 179.5 215.5 L 216.5 215.5 216.5 252.5 179.5 252.5 z"></path><path fill="black" stroke="none" d="M 251.5 215.5 L 288.5 215.5 288.5 252.5 251.5 252.5 z"></path><path fill="black" stroke="none" d="M 287.5 215.5 L 324.5 215.5 324.5 252.5 287.5 252.5 z"></path><path fill="black" stroke="none" d="M -0.5 251.5 L 36.5 251.5 36.5 288.5 -0.5 288.5 z"></path><path fill="black" stroke="none" d="M 35.5 251.5 L 72.5 251.5 72.5 288.5 35.5 288.5 z"></path><path fill="black" stroke="none" d="M 179.5 251.5 L 216.5 251.5 216.5 288.5 179.5 288.5 z"></path><path fill="black" stroke="none" d="M 215.5 251.5 L 252.5 251.5 252.5 288.5 215.5 288.5 z"></path><path fill="black" stroke="none" d="M 251.5 251.5 L 288.5 251.5 288.5 288.5 251.5 288.5 z"></path><path fill="black" stroke="none" d="M -0.5 287.5 L 36.5 287.5 36.5 324.5 -0.5 324.5 z"></path><path fill="black" stroke="none" d="M 71.5 287.5 L 108.5 287.5 108.5 324.5 71.5 324.5 z"></path><path fill="black" stroke="none" d="M 107.5 287.5 L 144.5 287.5 144.5 324.5 107.5 324.5 z"></path><path fill="black" stroke="none" d="M 143.5 287.5 L 180.5 287.5 180.5 324.5 143.5 324.5 z"></path><path fill="black" stroke="none" d="M 179.5 287.5 L 216.5 287.5 216.5 324.5 179.5 324.5 z"></path></g><g shape-rendering="auto"><path fill="black" stroke="none" d="M 20.16 18.125 A 2.16 2.16 0 1 1 20.16 18 z"></path><path fill="black" stroke="none" d="M 308.16 18.125 A 2.16 2.16 0 1 1 308.16 18 z"></path><path fill="black" stroke="none" d="M 20.16 54.125 A 2.16 2.16 0 1 1 20.16 54 z"></path><path fill="black" stroke="none" d="M 128.16 54.125 A 2.16 2.16 0 1 1 128.16 54 z"></path><path fill="black" stroke="none" d="M 164.16 54.125 A 2.16 2.16 0 1 1 164.16 54 z"></path><path fill="black" stroke="none" d="M 200.16 54.125 A 2.16 2.16 0 1 1 200.16 54 z"></path><path fill="black" stroke="none" d="M 20.16 90.125 A 2.16 2.16 0 1 1 20.16 90 z"></path><path fill="black" stroke="none" d="M 128.16 90.125 A 2.16 2.16 0 1 1 128.16 90 z"></path><path fill="black" stroke="none" d="M 164.16 126.125 A 2.16 2.16 0 1 1 164.16 126 z"></path><path fill="black" stroke="none" d="M 200.16 126.125 A 2.16 2.16 0 1 1 200.16 126 z"></path><path fill="black" stroke="none" d="M 236.16 126.125 A 2.16 2.16 0 1 1 236.16 126 z"></path><path fill="black" stroke="none" d="M 272.16 126.125 A 2.16 2.16 0 1 1 272.16 126 z"></path><path fill="black" stroke="none" d="M 20.16 162.125 A 2.16 2.16 0 1 1 20.16 162 z"></path><path fill="black" stroke="none" d="M 92.16 162.125 A 2.16 2.16 0 1 1 92.16 162 z"></path><path fill="black" stroke="none" d="M 200.16 162.125 A 2.16 2.16 0 1 1 200.16 162 z"></path><path fill="black" stroke="none" d="M 164.16 198.125 A 2.16 2.16 0 1 1 164.16 198 z"></path><path fill="black" stroke="none" d="M 200.16 198.125 A 2.16 2.16 0 1 1 200.16 198 z"></path><path fill="black" stroke="none" d="M 236.16 198.125 A 2.16 2.16 0 1 1 236.16 198 z"></path><path fill="black" stroke="none" d="M 92.16 234.125 A 2.16 2.16 0 1 1 92.16 234 z"></path><path fill="black" stroke="none" d="M 128.16 234.125 A 2.16 2.16 0 1 1 128.16 234 z"></path><path fill="black" stroke="none" d="M 236.16 234.125 A 2.16 2.16 0 1 1 236.16 234 z"></path><path fill="black" stroke="none" d="M 92.16 270.125 A 2.16 2.16 0 1 1 92.16 270 z"></path><path fill="black" stroke="none" d="M 128.16 270.125 A 2.16 2.16 0 1 1 128.16 270 z"></path><path fill="black" stroke="none" d="M 164.16 270.125 A 2.16 2.16 0 1 1 164.16 270 z"></path><path fill="black" stroke="none" d="M 308.16 270.125 A 2.16 2.16 0 1 1 308.16 270 z"></path><path fill="black" stroke="none" d="M 272.16 306.125 A 2.16 2.16 0 1 1 272.16 306 z"></path><path fill="black" stroke="none" d="M 308.16 306.125 A 2.16 2.16 0 1 1 308.16 306 z"></path></g><g shape-rendering="crispEdges"><path fill="none" stroke="black" d="M 36 0 L 36 324" stroke-width="1"></path><path fill="none" stroke="black" d="M 72 0 L 72 324" stroke-width="1"></path><path fill="none" stroke="black" d="M 108 0 L 108 324" stroke-width="1"></path><path fill="none" stroke="black" d="M 144 0 L 144 324" stroke-width="1"></path><path fill="none" stroke="black" d="M 180 0 L 180 324" stroke-width="1"></path><path fill="none" stroke="black" d="M 216 0 L 216 324" stroke-width="1"></path><path fill="none" stroke="black" d="M 252 0 L 252 324" stroke-width="1"></path><path fill="none" stroke="black" d="M 288 0 L 288 324" stroke-width="1"></path><path fill="none" stroke="black" d="M 0 36 L 324 36" stroke-width="1"></path><path fill="none" stroke="black" d="M 0 72 L 324 72" stroke-width="1"></path><path fill="none" stroke="black" d="M 0 108 L 324 108" stroke-width="1"></path><path fill="none" stroke="black" d="M 0 144 L 324 144" stroke-width="1"></path><path fill="none" stroke="black" d="M 0 180 L 324 180" stroke-width="1"></path><path fill="none" stroke="black" d="M 0 216 L 324 216" stroke-width="1"></path><path fill="none" stroke="black" d="M 0 252 L 324 252" stroke-width="1"></path><path fill="none" stroke="black" d="M 0 288 L 324 288" stroke-width="1"></path></g><g shape-rendering="auto"><text fill="black" x="54" y="27.799999999999997" text-anchor="middle" font-size="28">4</text><text fill="black" x="270" y="27.799999999999997" text-anchor="middle" font-size="28">2</text><text fill="black" x="90" y="99.8" text-anchor="middle" font-size="28">5</text><text fill="black" x="270" y="99.8" text-anchor="middle" textLength="28" lengthAdjust="spacingAndGlyphs" font-size="28">10</text><text fill="black" x="54" y="171.8" text-anchor="middle" font-size="28">3</text><text fill="black" x="306" y="207.8" text-anchor="middle" font-size="28">1</text><text fill="black" x="54" y="243.8" text-anchor="middle" font-size="28">6</text><text fill="black" x="54" y="315.8" text-anchor="middle" font-size="28">1</text><text fill="black" x="234" y="315.8" text-anchor="middle" font-size="28">4</text></g><g shape-rendering="crispEdges"><path fill="black" stroke="none" d="M -2 -2 L 2 -2 2 326 -2 326 z"></path><path fill="black" stroke="none" d="M 322 -2 L 326 -2 326 326 322 326 z"></path><path fill="black" stroke="none" d="M -2 -2 L 326 -2 326 2 -2 2 z"></path><path fill="black" stroke="none" d="M -2 322 L 326 322 326 326 -2 326 z"></path></g><g shape-rendering="crispEdges"></g></svg>