<?xml version="1.0" encoding="UTF-8"?>
<svg xmlns="http://www.w3.org/2000/svg" xmlns:xlink="http://www.w3.org/1999/xlink" font-size="10px" font-family="sans-serif" width="478" height="190" viewBox="-5.5 -5.5 478 190"><g shape-rendering="crispEdges"><path fill="white" stroke="none" d="M -0.5 -0.5 L 468.5 -0.5 468.5 180.5 -0.5 180.5 z"></path></g><g shape-rendering="crispEdges"></g><g shape-rendering="crispEdges"></g><g shape-rendering="crispEdges"><path fill="none" stroke="rgb(160, 160, 160)" d="M 36 0 L 36 180" stroke-width="1" stroke-dasharray="2.8125 3.375 5.625 3.375 5.625 3.375 5.625 3.375 2.8125 0"></path><path fill="none" stroke="rgb(160, 160, 160)" d="M 72 0 L 72 180" stroke-width="1" stroke-dasharray="2.8125 3.375 5.625 3.375 5.625 3.375 5.625 3.375 2.8125 0"></path><path fill="none" stroke="rgb(160, 160, 160)" d="M 108 0 L 108 180" stroke-width="1" stroke-dasharray="2.8125 3.375 5.625 3.375 5.625 3.375 5.625 3.375 2.8125 0"></path><path fill="none" stroke="rgb(160, 160, 160)" d="M 144 0 L 144 180" stroke-width="1" stroke-dasharray="2.8125 3.375 5.625 3.375 5.625 3.375 5.625 3.375 2.8125 0"></path><path fill="none" stroke="rgb(160, 160, 160)" d="M 180 0 L 180 180" stroke-width="1" stroke-dasharray="2.8125 3.375 5.625 3.375 5.625 3.375 5.625 3.375 2.8125 0"></path><path fill="none" stroke="rgb(160, 160, 160)" d="M 216 0 L 216 180" stroke-width="1" stroke-dasharray="2.8125 3.375 5.625 3.375 5.625 3.375 5.625 3.375 2.8125 0"></path><path fill="none" stroke="rgb(160, 160, 160)" d="M 252 0 L 252 180" stroke-width="1" stroke-dasharray="2.8125 3.375 5.625 3.375 5.625 3.375 5.625 3.375 2.8125 0"></path><path fill="none" stroke="rgb(160, 160, 160)" d="M 288 0 L 288 180" stroke-width="1" stroke-dasharray="2.8125 3.375 5.625 3.375 5.625 3.375 5.625 3.375 2.8125 0"></path><path fill="none" stroke="rgb(160, 160, 160)" d="M 324 0 L 324 180" stroke-width="1" stroke-dasharray="2.8125 3.375 5.625 3.375 5.625 3.375 5.625 3.375 2.8125 0"></path><path fill="none" stroke="rgb(160, 160, 160)" d="M 360 0 L 360 180" stroke-width="1" stroke-dasharray="2.8125 3.375 5.625 3.375 5.625 3.375 5.625 3.375 2.8125 0"></path><path fill="none" stroke="rgb(160, 160, 160)" d="M 396 0 L 396 180" stroke-width="1" stroke-dasharray="2.8125 3.375 5.625 3.375 5.625 3.375 5.625 3.375 2.8125 0"></path><path fill="none" stroke="rgb(160, 160, 160)" d="M 432 0 L 432 180" stroke-width="1" stroke-dasharray="2.8125 3.375 5.625 3.375 5.625 3.375 5.625 3.375 2.8125 0"></path><path fill="none" stroke="rgb(160, 160, 160)" d="M 0 36 L 468 36" stroke-width="1" stroke-dasharray="2.8125 3.375 5.625 3.375 5.625 3.375 5.625 3.375 2.8125 0"></path><path fill="none" stroke="rgb(160, 160, 160)" d="M 0 72 L 468 72" stroke-width="1" stroke-dasharray="2.8125 3.375 5.625 3.375 5.625 3.375 5.625 3.375 2.8125 0"></path><path fill="none" stroke="rgb(160, 160, 160)" d="M 0 108 L 468 108" stroke-width="1" stroke-dasharray="2.8125 3.375 5.625 3.375 5.625 3.375 5.625 3.375 2.8125 0"></path><path fill="none" stroke="rgb(160, 160, 160)" d="M 0 144 L 468 144" stroke-width="1" stroke-dasharray="2.8125 3.375 5.625 3.375 5.625 3.375 5.625 3.375 2.8125 0"></path></g><g shape-rendering="auto"></g><g shape-rendering="auto"></g><g shape-rendering="auto"><text fill="black" x="126" y="27.799999999999997" text-anchor="middle" font-size="28">1</text><text fill="black" x="198" y="27.799999999999997" text-anchor="middle" font-size="28">2</text><text fill="black" x="270" y="27.799999999999997" text-anchor="middle" font-size="28">2</text><text fill="black" x="378" y="27.799999999999997" text-anchor="middle" font-size="28">2</text><text fill="black" x="90" y="63.8" text-anchor="middle" font-size="28">1</text><text fill="black" x="162" y="63.8" text-anchor="middle" font-size="28">4</text><text fill="black" x="234" y="63.8" text-anchor="middle" font-size="28">4</text><text fill="black" x="306" y="63.8" text-anchor="middle" font-size="28">1</text><text fill="black" x="378" y="63.8" text-anchor="middle" font-size="28">6</text><text fill="black" x="414" y="63.8" text-anchor="middle" font-size="28">3</text><text fill="black" x="18" y="99.8" text-anchor="middle" font-size="28">3</text><text fill="black" x="54" y="99.8" text-anchor="middle" font-size="28">1</text><text fill="black" x="126" y="99.8" text-anchor="middle" font-size="28">3</text><text fill="black" x="270" y="99.8" text-anchor="middle" font-size="28">2</text><text fill="black" x="306" y="99.8" text-anchor="middle" font-size="28">6</text><text fill="black" x="414" y="99.8" text-anchor="middle" font-size="28">6</text><text fill="black" x="450" y="99.8" text-anchor="middle" font-size="28">2</text><text fill="black" x="54" y="135.8" text-anchor="middle" font-size="28">6</text><text fill="black" x="90" y="135.8" text-anchor="middle" font-size="28">2</text><text fill="black" x="234" y="135.8" text-anchor="middle" font-size="28">3</text><text fill="black" x="342" y="135.8" text-anchor="middle" font-size="28">2</text><text fill="black" x="414" y="135.8" text-anchor="middle" font-size="28">1</text><text fill="black" x="54" y="171.8" text-anchor="middle" font-size="28">6</text><text fill="black" x="162" y="171.8" text-anchor="middle" font-size="28">3</text><text fill="black" x="306" y="171.8" text-anchor="middle" font-size="28">5</text><text fill="black" x="414" y="171.8" text-anchor="middle" font-size="28">5</text></g><g shape-rendering="crispEdges"><path fill="silver" stroke="none" d="M 358 34 L 398 34 398 38 358 38 z"></path><path fill="silver" stroke="none" d="M 394 34 L 398 34 398 74 394 74 z"></path><path fill="silver" stroke="none" d="M 286 70 L 326 70 326 74 286 74 z"></path><path fill="silver" stroke="none" d="M 394 70 L 434 70 434 74 394 74 z"></path><path fill="silver" stroke="none" d="M 34 70 L 38 70 38 110 34 110 z"></path><path fill="silver" stroke="none" d="M 286 70 L 290 70 290 110 286 110 z"></path><path fill="silver" stroke="none" d="M 430 70 L 434 70 434 110 430 110 z"></path><path fill="silver" stroke="none" d="M 34 106 L 74 106 74 110 34 110 z"></path><path fill="silver" stroke="none" d="M 394 106 L 434 106 434 110 394 110 z"></path><path fill="silver" stroke="none" d="M 70 106 L 74 106 74 146 70 146 z"></path><path fill="silver" stroke="none" d="M 394 142 L 434 142 434 146 394 146 z"></path></g><g shape-rendering="crispEdges"></g><g shape-rendering="crispEdges"><path fill="black" stroke="none" d="M -2 -2 L 2 -2 2 182 -2 182 z"></path><path fill="black" stroke="none" d="M 466 -2 L 470 -2 470 182 466 182 z"></path><path fill="black" stroke="none" d="M -2 -2 L 470 -2 470 2 -2 2 z"></path><path fill="black" stroke="none" d="M -2 178 L 470 178 470 182 -2 182 z"></path></g><g shape-rendering="crispEdges"></g></svg>