<?xml version="1.0" encoding="UTF-8"?>
<svg xmlns="http://www.w3.org/2000/svg" xmlns:xlink="http://www.w3.org/1999/xlink" font-size="10px" font-family="sans-serif" width="478" height="190" viewBox="-5.5 -5.5 478 190"><g shape-rendering="crispEdges"><path fill="white" stroke="none" d="M -0.5 -0.5 L 468.5 -0.5 468.5 180.5 -0.5 180.5 z"></path></g><g shape-rendering="crispEdges"></g><g shape-rendering="crispEdges"></g><g shape-rendering="crispEdges"><path fill="none" stroke="rgb(160, 160, 160)" d="M 36 0 L 36 180" stroke-width="1" stroke-dasharray="2.8125 3.375 5.625 3.375 5.625 3.375 5.625 3.375 2.8125 0"></path><path fill="none" stroke="rgb(160, 160, 160)" d="M 72 0 L 72 180" stroke-width="1" stroke-dasharray="2.8125 3.375 5.625 3.375 5.625 3.375 5.625 3.375 2.8125 0"></path><path fill="none" stroke="rgb(160, 160, 160)" d="M 108 0 L 108 180" stroke-width="1" stroke-dasharray="2.8125 3.375 5.625 3.375 5.625 3.375 5.625 3.375 2.8125 0"></path><path fill="none" stroke="rgb(160, 160, 160)" d="M 144 0 L 144 180" stroke-width="1" stroke-dasharray="2.8125 3.375 5.625 3.375 5.625 3.375 5.625 3.375 2.8125 0"></path><path fill="none" stroke="rgb(160, 160, 160)" d="M 180 0 L 180 180" stroke-width="1" stroke-dasharray="2.8125 3.375 5.625 3.375 5.625 3.375 5.625 3.375 2.8125 0"></path><path fill="none" stroke="rgb(160, 160, 160)" d="M 216 0 L 216 180" stroke-width="1" stroke-dasharray="2.8125 3.375 5.625 3.375 5.625 3.375 5.625 3.375 2.8125 0"></path><path fill="none" stroke="rgb(160, 160, 160)" d="M 252 0 L 252 180" stroke-width="1" stroke-dasharray="2.8125 3.375 5.625 3.375 5.625 3.375 5.625 3.375 2.8125 0"></path><path fill="none" stroke="rgb(160, 160, 160)" d="M 288 0 L 288 180" stroke-width="1" stroke-dasharray="2.8125 3.375 5.625 3.375 5.625 3.375 5.625 3.375 2.8125 0"></path><path fill="none" stroke="rgb(160, 160, 160)" d="M 324 0 L 324 180" stroke-width="1" stroke-dasharray="2.8125 3.375 5.625 3.375 5.625 3.375 5.625 3.375 2.8125 0"></path><path fill="none" stroke="rgb(160, 160, 160)" d="M 360 0 L 360 180" stroke-width="1" stroke-dasharray="2.8125 3.375 5.625 3.375 5.625 3.375 5.625 3.375 2.8125 0"></path><path fill="none" stroke="rgb(160, 160, 160)" d="M 396 0 L 396 180" stroke-width="1" stroke-dasharray="2.8125 3.375 5.625 3.375 5.625 3.375 5.625 3.375 2.8125 0"></path><path fill="none" stroke="rgb(160, 160, 160)" d="M 432 0 L 432 180" stroke-width="1" stroke-dasharray="2.8125 3.375 5.625 3.375 5.625 3.375 5.625 3.375 2.8125 0"></path><path fill="none" stroke="rgb(160, 160, 160)" d="M 0 36 L 468 36" stroke-width="1" stroke-dasharray="2.8125 3.375 5.625 3.375 5.625 3.375 5.625 3.375 2.8125 0"></path><path fill="none" stroke="rgb(160, 160, 160)" d="M 0 72 L 468 72" stroke-width="1" stroke-dasharray="2.8125 3.375 5.625 3.375 5.625 3.375 5.625 3.375 2.8125 0"></path><path fill="none" stroke="rgb(160, 160, 160)" d="M 0 108 L 468 108" stroke-width="1" stroke-dasharray="2.8125 3.375 5.625 3.375 5.625 3.375 5.625 3.375 2.8125 0"></path><path fill="none" stroke="rgb(160, 160, 160)" d="M 0 144 L 468 144" stroke-width="1" stroke-dasharray="2.8125 3.375 5.625 3.375 5.625 3.375 5.625 3.375 2.8125 0"></path></g><g shape-rendering="auto"></g><g shape-rendering="auto"><text fill="rgb(0, 160, 0)" x="18" y="27.799999999999997" text-anchor="middle" font-size="28">1</text><text fill="rgb(0, 160, 0)" x="54" y="27.799999999999997" text-anchor="middle" font-size="28">2</text><text fill="rgb(0, 160, 0)" x="90" y="27.799999999999997" text-anchor="middle" font-size="28">2</text><text fill="rgb(0, 160, 0)" x="162" y="27.799999999999997" text-anchor="middle" font-size="28">2</text><text fill="rgb(0, 160, 0)" x="234" y="27.799999999999997" text-anchor="middle" font-size="28">1</text><text fill="rgb(0, 160, 0)" x="306" y="27.799999999999997" text-anchor="middle" font-size="28">2</text><text fill="rgb(0, 160, 0)" x="342" y="27.799999999999997" text-anchor="middle" font-size="28">1</text><text fill="rgb(0, 160, 0)" x="414" y="27.799999999999997" text-anchor="middle" font-size="28">2</text><text fill="rgb(0, 160, 0)" x="450" y="27.799999999999997" text-anchor="middle" font-size="28">3</text><text fill="rgb(0, 160, 0)" x="18" y="63.8" text-anchor="middle" font-size="28">3</text><text fill="rgb(0, 160, 0)" x="54" y="63.8" text-anchor="middle" font-size="28">3</text><text fill="rgb(0, 160, 0)" x="126" y="63.8" text-anchor="middle" font-size="28">3</text><text fill="rgb(0, 160, 0)" x="198" y="63.8" text-anchor="middle" font-size="28">4</text><text fill="rgb(0, 160, 0)" x="270" y="63.8" text-anchor="middle" font-size="28">4</text><text fill="rgb(0, 160, 0)" x="342" y="63.8" text-anchor="middle" font-size="28">6</text><text fill="rgb(0, 160, 0)" x="450" y="63.8" text-anchor="middle" font-size="28">3</text><text fill="rgb(0, 160, 0)" x="90" y="99.8" text-anchor="middle" font-size="28">3</text><text fill="rgb(0, 160, 0)" x="162" y="99.8" text-anchor="middle" font-size="28">1</text><text fill="rgb(0, 160, 0)" x="198" y="99.8" text-anchor="middle" font-size="28">3</text><text fill="rgb(0, 160, 0)" x="234" y="99.8" text-anchor="middle" font-size="28">3</text><text fill="rgb(0, 160, 0)" x="342" y="99.8" text-anchor="middle" font-size="28">6</text><text fill="rgb(0, 160, 0)" x="378" y="99.8" text-anchor="middle" font-size="28">6</text><text fill="rgb(0, 160, 0)" x="18" y="135.8" text-anchor="middle" font-size="28">6</text><text fill="rgb(0, 160, 0)" x="126" y="135.8" text-anchor="middle" font-size="28">2</text><text fill="rgb(0, 160, 0)" x="162" y="135.8" text-anchor="middle" font-size="28">3</text><text fill="rgb(0, 160, 0)" x="198" y="135.8" text-anchor="middle" font-size="28">1</text><text fill="rgb(0, 160, 0)" x="270" y="135.8" text-anchor="middle" font-size="28">2</text><text fill="rgb(0, 160, 0)" x="306" y="135.8" text-anchor="middle" font-size="28">1</text><text fill="rgb(0, 160, 0)" x="378" y="135.8" text-anchor="middle" font-size="28">2</text><text fill="rgb(0, 160, 0)" x="450" y="135.8" text-anchor="middle" font-size="28">2</text><text fill="rgb(0, 160, 0)" x="18" y="171.8" text-anchor="middle" font-size="28">6</text><text fill="rgb(0, 160, 0)" x="90" y="171.8" text-anchor="middle" font-size="28">6</text><text fill="rgb(0, 160, 0)" x="126" y="171.8" text-anchor="middle" font-size="28">6</text><text fill="rgb(0, 160, 0)" x="198" y="171.8" text-anchor="middle" font-size="28">3</text><text fill="rgb(0, 160, 0)" x="234" y="171.8" text-anchor="middle" font-size="28">1</text><text fill="rgb(0, 160, 0)" x="270" y="171.8" text-anchor="middle" font-size="28">5</text><text fill="rgb(0, 160, 0)" x="342" y="171.8" text-anchor="middle" font-size="28">5</text><text fill="rgb(0, 160, 0)" x="378" y="171.8" text-anchor="middle" font-size="28">5</text><text fill="rgb(0, 160, 0)" x="450" y="171.8" text-anchor="middle" font-size="28">1</text></g><g shape-rendering="auto"><text fill="black" x="126" y="27.799999999999997" text-anchor="middle" font-size="28">1</text><text fill="black" x="198" y="27.799999999999997" text-anchor="middle" font-size="28">2</text><text fill="black" x="270" y="27.799999999999997" text-anchor="middle" font-size="28">2</text><text fill="black" x="378" y="27.799999999999997" text-anchor="middle" font-size="28">2</text><text fill="black" x="90" y="63.8" text-anchor="middle" font-size="28">1</text><text fill="black" x="162" y="63.8" text-anchor="middle" font-size="28">4</text><text fill="black" x="234" y="63.8" text-anchor="middle" font-size="28">4</text><text fill="black" x="306" y="63.8" text-anchor="middle" font-size="28">1</text><text fill="black" x="378" y="63.8" text-anchor="middle" font-size="28">6</text><text fill="black" x="414" y="63.8" text-anchor="middle" font-size="28">3</text><text fill="black" x="18" y="99.8" text-anchor="middle" font-size="28">3</text><text fill="black" x="54" y="99.8" text-anchor="middle" font-size="28">1</text><text fill="black" x="126" y="99.8" text-anchor="middle" font-size="28">3</text><text fill="black" x="270" y="99.8" text-anchor="middle" font-size="28">2</text><text fill="black" x="306" y="99.8" text-anchor="middle" font-size="28">6</text><text fill="black" x="414" y="99.8" text-anchor="middle" font-size="28">6</text><text fill="black" x="450" y="99.8" text-anchor="middle" font-size="28">2</text><text fill="black" x="54" y="135.8" text-anchor="middle" font-size="28">6</text><text fill="black" x="90" y="135.8" text-anchor="middle" font-size="28">2</text><text fill="black" x="234" y="135.8" text-anchor="middle" font-size="28">3</text><text fill="black" x="342" y="135.8" text-anchor="middle" font-size="28">2</text><text fill="black" x="414" y="135.8" text-anchor="middle" font-size="28">1</text><text fill="black" x="54" y="171.8" text-anchor="middle" font-size="28">6</text><text fill="black" x="162" y="171.8" text-anchor="middle" font-size="28">3</text><text fill="black" x="306" y="171.8" text-anchor="middle" font-size="28">5</text><text fill="black" x="414" y="171.8" text-anchor="middle" font-size="28">5</text></g><g shape-rendering="crispEdges"><path fill="silver" stroke="none" d="M 34 -2 L 38 -2 38 38 34 38 z"></path><path fill="rgb(0, 160, 0)" stroke="none" d="M 106 -2 L 110 -2 110 38 106 38 z"></path><path fill="rgb(0, 160, 0)" stroke="none" d="M 142 -2 L 146 -2 146 38 142 38 z"></path><path fill="rgb(0, 160, 0)" stroke="none" d="M 214 -2 L 218 -2 218 38 214 38 z"></path><path fill="rgb(0, 160, 0)" stroke="none" d="M 250 -2 L 254 -2 254 38 250 38 z"></path><path fill="rgb(0, 160, 0)" stroke="none" d="M 322 -2 L 326 -2 326 38 322 38 z"></path><path fill="rgb(0, 160, 0)" stroke="none" d="M 358 -2 L 362 -2 362 38 358 38 z"></path><path fill="rgb(0, 160, 0)" stroke="none" d="M 430 -2 L 434 -2 434 38 430 38 z"></path><path fill="silver" stroke="none" d="M -2 34 L 38 34 38 38 -2 38 z"></path><path fill="silver" stroke="none" d="M 34 34 L 74 34 74 38 34 38 z"></path><path fill="rgb(0, 160, 0)" stroke="none" d="M 70 34 L 110 34 110 38 70 38 z"></path><path fill="rgb(0, 160, 0)" stroke="none" d="M 106 34 L 146 34 146 38 106 38 z"></path><path fill="silver" stroke="none" d="M 142 34 L 182 34 182 38 142 38 z"></path><path fill="silver" stroke="none" d="M 178 34 L 218 34 218 38 178 38 z"></path><path fill="rgb(0, 160, 0)" stroke="none" d="M 214 34 L 254 34 254 38 214 38 z"></path><path fill="rgb(0, 160, 0)" stroke="none" d="M 250 34 L 290 34 290 38 250 38 z"></path><path fill="silver" stroke="none" d="M 286 34 L 326 34 326 38 286 38 z"></path><path fill="silver" stroke="none" d="M 322 34 L 362 34 362 38 322 38 z"></path><path fill="silver" stroke="none" d="M 358 34 L 398 34 398 38 358 38 z"></path><path fill="silver" stroke="none" d="M 394 34 L 434 34 434 38 394 38 z"></path><path fill="rgb(0, 160, 0)" stroke="none" d="M 70 34 L 74 34 74 74 70 74 z"></path><path fill="rgb(0, 160, 0)" stroke="none" d="M 106 34 L 110 34 110 74 106 74 z"></path><path fill="silver" stroke="none" d="M 142 34 L 146 34 146 74 142 74 z"></path><path fill="rgb(0, 160, 0)" stroke="none" d="M 286 34 L 290 34 290 74 286 74 z"></path><path fill="rgb(0, 160, 0)" stroke="none" d="M 322 34 L 326 34 326 74 322 74 z"></path><path fill="silver" stroke="none" d="M 394 34 L 398 34 398 74 394 74 z"></path><path fill="rgb(0, 160, 0)" stroke="none" d="M 34 70 L 74 70 74 74 34 74 z"></path><path fill="rgb(0, 160, 0)" stroke="none" d="M 70 70 L 110 70 110 74 70 74 z"></path><path fill="rgb(0, 160, 0)" stroke="none" d="M 142 70 L 182 70 182 74 142 74 z"></path><path fill="rgb(0, 160, 0)" stroke="none" d="M 178 70 L 218 70 218 74 178 74 z"></path><path fill="rgb(0, 160, 0)" stroke="none" d="M 214 70 L 254 70 254 74 214 74 z"></path><path fill="rgb(0, 160, 0)" stroke="none" d="M 250 70 L 290 70 290 74 250 74 z"></path><path fill="silver" stroke="none" d="M 286 70 L 326 70 326 74 286 74 z"></path><path fill="silver" stroke="none" d="M 394 70 L 434 70 434 74 394 74 z"></path><path fill="silver" stroke="none" d="M 430 70 L 470 70 470 74 430 74 z"></path><path fill="silver" stroke="none" d="M 34 70 L 38 70 38 110 34 110 z"></path><path fill="rgb(0, 160, 0)" stroke="none" d="M 70 70 L 74 70 74 110 70 110 z"></path><path fill="rgb(0, 160, 0)" stroke="none" d="M 142 70 L 146 70 146 110 142 110 z"></path><path fill="silver" stroke="none" d="M 178 70 L 182 70 182 110 178 110 z"></path><path fill="silver" stroke="none" d="M 250 70 L 254 70 254 110 250 110 z"></path><path fill="silver" stroke="none" d="M 286 70 L 290 70 290 110 286 110 z"></path><path fill="silver" stroke="none" d="M 430 70 L 434 70 434 110 430 110 z"></path><path fill="silver" stroke="none" d="M -2 106 L 38 106 38 110 -2 110 z"></path><path fill="silver" stroke="none" d="M 34 106 L 74 106 74 110 34 110 z"></path><path fill="silver" stroke="none" d="M 70 106 L 110 106 110 110 70 110 z"></path><path fill="rgb(0, 160, 0)" stroke="none" d="M 106 106 L 146 106 146 110 106 110 z"></path><path fill="rgb(0, 160, 0)" stroke="none" d="M 142 106 L 182 106 182 110 142 110 z"></path><path fill="silver" stroke="none" d="M 178 106 L 218 106 218 110 178 110 z"></path><path fill="silver" stroke="none" d="M 286 106 L 326 106 326 110 286 110 z"></path><path fill="silver" stroke="none" d="M 322 106 L 362 106 362 110 322 110 z"></path><path fill="silver" stroke="none" d="M 358 106 L 398 106 398 110 358 110 z"></path><path fill="silver" stroke="none" d="M 394 106 L 434 106 434 110 394 110 z"></path><path fill="silver" stroke="none" d="M 70 106 L 74 106 74 146 70 146 z"></path><path fill="rgb(0, 160, 0)" stroke="none" d="M 142 106 L 146 106 146 146 142 146 z"></path><path fill="rgb(0, 160, 0)" stroke="none" d="M 178 106 L 182 106 182 146 178 146 z"></path><path fill="rgb(0, 160, 0)" stroke="none" d="M 214 106 L 218 106 218 146 214 146 z"></path><path fill="silver" stroke="none" d="M 250 106 L 254 106 254 146 250 146 z"></path><path fill="rgb(0, 160, 0)" stroke="none" d="M 286 106 L 290 106 290 146 286 146 z"></path><path fill="rgb(0, 160, 0)" stroke="none" d="M 322 106 L 326 106 326 146 322 146 z"></path><path fill="rgb(0, 160, 0)" stroke="none" d="M 394 106 L 398 106 398 146 394 146 z"></path><path fill="silver" stroke="none" d="M 430 106 L 434 106 434 146 430 146 z"></path><path fill="silver" stroke="none" d="M 70 142 L 110 142 110 146 70 146 z"></path><path fill="silver" stroke="none" d="M 106 142 L 146 142 146 146 106 146 z"></path><path fill="rgb(0, 160, 0)" stroke="none" d="M 178 142 L 218 142 218 146 178 146 z"></path><path fill="rgb(0, 160, 0)" stroke="none" d="M 214 142 L 254 142 254 146 214 146 z"></path><path fill="rgb(0, 160, 0)" stroke="none" d="M 250 142 L 290 142 290 146 250 146 z"></path><path fill="silver" stroke="none" d="M 286 142 L 326 142 326 146 286 146 z"></path><path fill="silver" stroke="none" d="M 322 142 L 362 142 362 146 322 146 z"></path><path fill="silver" stroke="none" d="M 358 142 L 398 142 398 146 358 146 z"></path><path fill="silver" stroke="none" d="M 394 142 L 434 142 434 146 394 146 z"></path><path fill="rgb(0, 160, 0)" stroke="none" d="M 430 142 L 470 142 470 146 430 146 z"></path><path fill="silver" stroke="none" d="M 142 142 L 146 142 146 182 142 182 z"></path><path fill="rgb(0, 160, 0)" stroke="none" d="M 214 142 L 218 142 218 182 214 182 z"></path><path fill="silver" stroke="none" d="M 250 142 L 254 142 254 182 250 182 z"></path><path fill="silver" stroke="none" d="M 430 142 L 434 142 434 182 430 182 z"></path></g><g shape-rendering="crispEdges"></g><g shape-rendering="crispEdges"><path fill="black" stroke="none" d="M -2 -2 L 2 -2 2 182 -2 182 z"></path><path fill="black" stroke="none" d="M 466 -2 L 470 -2 470 182 466 182 z"></path><path fill="black" stroke="none" d="M -2 -2 L 470 -2 470 2 -2 2 z"></path><path fill="black" stroke="none" d="M -2 178 L 470 178 470 182 -2 182 z"></path></g><g shape-rendering="crispEdges"></g></svg>