<?xml version="1.0" encoding="UTF-8"?>
<svg xmlns="http://www.w3.org/2000/svg" xmlns:xlink="http://www.w3.org/1999/xlink" font-size="10px" font-family="sans-serif" width="190" height="478" viewBox="-5.5 -5.5 190 478"><g shape-rendering="crispEdges"><path fill="white" stroke="none" d="M -0.5 -0.5 L 180.5 -0.5 180.5 468.5 -0.5 468.5 z"></path></g><g shape-rendering="crispEdges"></g><g shape-rendering="crispEdges"></g><g shape-rendering="crispEdges"><path fill="none" stroke="rgb(160, 160, 160)" d="M 36 0 L 36 468" stroke-width="1" stroke-dasharray="2.8125 3.375 5.625 3.375 5.625 3.375 5.625 3.375 2.8125 0"></path><path fill="none" stroke="rgb(160, 160, 160)" d="M 72 0 L 72 468" stroke-width="1" stroke-dasharray="2.8125 3.375 5.625 3.375 5.625 3.375 5.625 3.375 2.8125 0"></path><path fill="none" stroke="rgb(160, 160, 160)" d="M 108 0 L 108 468" stroke-width="1" stroke-dasharray="2.8125 3.375 5.625 3.375 5.625 3.375 5.625 3.375 2.8125 0"></path><path fill="none" stroke="rgb(160, 160, 160)" d="M 144 0 L 144 468" stroke-width="1" stroke-dasharray="2.8125 3.375 5.625 3.375 5.625 3.375 5.625 3.375 2.8125 0"></path><path fill="none" stroke="rgb(160, 160, 160)" d="M 0 36 L 180 36" stroke-width="1" stroke-dasharray="2.8125 3.375 5.625 3.375 5.625 3.375 5.625 3.375 2.8125 0"></path><path fill="none" stroke="rgb(160, 160, 160)" d="M 0 72 L 180 72" stroke-width="1" stroke-dasharray="2.8125 3.375 5.625 3.375 5.625 3.375 5.625 3.375 2.8125 0"></path><path fill="none" stroke="rgb(160, 160, 160)" d="M 0 108 L 180 108" stroke-width="1" stroke-dasharray="2.8125 3.375 5.625 3.375 5.625 3.375 5.625 3.375 2.8125 0"></path><path fill="none" stroke="rgb(160, 160, 160)" d="M 0 144 L 180 144" stroke-width="1" stroke-dasharray="2.8125 3.375 5.625 3.375 5.625 3.375 5.625 3.375 2.8125 0"></path><path fill="none" stroke="rgb(160, 160, 160)" d="M 0 180 L 180 180" stroke-width="1" stroke-dasharray="2.8125 3.375 5.625 3.375 5.625 3.375 5.625 3.375 2.8125 0"></path><path fill="none" stroke="rgb(160, 160, 160)" d="M 0 216 L 180 216" stroke-width="1" stroke-dasharray="2.8125 3.375 5.625 3.375 5.625 3.375 5.625 3.375 2.8125 0"></path><path fill="none" stroke="rgb(160, 160, 160)" d="M 0 252 L 180 252" stroke-width="1" stroke-dasharray="2.8125 3.375 5.625 3.375 5.625 3.375 5.625 3.375 2.8125 0"></path><path fill="none" stroke="rgb(160, 160, 160)" d="M 0 288 L 180 288" stroke-width="1" stroke-dasharray="2.8125 3.375 5.625 3.375 5.625 3.375 5.625 3.375 2.8125 0"></path><path fill="none" stroke="rgb(160, 160, 160)" d="M 0 324 L 180 324" stroke-width="1" stroke-dasharray="2.8125 3.375 5.625 3.375 5.625 3.375 5.625 3.375 2.8125 0"></path><path fill="none" stroke="rgb(160, 160, 160)" d="M 0 360 L 180 360" stroke-width="1" stroke-dasharray="2.8125 3.375 5.625 3.375 5.625 3.375 5.625 3.375 2.8125 0"></path><path fill="none" stroke="rgb(160, 160, 160)" d="M 0 396 L 180 396" stroke-width="1" stroke-dasharray="2.8125 3.375 5.625 3.375 5.625 3.375 5.625 3.375 2.8125 0"></path><path fill="none" stroke="rgb(160, 160, 160)" d="M 0 432 L 180 432" stroke-width="1" stroke-dasharray="2.8125 3.375 5.625 3.375 5.625 3.375 5.625 3.375 2.8125 0"></path></g><g shape-rendering="auto"></g><g shape-rendering="auto"></g><g shape-rendering="auto"><text fill="black" x="54" y="27.799999999999997" text-anchor="middle" font-size="28">3</text><text fill="black" x="90" y="27.799999999999997" text-anchor="middle" font-size="28">2</text><text fill="black" x="90" y="63.8" text-anchor="middle" font-size="28">6</text><text fill="black" x="162" y="63.8" text-anchor="middle" font-size="28">5</text><text fill="black" x="54" y="99.8" text-anchor="middle" font-size="28">6</text><text fill="black" x="90" y="99.8" text-anchor="middle" font-size="28">6</text><text fill="black" x="162" y="99.8" text-anchor="middle" font-size="28">5</text><text fill="black" x="54" y="135.8" text-anchor="middle" font-size="28">6</text><text fill="black" x="162" y="135.8" text-anchor="middle" font-size="28">5</text><text fill="black" x="54" y="171.8" text-anchor="middle" font-size="28">1</text><text fill="black" x="90" y="171.8" text-anchor="middle" font-size="28">6</text><text fill="black" x="162" y="171.8" text-anchor="middle" font-size="28">5</text><text fill="black" x="18" y="243.8" text-anchor="middle" font-size="28">1</text><text fill="black" x="126" y="243.8" text-anchor="middle" font-size="28">3</text><text fill="black" x="54" y="279.8" text-anchor="middle" font-size="28">4</text><text fill="black" x="90" y="279.8" text-anchor="middle" font-size="28">3</text><text fill="black" x="126" y="279.8" text-anchor="middle" font-size="28">1</text><text fill="black" x="54" y="315.8" text-anchor="middle" font-size="28">4</text><text fill="black" x="126" y="315.8" text-anchor="middle" font-size="28">3</text><text fill="black" x="54" y="351.8" text-anchor="middle" font-size="28">3</text><text fill="black" x="126" y="351.8" text-anchor="middle" font-size="28">2</text><text fill="black" x="18" y="423.8" text-anchor="middle" font-size="28">2</text><text fill="black" x="90" y="423.8" text-anchor="middle" font-size="28">1</text><text fill="black" x="162" y="423.8" text-anchor="middle" font-size="28">6</text><text fill="black" x="18" y="459.8" text-anchor="middle" font-size="28">1</text><text fill="black" x="54" y="459.8" text-anchor="middle" font-size="28">3</text><text fill="black" x="90" y="459.8" text-anchor="middle" font-size="28">3</text><text fill="black" x="126" y="459.8" text-anchor="middle" font-size="28">6</text><text fill="black" x="162" y="459.8" text-anchor="middle" font-size="28">6</text></g><g shape-rendering="crispEdges"></g><g shape-rendering="crispEdges"></g><g shape-rendering="crispEdges"><path fill="black" stroke="none" d="M -2 -2 L 2 -2 2 470 -2 470 z"></path><path fill="black" stroke="none" d="M 178 -2 L 182 -2 182 470 178 470 z"></path><path fill="black" stroke="none" d="M -2 -2 L 182 -2 182 2 -2 2 z"></path><path fill="black" stroke="none" d="M -2 466 L 182 466 182 470 -2 470 z"></path></g><g shape-rendering="crispEdges"></g></svg>