<?xml version="1.0" encoding="UTF-8"?>
<svg xmlns="http://www.w3.org/2000/svg" xmlns:xlink="http://www.w3.org/1999/xlink" font-size="10px" font-family="sans-serif" width="478" height="190" viewBox="-5.5 -5.5 478 190"><g shape-rendering="crispEdges"><path fill="white" stroke="none" d="M -0.5 -0.5 L 468.5 -0.5 468.5 180.5 -0.5 180.5 z"></path></g><g shape-rendering="crispEdges"></g><g shape-rendering="crispEdges"><path fill="none" stroke="rgb(127, 127, 127)" d="M 36 0 L 36 180" stroke-width="1"></path><path fill="none" stroke="rgb(127, 127, 127)" d="M 72 0 L 72 180" stroke-width="1"></path><path fill="none" stroke="rgb(127, 127, 127)" d="M 108 0 L 108 180" stroke-width="1"></path><path fill="none" stroke="rgb(127, 127, 127)" d="M 144 0 L 144 180" stroke-width="1"></path><path fill="none" stroke="rgb(127, 127, 127)" d="M 180 0 L 180 180" stroke-width="1"></path><path fill="none" stroke="rgb(127, 127, 127)" d="M 216 0 L 216 180" stroke-width="1"></path><path fill="none" stroke="rgb(127, 127, 127)" d="M 252 0 L 252 180" stroke-width="1"></path><path fill="none" stroke="rgb(127, 127, 127)" d="M 288 0 L 288 180" stroke-width="1"></path><path fill="none" stroke="rgb(127, 127, 127)" d="M 324 0 L 324 180" stroke-width="1"></path><path fill="none" stroke="rgb(127, 127, 127)" d="M 360 0 L 360 180" stroke-width="1"></path><path fill="none" stroke="rgb(127, 127, 127)" d="M 396 0 L 396 180" stroke-width="1"></path><path fill="none" stroke="rgb(127, 127, 127)" d="M 432 0 L 432 180" stroke-width="1"></path><path fill="none" stroke="rgb(127, 127, 127)" d="M 0 36 L 468 36" stroke-width="1"></path><path fill="none" stroke="rgb(127, 127, 127)" d="M 0 72 L 468 72" stroke-width="1"></path><path fill="none" stroke="rgb(127, 127, 127)" d="M 0 108 L 468 108" stroke-width="1"></path><path fill="none" stroke="rgb(127, 127, 127)" d="M 0 144 L 468 144" stroke-width="1"></path></g><g shape-rendering="auto"><path fill="rgb(160, 255, 160)" stroke="none" d="M 133.2 18.125 A 7.2 7.2 0 1 1 133.2 18 z"></path><path fill="rgb(160, 255, 160)" stroke="none" d="M 241.2 54.125 A 7.2 7.2 0 1 1 241.2 54 z"></path><path fill="rgb(160, 255, 160)" stroke="none" d="M 421.2 54.125 A 7.2 7.2 0 1 1 421.2 54 z"></path><path fill="rgb(160, 255, 160)" stroke="none" d="M 97.2 126.125 A 7.2 7.2 0 1 1 97.2 126 z"></path><path fill="rgb(160, 255, 160)" stroke="none" d="M 349.2 126.125 A 7.2 7.2 0 1 1 349.2 126 z"></path><path fill="rgb(160, 255, 160)" stroke="none" d="M 421.2 126.125 A 7.2 7.2 0 1 1 421.2 126 z"></path></g><g shape-rendering="crispEdges"><path fill="black" stroke="none" d="M -0.5 -0.5 L 36.5 -0.5 36.5 36.5 -0.5 36.5 z"></path><path fill="black" stroke="none" d="M 35.5 -0.5 L 72.5 -0.5 72.5 36.5 35.5 36.5 z"></path><path fill="black" stroke="none" d="M -0.5 35.5 L 36.5 35.5 36.5 72.5 -0.5 72.5 z"></path><path fill="black" stroke="none" d="M 143.5 35.5 L 180.5 35.5 180.5 72.5 143.5 72.5 z"></path><path fill="black" stroke="none" d="M 287.5 35.5 L 324.5 35.5 324.5 72.5 287.5 72.5 z"></path><path fill="black" stroke="none" d="M 323.5 35.5 L 360.5 35.5 360.5 72.5 323.5 72.5 z"></path><path fill="black" stroke="none" d="M 359.5 35.5 L 396.5 35.5 396.5 72.5 359.5 72.5 z"></path><path fill="black" stroke="none" d="M 431.5 35.5 L 468.5 35.5 468.5 72.5 431.5 72.5 z"></path><path fill="black" stroke="none" d="M -0.5 71.5 L 36.5 71.5 36.5 108.5 -0.5 108.5 z"></path><path fill="black" stroke="none" d="M 35.5 71.5 L 72.5 71.5 72.5 108.5 35.5 108.5 z"></path><path fill="black" stroke="none" d="M 287.5 71.5 L 324.5 71.5 324.5 108.5 287.5 108.5 z"></path><path fill="black" stroke="none" d="M 359.5 71.5 L 396.5 71.5 396.5 108.5 359.5 108.5 z"></path><path fill="black" stroke="none" d="M 395.5 71.5 L 432.5 71.5 432.5 108.5 395.5 108.5 z"></path><path fill="black" stroke="none" d="M 431.5 71.5 L 468.5 71.5 468.5 108.5 431.5 108.5 z"></path><path fill="black" stroke="none" d="M -0.5 107.5 L 36.5 107.5 36.5 144.5 -0.5 144.5 z"></path><path fill="black" stroke="none" d="M 215.5 107.5 L 252.5 107.5 252.5 144.5 215.5 144.5 z"></path><path fill="black" stroke="none" d="M -0.5 143.5 L 36.5 143.5 36.5 180.5 -0.5 180.5 z"></path><path fill="black" stroke="none" d="M 35.5 143.5 L 72.5 143.5 72.5 180.5 35.5 180.5 z"></path><path fill="black" stroke="none" d="M 287.5 143.5 L 324.5 143.5 324.5 180.5 287.5 180.5 z"></path><path fill="black" stroke="none" d="M 395.5 143.5 L 432.5 143.5 432.5 180.5 395.5 180.5 z"></path></g><g shape-rendering="auto"></g><g shape-rendering="crispEdges"></g><g shape-rendering="crispEdges"></g><g shape-rendering="crispEdges"><path fill="black" stroke="none" d="M -2 -2 L 2 -2 2 182 -2 182 z"></path><path fill="black" stroke="none" d="M 466 -2 L 470 -2 470 182 466 182 z"></path><path fill="black" stroke="none" d="M -2 -2 L 470 -2 470 2 -2 2 z"></path><path fill="black" stroke="none" d="M -2 178 L 470 178 470 182 -2 182 z"></path></g><g shape-rendering="crispEdges"><path fill="none" stroke="rgb(160, 160, 160)" d="M 2.5 2.5 L 33.5 2.5 36.5 2.5 M 2.5 36.5 L 2.5 33.5 2.5 2.5" stroke-width="1"></path><path fill="none" stroke="rgb(160, 160, 160)" d="M 38.5 2.5 L 69.5 2.5 72.5 2.5 M 35.5 2.5 L 38.5 2.5" stroke-width="1"></path><path fill="none" stroke="rgb(160, 160, 160)" d="M 2.5 38.5 L 2.5 35.5 M 2.5 72.5 L 2.5 69.5 2.5 38.5" stroke-width="1"></path><path fill="none" stroke="rgb(160, 160, 160)" d="" stroke-width="1"></path><path fill="none" stroke="rgb(160, 160, 160)" d="" stroke-width="1"></path><path fill="none" stroke="rgb(160, 160, 160)" d="" stroke-width="1"></path><path fill="none" stroke="rgb(160, 160, 160)" d="" stroke-width="1"></path><path fill="none" stroke="rgb(160, 160, 160)" d="M 465.5 35.5 L 465.5 38.5 465.5 69.5 465.5 72.5" stroke-width="1"></path><path fill="none" stroke="rgb(160, 160, 160)" d="M 2.5 74.5 L 2.5 71.5 M 2.5 108.5 L 2.5 105.5 2.5 74.5" stroke-width="1"></path><path fill="none" stroke="rgb(160, 160, 160)" d="" stroke-width="1"></path><path fill="none" stroke="rgb(160, 160, 160)" d="" stroke-width="1"></path><path fill="none" stroke="rgb(160, 160, 160)" d="" stroke-width="1"></path><path fill="none" stroke="rgb(160, 160, 160)" d="" stroke-width="1"></path><path fill="none" stroke="rgb(160, 160, 160)" d="M 465.5 71.5 L 465.5 74.5 465.5 105.5 465.5 108.5" stroke-width="1"></path><path fill="none" stroke="rgb(160, 160, 160)" d="M 2.5 110.5 L 2.5 107.5 M 2.5 144.5 L 2.5 141.5 2.5 110.5" stroke-width="1"></path><path fill="none" stroke="rgb(160, 160, 160)" d="" stroke-width="1"></path><path fill="none" stroke="rgb(160, 160, 160)" d="M 2.5 146.5 L 2.5 143.5 M 36.5 177.5 L 33.5 177.5 2.5 177.5 2.5 146.5" stroke-width="1"></path><path fill="none" stroke="rgb(160, 160, 160)" d="M 72.5 177.5 L 69.5 177.5 38.5 177.5 35.5 177.5" stroke-width="1"></path><path fill="none" stroke="rgb(160, 160, 160)" d="M 324.5 177.5 L 321.5 177.5 290.5 177.5 287.5 177.5" stroke-width="1"></path><path fill="none" stroke="rgb(160, 160, 160)" d="M 432.5 177.5 L 429.5 177.5 398.5 177.5 395.5 177.5" stroke-width="1"></path></g><g shape-rendering="crispEdges"></g></svg>