<?xml version="1.0" encoding="UTF-8"?>
<svg xmlns="http://www.w3.org/2000/svg" xmlns:xlink="http://www.w3.org/1999/xlink" font-size="10px" font-family="sans-serif" width="550" height="550" viewBox="-5.5 -5.5 550 550"><g shape-rendering="crispEdges"><path fill="white" stroke="none" d="M -0.5 -0.5 L 540.5 -0.5 540.5 540.5 -0.5 540.5 z"></path></g><g shape-rendering="crispEdges"></g><g shape-rendering="crispEdges"><path fill="none" stroke="rgb(127, 127, 127)" d="M 36 0 L 36 540" stroke-width="1" stroke-dasharray="2.8125 3.375 5.625 3.375 5.625 3.375 5.625 3.375 2.8125 0"></path><path fill="none" stroke="rgb(127, 127, 127)" d="M 72 0 L 72 540" stroke-width="1" stroke-dasharray="2.8125 3.375 5.625 3.375 5.625 3.375 5.625 3.375 2.8125 0"></path><path fill="none" stroke="rgb(127, 127, 127)" d="M 108 0 L 108 540" stroke-width="1" stroke-dasharray="2.8125 3.375 5.625 3.375 5.625 3.375 5.625 3.375 2.8125 0"></path><path fill="none" stroke="rgb(127, 127, 127)" d="M 144 0 L 144 540" stroke-width="1" stroke-dasharray="2.8125 3.375 5.625 3.375 5.625 3.375 5.625 3.375 2.8125 0"></path><path fill="none" stroke="rgb(127, 127, 127)" d="M 180 0 L 180 540" stroke-width="1" stroke-dasharray="2.8125 3.375 5.625 3.375 5.625 3.375 5.625 3.375 2.8125 0"></path><path fill="none" stroke="rgb(127, 127, 127)" d="M 216 0 L 216 540" stroke-width="1" stroke-dasharray="2.8125 3.375 5.625 3.375 5.625 3.375 5.625 3.375 2.8125 0"></path><path fill="none" stroke="rgb(127, 127, 127)" d="M 252 0 L 252 540" stroke-width="1" stroke-dasharray="2.8125 3.375 5.625 3.375 5.625 3.375 5.625 3.375 2.8125 0"></path><path fill="none" stroke="rgb(127, 127, 127)" d="M 288 0 L 288 540" stroke-width="1" stroke-dasharray="2.8125 3.375 5.625 3.375 5.625 3.375 5.625 3.375 2.8125 0"></path><path fill="none" stroke="rgb(127, 127, 127)" d="M 324 0 L 324 540" stroke-width="1" stroke-dasharray="2.8125 3.375 5.625 3.375 5.625 3.375 5.625 3.375 2.8125 0"></path><path fill="none" stroke="rgb(127, 127, 127)" d="M 360 0 L 360 540" stroke-width="1" stroke-dasharray="2.8125 3.375 5.625 3.375 5.625 3.375 5.625 3.375 2.8125 0"></path><path fill="none" stroke="rgb(127, 127, 127)" d="M 396 0 L 396 540" stroke-width="1" stroke-dasharray="2.8125 3.375 5.625 3.375 5.625 3.375 5.625 3.375 2.8125 0"></path><path fill="none" stroke="rgb(127, 127, 127)" d="M 432 0 L 432 540" stroke-width="1" stroke-dasharray="2.8125 3.375 5.625 3.375 5.625 3.375 5.625 3.375 2.8125 0"></path><path fill="none" stroke="rgb(127, 127, 127)" d="M 468 0 L 468 540" stroke-width="1" stroke-dasharray="2.8125 3.375 5.625 3.375 5.625 3.375 5.625 3.375 2.8125 0"></path><path fill="none" stroke="rgb(127, 127, 127)" d="M 504 0 L 504 540" stroke-width="1" stroke-dasharray="2.8125 3.375 5.625 3.375 5.625 3.375 5.625 3.375 2.8125 0"></path><path fill="none" stroke="rgb(127, 127, 127)" d="M 0 36 L 540 36" stroke-width="1" stroke-dasharray="2.8125 3.375 5.625 3.375 5.625 3.375 5.625 3.375 2.8125 0"></path><path fill="none" stroke="rgb(127, 127, 127)" d="M 0 72 L 540 72" stroke-width="1" stroke-dasharray="2.8125 3.375 5.625 3.375 5.625 3.375 5.625 3.375 2.8125 0"></path><path fill="none" stroke="rgb(127, 127, 127)" d="M 0 108 L 540 108" stroke-width="1" stroke-dasharray="2.8125 3.375 5.625 3.375 5.625 3.375 5.625 3.375 2.8125 0"></path><path fill="none" stroke="rgb(127, 127, 127)" d="M 0 144 L 540 144" stroke-width="1" stroke-dasharray="2.8125 3.375 5.625 3.375 5.625 3.375 5.625 3.375 2.8125 0"></path><path fill="none" stroke="rgb(127, 127, 127)" d="M 0 180 L 540 180" stroke-width="1" stroke-dasharray="2.8125 3.375 5.625 3.375 5.625 3.375 5.625 3.375 2.8125 0"></path><path fill="none" stroke="rgb(127, 127, 127)" d="M 0 216 L 540 216" stroke-width="1" stroke-dasharray="2.8125 3.375 5.625 3.375 5.625 3.375 5.625 3.375 2.8125 0"></path><path fill="none" stroke="rgb(127, 127, 127)" d="M 0 252 L 540 252" stroke-width="1" stroke-dasharray="2.8125 3.375 5.625 3.375 5.625 3.375 5.625 3.375 2.8125 0"></path><path fill="none" stroke="rgb(127, 127, 127)" d="M 0 288 L 540 288" stroke-width="1" stroke-dasharray="2.8125 3.375 5.625 3.375 5.625 3.375 5.625 3.375 2.8125 0"></path><path fill="none" stroke="rgb(127, 127, 127)" d="M 0 324 L 540 324" stroke-width="1" stroke-dasharray="2.8125 3.375 5.625 3.375 5.625 3.375 5.625 3.375 2.8125 0"></path><path fill="none" stroke="rgb(127, 127, 127)" d="M 0 360 L 540 360" stroke-width="1" stroke-dasharray="2.8125 3.375 5.625 3.375 5.625 3.375 5.625 3.375 2.8125 0"></path><path fill="none" stroke="rgb(127, 127, 127)" d="M 0 396 L 540 396" stroke-width="1" stroke-dasharray="2.8125 3.375 5.625 3.375 5.625 3.375 5.625 3.375 2.8125 0"></path><path fill="none" stroke="rgb(127, 127, 127)" d="M 0 432 L 540 432" stroke-width="1" stroke-dasharray="2.8125 3.375 5.625 3.375 5.625 3.375 5.625 3.375 2.8125 0"></path><path fill="none" stroke="rgb(127, 127, 127)" d="M 0 468 L 540 468" stroke-width="1" stroke-dasharray="2.8125 3.375 5.625 3.375 5.625 3.375 5.625 3.375 2.8125 0"></path><path fill="none" stroke="rgb(127, 127, 127)" d="M 0 504 L 540 504" stroke-width="1" stroke-dasharray="2.8125 3.375 5.625 3.375 5.625 3.375 5.625 3.375 2.8125 0"></path></g><g shape-rendering="auto"><path fill="black" stroke="none" d="M 32.4 18.125 A 14.4 14.4 0 1 1 32.4 18 z"></path><path fill="white" stroke="none" d="M 68.4 18.125 A 14.4 14.4 0 1 1 68.4 18 z"></path><path fill="white" stroke="none" d="M 212.4 18.125 A 14.4 14.4 0 1 1 212.4 18 z"></path><path fill="black" stroke="none" d="M 248.4 18.125 A 14.4 14.4 0 1 1 248.4 18 z"></path><path fill="black" stroke="none" d="M 356.4 18.125 A 14.4 14.4 0 1 1 356.4 18 z"></path><path fill="white" stroke="none" d="M 500.4 18.125 A 14.4 14.4 0 1 1 500.4 18 z"></path><path fill="white" stroke="none" d="M 32.4 54.125 A 14.4 14.4 0 1 1 32.4 54 z"></path><path fill="white" stroke="none" d="M 248.4 54.125 A 14.4 14.4 0 1 1 248.4 54 z"></path><path fill="white" stroke="none" d="M 356.4 54.125 A 14.4 14.4 0 1 1 356.4 54 z"></path><path fill="white" stroke="none" d="M 536.4 54.125 A 14.4 14.4 0 1 1 536.4 54 z"></path><path fill="white" stroke="none" d="M 32.4 90.125 A 14.4 14.4 0 1 1 32.4 90 z"></path><path fill="white" stroke="none" d="M 428.4 90.125 A 14.4 14.4 0 1 1 428.4 90 z"></path><path fill="white" stroke="none" d="M 500.4 90.125 A 14.4 14.4 0 1 1 500.4 90 z"></path><path fill="black" stroke="none" d="M 536.4 90.125 A 14.4 14.4 0 1 1 536.4 90 z"></path><path fill="white" stroke="none" d="M 68.4 126.125 A 14.4 14.4 0 1 1 68.4 126 z"></path><path fill="white" stroke="none" d="M 140.4 126.125 A 14.4 14.4 0 1 1 140.4 126 z"></path><path fill="white" stroke="none" d="M 356.4 126.125 A 14.4 14.4 0 1 1 356.4 126 z"></path><path fill="white" stroke="none" d="M 464.4 126.125 A 14.4 14.4 0 1 1 464.4 126 z"></path><path fill="black" stroke="none" d="M 536.4 126.125 A 14.4 14.4 0 1 1 536.4 126 z"></path><path fill="white" stroke="none" d="M 104.4 162.125 A 14.4 14.4 0 1 1 104.4 162 z"></path><path fill="white" stroke="none" d="M 140.4 162.125 A 14.4 14.4 0 1 1 140.4 162 z"></path><path fill="black" stroke="none" d="M 356.4 162.125 A 14.4 14.4 0 1 1 356.4 162 z"></path><path fill="white" stroke="none" d="M 428.4 162.125 A 14.4 14.4 0 1 1 428.4 162 z"></path><path fill="black" stroke="none" d="M 464.4 162.125 A 14.4 14.4 0 1 1 464.4 162 z"></path><path fill="white" stroke="none" d="M 536.4 162.125 A 14.4 14.4 0 1 1 536.4 162 z"></path><path fill="white" stroke="none" d="M 104.4 198.125 A 14.4 14.4 0 1 1 104.4 198 z"></path><path fill="white" stroke="none" d="M 248.4 198.125 A 14.4 14.4 0 1 1 248.4 198 z"></path><path fill="white" stroke="none" d="M 464.4 198.125 A 14.4 14.4 0 1 1 464.4 198 z"></path><path fill="white" stroke="none" d="M 140.4 234.125 A 14.4 14.4 0 1 1 140.4 234 z"></path><path fill="black" stroke="none" d="M 248.4 234.125 A 14.4 14.4 0 1 1 248.4 234 z"></path><path fill="white" stroke="none" d="M 284.4 234.125 A 14.4 14.4 0 1 1 284.4 234 z"></path><path fill="white" stroke="none" d="M 428.4 234.125 A 14.4 14.4 0 1 1 428.4 234 z"></path><path fill="black" stroke="none" d="M 464.4 234.125 A 14.4 14.4 0 1 1 464.4 234 z"></path><path fill="white" stroke="none" d="M 68.4 270.125 A 14.4 14.4 0 1 1 68.4 270 z"></path><path fill="white" stroke="none" d="M 104.4 270.125 A 14.4 14.4 0 1 1 104.4 270 z"></path><path fill="black" stroke="none" d="M 140.4 270.125 A 14.4 14.4 0 1 1 140.4 270 z"></path><path fill="white" stroke="none" d="M 536.4 270.125 A 14.4 14.4 0 1 1 536.4 270 z"></path><path fill="black" stroke="none" d="M 140.4 306.125 A 14.4 14.4 0 1 1 140.4 306 z"></path><path fill="white" stroke="none" d="M 176.4 306.125 A 14.4 14.4 0 1 1 176.4 306 z"></path><path fill="white" stroke="none" d="M 320.4 306.125 A 14.4 14.4 0 1 1 320.4 306 z"></path><path fill="white" stroke="none" d="M 356.4 306.125 A 14.4 14.4 0 1 1 356.4 306 z"></path><path fill="black" stroke="none" d="M 428.4 306.125 A 14.4 14.4 0 1 1 428.4 306 z"></path><path fill="white" stroke="none" d="M 464.4 306.125 A 14.4 14.4 0 1 1 464.4 306 z"></path><path fill="white" stroke="none" d="M 500.4 306.125 A 14.4 14.4 0 1 1 500.4 306 z"></path><path fill="black" stroke="none" d="M 536.4 306.125 A 14.4 14.4 0 1 1 536.4 306 z"></path><path fill="white" stroke="none" d="M 68.4 342.125 A 14.4 14.4 0 1 1 68.4 342 z"></path><path fill="white" stroke="none" d="M 140.4 342.125 A 14.4 14.4 0 1 1 140.4 342 z"></path><path fill="white" stroke="none" d="M 248.4 342.125 A 14.4 14.4 0 1 1 248.4 342 z"></path><path fill="white" stroke="none" d="M 392.4 342.125 A 14.4 14.4 0 1 1 392.4 342 z"></path><path fill="white" stroke="none" d="M 212.4 378.125 A 14.4 14.4 0 1 1 212.4 378 z"></path><path fill="black" stroke="none" d="M 248.4 378.125 A 14.4 14.4 0 1 1 248.4 378 z"></path><path fill="white" stroke="none" d="M 320.4 378.125 A 14.4 14.4 0 1 1 320.4 378 z"></path><path fill="black" stroke="none" d="M 428.4 378.125 A 14.4 14.4 0 1 1 428.4 378 z"></path><path fill="white" stroke="none" d="M 464.4 378.125 A 14.4 14.4 0 1 1 464.4 378 z"></path><path fill="white" stroke="none" d="M 140.4 414.125 A 14.4 14.4 0 1 1 140.4 414 z"></path><path fill="white" stroke="none" d="M 248.4 414.125 A 14.4 14.4 0 1 1 248.4 414 z"></path><path fill="black" stroke="none" d="M 428.4 414.125 A 14.4 14.4 0 1 1 428.4 414 z"></path><path fill="white" stroke="none" d="M 464.4 414.125 A 14.4 14.4 0 1 1 464.4 414 z"></path><path fill="black" stroke="none" d="M 140.4 450.125 A 14.4 14.4 0 1 1 140.4 450 z"></path><path fill="white" stroke="none" d="M 176.4 450.125 A 14.4 14.4 0 1 1 176.4 450 z"></path><path fill="white" stroke="none" d="M 356.4 450.125 A 14.4 14.4 0 1 1 356.4 450 z"></path><path fill="white" stroke="none" d="M 68.4 486.125 A 14.4 14.4 0 1 1 68.4 486 z"></path><path fill="white" stroke="none" d="M 248.4 486.125 A 14.4 14.4 0 1 1 248.4 486 z"></path><path fill="white" stroke="none" d="M 428.4 486.125 A 14.4 14.4 0 1 1 428.4 486 z"></path><path fill="black" stroke="none" d="M 68.4 522.125 A 14.4 14.4 0 1 1 68.4 522 z"></path><path fill="white" stroke="none" d="M 104.4 522.125 A 14.4 14.4 0 1 1 104.4 522 z"></path><path fill="white" stroke="none" d="M 212.4 522.125 A 14.4 14.4 0 1 1 212.4 522 z"></path><path fill="black" stroke="none" d="M 248.4 522.125 A 14.4 14.4 0 1 1 248.4 522 z"></path><path fill="black" stroke="none" d="M 356.4 522.125 A 14.4 14.4 0 1 1 356.4 522 z"></path><path fill="white" stroke="none" d="M 392.4 522.125 A 14.4 14.4 0 1 1 392.4 522 z"></path><path fill="black" stroke="none" d="M 428.4 522.125 A 14.4 14.4 0 1 1 428.4 522 z"></path></g><g shape-rendering="auto"><path fill="none" stroke="black" d="M 67.5 18.125 A 13.5 13.5 0 1 1 67.5 18 z" stroke-width="1.8000000000000016"></path><path fill="none" stroke="black" d="M 211.5 18.125 A 13.5 13.5 0 1 1 211.5 18 z" stroke-width="1.8000000000000016"></path><path fill="none" stroke="black" d="M 499.5 18.125 A 13.5 13.5 0 1 1 499.5 18 z" stroke-width="1.8000000000000016"></path><path fill="none" stroke="black" d="M 31.5 54.125 A 13.5 13.5 0 1 1 31.5 54 z" stroke-width="1.8000000000000016"></path><path fill="none" stroke="black" d="M 247.5 54.125 A 13.5 13.5 0 1 1 247.5 54 z" stroke-width="1.8000000000000016"></path><path fill="none" stroke="black" d="M 355.5 54.125 A 13.5 13.5 0 1 1 355.5 54 z" stroke-width="1.8000000000000016"></path><path fill="none" stroke="black" d="M 535.5 54.125 A 13.5 13.5 0 1 1 535.5 54 z" stroke-width="1.8000000000000016"></path><path fill="none" stroke="black" d="M 31.5 90.125 A 13.5 13.5 0 1 1 31.5 90 z" stroke-width="1.8000000000000016"></path><path fill="none" stroke="black" d="M 427.5 90.125 A 13.5 13.5 0 1 1 427.5 90 z" stroke-width="1.8000000000000016"></path><path fill="none" stroke="black" d="M 499.5 90.125 A 13.5 13.5 0 1 1 499.5 90 z" stroke-width="1.8000000000000016"></path><path fill="none" stroke="black" d="M 67.5 126.125 A 13.5 13.5 0 1 1 67.5 126 z" stroke-width="1.8000000000000016"></path><path fill="none" stroke="black" d="M 139.5 126.125 A 13.5 13.5 0 1 1 139.5 126 z" stroke-width="1.8000000000000016"></path><path fill="none" stroke="black" d="M 355.5 126.125 A 13.5 13.5 0 1 1 355.5 126 z" stroke-width="1.8000000000000016"></path><path fill="none" stroke="black" d="M 463.5 126.125 A 13.5 13.5 0 1 1 463.5 126 z" stroke-width="1.8000000000000016"></path><path fill="none" stroke="black" d="M 103.5 162.125 A 13.5 13.5 0 1 1 103.5 162 z" stroke-width="1.8000000000000016"></path><path fill="none" stroke="black" d="M 139.5 162.125 A 13.5 13.5 0 1 1 139.5 162 z" stroke-width="1.8000000000000016"></path><path fill="none" stroke="black" d="M 427.5 162.125 A 13.5 13.5 0 1 1 427.5 162 z" stroke-width="1.8000000000000016"></path><path fill="none" stroke="black" d="M 535.5 162.125 A 13.5 13.5 0 1 1 535.5 162 z" stroke-width="1.8000000000000016"></path><path fill="none" stroke="black" d="M 103.5 198.125 A 13.5 13.5 0 1 1 103.5 198 z" stroke-width="1.8000000000000016"></path><path fill="none" stroke="black" d="M 247.5 198.125 A 13.5 13.5 0 1 1 247.5 198 z" stroke-width="1.8000000000000016"></path><path fill="none" stroke="black" d="M 463.5 198.125 A 13.5 13.5 0 1 1 463.5 198 z" stroke-width="1.8000000000000016"></path><path fill="none" stroke="black" d="M 139.5 234.125 A 13.5 13.5 0 1 1 139.5 234 z" stroke-width="1.8000000000000016"></path><path fill="none" stroke="black" d="M 283.5 234.125 A 13.5 13.5 0 1 1 283.5 234 z" stroke-width="1.8000000000000016"></path><path fill="none" stroke="black" d="M 427.5 234.125 A 13.5 13.5 0 1 1 427.5 234 z" stroke-width="1.8000000000000016"></path><path fill="none" stroke="black" d="M 67.5 270.125 A 13.5 13.5 0 1 1 67.5 270 z" stroke-width="1.8000000000000016"></path><path fill="none" stroke="black" d="M 103.5 270.125 A 13.5 13.5 0 1 1 103.5 270 z" stroke-width="1.8000000000000016"></path><path fill="none" stroke="black" d="M 535.5 270.125 A 13.5 13.5 0 1 1 535.5 270 z" stroke-width="1.8000000000000016"></path><path fill="none" stroke="black" d="M 175.5 306.125 A 13.5 13.5 0 1 1 175.5 306 z" stroke-width="1.8000000000000016"></path><path fill="none" stroke="black" d="M 319.5 306.125 A 13.5 13.5 0 1 1 319.5 306 z" stroke-width="1.8000000000000016"></path><path fill="none" stroke="black" d="M 355.5 306.125 A 13.5 13.5 0 1 1 355.5 306 z" stroke-width="1.8000000000000016"></path><path fill="none" stroke="black" d="M 463.5 306.125 A 13.5 13.5 0 1 1 463.5 306 z" stroke-width="1.8000000000000016"></path><path fill="none" stroke="black" d="M 499.5 306.125 A 13.5 13.5 0 1 1 499.5 306 z" stroke-width="1.8000000000000016"></path><path fill="none" stroke="black" d="M 67.5 342.125 A 13.5 13.5 0 1 1 67.5 342 z" stroke-width="1.8000000000000016"></path><path fill="none" stroke="black" d="M 139.5 342.125 A 13.5 13.5 0 1 1 139.5 342 z" stroke-width="1.8000000000000016"></path><path fill="none" stroke="black" d="M 247.5 342.125 A 13.5 13.5 0 1 1 247.5 342 z" stroke-width="1.8000000000000016"></path><path fill="none" stroke="black" d="M 391.5 342.125 A 13.5 13.5 0 1 1 391.5 342 z" stroke-width="1.8000000000000016"></path><path fill="none" stroke="black" d="M 211.5 378.125 A 13.5 13.5 0 1 1 211.5 378 z" stroke-width="1.8000000000000016"></path><path fill="none" stroke="black" d="M 319.5 378.125 A 13.5 13.5 0 1 1 319.5 378 z" stroke-width="1.8000000000000016"></path><path fill="none" stroke="black" d="M 463.5 378.125 A 13.5 13.5 0 1 1 463.5 378 z" stroke-width="1.8000000000000016"></path><path fill="none" stroke="black" d="M 139.5 414.125 A 13.5 13.5 0 1 1 139.5 414 z" stroke-width="1.8000000000000016"></path><path fill="none" stroke="black" d="M 247.5 414.125 A 13.5 13.5 0 1 1 247.5 414 z" stroke-width="1.8000000000000016"></path><path fill="none" stroke="black" d="M 463.5 414.125 A 13.5 13.5 0 1 1 463.5 414 z" stroke-width="1.8000000000000016"></path><path fill="none" stroke="black" d="M 175.5 450.125 A 13.5 13.5 0 1 1 175.5 450 z" stroke-width="1.8000000000000016"></path><path fill="none" stroke="black" d="M 355.5 450.125 A 13.5 13.5 0 1 1 355.5 450 z" stroke-width="1.8000000000000016"></path><path fill="none" stroke="black" d="M 67.5 486.125 A 13.5 13.5 0 1 1 67.5 486 z" stroke-width="1.8000000000000016"></path><path fill="none" stroke="black" d="M 247.5 486.125 A 13.5 13.5 0 1 1 247.5 486 z" stroke-width="1.8000000000000016"></path><path fill="none" stroke="black" d="M 427.5 486.125 A 13.5 13.5 0 1 1 427.5 486 z" stroke-width="1.8000000000000016"></path><path fill="none" stroke="black" d="M 103.5 522.125 A 13.5 13.5 0 1 1 103.5 522 z" stroke-width="1.8000000000000016"></path><path fill="none" stroke="black" d="M 211.5 522.125 A 13.5 13.5 0 1 1 211.5 522 z" stroke-width="1.8000000000000016"></path><path fill="none" stroke="black" d="M 391.5 522.125 A 13.5 13.5 0 1 1 391.5 522 z" stroke-width="1.8000000000000016"></path></g><g shape-rendering="auto"><text fill="black" x="126" y="63.8" text-anchor="middle" font-size="28">?</text><text fill="black" x="126" y="99.8" text-anchor="middle" font-size="28">?</text><text fill="black" x="270" y="99.8" text-anchor="middle" font-size="28">?</text><text fill="black" x="378" y="99.8" text-anchor="middle" font-size="28">?</text><text fill="black" x="198" y="135.8" text-anchor="middle" font-size="28">?</text><text fill="black" x="270" y="171.8" text-anchor="middle" font-size="28">?</text><text fill="black" x="18" y="207.8" text-anchor="middle" font-size="28">?</text><text fill="black" x="306" y="207.8" text-anchor="middle" font-size="28">?</text><text fill="black" x="342" y="207.8" text-anchor="middle" font-size="28">?</text><text fill="black" x="486" y="207.8" text-anchor="middle" font-size="28">?</text><text fill="black" x="198" y="243.8" text-anchor="middle" font-size="28">?</text><text fill="black" x="162" y="279.8" text-anchor="middle" font-size="28">?</text><text fill="black" x="306" y="279.8" text-anchor="middle" font-size="28">?</text><text fill="black" x="378" y="279.8" text-anchor="middle" font-size="28">?</text><text fill="black" x="450" y="279.8" text-anchor="middle" font-size="28">?</text><text fill="black" x="90" y="315.8" text-anchor="middle" font-size="28">?</text><text fill="black" x="234" y="315.8" text-anchor="middle" font-size="28">?</text><text fill="black" x="162" y="351.8" text-anchor="middle" font-size="28">?</text><text fill="black" x="270" y="387.8" text-anchor="middle" font-size="28">?</text><text fill="black" x="522" y="387.8" text-anchor="middle" font-size="28">?</text><text fill="black" x="90" y="423.8" text-anchor="middle" font-size="28">?</text><text fill="black" x="306" y="459.8" text-anchor="middle" font-size="28">?</text><text fill="black" x="126" y="495.8" text-anchor="middle" font-size="28">?</text><text fill="black" x="162" y="495.8" text-anchor="middle" font-size="28">?</text><text fill="black" x="306" y="531.8" text-anchor="middle" font-size="28">?</text></g><g shape-rendering="auto"><path fill="none" stroke="rgb(0, 127, 0)" d="M 120.6 174.6 L 131.4 185.4 M 120.6 185.4 L 131.4 174.6" stroke-width="1"></path></g><g shape-rendering="crispEdges"><path fill="rgb(0, 160, 0)" stroke="none" d="M 16 16 L 56 16 56 20 16 20 z"></path><path fill="rgb(0, 160, 0)" stroke="none" d="M 52 16 L 92 16 92 20 52 20 z"></path><path fill="rgb(0, 160, 0)" stroke="none" d="M 88 16 L 128 16 128 20 88 20 z"></path><path fill="rgb(0, 160, 0)" stroke="none" d="M 124 16 L 164 16 164 20 124 20 z"></path><path fill="rgb(0, 160, 0)" stroke="none" d="M 160 16 L 200 16 200 20 160 20 z"></path><path fill="rgb(0, 160, 0)" stroke="none" d="M 196 16 L 236 16 236 20 196 20 z"></path><path fill="rgb(0, 160, 0)" stroke="none" d="M 340 16 L 380 16 380 20 340 20 z"></path><path fill="rgb(0, 160, 0)" stroke="none" d="M 376 16 L 416 16 416 20 376 20 z"></path><path fill="rgb(0, 160, 0)" stroke="none" d="M 412 16 L 452 16 452 20 412 20 z"></path><path fill="rgb(0, 160, 0)" stroke="none" d="M 448 16 L 488 16 488 20 448 20 z"></path><path fill="rgb(0, 160, 0)" stroke="none" d="M 484 16 L 524 16 524 20 484 20 z"></path><path fill="rgb(0, 160, 0)" stroke="none" d="M 16 16 L 20 16 20 56 16 56 z"></path><path fill="rgb(0, 160, 0)" stroke="none" d="M 232 16 L 236 16 236 56 232 56 z"></path><path fill="rgb(0, 160, 0)" stroke="none" d="M 340 16 L 344 16 344 56 340 56 z"></path><path fill="rgb(0, 160, 0)" stroke="none" d="M 520 16 L 524 16 524 56 520 56 z"></path><path fill="rgb(0, 160, 0)" stroke="none" d="M 412 52 L 452 52 452 56 412 56 z"></path><path fill="rgb(0, 160, 0)" stroke="none" d="M 16 52 L 20 52 20 92 16 92 z"></path><path fill="rgb(0, 160, 0)" stroke="none" d="M 232 52 L 236 52 236 92 232 92 z"></path><path fill="rgb(0, 160, 0)" stroke="none" d="M 340 52 L 344 52 344 92 340 92 z"></path><path fill="rgb(0, 160, 0)" stroke="none" d="M 412 52 L 416 52 416 92 412 92 z"></path><path fill="rgb(0, 160, 0)" stroke="none" d="M 448 52 L 452 52 452 92 448 92 z"></path><path fill="rgb(0, 160, 0)" stroke="none" d="M 520 52 L 524 52 524 92 520 92 z"></path><path fill="rgb(0, 160, 0)" stroke="none" d="M 448 88 L 488 88 488 92 448 92 z"></path><path fill="rgb(0, 160, 0)" stroke="none" d="M 484 88 L 524 88 524 92 484 92 z"></path><path fill="rgb(0, 160, 0)" stroke="none" d="M 16 88 L 20 88 20 128 16 128 z"></path><path fill="rgb(0, 160, 0)" stroke="none" d="M 232 88 L 236 88 236 128 232 128 z"></path><path fill="rgb(0, 160, 0)" stroke="none" d="M 340 88 L 344 88 344 128 340 128 z"></path><path fill="rgb(0, 160, 0)" stroke="none" d="M 412 88 L 416 88 416 128 412 128 z"></path><path fill="rgb(0, 160, 0)" stroke="none" d="M 16 124 L 56 124 56 128 16 128 z"></path><path fill="rgb(0, 160, 0)" stroke="none" d="M 52 124 L 92 124 92 128 52 128 z"></path><path fill="rgb(0, 160, 0)" stroke="none" d="M 88 124 L 128 124 128 128 88 128 z"></path><path fill="rgb(0, 160, 0)" stroke="none" d="M 124 124 L 164 124 164 128 124 128 z"></path><path fill="rgb(0, 160, 0)" stroke="none" d="M 412 124 L 452 124 452 128 412 128 z"></path><path fill="rgb(0, 160, 0)" stroke="none" d="M 448 124 L 488 124 488 128 448 128 z"></path><path fill="rgb(0, 160, 0)" stroke="none" d="M 484 124 L 524 124 524 128 484 128 z"></path><path fill="rgb(0, 160, 0)" stroke="none" d="M 160 124 L 164 124 164 164 160 164 z"></path><path fill="rgb(0, 160, 0)" stroke="none" d="M 232 124 L 236 124 236 164 232 164 z"></path><path fill="rgb(0, 160, 0)" stroke="none" d="M 340 124 L 344 124 344 164 340 164 z"></path><path fill="rgb(0, 160, 0)" stroke="none" d="M 520 124 L 524 124 524 164 520 164 z"></path><path fill="rgb(0, 160, 0)" stroke="none" d="M 52 160 L 92 160 92 164 52 164 z"></path><path fill="rgb(0, 160, 0)" stroke="none" d="M 88 160 L 128 160 128 164 88 164 z"></path><path fill="rgb(0, 160, 0)" stroke="none" d="M 124 160 L 164 160 164 164 124 164 z"></path><path fill="rgb(0, 160, 0)" stroke="none" d="M 340 160 L 380 160 380 164 340 164 z"></path><path fill="rgb(0, 160, 0)" stroke="none" d="M 376 160 L 416 160 416 164 376 164 z"></path><path fill="rgb(0, 160, 0)" stroke="none" d="M 412 160 L 452 160 452 164 412 164 z"></path><path fill="rgb(0, 160, 0)" stroke="none" d="M 52 160 L 56 160 56 200 52 200 z"></path><path fill="rgb(0, 160, 0)" stroke="none" d="M 232 160 L 236 160 236 200 232 200 z"></path><path fill="rgb(0, 160, 0)" stroke="none" d="M 448 160 L 452 160 452 200 448 200 z"></path><path fill="rgb(0, 160, 0)" stroke="none" d="M 520 160 L 524 160 524 200 520 200 z"></path><path fill="rgb(0, 160, 0)" stroke="none" d="M 52 196 L 92 196 92 200 52 200 z"></path><path fill="rgb(0, 160, 0)" stroke="none" d="M 88 196 L 128 196 128 200 88 200 z"></path><path fill="rgb(0, 160, 0)" stroke="none" d="M 124 196 L 128 196 128 236 124 236 z"></path><path fill="rgb(0, 160, 0)" stroke="none" d="M 232 196 L 236 196 236 236 232 236 z"></path><path fill="rgb(0, 160, 0)" stroke="none" d="M 448 196 L 452 196 452 236 448 236 z"></path><path fill="rgb(0, 160, 0)" stroke="none" d="M 520 196 L 524 196 524 236 520 236 z"></path><path fill="rgb(0, 160, 0)" stroke="none" d="M 232 232 L 272 232 272 236 232 236 z"></path><path fill="rgb(0, 160, 0)" stroke="none" d="M 268 232 L 308 232 308 236 268 236 z"></path><path fill="rgb(0, 160, 0)" stroke="none" d="M 304 232 L 344 232 344 236 304 236 z"></path><path fill="rgb(0, 160, 0)" stroke="none" d="M 340 232 L 380 232 380 236 340 236 z"></path><path fill="rgb(0, 160, 0)" stroke="none" d="M 376 232 L 416 232 416 236 376 236 z"></path><path fill="rgb(0, 160, 0)" stroke="none" d="M 412 232 L 452 232 452 236 412 236 z"></path><path fill="rgb(0, 160, 0)" stroke="none" d="M 124 232 L 128 232 128 272 124 272 z"></path><path fill="rgb(0, 160, 0)" stroke="none" d="M 520 232 L 524 232 524 272 520 272 z"></path><path fill="rgb(0, 160, 0)" stroke="none" d="M 16 268 L 56 268 56 272 16 272 z"></path><path fill="rgb(0, 160, 0)" stroke="none" d="M 52 268 L 92 268 92 272 52 272 z"></path><path fill="rgb(0, 160, 0)" stroke="none" d="M 88 268 L 128 268 128 272 88 272 z"></path><path fill="rgb(0, 160, 0)" stroke="none" d="M 520 268 L 524 268 524 308 520 308 z"></path><path fill="rgb(0, 160, 0)" stroke="none" d="M 124 304 L 164 304 164 308 124 308 z"></path><path fill="rgb(0, 160, 0)" stroke="none" d="M 160 304 L 200 304 200 308 160 308 z"></path><path fill="rgb(0, 160, 0)" stroke="none" d="M 268 304 L 308 304 308 308 268 308 z"></path><path fill="rgb(0, 160, 0)" stroke="none" d="M 304 304 L 344 304 344 308 304 308 z"></path><path fill="rgb(0, 160, 0)" stroke="none" d="M 340 304 L 380 304 380 308 340 308 z"></path><path fill="rgb(0, 160, 0)" stroke="none" d="M 412 304 L 452 304 452 308 412 308 z"></path><path fill="rgb(0, 160, 0)" stroke="none" d="M 448 304 L 488 304 488 308 448 308 z"></path><path fill="rgb(0, 160, 0)" stroke="none" d="M 484 304 L 524 304 524 308 484 308 z"></path><path fill="rgb(0, 160, 0)" stroke="none" d="M 124 304 L 128 304 128 344 124 344 z"></path><path fill="rgb(0, 160, 0)" stroke="none" d="M 196 304 L 200 304 200 344 196 344 z"></path><path fill="rgb(0, 160, 0)" stroke="none" d="M 268 304 L 272 304 272 344 268 344 z"></path><path fill="rgb(0, 160, 0)" stroke="none" d="M 376 304 L 380 304 380 344 376 344 z"></path><path fill="rgb(0, 160, 0)" stroke="none" d="M 412 304 L 416 304 416 344 412 344 z"></path><path fill="rgb(0, 160, 0)" stroke="none" d="M 196 340 L 236 340 236 344 196 344 z"></path><path fill="rgb(0, 160, 0)" stroke="none" d="M 232 340 L 272 340 272 344 232 344 z"></path><path fill="rgb(0, 160, 0)" stroke="none" d="M 304 340 L 344 340 344 344 304 344 z"></path><path fill="rgb(0, 160, 0)" stroke="none" d="M 124 340 L 128 340 128 380 124 380 z"></path><path fill="rgb(0, 160, 0)" stroke="none" d="M 304 340 L 308 340 308 380 304 380 z"></path><path fill="rgb(0, 160, 0)" stroke="none" d="M 340 340 L 344 340 344 380 340 380 z"></path><path fill="rgb(0, 160, 0)" stroke="none" d="M 376 340 L 380 340 380 380 376 380 z"></path><path fill="rgb(0, 160, 0)" stroke="none" d="M 412 340 L 416 340 416 380 412 380 z"></path><path fill="rgb(0, 160, 0)" stroke="none" d="M 160 376 L 200 376 200 380 160 380 z"></path><path fill="rgb(0, 160, 0)" stroke="none" d="M 196 376 L 236 376 236 380 196 380 z"></path><path fill="rgb(0, 160, 0)" stroke="none" d="M 340 376 L 380 376 380 380 340 380 z"></path><path fill="rgb(0, 160, 0)" stroke="none" d="M 412 376 L 452 376 452 380 412 380 z"></path><path fill="rgb(0, 160, 0)" stroke="none" d="M 448 376 L 488 376 488 380 448 380 z"></path><path fill="rgb(0, 160, 0)" stroke="none" d="M 124 376 L 128 376 128 416 124 416 z"></path><path fill="rgb(0, 160, 0)" stroke="none" d="M 160 376 L 164 376 164 416 160 416 z"></path><path fill="rgb(0, 160, 0)" stroke="none" d="M 232 376 L 236 376 236 416 232 416 z"></path><path fill="rgb(0, 160, 0)" stroke="none" d="M 304 376 L 308 376 308 416 304 416 z"></path><path fill="rgb(0, 160, 0)" stroke="none" d="M 484 376 L 488 376 488 416 484 416 z"></path><path fill="rgb(0, 160, 0)" stroke="none" d="M 160 412 L 200 412 200 416 160 416 z"></path><path fill="rgb(0, 160, 0)" stroke="none" d="M 304 412 L 344 412 344 416 304 416 z"></path><path fill="rgb(0, 160, 0)" stroke="none" d="M 412 412 L 452 412 452 416 412 416 z"></path><path fill="rgb(0, 160, 0)" stroke="none" d="M 448 412 L 488 412 488 416 448 416 z"></path><path fill="rgb(0, 160, 0)" stroke="none" d="M 124 412 L 128 412 128 452 124 452 z"></path><path fill="rgb(0, 160, 0)" stroke="none" d="M 196 412 L 200 412 200 452 196 452 z"></path><path fill="rgb(0, 160, 0)" stroke="none" d="M 232 412 L 236 412 236 452 232 452 z"></path><path fill="rgb(0, 160, 0)" stroke="none" d="M 340 412 L 344 412 344 452 340 452 z"></path><path fill="rgb(0, 160, 0)" stroke="none" d="M 412 412 L 416 412 416 452 412 452 z"></path><path fill="rgb(0, 160, 0)" stroke="none" d="M 124 448 L 164 448 164 452 124 452 z"></path><path fill="rgb(0, 160, 0)" stroke="none" d="M 160 448 L 200 448 200 452 160 452 z"></path><path fill="rgb(0, 160, 0)" stroke="none" d="M 52 448 L 56 448 56 488 52 488 z"></path><path fill="rgb(0, 160, 0)" stroke="none" d="M 232 448 L 236 448 236 488 232 488 z"></path><path fill="rgb(0, 160, 0)" stroke="none" d="M 340 448 L 344 448 344 488 340 488 z"></path><path fill="rgb(0, 160, 0)" stroke="none" d="M 412 448 L 416 448 416 488 412 488 z"></path><path fill="rgb(0, 160, 0)" stroke="none" d="M 52 484 L 56 484 56 524 52 524 z"></path><path fill="rgb(0, 160, 0)" stroke="none" d="M 232 484 L 236 484 236 524 232 524 z"></path><path fill="rgb(0, 160, 0)" stroke="none" d="M 340 484 L 344 484 344 524 340 524 z"></path><path fill="rgb(0, 160, 0)" stroke="none" d="M 412 484 L 416 484 416 524 412 524 z"></path><path fill="rgb(0, 160, 0)" stroke="none" d="M 52 520 L 92 520 92 524 52 524 z"></path><path fill="rgb(0, 160, 0)" stroke="none" d="M 88 520 L 128 520 128 524 88 524 z"></path><path fill="rgb(0, 160, 0)" stroke="none" d="M 124 520 L 164 520 164 524 124 524 z"></path><path fill="rgb(0, 160, 0)" stroke="none" d="M 160 520 L 200 520 200 524 160 524 z"></path><path fill="rgb(0, 160, 0)" stroke="none" d="M 196 520 L 236 520 236 524 196 524 z"></path><path fill="rgb(0, 160, 0)" stroke="none" d="M 340 520 L 380 520 380 524 340 524 z"></path><path fill="rgb(0, 160, 0)" stroke="none" d="M 376 520 L 416 520 416 524 376 524 z"></path></g><g shape-rendering="crispEdges"><path fill="black" stroke="none" d="M -2 -2 L 2 -2 2 542 -2 542 z"></path><path fill="black" stroke="none" d="M 538 -2 L 542 -2 542 542 538 542 z"></path><path fill="black" stroke="none" d="M -2 -2 L 542 -2 542 2 -2 2 z"></path><path fill="black" stroke="none" d="M -2 538 L 542 538 542 542 -2 542 z"></path></g><g shape-rendering="crispEdges"></g></svg>