<svg xmlns="http://www.w3.org/2000/svg" width="6" height="2">

  <defs>
    <rect id="t" width="1" height="1" fill="#ffc0c0" />
    <rect id="v" width="1" height="1" fill="#ffffc0" />
    <rect id="r" width="1" height="1" fill="#c0ffc0" />
    <rect id="s" width="1" height="1" fill="#c0ffff" />
    <rect id="q" width="1" height="1" fill="#c0c0ff" />
    <rect id="u" width="1" height="1" fill="#ffc0ff" />
    
    <rect id="l" width="1" height="1" fill="#ff0000" />
    <rect id="n" width="1" height="1" fill="#ffffc0" />
    <rect id="j" width="1" height="1" fill="#00ff00" />
    <rect id="k" width="1" height="1" fill="#00ffff" />
    <rect id="i" width="1" height="1" fill="#0000ff" />
    <rect id="m" width="1" height="1" fill="#ff00ff" />
    
    <rect id="d" width="1" height="1" fill="#c00000" />
    <rect id="f" width="1" height="1" fill="#c0c000" />
    <rect id="b" width="1" height="1" fill="#00c000" />
    <rect id="c" width="1" height="1" fill="#00c0c0" />
    <rect id="a" width="1" height="1" fill="#0000c0" />
    <rect id="e" width="1" height="1" fill="#c000c0" />
    
    <rect id="B" width="1" height="1" fill="#000000" />
    <rect id="W" width="1" height="1" fill="#ffffff" />
  </defs>

  <use x="0" y="0" href="#t" />
  <use x="1" y="0" href="#t" />
  <use x="2" y="0" href="#t" />
  <use x="3" y="0" href="#t" />
  <use x="4" y="0" href="#l" />
  <use x="5" y="0" href="#i" />
  <use x="0" y="1" href="#a" />
  <use x="1" y="1" href="#u" />
  <use x="2" y="1" href="#q" />
  <use x="3" y="1" href="#a" />
  <use x="4" y="1" href="#s" />
  <use x="5" y="1" href="#j" />
</svg>
