<?xml version="1.0" encoding="UTF-8"?>
<svg xmlns="http://www.w3.org/2000/svg" xmlns:xlink="http://www.w3.org/1999/xlink" font-size="10px" font-family="sans-serif" width="262" height="334" viewBox="-5.5 -5.5 262 334"><g shape-rendering="crispEdges"><path fill="white" stroke="none" d="M -0.5 -0.5 L 252.5 -0.5 252.5 324.5 -0.5 324.5 z"></path></g><g shape-rendering="crispEdges"></g><g shape-rendering="crispEdges"><path fill="none" stroke="rgb(160, 160, 160)" d="M 36 0 L 36 36" stroke-width="1" stroke-dasharray="2.8125 3.375 5.625 3.375 5.625 3.375 5.625 3.375 2.8125 0"></path><path fill="none" stroke="rgb(160, 160, 160)" d="M 72 0 L 72 36" stroke-width="1" stroke-dasharray="2.8125 3.375 5.625 3.375 5.625 3.375 5.625 3.375 2.8125 0"></path><path fill="none" stroke="rgb(160, 160, 160)" d="M 108 0 L 108 36" stroke-width="1" stroke-dasharray="2.8125 3.375 5.625 3.375 5.625 3.375 5.625 3.375 2.8125 0"></path><path fill="none" stroke="rgb(160, 160, 160)" d="M 144 0 L 144 36" stroke-width="1" stroke-dasharray="2.8125 3.375 5.625 3.375 5.625 3.375 5.625 3.375 2.8125 0"></path><path fill="none" stroke="rgb(160, 160, 160)" d="M 180 0 L 180 36" stroke-width="1" stroke-dasharray="2.8125 3.375 5.625 3.375 5.625 3.375 5.625 3.375 2.8125 0"></path><path fill="none" stroke="rgb(160, 160, 160)" d="M 216 0 L 216 36" stroke-width="1" stroke-dasharray="2.8125 3.375 5.625 3.375 5.625 3.375 5.625 3.375 2.8125 0"></path><path fill="none" stroke="rgb(160, 160, 160)" d="M 0 36 L 36 36" stroke-width="1" stroke-dasharray="2.8125 3.375 5.625 3.375 5.625 3.375 5.625 3.375 2.8125 0"></path><path fill="none" stroke="rgb(160, 160, 160)" d="M 36 36 L 72 36" stroke-width="1" stroke-dasharray="2.8125 3.375 5.625 3.375 5.625 3.375 5.625 3.375 2.8125 0"></path><path fill="none" stroke="rgb(160, 160, 160)" d="M 72 36 L 108 36" stroke-width="1" stroke-dasharray="2.8125 3.375 5.625 3.375 5.625 3.375 5.625 3.375 2.8125 0"></path><path fill="none" stroke="rgb(160, 160, 160)" d="M 108 36 L 144 36" stroke-width="1" stroke-dasharray="2.8125 3.375 5.625 3.375 5.625 3.375 5.625 3.375 2.8125 0"></path><path fill="none" stroke="rgb(160, 160, 160)" d="M 144 36 L 180 36" stroke-width="1" stroke-dasharray="2.8125 3.375 5.625 3.375 5.625 3.375 5.625 3.375 2.8125 0"></path><path fill="none" stroke="rgb(160, 160, 160)" d="M 180 36 L 216 36" stroke-width="1" stroke-dasharray="2.8125 3.375 5.625 3.375 5.625 3.375 5.625 3.375 2.8125 0"></path><path fill="none" stroke="rgb(160, 160, 160)" d="M 216 36 L 252 36" stroke-width="1" stroke-dasharray="2.8125 3.375 5.625 3.375 5.625 3.375 5.625 3.375 2.8125 0"></path><path fill="none" stroke="rgb(160, 160, 160)" d="M 36 36 L 36 72" stroke-width="1" stroke-dasharray="2.8125 3.375 5.625 3.375 5.625 3.375 5.625 3.375 2.8125 0"></path><path fill="none" stroke="rgb(160, 160, 160)" d="M 72 36 L 72 72" stroke-width="1" stroke-dasharray="2.8125 3.375 5.625 3.375 5.625 3.375 5.625 3.375 2.8125 0"></path><path fill="none" stroke="rgb(160, 160, 160)" d="M 108 36 L 108 72" stroke-width="1" stroke-dasharray="2.8125 3.375 5.625 3.375 5.625 3.375 5.625 3.375 2.8125 0"></path><path fill="none" stroke="rgb(160, 160, 160)" d="M 144 36 L 144 72" stroke-width="1" stroke-dasharray="2.8125 3.375 5.625 3.375 5.625 3.375 5.625 3.375 2.8125 0"></path><path fill="none" stroke="rgb(160, 160, 160)" d="M 180 36 L 180 72" stroke-width="1" stroke-dasharray="2.8125 3.375 5.625 3.375 5.625 3.375 5.625 3.375 2.8125 0"></path><path fill="none" stroke="rgb(160, 160, 160)" d="M 216 36 L 216 72" stroke-width="1" stroke-dasharray="2.8125 3.375 5.625 3.375 5.625 3.375 5.625 3.375 2.8125 0"></path><path fill="none" stroke="rgb(160, 160, 160)" d="M 0 72 L 36 72" stroke-width="1" stroke-dasharray="2.8125 3.375 5.625 3.375 5.625 3.375 5.625 3.375 2.8125 0"></path><path fill="none" stroke="rgb(160, 160, 160)" d="M 36 72 L 72 72" stroke-width="1" stroke-dasharray="2.8125 3.375 5.625 3.375 5.625 3.375 5.625 3.375 2.8125 0"></path><path fill="none" stroke="rgb(160, 160, 160)" d="M 72 72 L 108 72" stroke-width="1" stroke-dasharray="2.8125 3.375 5.625 3.375 5.625 3.375 5.625 3.375 2.8125 0"></path><path fill="none" stroke="rgb(160, 160, 160)" d="M 108 72 L 144 72" stroke-width="1" stroke-dasharray="2.8125 3.375 5.625 3.375 5.625 3.375 5.625 3.375 2.8125 0"></path><path fill="none" stroke="rgb(160, 160, 160)" d="M 144 72 L 180 72" stroke-width="1" stroke-dasharray="2.8125 3.375 5.625 3.375 5.625 3.375 5.625 3.375 2.8125 0"></path><path fill="none" stroke="rgb(160, 160, 160)" d="M 180 72 L 216 72" stroke-width="1" stroke-dasharray="2.8125 3.375 5.625 3.375 5.625 3.375 5.625 3.375 2.8125 0"></path><path fill="none" stroke="rgb(160, 160, 160)" d="M 216 72 L 252 72" stroke-width="1" stroke-dasharray="2.8125 3.375 5.625 3.375 5.625 3.375 5.625 3.375 2.8125 0"></path><path fill="none" stroke="rgb(160, 160, 160)" d="M 36 72 L 36 108" stroke-width="1" stroke-dasharray="2.8125 3.375 5.625 3.375 5.625 3.375 5.625 3.375 2.8125 0"></path><path fill="none" stroke="rgb(160, 160, 160)" d="M 72 72 L 72 108" stroke-width="1" stroke-dasharray="2.8125 3.375 5.625 3.375 5.625 3.375 5.625 3.375 2.8125 0"></path><path fill="none" stroke="rgb(160, 160, 160)" d="M 108 72 L 108 108" stroke-width="1" stroke-dasharray="2.8125 3.375 5.625 3.375 5.625 3.375 5.625 3.375 2.8125 0"></path><path fill="none" stroke="rgb(160, 160, 160)" d="M 144 72 L 144 108" stroke-width="1" stroke-dasharray="2.8125 3.375 5.625 3.375 5.625 3.375 5.625 3.375 2.8125 0"></path><path fill="none" stroke="rgb(160, 160, 160)" d="M 180 72 L 180 108" stroke-width="1" stroke-dasharray="2.8125 3.375 5.625 3.375 5.625 3.375 5.625 3.375 2.8125 0"></path><path fill="none" stroke="rgb(160, 160, 160)" d="M 216 72 L 216 108" stroke-width="1" stroke-dasharray="2.8125 3.375 5.625 3.375 5.625 3.375 5.625 3.375 2.8125 0"></path><path fill="none" stroke="rgb(160, 160, 160)" d="M 0 108 L 36 108" stroke-width="1" stroke-dasharray="2.8125 3.375 5.625 3.375 5.625 3.375 5.625 3.375 2.8125 0"></path><path fill="none" stroke="rgb(160, 160, 160)" d="M 36 108 L 72 108" stroke-width="1" stroke-dasharray="2.8125 3.375 5.625 3.375 5.625 3.375 5.625 3.375 2.8125 0"></path><path fill="none" stroke="rgb(160, 160, 160)" d="M 72 108 L 108 108" stroke-width="1" stroke-dasharray="2.8125 3.375 5.625 3.375 5.625 3.375 5.625 3.375 2.8125 0"></path><path fill="none" stroke="rgb(160, 160, 160)" d="M 108 108 L 144 108" stroke-width="1" stroke-dasharray="2.8125 3.375 5.625 3.375 5.625 3.375 5.625 3.375 2.8125 0"></path><path fill="none" stroke="rgb(160, 160, 160)" d="M 144 108 L 180 108" stroke-width="1" stroke-dasharray="2.8125 3.375 5.625 3.375 5.625 3.375 5.625 3.375 2.8125 0"></path><path fill="none" stroke="rgb(160, 160, 160)" d="M 180 108 L 216 108" stroke-width="1" stroke-dasharray="2.8125 3.375 5.625 3.375 5.625 3.375 5.625 3.375 2.8125 0"></path><path fill="none" stroke="rgb(160, 160, 160)" d="M 216 108 L 252 108" stroke-width="1" stroke-dasharray="2.8125 3.375 5.625 3.375 5.625 3.375 5.625 3.375 2.8125 0"></path><path fill="none" stroke="rgb(160, 160, 160)" d="M 36 108 L 36 144" stroke-width="1" stroke-dasharray="2.8125 3.375 5.625 3.375 5.625 3.375 5.625 3.375 2.8125 0"></path><path fill="none" stroke="rgb(160, 160, 160)" d="M 72 108 L 72 144" stroke-width="1" stroke-dasharray="2.8125 3.375 5.625 3.375 5.625 3.375 5.625 3.375 2.8125 0"></path><path fill="none" stroke="rgb(160, 160, 160)" d="M 108 108 L 108 144" stroke-width="1" stroke-dasharray="2.8125 3.375 5.625 3.375 5.625 3.375 5.625 3.375 2.8125 0"></path><path fill="none" stroke="rgb(160, 160, 160)" d="M 144 108 L 144 144" stroke-width="1" stroke-dasharray="2.8125 3.375 5.625 3.375 5.625 3.375 5.625 3.375 2.8125 0"></path><path fill="none" stroke="rgb(160, 160, 160)" d="M 180 108 L 180 144" stroke-width="1" stroke-dasharray="2.8125 3.375 5.625 3.375 5.625 3.375 5.625 3.375 2.8125 0"></path><path fill="none" stroke="rgb(160, 160, 160)" d="M 216 108 L 216 144" stroke-width="1" stroke-dasharray="2.8125 3.375 5.625 3.375 5.625 3.375 5.625 3.375 2.8125 0"></path><path fill="none" stroke="rgb(160, 160, 160)" d="M 0 144 L 36 144" stroke-width="1" stroke-dasharray="2.8125 3.375 5.625 3.375 5.625 3.375 5.625 3.375 2.8125 0"></path><path fill="none" stroke="rgb(160, 160, 160)" d="M 36 144 L 72 144" stroke-width="1" stroke-dasharray="2.8125 3.375 5.625 3.375 5.625 3.375 5.625 3.375 2.8125 0"></path><path fill="none" stroke="rgb(160, 160, 160)" d="M 72 144 L 108 144" stroke-width="1" stroke-dasharray="2.8125 3.375 5.625 3.375 5.625 3.375 5.625 3.375 2.8125 0"></path><path fill="none" stroke="rgb(160, 160, 160)" d="M 108 144 L 144 144" stroke-width="1" stroke-dasharray="2.8125 3.375 5.625 3.375 5.625 3.375 5.625 3.375 2.8125 0"></path><path fill="none" stroke="rgb(160, 160, 160)" d="M 144 144 L 180 144" stroke-width="1" stroke-dasharray="2.8125 3.375 5.625 3.375 5.625 3.375 5.625 3.375 2.8125 0"></path><path fill="none" stroke="rgb(160, 160, 160)" d="M 180 144 L 216 144" stroke-width="1" stroke-dasharray="2.8125 3.375 5.625 3.375 5.625 3.375 5.625 3.375 2.8125 0"></path><path fill="none" stroke="rgb(160, 160, 160)" d="M 216 144 L 252 144" stroke-width="1" stroke-dasharray="2.8125 3.375 5.625 3.375 5.625 3.375 5.625 3.375 2.8125 0"></path><path fill="none" stroke="rgb(160, 160, 160)" d="M 36 144 L 36 180" stroke-width="1" stroke-dasharray="2.8125 3.375 5.625 3.375 5.625 3.375 5.625 3.375 2.8125 0"></path><path fill="none" stroke="rgb(160, 160, 160)" d="M 72 144 L 72 180" stroke-width="1" stroke-dasharray="2.8125 3.375 5.625 3.375 5.625 3.375 5.625 3.375 2.8125 0"></path><path fill="none" stroke="rgb(160, 160, 160)" d="M 108 144 L 108 180" stroke-width="1" stroke-dasharray="2.8125 3.375 5.625 3.375 5.625 3.375 5.625 3.375 2.8125 0"></path><path fill="none" stroke="rgb(160, 160, 160)" d="M 144 144 L 144 180" stroke-width="1" stroke-dasharray="2.8125 3.375 5.625 3.375 5.625 3.375 5.625 3.375 2.8125 0"></path><path fill="none" stroke="rgb(160, 160, 160)" d="M 180 144 L 180 180" stroke-width="1" stroke-dasharray="2.8125 3.375 5.625 3.375 5.625 3.375 5.625 3.375 2.8125 0"></path><path fill="none" stroke="rgb(160, 160, 160)" d="M 216 144 L 216 180" stroke-width="1" stroke-dasharray="2.8125 3.375 5.625 3.375 5.625 3.375 5.625 3.375 2.8125 0"></path><path fill="none" stroke="rgb(160, 160, 160)" d="M 0 180 L 36 180" stroke-width="1" stroke-dasharray="2.8125 3.375 5.625 3.375 5.625 3.375 5.625 3.375 2.8125 0"></path><path fill="none" stroke="rgb(160, 160, 160)" d="M 36 180 L 72 180" stroke-width="1" stroke-dasharray="2.8125 3.375 5.625 3.375 5.625 3.375 5.625 3.375 2.8125 0"></path><path fill="none" stroke="rgb(160, 160, 160)" d="M 72 180 L 108 180" stroke-width="1" stroke-dasharray="2.8125 3.375 5.625 3.375 5.625 3.375 5.625 3.375 2.8125 0"></path><path fill="none" stroke="rgb(160, 160, 160)" d="M 108 180 L 144 180" stroke-width="1" stroke-dasharray="2.8125 3.375 5.625 3.375 5.625 3.375 5.625 3.375 2.8125 0"></path><path fill="none" stroke="rgb(160, 160, 160)" d="M 144 180 L 180 180" stroke-width="1" stroke-dasharray="2.8125 3.375 5.625 3.375 5.625 3.375 5.625 3.375 2.8125 0"></path><path fill="none" stroke="rgb(160, 160, 160)" d="M 180 180 L 216 180" stroke-width="1" stroke-dasharray="2.8125 3.375 5.625 3.375 5.625 3.375 5.625 3.375 2.8125 0"></path><path fill="none" stroke="rgb(160, 160, 160)" d="M 216 180 L 252 180" stroke-width="1" stroke-dasharray="2.8125 3.375 5.625 3.375 5.625 3.375 5.625 3.375 2.8125 0"></path><path fill="none" stroke="rgb(160, 160, 160)" d="M 36 180 L 36 216" stroke-width="1" stroke-dasharray="2.8125 3.375 5.625 3.375 5.625 3.375 5.625 3.375 2.8125 0"></path><path fill="none" stroke="rgb(160, 160, 160)" d="M 72 180 L 72 216" stroke-width="1" stroke-dasharray="2.8125 3.375 5.625 3.375 5.625 3.375 5.625 3.375 2.8125 0"></path><path fill="none" stroke="rgb(160, 160, 160)" d="M 108 180 L 108 216" stroke-width="1" stroke-dasharray="2.8125 3.375 5.625 3.375 5.625 3.375 5.625 3.375 2.8125 0"></path><path fill="none" stroke="rgb(160, 160, 160)" d="M 144 180 L 144 216" stroke-width="1" stroke-dasharray="2.8125 3.375 5.625 3.375 5.625 3.375 5.625 3.375 2.8125 0"></path><path fill="none" stroke="rgb(160, 160, 160)" d="M 180 180 L 180 216" stroke-width="1" stroke-dasharray="2.8125 3.375 5.625 3.375 5.625 3.375 5.625 3.375 2.8125 0"></path><path fill="none" stroke="rgb(160, 160, 160)" d="M 216 180 L 216 216" stroke-width="1" stroke-dasharray="2.8125 3.375 5.625 3.375 5.625 3.375 5.625 3.375 2.8125 0"></path><path fill="none" stroke="rgb(160, 160, 160)" d="M 0 216 L 36 216" stroke-width="1" stroke-dasharray="2.8125 3.375 5.625 3.375 5.625 3.375 5.625 3.375 2.8125 0"></path><path fill="none" stroke="rgb(160, 160, 160)" d="M 36 216 L 72 216" stroke-width="1" stroke-dasharray="2.8125 3.375 5.625 3.375 5.625 3.375 5.625 3.375 2.8125 0"></path><path fill="none" stroke="rgb(160, 160, 160)" d="M 72 216 L 108 216" stroke-width="1" stroke-dasharray="2.8125 3.375 5.625 3.375 5.625 3.375 5.625 3.375 2.8125 0"></path><path fill="none" stroke="rgb(160, 160, 160)" d="M 108 216 L 144 216" stroke-width="1" stroke-dasharray="2.8125 3.375 5.625 3.375 5.625 3.375 5.625 3.375 2.8125 0"></path><path fill="none" stroke="rgb(160, 160, 160)" d="M 144 216 L 180 216" stroke-width="1" stroke-dasharray="2.8125 3.375 5.625 3.375 5.625 3.375 5.625 3.375 2.8125 0"></path><path fill="none" stroke="rgb(160, 160, 160)" d="M 180 216 L 216 216" stroke-width="1" stroke-dasharray="2.8125 3.375 5.625 3.375 5.625 3.375 5.625 3.375 2.8125 0"></path><path fill="none" stroke="rgb(160, 160, 160)" d="M 216 216 L 252 216" stroke-width="1" stroke-dasharray="2.8125 3.375 5.625 3.375 5.625 3.375 5.625 3.375 2.8125 0"></path><path fill="none" stroke="rgb(160, 160, 160)" d="M 36 216 L 36 252" stroke-width="1" stroke-dasharray="2.8125 3.375 5.625 3.375 5.625 3.375 5.625 3.375 2.8125 0"></path><path fill="none" stroke="rgb(160, 160, 160)" d="M 72 216 L 72 252" stroke-width="1" stroke-dasharray="2.8125 3.375 5.625 3.375 5.625 3.375 5.625 3.375 2.8125 0"></path><path fill="none" stroke="rgb(160, 160, 160)" d="M 108 216 L 108 252" stroke-width="1" stroke-dasharray="2.8125 3.375 5.625 3.375 5.625 3.375 5.625 3.375 2.8125 0"></path><path fill="none" stroke="rgb(160, 160, 160)" d="M 144 216 L 144 252" stroke-width="1" stroke-dasharray="2.8125 3.375 5.625 3.375 5.625 3.375 5.625 3.375 2.8125 0"></path><path fill="none" stroke="rgb(160, 160, 160)" d="M 180 216 L 180 252" stroke-width="1" stroke-dasharray="2.8125 3.375 5.625 3.375 5.625 3.375 5.625 3.375 2.8125 0"></path><path fill="none" stroke="rgb(160, 160, 160)" d="M 216 216 L 216 252" stroke-width="1" stroke-dasharray="2.8125 3.375 5.625 3.375 5.625 3.375 5.625 3.375 2.8125 0"></path><path fill="none" stroke="rgb(160, 160, 160)" d="M 0 252 L 36 252" stroke-width="1" stroke-dasharray="2.8125 3.375 5.625 3.375 5.625 3.375 5.625 3.375 2.8125 0"></path><path fill="none" stroke="rgb(160, 160, 160)" d="M 36 252 L 72 252" stroke-width="1" stroke-dasharray="2.8125 3.375 5.625 3.375 5.625 3.375 5.625 3.375 2.8125 0"></path><path fill="none" stroke="rgb(160, 160, 160)" d="M 72 252 L 108 252" stroke-width="1" stroke-dasharray="2.8125 3.375 5.625 3.375 5.625 3.375 5.625 3.375 2.8125 0"></path><path fill="none" stroke="rgb(160, 160, 160)" d="M 108 252 L 144 252" stroke-width="1" stroke-dasharray="2.8125 3.375 5.625 3.375 5.625 3.375 5.625 3.375 2.8125 0"></path><path fill="none" stroke="rgb(160, 160, 160)" d="M 144 252 L 180 252" stroke-width="1" stroke-dasharray="2.8125 3.375 5.625 3.375 5.625 3.375 5.625 3.375 2.8125 0"></path><path fill="none" stroke="rgb(160, 160, 160)" d="M 180 252 L 216 252" stroke-width="1" stroke-dasharray="2.8125 3.375 5.625 3.375 5.625 3.375 5.625 3.375 2.8125 0"></path><path fill="none" stroke="rgb(160, 160, 160)" d="M 216 252 L 252 252" stroke-width="1" stroke-dasharray="2.8125 3.375 5.625 3.375 5.625 3.375 5.625 3.375 2.8125 0"></path><path fill="none" stroke="rgb(160, 160, 160)" d="M 36 252 L 36 288" stroke-width="1" stroke-dasharray="2.8125 3.375 5.625 3.375 5.625 3.375 5.625 3.375 2.8125 0"></path><path fill="none" stroke="rgb(160, 160, 160)" d="M 72 252 L 72 288" stroke-width="1" stroke-dasharray="2.8125 3.375 5.625 3.375 5.625 3.375 5.625 3.375 2.8125 0"></path><path fill="none" stroke="rgb(160, 160, 160)" d="M 108 252 L 108 288" stroke-width="1" stroke-dasharray="2.8125 3.375 5.625 3.375 5.625 3.375 5.625 3.375 2.8125 0"></path><path fill="none" stroke="rgb(160, 160, 160)" d="M 144 252 L 144 288" stroke-width="1" stroke-dasharray="2.8125 3.375 5.625 3.375 5.625 3.375 5.625 3.375 2.8125 0"></path><path fill="none" stroke="rgb(160, 160, 160)" d="M 180 252 L 180 288" stroke-width="1" stroke-dasharray="2.8125 3.375 5.625 3.375 5.625 3.375 5.625 3.375 2.8125 0"></path><path fill="none" stroke="rgb(160, 160, 160)" d="M 216 252 L 216 288" stroke-width="1" stroke-dasharray="2.8125 3.375 5.625 3.375 5.625 3.375 5.625 3.375 2.8125 0"></path><path fill="none" stroke="rgb(160, 160, 160)" d="M 0 288 L 36 288" stroke-width="1" stroke-dasharray="2.8125 3.375 5.625 3.375 5.625 3.375 5.625 3.375 2.8125 0"></path><path fill="none" stroke="rgb(160, 160, 160)" d="M 36 288 L 72 288" stroke-width="1" stroke-dasharray="2.8125 3.375 5.625 3.375 5.625 3.375 5.625 3.375 2.8125 0"></path><path fill="none" stroke="rgb(160, 160, 160)" d="M 72 288 L 108 288" stroke-width="1" stroke-dasharray="2.8125 3.375 5.625 3.375 5.625 3.375 5.625 3.375 2.8125 0"></path><path fill="none" stroke="rgb(160, 160, 160)" d="M 108 288 L 144 288" stroke-width="1" stroke-dasharray="2.8125 3.375 5.625 3.375 5.625 3.375 5.625 3.375 2.8125 0"></path><path fill="none" stroke="rgb(160, 160, 160)" d="M 144 288 L 180 288" stroke-width="1" stroke-dasharray="2.8125 3.375 5.625 3.375 5.625 3.375 5.625 3.375 2.8125 0"></path><path fill="none" stroke="rgb(160, 160, 160)" d="M 180 288 L 216 288" stroke-width="1" stroke-dasharray="2.8125 3.375 5.625 3.375 5.625 3.375 5.625 3.375 2.8125 0"></path><path fill="none" stroke="rgb(160, 160, 160)" d="M 216 288 L 252 288" stroke-width="1" stroke-dasharray="2.8125 3.375 5.625 3.375 5.625 3.375 5.625 3.375 2.8125 0"></path><path fill="none" stroke="rgb(160, 160, 160)" d="M 36 288 L 36 324" stroke-width="1" stroke-dasharray="2.8125 3.375 5.625 3.375 5.625 3.375 5.625 3.375 2.8125 0"></path><path fill="none" stroke="rgb(160, 160, 160)" d="M 72 288 L 72 324" stroke-width="1" stroke-dasharray="2.8125 3.375 5.625 3.375 5.625 3.375 5.625 3.375 2.8125 0"></path><path fill="none" stroke="rgb(160, 160, 160)" d="M 108 288 L 108 324" stroke-width="1" stroke-dasharray="2.8125 3.375 5.625 3.375 5.625 3.375 5.625 3.375 2.8125 0"></path><path fill="none" stroke="rgb(160, 160, 160)" d="M 144 288 L 144 324" stroke-width="1" stroke-dasharray="2.8125 3.375 5.625 3.375 5.625 3.375 5.625 3.375 2.8125 0"></path><path fill="none" stroke="rgb(160, 160, 160)" d="M 180 288 L 180 324" stroke-width="1" stroke-dasharray="2.8125 3.375 5.625 3.375 5.625 3.375 5.625 3.375 2.8125 0"></path><path fill="none" stroke="rgb(160, 160, 160)" d="M 216 288 L 216 324" stroke-width="1" stroke-dasharray="2.8125 3.375 5.625 3.375 5.625 3.375 5.625 3.375 2.8125 0"></path></g><g shape-rendering="crispEdges"><path fill="rgb(0, 160, 0)" stroke="none" d="M 106 -2 L 110 -2 110 38 106 38 z"></path><path fill="rgb(0, 160, 0)" stroke="none" d="M 142 -2 L 146 -2 146 38 142 38 z"></path><path fill="rgb(0, 160, 0)" stroke="none" d="M 106 34 L 110 34 110 74 106 74 z"></path><path fill="rgb(0, 160, 0)" stroke="none" d="M 142 34 L 146 34 146 74 142 74 z"></path><path fill="rgb(0, 160, 0)" stroke="none" d="M -2 70 L 38 70 38 74 -2 74 z"></path><path fill="rgb(0, 160, 0)" stroke="none" d="M 34 70 L 74 70 74 74 34 74 z"></path><path fill="rgb(0, 160, 0)" stroke="none" d="M 70 70 L 110 70 110 74 70 74 z"></path><path fill="rgb(0, 160, 0)" stroke="none" d="M 142 70 L 182 70 182 74 142 74 z"></path><path fill="rgb(0, 160, 0)" stroke="none" d="M 178 70 L 218 70 218 74 178 74 z"></path><path fill="rgb(0, 160, 0)" stroke="none" d="M 214 70 L 254 70 254 74 214 74 z"></path><path fill="rgb(0, 160, 0)" stroke="none" d="M 106 70 L 110 70 110 110 106 110 z"></path><path fill="rgb(0, 160, 0)" stroke="none" d="M 142 70 L 146 70 146 110 142 110 z"></path><path fill="rgb(0, 160, 0)" stroke="none" d="M 178 70 L 182 70 182 110 178 110 z"></path><path fill="rgb(0, 160, 0)" stroke="none" d="M -2 106 L 38 106 38 110 -2 110 z"></path><path fill="rgb(0, 160, 0)" stroke="none" d="M 34 106 L 74 106 74 110 34 110 z"></path><path fill="rgb(0, 160, 0)" stroke="none" d="M 70 106 L 110 106 110 110 70 110 z"></path><path fill="rgb(0, 160, 0)" stroke="none" d="M 106 106 L 146 106 146 110 106 110 z"></path><path fill="rgb(0, 160, 0)" stroke="none" d="M 34 106 L 38 106 38 146 34 146 z"></path><path fill="rgb(0, 160, 0)" stroke="none" d="M 142 106 L 146 106 146 146 142 146 z"></path><path fill="rgb(0, 160, 0)" stroke="none" d="M 178 106 L 182 106 182 146 178 146 z"></path><path fill="rgb(0, 160, 0)" stroke="none" d="M 34 142 L 38 142 38 182 34 182 z"></path><path fill="rgb(0, 160, 0)" stroke="none" d="M 142 142 L 146 142 146 182 142 182 z"></path><path fill="rgb(0, 160, 0)" stroke="none" d="M 178 142 L 182 142 182 182 178 182 z"></path><path fill="rgb(0, 160, 0)" stroke="none" d="M 34 178 L 74 178 74 182 34 182 z"></path><path fill="rgb(0, 160, 0)" stroke="none" d="M 70 178 L 110 178 110 182 70 182 z"></path><path fill="rgb(0, 160, 0)" stroke="none" d="M 106 178 L 146 178 146 182 106 182 z"></path><path fill="rgb(0, 160, 0)" stroke="none" d="M 142 178 L 182 178 182 182 142 182 z"></path><path fill="rgb(0, 160, 0)" stroke="none" d="M 178 178 L 218 178 218 182 178 182 z"></path><path fill="rgb(0, 160, 0)" stroke="none" d="M 214 178 L 254 178 254 182 214 182 z"></path><path fill="rgb(0, 160, 0)" stroke="none" d="M 34 178 L 38 178 38 218 34 218 z"></path><path fill="rgb(0, 160, 0)" stroke="none" d="M 70 178 L 74 178 74 218 70 218 z"></path><path fill="rgb(0, 160, 0)" stroke="none" d="M 178 178 L 182 178 182 218 178 218 z"></path><path fill="rgb(0, 160, 0)" stroke="none" d="M -2 214 L 38 214 38 218 -2 218 z"></path><path fill="rgb(0, 160, 0)" stroke="none" d="M 70 214 L 110 214 110 218 70 218 z"></path><path fill="rgb(0, 160, 0)" stroke="none" d="M 106 214 L 146 214 146 218 106 218 z"></path><path fill="rgb(0, 160, 0)" stroke="none" d="M 142 214 L 182 214 182 218 142 218 z"></path><path fill="rgb(0, 160, 0)" stroke="none" d="M 34 214 L 38 214 38 254 34 254 z"></path><path fill="rgb(0, 160, 0)" stroke="none" d="M 70 214 L 74 214 74 254 70 254 z"></path><path fill="rgb(0, 160, 0)" stroke="none" d="M 178 214 L 182 214 182 254 178 254 z"></path><path fill="rgb(0, 160, 0)" stroke="none" d="M 34 250 L 38 250 38 290 34 290 z"></path><path fill="rgb(0, 160, 0)" stroke="none" d="M 70 250 L 74 250 74 290 70 290 z"></path><path fill="rgb(0, 160, 0)" stroke="none" d="M 178 250 L 182 250 182 290 178 290 z"></path><path fill="rgb(0, 160, 0)" stroke="none" d="M 34 286 L 74 286 74 290 34 290 z"></path><path fill="rgb(0, 160, 0)" stroke="none" d="M 70 286 L 110 286 110 290 70 290 z"></path><path fill="rgb(0, 160, 0)" stroke="none" d="M 106 286 L 146 286 146 290 106 290 z"></path><path fill="rgb(0, 160, 0)" stroke="none" d="M 142 286 L 182 286 182 290 142 290 z"></path><path fill="rgb(0, 160, 0)" stroke="none" d="M 178 286 L 218 286 218 290 178 290 z"></path><path fill="rgb(0, 160, 0)" stroke="none" d="M 214 286 L 254 286 254 290 214 290 z"></path><path fill="rgb(0, 160, 0)" stroke="none" d="M 34 286 L 38 286 38 326 34 326 z"></path><path fill="rgb(0, 160, 0)" stroke="none" d="M 142 286 L 146 286 146 326 142 326 z"></path></g><g shape-rendering="crispEdges"><path fill="black" stroke="none" d="M -2 -2 L 38 -2 38 2 -2 2 z"></path><path fill="black" stroke="none" d="M 34 -2 L 74 -2 74 2 34 2 z"></path><path fill="black" stroke="none" d="M 70 -2 L 110 -2 110 2 70 2 z"></path><path fill="black" stroke="none" d="M 106 -2 L 146 -2 146 2 106 2 z"></path><path fill="black" stroke="none" d="M 142 -2 L 182 -2 182 2 142 2 z"></path><path fill="black" stroke="none" d="M 178 -2 L 218 -2 218 2 178 2 z"></path><path fill="black" stroke="none" d="M 214 -2 L 254 -2 254 2 214 2 z"></path><path fill="black" stroke="none" d="M -2 -2 L 2 -2 2 38 -2 38 z"></path><path fill="black" stroke="none" d="M 250 -2 L 254 -2 254 38 250 38 z"></path><path fill="black" stroke="none" d="M -2 34 L 2 34 2 74 -2 74 z"></path><path fill="black" stroke="none" d="M 250 34 L 254 34 254 74 250 74 z"></path><path fill="black" stroke="none" d="M -2 70 L 2 70 2 110 -2 110 z"></path><path fill="black" stroke="none" d="M 250 70 L 254 70 254 110 250 110 z"></path><path fill="black" stroke="none" d="M -2 106 L 2 106 2 146 -2 146 z"></path><path fill="black" stroke="none" d="M 250 106 L 254 106 254 146 250 146 z"></path><path fill="black" stroke="none" d="M -2 142 L 2 142 2 182 -2 182 z"></path><path fill="black" stroke="none" d="M 250 142 L 254 142 254 182 250 182 z"></path><path fill="black" stroke="none" d="M -2 178 L 2 178 2 218 -2 218 z"></path><path fill="black" stroke="none" d="M 250 178 L 254 178 254 218 250 218 z"></path><path fill="black" stroke="none" d="M -2 214 L 2 214 2 254 -2 254 z"></path><path fill="black" stroke="none" d="M 250 214 L 254 214 254 254 250 254 z"></path><path fill="black" stroke="none" d="M -2 250 L 2 250 2 290 -2 290 z"></path><path fill="black" stroke="none" d="M 250 250 L 254 250 254 290 250 290 z"></path><path fill="black" stroke="none" d="M -2 286 L 2 286 2 326 -2 326 z"></path><path fill="black" stroke="none" d="M 250 286 L 254 286 254 326 250 326 z"></path><path fill="black" stroke="none" d="M -2 322 L 38 322 38 326 -2 326 z"></path><path fill="black" stroke="none" d="M 34 322 L 74 322 74 326 34 326 z"></path><path fill="black" stroke="none" d="M 70 322 L 110 322 110 326 70 326 z"></path><path fill="black" stroke="none" d="M 106 322 L 146 322 146 326 106 326 z"></path><path fill="black" stroke="none" d="M 142 322 L 182 322 182 326 142 326 z"></path><path fill="black" stroke="none" d="M 178 322 L 218 322 218 326 178 326 z"></path><path fill="black" stroke="none" d="M 214 322 L 254 322 254 326 214 326 z"></path></g><g shape-rendering="auto"></g><g shape-rendering="crispEdges"><path fill="rgb(0, 127, 0)" stroke="none" d="M 125.5 23.4 L 126.5 23.4 126.5 48.6 125.5 48.6 z"></path><path fill="rgb(0, 127, 0)" stroke="none" d="M 125.5 59.4 L 126.5 59.4 126.5 84.6 125.5 84.6 z"></path><path fill="rgb(0, 127, 0)" stroke="none" d="M 23.4 89.5 L 48.6 89.5 48.6 90.5 23.4 90.5 z"></path><path fill="rgb(0, 127, 0)" stroke="none" d="M 59.4 89.5 L 84.6 89.5 84.6 90.5 59.4 90.5 z"></path><path fill="rgb(0, 127, 0)" stroke="none" d="M 161.5 95.4 L 162.5 95.4 162.5 120.60000000000001 161.5 120.60000000000001 z"></path><path fill="rgb(0, 127, 0)" stroke="none" d="M 17.5 131.4 L 18.5 131.4 18.5 156.60000000000002 17.5 156.60000000000002 z"></path><path fill="rgb(0, 127, 0)" stroke="none" d="M 161.5 131.4 L 162.5 131.4 162.5 156.60000000000002 161.5 156.60000000000002 z"></path><path fill="rgb(0, 127, 0)" stroke="none" d="M 17.5 167.4 L 18.5 167.4 18.5 192.60000000000002 17.5 192.60000000000002 z"></path><path fill="rgb(0, 127, 0)" stroke="none" d="M 95.4 197.5 L 120.60000000000001 197.5 120.60000000000001 198.5 95.4 198.5 z"></path><path fill="rgb(0, 127, 0)" stroke="none" d="M 131.4 197.5 L 156.60000000000002 197.5 156.60000000000002 198.5 131.4 198.5 z"></path><path fill="rgb(0, 127, 0)" stroke="none" d="M 53.5 203.4 L 54.5 203.4 54.5 228.60000000000002 53.5 228.60000000000002 z"></path><path fill="rgb(0, 127, 0)" stroke="none" d="M 17.5 239.4 L 18.5 239.4 18.5 264.6 17.5 264.6 z"></path><path fill="rgb(0, 127, 0)" stroke="none" d="M 53.5 239.4 L 54.5 239.4 54.5 264.6 53.5 264.6 z"></path><path fill="rgb(0, 127, 0)" stroke="none" d="M 17.5 275.4 L 18.5 275.4 18.5 300.59999999999997 17.5 300.59999999999997 z"></path><path fill="rgb(0, 127, 0)" stroke="none" d="M 59.4 305.5 L 84.6 305.5 84.6 306.5 59.4 306.5 z"></path><path fill="rgb(0, 127, 0)" stroke="none" d="M 95.4 305.5 L 120.60000000000001 305.5 120.60000000000001 306.5 95.4 306.5 z"></path><path fill="rgb(0, 127, 0)" stroke="none" d="M 167.4 305.5 L 192.60000000000002 305.5 192.60000000000002 306.5 167.4 306.5 z"></path><path fill="rgb(0, 127, 0)" stroke="none" d="M 203.4 305.5 L 228.60000000000002 305.5 228.60000000000002 306.5 203.4 306.5 z"></path></g><g shape-rendering="crispEdges"></g></svg>