<?xml version="1.0" encoding="UTF-8"?>
<svg xmlns="http://www.w3.org/2000/svg" xmlns:xlink="http://www.w3.org/1999/xlink" font-size="10px" font-family="sans-serif" width="262" height="334" viewBox="-5.5 -5.5 262 334"><g shape-rendering="crispEdges"><path fill="white" stroke="none" d="M -0.5 -0.5 L 252.5 -0.5 252.5 324.5 -0.5 324.5 z"></path></g><g shape-rendering="crispEdges"><path fill="rgb(204,204,204)" stroke="none" d="M 107.5 71.5 L 144.5 71.5 144.5 108.5 107.5 108.5 z"></path><path fill="rgb(204,204,204)" stroke="none" d="M 143.5 71.5 L 180.5 71.5 180.5 108.5 143.5 108.5 z"></path><path fill="rgb(204,204,204)" stroke="none" d="M 179.5 71.5 L 216.5 71.5 216.5 108.5 179.5 108.5 z"></path><path fill="rgb(204,204,204)" stroke="none" d="M 215.5 71.5 L 252.5 71.5 252.5 108.5 215.5 108.5 z"></path><path fill="rgb(204,204,204)" stroke="none" d="M -0.5 107.5 L 36.5 107.5 36.5 144.5 -0.5 144.5 z"></path><path fill="rgb(204,204,204)" stroke="none" d="M 35.5 179.5 L 72.5 179.5 72.5 216.5 35.5 216.5 z"></path></g><g shape-rendering="crispEdges"><path fill="none" stroke="rgb(127, 127, 127)" d="M 36 0 L 36 324" stroke-width="1" stroke-dasharray="2.8125 3.375 5.625 3.375 5.625 3.375 5.625 3.375 2.8125 0"></path><path fill="none" stroke="rgb(127, 127, 127)" d="M 72 0 L 72 324" stroke-width="1" stroke-dasharray="2.8125 3.375 5.625 3.375 5.625 3.375 5.625 3.375 2.8125 0"></path><path fill="none" stroke="rgb(127, 127, 127)" d="M 108 0 L 108 324" stroke-width="1" stroke-dasharray="2.8125 3.375 5.625 3.375 5.625 3.375 5.625 3.375 2.8125 0"></path><path fill="none" stroke="rgb(127, 127, 127)" d="M 144 0 L 144 324" stroke-width="1" stroke-dasharray="2.8125 3.375 5.625 3.375 5.625 3.375 5.625 3.375 2.8125 0"></path><path fill="none" stroke="rgb(127, 127, 127)" d="M 180 0 L 180 324" stroke-width="1" stroke-dasharray="2.8125 3.375 5.625 3.375 5.625 3.375 5.625 3.375 2.8125 0"></path><path fill="none" stroke="rgb(127, 127, 127)" d="M 216 0 L 216 324" stroke-width="1" stroke-dasharray="2.8125 3.375 5.625 3.375 5.625 3.375 5.625 3.375 2.8125 0"></path><path fill="none" stroke="rgb(127, 127, 127)" d="M 0 36 L 252 36" stroke-width="1" stroke-dasharray="2.8125 3.375 5.625 3.375 5.625 3.375 5.625 3.375 2.8125 0"></path><path fill="none" stroke="rgb(127, 127, 127)" d="M 0 72 L 252 72" stroke-width="1" stroke-dasharray="2.8125 3.375 5.625 3.375 5.625 3.375 5.625 3.375 2.8125 0"></path><path fill="none" stroke="rgb(127, 127, 127)" d="M 0 108 L 252 108" stroke-width="1" stroke-dasharray="2.8125 3.375 5.625 3.375 5.625 3.375 5.625 3.375 2.8125 0"></path><path fill="none" stroke="rgb(127, 127, 127)" d="M 0 144 L 252 144" stroke-width="1" stroke-dasharray="2.8125 3.375 5.625 3.375 5.625 3.375 5.625 3.375 2.8125 0"></path><path fill="none" stroke="rgb(127, 127, 127)" d="M 0 180 L 252 180" stroke-width="1" stroke-dasharray="2.8125 3.375 5.625 3.375 5.625 3.375 5.625 3.375 2.8125 0"></path><path fill="none" stroke="rgb(127, 127, 127)" d="M 0 216 L 252 216" stroke-width="1" stroke-dasharray="2.8125 3.375 5.625 3.375 5.625 3.375 5.625 3.375 2.8125 0"></path><path fill="none" stroke="rgb(127, 127, 127)" d="M 0 252 L 252 252" stroke-width="1" stroke-dasharray="2.8125 3.375 5.625 3.375 5.625 3.375 5.625 3.375 2.8125 0"></path><path fill="none" stroke="rgb(127, 127, 127)" d="M 0 288 L 252 288" stroke-width="1" stroke-dasharray="2.8125 3.375 5.625 3.375 5.625 3.375 5.625 3.375 2.8125 0"></path></g><g shape-rendering="crispEdges"><path fill="rgb(0, 160, 0)" stroke="none" d="M 106 -2 L 110 -2 110 38 106 38 z"></path><path fill="rgb(0, 160, 0)" stroke="none" d="M 142 -2 L 146 -2 146 38 142 38 z"></path><path fill="rgb(0, 160, 0)" stroke="none" d="M 106 34 L 110 34 110 74 106 74 z"></path><path fill="rgb(0, 160, 0)" stroke="none" d="M 142 34 L 146 34 146 74 142 74 z"></path><path fill="rgb(0, 160, 0)" stroke="none" d="M -2 70 L 38 70 38 74 -2 74 z"></path><path fill="rgb(0, 160, 0)" stroke="none" d="M 34 70 L 74 70 74 74 34 74 z"></path><path fill="rgb(0, 160, 0)" stroke="none" d="M 70 70 L 110 70 110 74 70 74 z"></path><path fill="rgb(0, 160, 0)" stroke="none" d="M 142 70 L 182 70 182 74 142 74 z"></path><path fill="rgb(0, 160, 0)" stroke="none" d="M 178 70 L 218 70 218 74 178 74 z"></path><path fill="rgb(0, 160, 0)" stroke="none" d="M 214 70 L 254 70 254 74 214 74 z"></path><path fill="rgb(0, 160, 0)" stroke="none" d="M 106 70 L 110 70 110 110 106 110 z"></path><path fill="rgb(0, 160, 0)" stroke="none" d="M 142 70 L 146 70 146 110 142 110 z"></path><path fill="rgb(0, 160, 0)" stroke="none" d="M 178 70 L 182 70 182 110 178 110 z"></path><path fill="rgb(0, 160, 0)" stroke="none" d="M -2 106 L 38 106 38 110 -2 110 z"></path><path fill="rgb(0, 160, 0)" stroke="none" d="M 34 106 L 74 106 74 110 34 110 z"></path><path fill="rgb(0, 160, 0)" stroke="none" d="M 70 106 L 110 106 110 110 70 110 z"></path><path fill="rgb(0, 160, 0)" stroke="none" d="M 106 106 L 146 106 146 110 106 110 z"></path><path fill="rgb(0, 160, 0)" stroke="none" d="M 34 106 L 38 106 38 146 34 146 z"></path><path fill="rgb(0, 160, 0)" stroke="none" d="M 142 106 L 146 106 146 146 142 146 z"></path><path fill="rgb(0, 160, 0)" stroke="none" d="M 178 106 L 182 106 182 146 178 146 z"></path><path fill="rgb(0, 160, 0)" stroke="none" d="M 34 142 L 38 142 38 182 34 182 z"></path><path fill="rgb(0, 160, 0)" stroke="none" d="M 142 142 L 146 142 146 182 142 182 z"></path><path fill="rgb(0, 160, 0)" stroke="none" d="M 178 142 L 182 142 182 182 178 182 z"></path><path fill="rgb(0, 160, 0)" stroke="none" d="M 34 178 L 74 178 74 182 34 182 z"></path><path fill="rgb(0, 160, 0)" stroke="none" d="M 70 178 L 110 178 110 182 70 182 z"></path><path fill="rgb(0, 160, 0)" stroke="none" d="M 106 178 L 146 178 146 182 106 182 z"></path><path fill="rgb(0, 160, 0)" stroke="none" d="M 142 178 L 182 178 182 182 142 182 z"></path><path fill="rgb(0, 160, 0)" stroke="none" d="M 178 178 L 218 178 218 182 178 182 z"></path><path fill="rgb(0, 160, 0)" stroke="none" d="M 214 178 L 254 178 254 182 214 182 z"></path><path fill="rgb(0, 160, 0)" stroke="none" d="M 34 178 L 38 178 38 218 34 218 z"></path><path fill="rgb(0, 160, 0)" stroke="none" d="M 70 178 L 74 178 74 218 70 218 z"></path><path fill="rgb(0, 160, 0)" stroke="none" d="M 178 178 L 182 178 182 218 178 218 z"></path><path fill="rgb(0, 160, 0)" stroke="none" d="M -2 214 L 38 214 38 218 -2 218 z"></path><path fill="rgb(0, 160, 0)" stroke="none" d="M 70 214 L 110 214 110 218 70 218 z"></path><path fill="rgb(0, 160, 0)" stroke="none" d="M 106 214 L 146 214 146 218 106 218 z"></path><path fill="rgb(0, 160, 0)" stroke="none" d="M 142 214 L 182 214 182 218 142 218 z"></path><path fill="rgb(0, 160, 0)" stroke="none" d="M 34 214 L 38 214 38 254 34 254 z"></path><path fill="rgb(0, 160, 0)" stroke="none" d="M 70 214 L 74 214 74 254 70 254 z"></path><path fill="rgb(0, 160, 0)" stroke="none" d="M 178 214 L 182 214 182 254 178 254 z"></path><path fill="rgb(0, 160, 0)" stroke="none" d="M 34 250 L 38 250 38 290 34 290 z"></path><path fill="rgb(0, 160, 0)" stroke="none" d="M 70 250 L 74 250 74 290 70 290 z"></path><path fill="rgb(0, 160, 0)" stroke="none" d="M 178 250 L 182 250 182 290 178 290 z"></path><path fill="rgb(0, 160, 0)" stroke="none" d="M 34 286 L 74 286 74 290 34 290 z"></path><path fill="rgb(0, 160, 0)" stroke="none" d="M 70 286 L 110 286 110 290 70 290 z"></path><path fill="rgb(0, 160, 0)" stroke="none" d="M 106 286 L 146 286 146 290 106 290 z"></path><path fill="rgb(0, 160, 0)" stroke="none" d="M 142 286 L 182 286 182 290 142 290 z"></path><path fill="rgb(0, 160, 0)" stroke="none" d="M 178 286 L 218 286 218 290 178 290 z"></path><path fill="rgb(0, 160, 0)" stroke="none" d="M 214 286 L 254 286 254 290 214 290 z"></path><path fill="rgb(0, 160, 0)" stroke="none" d="M 34 286 L 38 286 38 326 34 326 z"></path><path fill="rgb(0, 160, 0)" stroke="none" d="M 142 286 L 146 286 146 326 142 326 z"></path></g><g shape-rendering="crispEdges"></g><g shape-rendering="auto"><path fill="black" stroke="none" d="M 1.8 0.125 A 1.8 1.8 0 1 1 1.8 0 z"></path><path fill="black" stroke="none" d="M 37.8 0.125 A 1.8 1.8 0 1 1 37.8 0 z"></path><path fill="black" stroke="none" d="M 73.8 0.125 A 1.8 1.8 0 1 1 73.8 0 z"></path><path fill="black" stroke="none" d="M 109.8 0.125 A 1.8 1.8 0 1 1 109.8 0 z"></path><path fill="black" stroke="none" d="M 145.8 0.125 A 1.8 1.8 0 1 1 145.8 0 z"></path><path fill="black" stroke="none" d="M 181.8 0.125 A 1.8 1.8 0 1 1 181.8 0 z"></path><path fill="black" stroke="none" d="M 217.8 0.125 A 1.8 1.8 0 1 1 217.8 0 z"></path><path fill="black" stroke="none" d="M 253.8 0.125 A 1.8 1.8 0 1 1 253.8 0 z"></path><path fill="black" stroke="none" d="M 1.8 36.125 A 1.8 1.8 0 1 1 1.8 36 z"></path><path fill="black" stroke="none" d="M 37.8 36.125 A 1.8 1.8 0 1 1 37.8 36 z"></path><path fill="black" stroke="none" d="M 73.8 36.125 A 1.8 1.8 0 1 1 73.8 36 z"></path><path fill="black" stroke="none" d="M 109.8 36.125 A 1.8 1.8 0 1 1 109.8 36 z"></path><path fill="black" stroke="none" d="M 145.8 36.125 A 1.8 1.8 0 1 1 145.8 36 z"></path><path fill="black" stroke="none" d="M 181.8 36.125 A 1.8 1.8 0 1 1 181.8 36 z"></path><path fill="black" stroke="none" d="M 217.8 36.125 A 1.8 1.8 0 1 1 217.8 36 z"></path><path fill="black" stroke="none" d="M 253.8 36.125 A 1.8 1.8 0 1 1 253.8 36 z"></path><path fill="black" stroke="none" d="M 1.8 72.125 A 1.8 1.8 0 1 1 1.8 72 z"></path><path fill="black" stroke="none" d="M 37.8 72.125 A 1.8 1.8 0 1 1 37.8 72 z"></path><path fill="black" stroke="none" d="M 73.8 72.125 A 1.8 1.8 0 1 1 73.8 72 z"></path><path fill="black" stroke="none" d="M 109.8 72.125 A 1.8 1.8 0 1 1 109.8 72 z"></path><path fill="black" stroke="none" d="M 145.8 72.125 A 1.8 1.8 0 1 1 145.8 72 z"></path><path fill="black" stroke="none" d="M 181.8 72.125 A 1.8 1.8 0 1 1 181.8 72 z"></path><path fill="black" stroke="none" d="M 217.8 72.125 A 1.8 1.8 0 1 1 217.8 72 z"></path><path fill="black" stroke="none" d="M 253.8 72.125 A 1.8 1.8 0 1 1 253.8 72 z"></path><path fill="black" stroke="none" d="M 1.8 108.125 A 1.8 1.8 0 1 1 1.8 108 z"></path><path fill="black" stroke="none" d="M 37.8 108.125 A 1.8 1.8 0 1 1 37.8 108 z"></path><path fill="black" stroke="none" d="M 73.8 108.125 A 1.8 1.8 0 1 1 73.8 108 z"></path><path fill="black" stroke="none" d="M 109.8 108.125 A 1.8 1.8 0 1 1 109.8 108 z"></path><path fill="black" stroke="none" d="M 145.8 108.125 A 1.8 1.8 0 1 1 145.8 108 z"></path><path fill="black" stroke="none" d="M 181.8 108.125 A 1.8 1.8 0 1 1 181.8 108 z"></path><path fill="black" stroke="none" d="M 217.8 108.125 A 1.8 1.8 0 1 1 217.8 108 z"></path><path fill="black" stroke="none" d="M 253.8 108.125 A 1.8 1.8 0 1 1 253.8 108 z"></path><path fill="black" stroke="none" d="M 1.8 144.125 A 1.8 1.8 0 1 1 1.8 144 z"></path><path fill="black" stroke="none" d="M 37.8 144.125 A 1.8 1.8 0 1 1 37.8 144 z"></path><path fill="black" stroke="none" d="M 73.8 144.125 A 1.8 1.8 0 1 1 73.8 144 z"></path><path fill="black" stroke="none" d="M 109.8 144.125 A 1.8 1.8 0 1 1 109.8 144 z"></path><path fill="black" stroke="none" d="M 145.8 144.125 A 1.8 1.8 0 1 1 145.8 144 z"></path><path fill="black" stroke="none" d="M 181.8 144.125 A 1.8 1.8 0 1 1 181.8 144 z"></path><path fill="black" stroke="none" d="M 217.8 144.125 A 1.8 1.8 0 1 1 217.8 144 z"></path><path fill="black" stroke="none" d="M 253.8 144.125 A 1.8 1.8 0 1 1 253.8 144 z"></path><path fill="black" stroke="none" d="M 1.8 180.125 A 1.8 1.8 0 1 1 1.8 180 z"></path><path fill="black" stroke="none" d="M 37.8 180.125 A 1.8 1.8 0 1 1 37.8 180 z"></path><path fill="black" stroke="none" d="M 73.8 180.125 A 1.8 1.8 0 1 1 73.8 180 z"></path><path fill="black" stroke="none" d="M 109.8 180.125 A 1.8 1.8 0 1 1 109.8 180 z"></path><path fill="black" stroke="none" d="M 145.8 180.125 A 1.8 1.8 0 1 1 145.8 180 z"></path><path fill="black" stroke="none" d="M 181.8 180.125 A 1.8 1.8 0 1 1 181.8 180 z"></path><path fill="black" stroke="none" d="M 217.8 180.125 A 1.8 1.8 0 1 1 217.8 180 z"></path><path fill="black" stroke="none" d="M 253.8 180.125 A 1.8 1.8 0 1 1 253.8 180 z"></path><path fill="black" stroke="none" d="M 1.8 216.125 A 1.8 1.8 0 1 1 1.8 216 z"></path><path fill="black" stroke="none" d="M 37.8 216.125 A 1.8 1.8 0 1 1 37.8 216 z"></path><path fill="black" stroke="none" d="M 73.8 216.125 A 1.8 1.8 0 1 1 73.8 216 z"></path><path fill="black" stroke="none" d="M 109.8 216.125 A 1.8 1.8 0 1 1 109.8 216 z"></path><path fill="black" stroke="none" d="M 145.8 216.125 A 1.8 1.8 0 1 1 145.8 216 z"></path><path fill="black" stroke="none" d="M 181.8 216.125 A 1.8 1.8 0 1 1 181.8 216 z"></path><path fill="black" stroke="none" d="M 217.8 216.125 A 1.8 1.8 0 1 1 217.8 216 z"></path><path fill="black" stroke="none" d="M 253.8 216.125 A 1.8 1.8 0 1 1 253.8 216 z"></path><path fill="black" stroke="none" d="M 1.8 252.125 A 1.8 1.8 0 1 1 1.8 252 z"></path><path fill="black" stroke="none" d="M 37.8 252.125 A 1.8 1.8 0 1 1 37.8 252 z"></path><path fill="black" stroke="none" d="M 73.8 252.125 A 1.8 1.8 0 1 1 73.8 252 z"></path><path fill="black" stroke="none" d="M 109.8 252.125 A 1.8 1.8 0 1 1 109.8 252 z"></path><path fill="black" stroke="none" d="M 145.8 252.125 A 1.8 1.8 0 1 1 145.8 252 z"></path><path fill="black" stroke="none" d="M 181.8 252.125 A 1.8 1.8 0 1 1 181.8 252 z"></path><path fill="black" stroke="none" d="M 217.8 252.125 A 1.8 1.8 0 1 1 217.8 252 z"></path><path fill="black" stroke="none" d="M 253.8 252.125 A 1.8 1.8 0 1 1 253.8 252 z"></path><path fill="black" stroke="none" d="M 1.8 288.125 A 1.8 1.8 0 1 1 1.8 288 z"></path><path fill="black" stroke="none" d="M 37.8 288.125 A 1.8 1.8 0 1 1 37.8 288 z"></path><path fill="black" stroke="none" d="M 73.8 288.125 A 1.8 1.8 0 1 1 73.8 288 z"></path><path fill="black" stroke="none" d="M 109.8 288.125 A 1.8 1.8 0 1 1 109.8 288 z"></path><path fill="black" stroke="none" d="M 145.8 288.125 A 1.8 1.8 0 1 1 145.8 288 z"></path><path fill="black" stroke="none" d="M 181.8 288.125 A 1.8 1.8 0 1 1 181.8 288 z"></path><path fill="black" stroke="none" d="M 217.8 288.125 A 1.8 1.8 0 1 1 217.8 288 z"></path><path fill="black" stroke="none" d="M 253.8 288.125 A 1.8 1.8 0 1 1 253.8 288 z"></path><path fill="black" stroke="none" d="M 1.8 324.125 A 1.8 1.8 0 1 1 1.8 324 z"></path><path fill="black" stroke="none" d="M 37.8 324.125 A 1.8 1.8 0 1 1 37.8 324 z"></path><path fill="black" stroke="none" d="M 73.8 324.125 A 1.8 1.8 0 1 1 73.8 324 z"></path><path fill="black" stroke="none" d="M 109.8 324.125 A 1.8 1.8 0 1 1 109.8 324 z"></path><path fill="black" stroke="none" d="M 145.8 324.125 A 1.8 1.8 0 1 1 145.8 324 z"></path><path fill="black" stroke="none" d="M 181.8 324.125 A 1.8 1.8 0 1 1 181.8 324 z"></path><path fill="black" stroke="none" d="M 217.8 324.125 A 1.8 1.8 0 1 1 217.8 324 z"></path><path fill="black" stroke="none" d="M 253.8 324.125 A 1.8 1.8 0 1 1 253.8 324 z"></path></g><g shape-rendering="crispEdges"><path fill="black" stroke="none" d="M -2 -2 L 2 -2 2 326 -2 326 z"></path><path fill="black" stroke="none" d="M 250 -2 L 254 -2 254 326 250 326 z"></path><path fill="black" stroke="none" d="M -2 -2 L 254 -2 254 2 -2 2 z"></path><path fill="black" stroke="none" d="M -2 322 L 254 322 254 326 -2 326 z"></path></g><g shape-rendering="auto"></g><g shape-rendering="auto"></g><g shape-rendering="crispEdges"></g></svg>