<?xml version="1.0" encoding="UTF-8"?>
<svg xmlns="http://www.w3.org/2000/svg" xmlns:xlink="http://www.w3.org/1999/xlink" font-size="10px" font-family="sans-serif" width="298" height="298" viewBox="-5.5 -5.5 298 298"><g shape-rendering="crispEdges"><path fill="white" stroke="none" d="M -0.5 -0.5 L 288.5 -0.5 288.5 288.5 -0.5 288.5 z"></path></g><g shape-rendering="crispEdges"></g><g shape-rendering="crispEdges"><path fill="none" stroke="rgb(160, 160, 160)" d="M 36 0 L 36 36" stroke-width="1" stroke-dasharray="2.8125 3.375 5.625 3.375 5.625 3.375 5.625 3.375 2.8125 0"></path><path fill="none" stroke="rgb(160, 160, 160)" d="M 72 0 L 72 36" stroke-width="1" stroke-dasharray="2.8125 3.375 5.625 3.375 5.625 3.375 5.625 3.375 2.8125 0"></path><path fill="none" stroke="rgb(160, 160, 160)" d="M 108 0 L 108 36" stroke-width="1" stroke-dasharray="2.8125 3.375 5.625 3.375 5.625 3.375 5.625 3.375 2.8125 0"></path><path fill="none" stroke="rgb(160, 160, 160)" d="M 144 0 L 144 36" stroke-width="1" stroke-dasharray="2.8125 3.375 5.625 3.375 5.625 3.375 5.625 3.375 2.8125 0"></path><path fill="none" stroke="rgb(160, 160, 160)" d="M 180 0 L 180 36" stroke-width="1" stroke-dasharray="2.8125 3.375 5.625 3.375 5.625 3.375 5.625 3.375 2.8125 0"></path><path fill="none" stroke="rgb(160, 160, 160)" d="M 216 0 L 216 36" stroke-width="1" stroke-dasharray="2.8125 3.375 5.625 3.375 5.625 3.375 5.625 3.375 2.8125 0"></path><path fill="none" stroke="rgb(160, 160, 160)" d="M 252 0 L 252 36" stroke-width="1" stroke-dasharray="2.8125 3.375 5.625 3.375 5.625 3.375 5.625 3.375 2.8125 0"></path><path fill="none" stroke="rgb(160, 160, 160)" d="M 0 36 L 36 36" stroke-width="1" stroke-dasharray="2.8125 3.375 5.625 3.375 5.625 3.375 5.625 3.375 2.8125 0"></path><path fill="none" stroke="rgb(160, 160, 160)" d="M 36 36 L 72 36" stroke-width="1" stroke-dasharray="2.8125 3.375 5.625 3.375 5.625 3.375 5.625 3.375 2.8125 0"></path><path fill="none" stroke="rgb(160, 160, 160)" d="M 72 36 L 108 36" stroke-width="1" stroke-dasharray="2.8125 3.375 5.625 3.375 5.625 3.375 5.625 3.375 2.8125 0"></path><path fill="none" stroke="rgb(160, 160, 160)" d="M 108 36 L 144 36" stroke-width="1" stroke-dasharray="2.8125 3.375 5.625 3.375 5.625 3.375 5.625 3.375 2.8125 0"></path><path fill="none" stroke="rgb(160, 160, 160)" d="M 144 36 L 180 36" stroke-width="1" stroke-dasharray="2.8125 3.375 5.625 3.375 5.625 3.375 5.625 3.375 2.8125 0"></path><path fill="none" stroke="rgb(160, 160, 160)" d="M 180 36 L 216 36" stroke-width="1" stroke-dasharray="2.8125 3.375 5.625 3.375 5.625 3.375 5.625 3.375 2.8125 0"></path><path fill="none" stroke="rgb(160, 160, 160)" d="M 216 36 L 252 36" stroke-width="1" stroke-dasharray="2.8125 3.375 5.625 3.375 5.625 3.375 5.625 3.375 2.8125 0"></path><path fill="none" stroke="rgb(160, 160, 160)" d="M 252 36 L 288 36" stroke-width="1" stroke-dasharray="2.8125 3.375 5.625 3.375 5.625 3.375 5.625 3.375 2.8125 0"></path><path fill="none" stroke="rgb(160, 160, 160)" d="M 36 36 L 36 72" stroke-width="1" stroke-dasharray="2.8125 3.375 5.625 3.375 5.625 3.375 5.625 3.375 2.8125 0"></path><path fill="none" stroke="rgb(160, 160, 160)" d="M 72 36 L 72 72" stroke-width="1" stroke-dasharray="2.8125 3.375 5.625 3.375 5.625 3.375 5.625 3.375 2.8125 0"></path><path fill="none" stroke="rgb(160, 160, 160)" d="M 108 36 L 108 72" stroke-width="1" stroke-dasharray="2.8125 3.375 5.625 3.375 5.625 3.375 5.625 3.375 2.8125 0"></path><path fill="none" stroke="rgb(160, 160, 160)" d="M 144 36 L 144 72" stroke-width="1" stroke-dasharray="2.8125 3.375 5.625 3.375 5.625 3.375 5.625 3.375 2.8125 0"></path><path fill="none" stroke="rgb(160, 160, 160)" d="M 180 36 L 180 72" stroke-width="1" stroke-dasharray="2.8125 3.375 5.625 3.375 5.625 3.375 5.625 3.375 2.8125 0"></path><path fill="none" stroke="rgb(160, 160, 160)" d="M 216 36 L 216 72" stroke-width="1" stroke-dasharray="2.8125 3.375 5.625 3.375 5.625 3.375 5.625 3.375 2.8125 0"></path><path fill="none" stroke="rgb(160, 160, 160)" d="M 252 36 L 252 72" stroke-width="1" stroke-dasharray="2.8125 3.375 5.625 3.375 5.625 3.375 5.625 3.375 2.8125 0"></path><path fill="none" stroke="rgb(160, 160, 160)" d="M 0 72 L 36 72" stroke-width="1" stroke-dasharray="2.8125 3.375 5.625 3.375 5.625 3.375 5.625 3.375 2.8125 0"></path><path fill="none" stroke="rgb(160, 160, 160)" d="M 36 72 L 72 72" stroke-width="1" stroke-dasharray="2.8125 3.375 5.625 3.375 5.625 3.375 5.625 3.375 2.8125 0"></path><path fill="none" stroke="rgb(160, 160, 160)" d="M 72 72 L 108 72" stroke-width="1" stroke-dasharray="2.8125 3.375 5.625 3.375 5.625 3.375 5.625 3.375 2.8125 0"></path><path fill="none" stroke="rgb(160, 160, 160)" d="M 108 72 L 144 72" stroke-width="1" stroke-dasharray="2.8125 3.375 5.625 3.375 5.625 3.375 5.625 3.375 2.8125 0"></path><path fill="none" stroke="rgb(160, 160, 160)" d="M 144 72 L 180 72" stroke-width="1" stroke-dasharray="2.8125 3.375 5.625 3.375 5.625 3.375 5.625 3.375 2.8125 0"></path><path fill="none" stroke="rgb(160, 160, 160)" d="M 180 72 L 216 72" stroke-width="1" stroke-dasharray="2.8125 3.375 5.625 3.375 5.625 3.375 5.625 3.375 2.8125 0"></path><path fill="none" stroke="rgb(160, 160, 160)" d="M 216 72 L 252 72" stroke-width="1" stroke-dasharray="2.8125 3.375 5.625 3.375 5.625 3.375 5.625 3.375 2.8125 0"></path><path fill="none" stroke="rgb(160, 160, 160)" d="M 252 72 L 288 72" stroke-width="1" stroke-dasharray="2.8125 3.375 5.625 3.375 5.625 3.375 5.625 3.375 2.8125 0"></path><path fill="none" stroke="rgb(160, 160, 160)" d="M 36 72 L 36 108" stroke-width="1" stroke-dasharray="2.8125 3.375 5.625 3.375 5.625 3.375 5.625 3.375 2.8125 0"></path><path fill="none" stroke="rgb(160, 160, 160)" d="M 72 72 L 72 108" stroke-width="1" stroke-dasharray="2.8125 3.375 5.625 3.375 5.625 3.375 5.625 3.375 2.8125 0"></path><path fill="none" stroke="rgb(160, 160, 160)" d="M 108 72 L 108 108" stroke-width="1" stroke-dasharray="2.8125 3.375 5.625 3.375 5.625 3.375 5.625 3.375 2.8125 0"></path><path fill="none" stroke="rgb(160, 160, 160)" d="M 144 72 L 144 108" stroke-width="1" stroke-dasharray="2.8125 3.375 5.625 3.375 5.625 3.375 5.625 3.375 2.8125 0"></path><path fill="none" stroke="rgb(160, 160, 160)" d="M 180 72 L 180 108" stroke-width="1" stroke-dasharray="2.8125 3.375 5.625 3.375 5.625 3.375 5.625 3.375 2.8125 0"></path><path fill="none" stroke="rgb(160, 160, 160)" d="M 216 72 L 216 108" stroke-width="1" stroke-dasharray="2.8125 3.375 5.625 3.375 5.625 3.375 5.625 3.375 2.8125 0"></path><path fill="none" stroke="rgb(160, 160, 160)" d="M 252 72 L 252 108" stroke-width="1" stroke-dasharray="2.8125 3.375 5.625 3.375 5.625 3.375 5.625 3.375 2.8125 0"></path><path fill="none" stroke="rgb(160, 160, 160)" d="M 0 108 L 36 108" stroke-width="1" stroke-dasharray="2.8125 3.375 5.625 3.375 5.625 3.375 5.625 3.375 2.8125 0"></path><path fill="none" stroke="rgb(160, 160, 160)" d="M 36 108 L 72 108" stroke-width="1" stroke-dasharray="2.8125 3.375 5.625 3.375 5.625 3.375 5.625 3.375 2.8125 0"></path><path fill="none" stroke="rgb(160, 160, 160)" d="M 72 108 L 108 108" stroke-width="1" stroke-dasharray="2.8125 3.375 5.625 3.375 5.625 3.375 5.625 3.375 2.8125 0"></path><path fill="none" stroke="rgb(160, 160, 160)" d="M 108 108 L 144 108" stroke-width="1" stroke-dasharray="2.8125 3.375 5.625 3.375 5.625 3.375 5.625 3.375 2.8125 0"></path><path fill="none" stroke="rgb(160, 160, 160)" d="M 144 108 L 180 108" stroke-width="1" stroke-dasharray="2.8125 3.375 5.625 3.375 5.625 3.375 5.625 3.375 2.8125 0"></path><path fill="none" stroke="rgb(160, 160, 160)" d="M 180 108 L 216 108" stroke-width="1" stroke-dasharray="2.8125 3.375 5.625 3.375 5.625 3.375 5.625 3.375 2.8125 0"></path><path fill="none" stroke="rgb(160, 160, 160)" d="M 216 108 L 252 108" stroke-width="1" stroke-dasharray="2.8125 3.375 5.625 3.375 5.625 3.375 5.625 3.375 2.8125 0"></path><path fill="none" stroke="rgb(160, 160, 160)" d="M 252 108 L 288 108" stroke-width="1" stroke-dasharray="2.8125 3.375 5.625 3.375 5.625 3.375 5.625 3.375 2.8125 0"></path><path fill="none" stroke="rgb(160, 160, 160)" d="M 36 108 L 36 144" stroke-width="1" stroke-dasharray="2.8125 3.375 5.625 3.375 5.625 3.375 5.625 3.375 2.8125 0"></path><path fill="none" stroke="rgb(160, 160, 160)" d="M 72 108 L 72 144" stroke-width="1" stroke-dasharray="2.8125 3.375 5.625 3.375 5.625 3.375 5.625 3.375 2.8125 0"></path><path fill="none" stroke="rgb(160, 160, 160)" d="M 108 108 L 108 144" stroke-width="1" stroke-dasharray="2.8125 3.375 5.625 3.375 5.625 3.375 5.625 3.375 2.8125 0"></path><path fill="none" stroke="rgb(160, 160, 160)" d="M 144 108 L 144 144" stroke-width="1" stroke-dasharray="2.8125 3.375 5.625 3.375 5.625 3.375 5.625 3.375 2.8125 0"></path><path fill="none" stroke="rgb(160, 160, 160)" d="M 180 108 L 180 144" stroke-width="1" stroke-dasharray="2.8125 3.375 5.625 3.375 5.625 3.375 5.625 3.375 2.8125 0"></path><path fill="none" stroke="rgb(160, 160, 160)" d="M 216 108 L 216 144" stroke-width="1" stroke-dasharray="2.8125 3.375 5.625 3.375 5.625 3.375 5.625 3.375 2.8125 0"></path><path fill="none" stroke="rgb(160, 160, 160)" d="M 252 108 L 252 144" stroke-width="1" stroke-dasharray="2.8125 3.375 5.625 3.375 5.625 3.375 5.625 3.375 2.8125 0"></path><path fill="none" stroke="rgb(160, 160, 160)" d="M 0 144 L 36 144" stroke-width="1" stroke-dasharray="2.8125 3.375 5.625 3.375 5.625 3.375 5.625 3.375 2.8125 0"></path><path fill="none" stroke="rgb(160, 160, 160)" d="M 36 144 L 72 144" stroke-width="1" stroke-dasharray="2.8125 3.375 5.625 3.375 5.625 3.375 5.625 3.375 2.8125 0"></path><path fill="none" stroke="rgb(160, 160, 160)" d="M 72 144 L 108 144" stroke-width="1" stroke-dasharray="2.8125 3.375 5.625 3.375 5.625 3.375 5.625 3.375 2.8125 0"></path><path fill="none" stroke="rgb(160, 160, 160)" d="M 108 144 L 144 144" stroke-width="1" stroke-dasharray="2.8125 3.375 5.625 3.375 5.625 3.375 5.625 3.375 2.8125 0"></path><path fill="none" stroke="rgb(160, 160, 160)" d="M 144 144 L 180 144" stroke-width="1" stroke-dasharray="2.8125 3.375 5.625 3.375 5.625 3.375 5.625 3.375 2.8125 0"></path><path fill="none" stroke="rgb(160, 160, 160)" d="M 180 144 L 216 144" stroke-width="1" stroke-dasharray="2.8125 3.375 5.625 3.375 5.625 3.375 5.625 3.375 2.8125 0"></path><path fill="none" stroke="rgb(160, 160, 160)" d="M 216 144 L 252 144" stroke-width="1" stroke-dasharray="2.8125 3.375 5.625 3.375 5.625 3.375 5.625 3.375 2.8125 0"></path><path fill="none" stroke="rgb(160, 160, 160)" d="M 252 144 L 288 144" stroke-width="1" stroke-dasharray="2.8125 3.375 5.625 3.375 5.625 3.375 5.625 3.375 2.8125 0"></path><path fill="none" stroke="rgb(160, 160, 160)" d="M 36 144 L 36 180" stroke-width="1" stroke-dasharray="2.8125 3.375 5.625 3.375 5.625 3.375 5.625 3.375 2.8125 0"></path><path fill="none" stroke="rgb(160, 160, 160)" d="M 72 144 L 72 180" stroke-width="1" stroke-dasharray="2.8125 3.375 5.625 3.375 5.625 3.375 5.625 3.375 2.8125 0"></path><path fill="none" stroke="rgb(160, 160, 160)" d="M 108 144 L 108 180" stroke-width="1" stroke-dasharray="2.8125 3.375 5.625 3.375 5.625 3.375 5.625 3.375 2.8125 0"></path><path fill="none" stroke="rgb(160, 160, 160)" d="M 144 144 L 144 180" stroke-width="1" stroke-dasharray="2.8125 3.375 5.625 3.375 5.625 3.375 5.625 3.375 2.8125 0"></path><path fill="none" stroke="rgb(160, 160, 160)" d="M 180 144 L 180 180" stroke-width="1" stroke-dasharray="2.8125 3.375 5.625 3.375 5.625 3.375 5.625 3.375 2.8125 0"></path><path fill="none" stroke="rgb(160, 160, 160)" d="M 216 144 L 216 180" stroke-width="1" stroke-dasharray="2.8125 3.375 5.625 3.375 5.625 3.375 5.625 3.375 2.8125 0"></path><path fill="none" stroke="rgb(160, 160, 160)" d="M 252 144 L 252 180" stroke-width="1" stroke-dasharray="2.8125 3.375 5.625 3.375 5.625 3.375 5.625 3.375 2.8125 0"></path><path fill="none" stroke="rgb(160, 160, 160)" d="M 0 180 L 36 180" stroke-width="1" stroke-dasharray="2.8125 3.375 5.625 3.375 5.625 3.375 5.625 3.375 2.8125 0"></path><path fill="none" stroke="rgb(160, 160, 160)" d="M 36 180 L 72 180" stroke-width="1" stroke-dasharray="2.8125 3.375 5.625 3.375 5.625 3.375 5.625 3.375 2.8125 0"></path><path fill="none" stroke="rgb(160, 160, 160)" d="M 72 180 L 108 180" stroke-width="1" stroke-dasharray="2.8125 3.375 5.625 3.375 5.625 3.375 5.625 3.375 2.8125 0"></path><path fill="none" stroke="rgb(160, 160, 160)" d="M 108 180 L 144 180" stroke-width="1" stroke-dasharray="2.8125 3.375 5.625 3.375 5.625 3.375 5.625 3.375 2.8125 0"></path><path fill="none" stroke="rgb(160, 160, 160)" d="M 144 180 L 180 180" stroke-width="1" stroke-dasharray="2.8125 3.375 5.625 3.375 5.625 3.375 5.625 3.375 2.8125 0"></path><path fill="none" stroke="rgb(160, 160, 160)" d="M 180 180 L 216 180" stroke-width="1" stroke-dasharray="2.8125 3.375 5.625 3.375 5.625 3.375 5.625 3.375 2.8125 0"></path><path fill="none" stroke="rgb(160, 160, 160)" d="M 216 180 L 252 180" stroke-width="1" stroke-dasharray="2.8125 3.375 5.625 3.375 5.625 3.375 5.625 3.375 2.8125 0"></path><path fill="none" stroke="rgb(160, 160, 160)" d="M 252 180 L 288 180" stroke-width="1" stroke-dasharray="2.8125 3.375 5.625 3.375 5.625 3.375 5.625 3.375 2.8125 0"></path><path fill="none" stroke="rgb(160, 160, 160)" d="M 36 180 L 36 216" stroke-width="1" stroke-dasharray="2.8125 3.375 5.625 3.375 5.625 3.375 5.625 3.375 2.8125 0"></path><path fill="none" stroke="rgb(160, 160, 160)" d="M 72 180 L 72 216" stroke-width="1" stroke-dasharray="2.8125 3.375 5.625 3.375 5.625 3.375 5.625 3.375 2.8125 0"></path><path fill="none" stroke="rgb(160, 160, 160)" d="M 108 180 L 108 216" stroke-width="1" stroke-dasharray="2.8125 3.375 5.625 3.375 5.625 3.375 5.625 3.375 2.8125 0"></path><path fill="none" stroke="rgb(160, 160, 160)" d="M 144 180 L 144 216" stroke-width="1" stroke-dasharray="2.8125 3.375 5.625 3.375 5.625 3.375 5.625 3.375 2.8125 0"></path><path fill="none" stroke="rgb(160, 160, 160)" d="M 180 180 L 180 216" stroke-width="1" stroke-dasharray="2.8125 3.375 5.625 3.375 5.625 3.375 5.625 3.375 2.8125 0"></path><path fill="none" stroke="rgb(160, 160, 160)" d="M 216 180 L 216 216" stroke-width="1" stroke-dasharray="2.8125 3.375 5.625 3.375 5.625 3.375 5.625 3.375 2.8125 0"></path><path fill="none" stroke="rgb(160, 160, 160)" d="M 252 180 L 252 216" stroke-width="1" stroke-dasharray="2.8125 3.375 5.625 3.375 5.625 3.375 5.625 3.375 2.8125 0"></path><path fill="none" stroke="rgb(160, 160, 160)" d="M 0 216 L 36 216" stroke-width="1" stroke-dasharray="2.8125 3.375 5.625 3.375 5.625 3.375 5.625 3.375 2.8125 0"></path><path fill="none" stroke="rgb(160, 160, 160)" d="M 36 216 L 72 216" stroke-width="1" stroke-dasharray="2.8125 3.375 5.625 3.375 5.625 3.375 5.625 3.375 2.8125 0"></path><path fill="none" stroke="rgb(160, 160, 160)" d="M 72 216 L 108 216" stroke-width="1" stroke-dasharray="2.8125 3.375 5.625 3.375 5.625 3.375 5.625 3.375 2.8125 0"></path><path fill="none" stroke="rgb(160, 160, 160)" d="M 108 216 L 144 216" stroke-width="1" stroke-dasharray="2.8125 3.375 5.625 3.375 5.625 3.375 5.625 3.375 2.8125 0"></path><path fill="none" stroke="rgb(160, 160, 160)" d="M 144 216 L 180 216" stroke-width="1" stroke-dasharray="2.8125 3.375 5.625 3.375 5.625 3.375 5.625 3.375 2.8125 0"></path><path fill="none" stroke="rgb(160, 160, 160)" d="M 180 216 L 216 216" stroke-width="1" stroke-dasharray="2.8125 3.375 5.625 3.375 5.625 3.375 5.625 3.375 2.8125 0"></path><path fill="none" stroke="rgb(160, 160, 160)" d="M 216 216 L 252 216" stroke-width="1" stroke-dasharray="2.8125 3.375 5.625 3.375 5.625 3.375 5.625 3.375 2.8125 0"></path><path fill="none" stroke="rgb(160, 160, 160)" d="M 252 216 L 288 216" stroke-width="1" stroke-dasharray="2.8125 3.375 5.625 3.375 5.625 3.375 5.625 3.375 2.8125 0"></path><path fill="none" stroke="rgb(160, 160, 160)" d="M 36 216 L 36 252" stroke-width="1" stroke-dasharray="2.8125 3.375 5.625 3.375 5.625 3.375 5.625 3.375 2.8125 0"></path><path fill="none" stroke="rgb(160, 160, 160)" d="M 72 216 L 72 252" stroke-width="1" stroke-dasharray="2.8125 3.375 5.625 3.375 5.625 3.375 5.625 3.375 2.8125 0"></path><path fill="none" stroke="rgb(160, 160, 160)" d="M 108 216 L 108 252" stroke-width="1" stroke-dasharray="2.8125 3.375 5.625 3.375 5.625 3.375 5.625 3.375 2.8125 0"></path><path fill="none" stroke="rgb(160, 160, 160)" d="M 144 216 L 144 252" stroke-width="1" stroke-dasharray="2.8125 3.375 5.625 3.375 5.625 3.375 5.625 3.375 2.8125 0"></path><path fill="none" stroke="rgb(160, 160, 160)" d="M 180 216 L 180 252" stroke-width="1" stroke-dasharray="2.8125 3.375 5.625 3.375 5.625 3.375 5.625 3.375 2.8125 0"></path><path fill="none" stroke="rgb(160, 160, 160)" d="M 216 216 L 216 252" stroke-width="1" stroke-dasharray="2.8125 3.375 5.625 3.375 5.625 3.375 5.625 3.375 2.8125 0"></path><path fill="none" stroke="rgb(160, 160, 160)" d="M 252 216 L 252 252" stroke-width="1" stroke-dasharray="2.8125 3.375 5.625 3.375 5.625 3.375 5.625 3.375 2.8125 0"></path><path fill="none" stroke="rgb(160, 160, 160)" d="M 0 252 L 36 252" stroke-width="1" stroke-dasharray="2.8125 3.375 5.625 3.375 5.625 3.375 5.625 3.375 2.8125 0"></path><path fill="none" stroke="rgb(160, 160, 160)" d="M 36 252 L 72 252" stroke-width="1" stroke-dasharray="2.8125 3.375 5.625 3.375 5.625 3.375 5.625 3.375 2.8125 0"></path><path fill="none" stroke="rgb(160, 160, 160)" d="M 72 252 L 108 252" stroke-width="1" stroke-dasharray="2.8125 3.375 5.625 3.375 5.625 3.375 5.625 3.375 2.8125 0"></path><path fill="none" stroke="rgb(160, 160, 160)" d="M 108 252 L 144 252" stroke-width="1" stroke-dasharray="2.8125 3.375 5.625 3.375 5.625 3.375 5.625 3.375 2.8125 0"></path><path fill="none" stroke="rgb(160, 160, 160)" d="M 144 252 L 180 252" stroke-width="1" stroke-dasharray="2.8125 3.375 5.625 3.375 5.625 3.375 5.625 3.375 2.8125 0"></path><path fill="none" stroke="rgb(160, 160, 160)" d="M 180 252 L 216 252" stroke-width="1" stroke-dasharray="2.8125 3.375 5.625 3.375 5.625 3.375 5.625 3.375 2.8125 0"></path><path fill="none" stroke="rgb(160, 160, 160)" d="M 216 252 L 252 252" stroke-width="1" stroke-dasharray="2.8125 3.375 5.625 3.375 5.625 3.375 5.625 3.375 2.8125 0"></path><path fill="none" stroke="rgb(160, 160, 160)" d="M 252 252 L 288 252" stroke-width="1" stroke-dasharray="2.8125 3.375 5.625 3.375 5.625 3.375 5.625 3.375 2.8125 0"></path><path fill="none" stroke="rgb(160, 160, 160)" d="M 36 252 L 36 288" stroke-width="1" stroke-dasharray="2.8125 3.375 5.625 3.375 5.625 3.375 5.625 3.375 2.8125 0"></path><path fill="none" stroke="rgb(160, 160, 160)" d="M 72 252 L 72 288" stroke-width="1" stroke-dasharray="2.8125 3.375 5.625 3.375 5.625 3.375 5.625 3.375 2.8125 0"></path><path fill="none" stroke="rgb(160, 160, 160)" d="M 108 252 L 108 288" stroke-width="1" stroke-dasharray="2.8125 3.375 5.625 3.375 5.625 3.375 5.625 3.375 2.8125 0"></path><path fill="none" stroke="rgb(160, 160, 160)" d="M 144 252 L 144 288" stroke-width="1" stroke-dasharray="2.8125 3.375 5.625 3.375 5.625 3.375 5.625 3.375 2.8125 0"></path><path fill="none" stroke="rgb(160, 160, 160)" d="M 180 252 L 180 288" stroke-width="1" stroke-dasharray="2.8125 3.375 5.625 3.375 5.625 3.375 5.625 3.375 2.8125 0"></path><path fill="none" stroke="rgb(160, 160, 160)" d="M 216 252 L 216 288" stroke-width="1" stroke-dasharray="2.8125 3.375 5.625 3.375 5.625 3.375 5.625 3.375 2.8125 0"></path><path fill="none" stroke="rgb(160, 160, 160)" d="M 252 252 L 252 288" stroke-width="1" stroke-dasharray="2.8125 3.375 5.625 3.375 5.625 3.375 5.625 3.375 2.8125 0"></path></g><g shape-rendering="crispEdges"></g><g shape-rendering="crispEdges"><path fill="black" stroke="none" d="M -2 -2 L 38 -2 38 2 -2 2 z"></path><path fill="black" stroke="none" d="M 34 -2 L 74 -2 74 2 34 2 z"></path><path fill="black" stroke="none" d="M 70 -2 L 110 -2 110 2 70 2 z"></path><path fill="black" stroke="none" d="M 106 -2 L 146 -2 146 2 106 2 z"></path><path fill="black" stroke="none" d="M 142 -2 L 182 -2 182 2 142 2 z"></path><path fill="black" stroke="none" d="M 178 -2 L 218 -2 218 2 178 2 z"></path><path fill="black" stroke="none" d="M 214 -2 L 254 -2 254 2 214 2 z"></path><path fill="black" stroke="none" d="M 250 -2 L 290 -2 290 2 250 2 z"></path><path fill="black" stroke="none" d="M -2 -2 L 2 -2 2 38 -2 38 z"></path><path fill="black" stroke="none" d="M 286 -2 L 290 -2 290 38 286 38 z"></path><path fill="black" stroke="none" d="M -2 34 L 2 34 2 74 -2 74 z"></path><path fill="black" stroke="none" d="M 286 34 L 290 34 290 74 286 74 z"></path><path fill="black" stroke="none" d="M -2 70 L 2 70 2 110 -2 110 z"></path><path fill="black" stroke="none" d="M 286 70 L 290 70 290 110 286 110 z"></path><path fill="black" stroke="none" d="M -2 106 L 2 106 2 146 -2 146 z"></path><path fill="black" stroke="none" d="M 286 106 L 290 106 290 146 286 146 z"></path><path fill="black" stroke="none" d="M -2 142 L 2 142 2 182 -2 182 z"></path><path fill="black" stroke="none" d="M 286 142 L 290 142 290 182 286 182 z"></path><path fill="black" stroke="none" d="M -2 178 L 2 178 2 218 -2 218 z"></path><path fill="black" stroke="none" d="M 286 178 L 290 178 290 218 286 218 z"></path><path fill="black" stroke="none" d="M -2 214 L 2 214 2 254 -2 254 z"></path><path fill="black" stroke="none" d="M 286 214 L 290 214 290 254 286 254 z"></path><path fill="black" stroke="none" d="M -2 250 L 2 250 2 290 -2 290 z"></path><path fill="black" stroke="none" d="M 286 250 L 290 250 290 290 286 290 z"></path><path fill="black" stroke="none" d="M -2 286 L 38 286 38 290 -2 290 z"></path><path fill="black" stroke="none" d="M 34 286 L 74 286 74 290 34 290 z"></path><path fill="black" stroke="none" d="M 70 286 L 110 286 110 290 70 290 z"></path><path fill="black" stroke="none" d="M 106 286 L 146 286 146 290 106 290 z"></path><path fill="black" stroke="none" d="M 142 286 L 182 286 182 290 142 290 z"></path><path fill="black" stroke="none" d="M 178 286 L 218 286 218 290 178 290 z"></path><path fill="black" stroke="none" d="M 214 286 L 254 286 254 290 214 290 z"></path><path fill="black" stroke="none" d="M 250 286 L 290 286 290 290 250 290 z"></path></g><g shape-rendering="auto"><text fill="black" x="198" y="27.799999999999997" text-anchor="middle" font-size="28">3</text><text fill="black" x="234" y="27.799999999999997" text-anchor="middle" font-size="28">3</text><text fill="black" x="18" y="63.8" text-anchor="middle" font-size="28">1</text><text fill="black" x="234" y="63.8" text-anchor="middle" font-size="28">3</text><text fill="black" x="234" y="99.8" text-anchor="middle" font-size="28">3</text><text fill="black" x="18" y="135.8" text-anchor="middle" font-size="28">3</text><text fill="black" x="198" y="135.8" text-anchor="middle" font-size="28">2</text><text fill="black" x="18" y="171.8" text-anchor="middle" font-size="28">3</text><text fill="black" x="162" y="171.8" text-anchor="middle" font-size="28">2</text><text fill="black" x="198" y="207.8" text-anchor="middle" font-size="28">2</text><text fill="black" x="270" y="207.8" text-anchor="middle" font-size="28">3</text><text fill="black" x="90" y="243.8" text-anchor="middle" font-size="28">1</text><text fill="black" x="162" y="243.8" text-anchor="middle" font-size="28">0</text><text fill="black" x="234" y="243.8" text-anchor="middle" font-size="28">3</text></g><g shape-rendering="crispEdges"></g><g shape-rendering="crispEdges"></g></svg>