<svg width="300" height="300" xmlns="http://www.w3.org/2000/svg">
 <!-- Created with Method Draw - http://github.com/duopixel/Method-Draw/ -->
 <g>
  <title>background</title>
  <rect fill="#fff" id="canvas_background" height="302" width="302" y="-1" x="-1"/>
 </g>
 <g>
  <title>Layer 1</title>
  <ellipse ry="4.87804" rx="4.87804" id="svg_1" cy="79.4895" cx="101.46353" fill-opacity="null" stroke-opacity="null" stroke-width="null" stroke="#000" fill="none"/>
  <ellipse ry="4.87804" rx="4.87804" id="svg_2" cy="78.51389" cx="176.5853" fill-opacity="null" stroke-opacity="null" stroke-width="null" stroke="#000" fill="none"/>
  <ellipse stroke="#000" ry="4.87804" rx="4.87804" id="svg_3" cy="150.22104" cx="220.97544" fill-opacity="null" stroke-opacity="null" stroke-width="null" fill="none"/>
  <ellipse ry="4.87804" rx="4.87804" id="svg_4" cy="217.53795" cx="179.51213" fill-opacity="null" stroke-opacity="null" stroke-width="null" stroke="#000" fill="none"/>
  <ellipse ry="4.87804" rx="4.87804" id="svg_5" cy="217.05015" cx="100.97573" fill-opacity="null" stroke-opacity="null" stroke-width="null" stroke="#000" fill="none"/>
  <ellipse ry="4.87804" rx="4.87804" id="svg_6" cy="142.90398" cx="66.34166" fill-opacity="null" stroke-opacity="null" stroke-width="null" stroke="#000" fill="none"/>
  <line stroke-linecap="null" stroke-linejoin="null" id="svg_7" y2="79.4895" x2="100.97573" y1="144.3674" x1="65.85386" fill-opacity="null" stroke-opacity="null" stroke-width="null" stroke="#000" fill="none"/>
  <line stroke-linecap="null" stroke-linejoin="null" id="svg_8" y2="218.02576" x2="180.48773" y1="151.68445" x1="223.90226" fill-opacity="null" stroke-opacity="null" stroke-width="null" stroke="#000" fill="none"/>
  <line stroke-linecap="null" stroke-linejoin="null" id="svg_9" y2="143.87959" x2="66.82947" y1="218.02576" x1="101.46353" fill-opacity="null" stroke-opacity="null" stroke-width="null" stroke="#000" fill="none"/>
  <line stroke-linecap="null" stroke-linejoin="null" id="svg_10" y2="217.53795" x2="100.97573" y1="218.02576" x1="180.48773" fill-opacity="null" stroke-opacity="null" stroke-width="null" stroke="#000" fill="none"/>
  <line stroke-linecap="null" stroke-linejoin="null" id="svg_11" y2="79.0017" x2="177.56091" y1="79.0017" x1="101.95133" fill-opacity="null" stroke-opacity="null" stroke-width="null" stroke="#000" fill="none"/>
  <line stroke-linecap="null" stroke-linejoin="null" id="svg_12" y2="78.02609" x2="178.04871" y1="150.22104" x1="222.43885" fill-opacity="null" stroke-opacity="null" stroke-width="null" stroke="#000" fill="none"/>
  <line stroke-linecap="null" stroke-linejoin="null" id="svg_13" y2="151.68445" x2="221.95105" y1="218.02576" x1="102.43914" fill-opacity="null" stroke-opacity="null" stroke-width="null" stroke="#000" fill="none"/>
  <line stroke-linecap="null" stroke-linejoin="null" id="svg_14" y2="148.75763" x2="219.99983" y1="145.343" x1="65.85386" fill-opacity="null" stroke-opacity="null" stroke-width="null" stroke="#000" fill="none"/>
  <line stroke-linecap="null" stroke-linejoin="null" id="svg_15" y2="150.22104" x2="220.97544" y1="79.4895" x1="101.46353" fill-opacity="null" stroke-opacity="null" stroke-width="null" stroke="#000" fill="none"/>
  <path d="m179.51213,78.02609c0.48779,0 0.92252,0.63271 3.41463,1.46341c12.46049,4.1535 31.72971,8.59414 41.4633,15.60972c10.63321,7.66399 15.56343,16.93028 18.04874,25.36579c2.976,10.10097 2.92683,17.56093 2.92683,22.43898c0,2.92682 -1.28992,12.84341 -4.87804,19.51215c-2.78317,5.17271 -7.6422,10.65459 -11.70729,14.63411c-2.81033,2.75117 -6.76866,5.41203 -9.75607,9.26826c-1.91289,2.46921 -3.52327,3.76779 -5.36584,5.36584c-2.60579,2.25998 -4.54155,4.74095 -5.85365,6.34145c-2.23012,2.72031 -4.72185,5.54083 -6.34145,6.82925c-3.60136,2.86493 -6.28918,4.94521 -8.78046,6.82925c-3.34691,2.53113 -6.34146,5.85364 -8.29266,8.29266l-0.97562,1.46341" id="svg_16" fill-opacity="null" stroke-opacity="null" stroke-width="null" stroke="#000" fill="none"/>
  <path d="m66.82947,142.41618c-0.48781,0 -1.35145,-0.0463 -3.41463,-4.87804c-4.62929,-10.84131 -9.20397,-21.42564 -23.41458,-35.12187c-4.00461,-3.85966 -10.1087,-6.82587 -18.04874,-8.78046c-5.29571,-1.30363 -11.40095,-2.62688 -13.1707,-3.90244c-0.55964,-0.40337 -1.46341,-0.9756 -1.95122,-0.9756l0,-0.48781l-0.4878,0l-0.4878,0" id="svg_17" fill-opacity="null" stroke-opacity="null" stroke-width="null" stroke="#000" fill="none"/>
  <path d="m2.43938,221.44038c0.4878,0 14.1587,-3.47552 26.3414,-10.73169c10.23146,-6.09398 14.75232,-17.25699 17.56093,-22.43896c3.03068,-5.59169 6.32439,-9.92998 8.29266,-17.56093c1.9645,-7.61633 2.47736,-12.16492 4.39024,-14.63411c1.49371,-1.92812 2.98208,-3.33417 5.85364,-5.36584c1.99107,-1.40871 2.43902,-3.41463 2.43902,-5.36584l0,-0.48781l0,-0.48779" id="svg_18" fill-opacity="null" stroke-opacity="null" stroke-width="null" stroke="#000" fill="none"/>
  <path d="m176.5853,76.07487c10.24388,0 23.94699,-1.88634 45.85356,-0.4878c19.14108,1.22199 29.27325,2.17694 36.09746,2.43902c6.3555,0.24408 11.70731,0.4878 19.02435,0.4878c1.95123,0 2.92682,0 4.39023,0c0.97562,0 3.41464,-0.4878 3.90244,-0.4878c0.97562,0 3.90244,0 4.87805,0l0.48779,0l0.48779,0l0.97562,0" id="svg_19" fill-opacity="null" stroke-opacity="null" stroke-width="null" stroke="#000" fill="none"/>
  <path d="m180.97554,219.48917c0.48779,0.48781 12.19083,1.21948 33.17065,1.46341c13.16982,0.15312 20.48775,-0.48781 29.26822,-0.48781c6.82925,0 14.14632,0 22.43898,0c6.82925,0 15.63461,0.23955 21.46335,-0.48779c2.94437,-0.36742 5.36584,-0.48781 7.31705,-0.97562l1.46341,0l0.48782,0" id="svg_20" fill-opacity="null" stroke-opacity="null" stroke-width="null" stroke="#000" fill="none"/>
  <line stroke-linecap="null" stroke-linejoin="null" id="svg_21" y2="299.00117" x2="100.97573" y1="219.48917" x1="100.48792" fill-opacity="null" stroke-opacity="null" stroke-width="null" stroke="#000" fill="none"/>
  <line stroke-linecap="null" stroke-linejoin="null" id="svg_22" y2="7.29455" x2="100.48792" y1="79.0017" x1="102.92694" fill-opacity="null" stroke-opacity="null" stroke-width="null" stroke="#000" fill="none"/>
  <line stroke-linecap="null" stroke-linejoin="null" id="svg_23" y2="296.56215" x2="144.39026" y1="219.00136" x1="100.97573" fill-opacity="null" stroke-opacity="null" stroke-width="null" stroke="#000" fill="none"/>
  <line stroke-linecap="null" stroke-linejoin="null" id="svg_24" y2="77.05048" x2="176.5853" y1="7.29455" x1="136.5854" fill-opacity="null" stroke-opacity="null" stroke-width="null" stroke="#000" fill="none"/>
  <path d="m178.53651,221.92819c0,0 0,0.48779 0,0.9756c0,0.9756 0.71162,1.80167 0.97562,2.43903c0.37335,0.90134 2.07529,2.83965 3.41463,4.87804c2.15962,3.28677 11.06261,14.66353 20.48775,19.99994c12.93118,7.3215 23.49377,9.04507 29.26822,11.21948c9.41122,3.54385 18.06592,4.39395 24.87801,4.87805c3.44061,0.24451 12.65768,1.95093 26.82919,2.43903c2.43759,0.08395 11.70728,0.48779 16.58533,0.48779l0.97562,0l1.46341,0" id="svg_25" fill-opacity="null" stroke-opacity="null" stroke-width="null" stroke="#000" fill="none"/>
  <path d="m-0.48745,266.31833c2.43902,0 16.90293,-0.69806 31.70724,3.90244c10.03427,3.11819 11.43345,6.25244 13.1707,10.73166c1.1156,2.8764 1.46174,3.84192 1.95121,9.75607c0.08047,0.97229 0,1.46344 0,1.95123c0,0.48779 0,1.46341 0,2.92682l0,1.9512l-0.97561,0.97562" id="svg_26" fill-opacity="null" stroke-opacity="null" stroke-width="null" stroke="#000" fill="none"/>
  <path d="m46.34171,6.31894c0,0.4878 0.2994,6.30486 1.46341,17.07313c1.3148,12.1632 2.61561,21.86814 10.73168,32.19505c6.39415,8.13593 15.08672,10.88428 25.36579,17.07313c7.1899,4.3289 11.70729,8.78047 12.6829,9.26827l3.41463,0.4878l0.9756,0.48781" id="svg_27" fill-opacity="null" stroke-opacity="null" stroke-width="null" stroke="#000" fill="none"/>
 </g>
</svg>