<?xml version="1.0" encoding="UTF-8"?>
<svg xmlns="http://www.w3.org/2000/svg" xmlns:xlink="http://www.w3.org/1999/xlink" font-size="10px" font-family="sans-serif" width="334" height="334" viewBox="-5.5 -5.5 334 334"><g shape-rendering="crispEdges"><path fill="white" stroke="none" d="M -0.5 -0.5 L 324.5 -0.5 324.5 324.5 -0.5 324.5 z"></path></g><g shape-rendering="crispEdges"><path fill="rgb(204,204,204)" stroke="none" d="M 71.5 -0.5 L 108.5 -0.5 108.5 36.5 71.5 36.5 z"></path><path fill="rgb(204,204,204)" stroke="none" d="M 143.5 -0.5 L 180.5 -0.5 180.5 36.5 143.5 36.5 z"></path><path fill="rgb(204,204,204)" stroke="none" d="M 215.5 -0.5 L 252.5 -0.5 252.5 36.5 215.5 36.5 z"></path><path fill="rgb(204,204,204)" stroke="none" d="M 287.5 -0.5 L 324.5 -0.5 324.5 36.5 287.5 36.5 z"></path><path fill="rgb(204,204,204)" stroke="none" d="M 107.5 71.5 L 144.5 71.5 144.5 108.5 107.5 108.5 z"></path><path fill="rgb(204,204,204)" stroke="none" d="M 143.5 71.5 L 180.5 71.5 180.5 108.5 143.5 108.5 z"></path><path fill="rgb(204,204,204)" stroke="none" d="M 179.5 71.5 L 216.5 71.5 216.5 108.5 179.5 108.5 z"></path><path fill="rgb(204,204,204)" stroke="none" d="M 107.5 107.5 L 144.5 107.5 144.5 144.5 107.5 144.5 z"></path><path fill="rgb(204,204,204)" stroke="none" d="M -0.5 143.5 L 36.5 143.5 36.5 180.5 -0.5 180.5 z"></path><path fill="rgb(204,204,204)" stroke="none" d="M 107.5 143.5 L 144.5 143.5 144.5 180.5 107.5 180.5 z"></path><path fill="rgb(204,204,204)" stroke="none" d="M 143.5 143.5 L 180.5 143.5 180.5 180.5 143.5 180.5 z"></path><path fill="rgb(204,204,204)" stroke="none" d="M 179.5 143.5 L 216.5 143.5 216.5 180.5 179.5 180.5 z"></path><path fill="rgb(204,204,204)" stroke="none" d="M 215.5 143.5 L 252.5 143.5 252.5 180.5 215.5 180.5 z"></path><path fill="rgb(204,204,204)" stroke="none" d="M 251.5 143.5 L 288.5 143.5 288.5 180.5 251.5 180.5 z"></path><path fill="rgb(204,204,204)" stroke="none" d="M 287.5 143.5 L 324.5 143.5 324.5 180.5 287.5 180.5 z"></path><path fill="rgb(204,204,204)" stroke="none" d="M 179.5 179.5 L 216.5 179.5 216.5 216.5 179.5 216.5 z"></path><path fill="rgb(204,204,204)" stroke="none" d="M 215.5 179.5 L 252.5 179.5 252.5 216.5 215.5 216.5 z"></path><path fill="rgb(204,204,204)" stroke="none" d="M -0.5 215.5 L 36.5 215.5 36.5 252.5 -0.5 252.5 z"></path><path fill="rgb(204,204,204)" stroke="none" d="M 107.5 215.5 L 144.5 215.5 144.5 252.5 107.5 252.5 z"></path><path fill="rgb(204,204,204)" stroke="none" d="M 143.5 215.5 L 180.5 215.5 180.5 252.5 143.5 252.5 z"></path><path fill="rgb(204,204,204)" stroke="none" d="M 179.5 215.5 L 216.5 215.5 216.5 252.5 179.5 252.5 z"></path><path fill="rgb(204,204,204)" stroke="none" d="M 215.5 215.5 L 252.5 215.5 252.5 252.5 215.5 252.5 z"></path><path fill="rgb(204,204,204)" stroke="none" d="M 251.5 215.5 L 288.5 215.5 288.5 252.5 251.5 252.5 z"></path><path fill="rgb(204,204,204)" stroke="none" d="M 287.5 215.5 L 324.5 215.5 324.5 252.5 287.5 252.5 z"></path><path fill="rgb(204,204,204)" stroke="none" d="M 215.5 251.5 L 252.5 251.5 252.5 288.5 215.5 288.5 z"></path><path fill="rgb(204,204,204)" stroke="none" d="M 35.5 287.5 L 72.5 287.5 72.5 324.5 35.5 324.5 z"></path><path fill="rgb(204,204,204)" stroke="none" d="M 71.5 287.5 L 108.5 287.5 108.5 324.5 71.5 324.5 z"></path><path fill="rgb(204,204,204)" stroke="none" d="M 143.5 287.5 L 180.5 287.5 180.5 324.5 143.5 324.5 z"></path><path fill="rgb(204,204,204)" stroke="none" d="M 215.5 287.5 L 252.5 287.5 252.5 324.5 215.5 324.5 z"></path><path fill="rgb(204,204,204)" stroke="none" d="M 251.5 287.5 L 288.5 287.5 288.5 324.5 251.5 324.5 z"></path><path fill="rgb(204,204,204)" stroke="none" d="M 287.5 287.5 L 324.5 287.5 324.5 324.5 287.5 324.5 z"></path></g><g shape-rendering="crispEdges"><path fill="none" stroke="rgb(127, 127, 127)" d="M 36 0 L 36 324" stroke-width="1" stroke-dasharray="2.8125 3.375 5.625 3.375 5.625 3.375 5.625 3.375 2.8125 0"></path><path fill="none" stroke="rgb(127, 127, 127)" d="M 72 0 L 72 324" stroke-width="1" stroke-dasharray="2.8125 3.375 5.625 3.375 5.625 3.375 5.625 3.375 2.8125 0"></path><path fill="none" stroke="rgb(127, 127, 127)" d="M 108 0 L 108 324" stroke-width="1" stroke-dasharray="2.8125 3.375 5.625 3.375 5.625 3.375 5.625 3.375 2.8125 0"></path><path fill="none" stroke="rgb(127, 127, 127)" d="M 144 0 L 144 324" stroke-width="1" stroke-dasharray="2.8125 3.375 5.625 3.375 5.625 3.375 5.625 3.375 2.8125 0"></path><path fill="none" stroke="rgb(127, 127, 127)" d="M 180 0 L 180 324" stroke-width="1" stroke-dasharray="2.8125 3.375 5.625 3.375 5.625 3.375 5.625 3.375 2.8125 0"></path><path fill="none" stroke="rgb(127, 127, 127)" d="M 216 0 L 216 324" stroke-width="1" stroke-dasharray="2.8125 3.375 5.625 3.375 5.625 3.375 5.625 3.375 2.8125 0"></path><path fill="none" stroke="rgb(127, 127, 127)" d="M 252 0 L 252 324" stroke-width="1" stroke-dasharray="2.8125 3.375 5.625 3.375 5.625 3.375 5.625 3.375 2.8125 0"></path><path fill="none" stroke="rgb(127, 127, 127)" d="M 288 0 L 288 324" stroke-width="1" stroke-dasharray="2.8125 3.375 5.625 3.375 5.625 3.375 5.625 3.375 2.8125 0"></path><path fill="none" stroke="rgb(127, 127, 127)" d="M 0 36 L 324 36" stroke-width="1" stroke-dasharray="2.8125 3.375 5.625 3.375 5.625 3.375 5.625 3.375 2.8125 0"></path><path fill="none" stroke="rgb(127, 127, 127)" d="M 0 72 L 324 72" stroke-width="1" stroke-dasharray="2.8125 3.375 5.625 3.375 5.625 3.375 5.625 3.375 2.8125 0"></path><path fill="none" stroke="rgb(127, 127, 127)" d="M 0 108 L 324 108" stroke-width="1" stroke-dasharray="2.8125 3.375 5.625 3.375 5.625 3.375 5.625 3.375 2.8125 0"></path><path fill="none" stroke="rgb(127, 127, 127)" d="M 0 144 L 324 144" stroke-width="1" stroke-dasharray="2.8125 3.375 5.625 3.375 5.625 3.375 5.625 3.375 2.8125 0"></path><path fill="none" stroke="rgb(127, 127, 127)" d="M 0 180 L 324 180" stroke-width="1" stroke-dasharray="2.8125 3.375 5.625 3.375 5.625 3.375 5.625 3.375 2.8125 0"></path><path fill="none" stroke="rgb(127, 127, 127)" d="M 0 216 L 324 216" stroke-width="1" stroke-dasharray="2.8125 3.375 5.625 3.375 5.625 3.375 5.625 3.375 2.8125 0"></path><path fill="none" stroke="rgb(127, 127, 127)" d="M 0 252 L 324 252" stroke-width="1" stroke-dasharray="2.8125 3.375 5.625 3.375 5.625 3.375 5.625 3.375 2.8125 0"></path><path fill="none" stroke="rgb(127, 127, 127)" d="M 0 288 L 324 288" stroke-width="1" stroke-dasharray="2.8125 3.375 5.625 3.375 5.625 3.375 5.625 3.375 2.8125 0"></path></g><g shape-rendering="crispEdges"></g><g shape-rendering="crispEdges"></g><g shape-rendering="auto"><path fill="black" stroke="none" d="M 1.8 0.125 A 1.8 1.8 0 1 1 1.8 0 z"></path><path fill="black" stroke="none" d="M 37.8 0.125 A 1.8 1.8 0 1 1 37.8 0 z"></path><path fill="black" stroke="none" d="M 73.8 0.125 A 1.8 1.8 0 1 1 73.8 0 z"></path><path fill="black" stroke="none" d="M 109.8 0.125 A 1.8 1.8 0 1 1 109.8 0 z"></path><path fill="black" stroke="none" d="M 145.8 0.125 A 1.8 1.8 0 1 1 145.8 0 z"></path><path fill="black" stroke="none" d="M 181.8 0.125 A 1.8 1.8 0 1 1 181.8 0 z"></path><path fill="black" stroke="none" d="M 217.8 0.125 A 1.8 1.8 0 1 1 217.8 0 z"></path><path fill="black" stroke="none" d="M 253.8 0.125 A 1.8 1.8 0 1 1 253.8 0 z"></path><path fill="black" stroke="none" d="M 289.8 0.125 A 1.8 1.8 0 1 1 289.8 0 z"></path><path fill="black" stroke="none" d="M 325.8 0.125 A 1.8 1.8 0 1 1 325.8 0 z"></path><path fill="black" stroke="none" d="M 1.8 36.125 A 1.8 1.8 0 1 1 1.8 36 z"></path><path fill="black" stroke="none" d="M 37.8 36.125 A 1.8 1.8 0 1 1 37.8 36 z"></path><path fill="black" stroke="none" d="M 73.8 36.125 A 1.8 1.8 0 1 1 73.8 36 z"></path><path fill="black" stroke="none" d="M 109.8 36.125 A 1.8 1.8 0 1 1 109.8 36 z"></path><path fill="black" stroke="none" d="M 145.8 36.125 A 1.8 1.8 0 1 1 145.8 36 z"></path><path fill="black" stroke="none" d="M 181.8 36.125 A 1.8 1.8 0 1 1 181.8 36 z"></path><path fill="black" stroke="none" d="M 217.8 36.125 A 1.8 1.8 0 1 1 217.8 36 z"></path><path fill="black" stroke="none" d="M 253.8 36.125 A 1.8 1.8 0 1 1 253.8 36 z"></path><path fill="black" stroke="none" d="M 289.8 36.125 A 1.8 1.8 0 1 1 289.8 36 z"></path><path fill="black" stroke="none" d="M 325.8 36.125 A 1.8 1.8 0 1 1 325.8 36 z"></path><path fill="black" stroke="none" d="M 1.8 72.125 A 1.8 1.8 0 1 1 1.8 72 z"></path><path fill="black" stroke="none" d="M 37.8 72.125 A 1.8 1.8 0 1 1 37.8 72 z"></path><path fill="black" stroke="none" d="M 73.8 72.125 A 1.8 1.8 0 1 1 73.8 72 z"></path><path fill="black" stroke="none" d="M 109.8 72.125 A 1.8 1.8 0 1 1 109.8 72 z"></path><path fill="black" stroke="none" d="M 145.8 72.125 A 1.8 1.8 0 1 1 145.8 72 z"></path><path fill="black" stroke="none" d="M 181.8 72.125 A 1.8 1.8 0 1 1 181.8 72 z"></path><path fill="black" stroke="none" d="M 217.8 72.125 A 1.8 1.8 0 1 1 217.8 72 z"></path><path fill="black" stroke="none" d="M 253.8 72.125 A 1.8 1.8 0 1 1 253.8 72 z"></path><path fill="black" stroke="none" d="M 289.8 72.125 A 1.8 1.8 0 1 1 289.8 72 z"></path><path fill="black" stroke="none" d="M 325.8 72.125 A 1.8 1.8 0 1 1 325.8 72 z"></path><path fill="black" stroke="none" d="M 1.8 108.125 A 1.8 1.8 0 1 1 1.8 108 z"></path><path fill="black" stroke="none" d="M 37.8 108.125 A 1.8 1.8 0 1 1 37.8 108 z"></path><path fill="black" stroke="none" d="M 73.8 108.125 A 1.8 1.8 0 1 1 73.8 108 z"></path><path fill="black" stroke="none" d="M 109.8 108.125 A 1.8 1.8 0 1 1 109.8 108 z"></path><path fill="black" stroke="none" d="M 145.8 108.125 A 1.8 1.8 0 1 1 145.8 108 z"></path><path fill="black" stroke="none" d="M 181.8 108.125 A 1.8 1.8 0 1 1 181.8 108 z"></path><path fill="black" stroke="none" d="M 217.8 108.125 A 1.8 1.8 0 1 1 217.8 108 z"></path><path fill="black" stroke="none" d="M 253.8 108.125 A 1.8 1.8 0 1 1 253.8 108 z"></path><path fill="black" stroke="none" d="M 289.8 108.125 A 1.8 1.8 0 1 1 289.8 108 z"></path><path fill="black" stroke="none" d="M 325.8 108.125 A 1.8 1.8 0 1 1 325.8 108 z"></path><path fill="black" stroke="none" d="M 1.8 144.125 A 1.8 1.8 0 1 1 1.8 144 z"></path><path fill="black" stroke="none" d="M 37.8 144.125 A 1.8 1.8 0 1 1 37.8 144 z"></path><path fill="black" stroke="none" d="M 73.8 144.125 A 1.8 1.8 0 1 1 73.8 144 z"></path><path fill="black" stroke="none" d="M 109.8 144.125 A 1.8 1.8 0 1 1 109.8 144 z"></path><path fill="black" stroke="none" d="M 145.8 144.125 A 1.8 1.8 0 1 1 145.8 144 z"></path><path fill="black" stroke="none" d="M 181.8 144.125 A 1.8 1.8 0 1 1 181.8 144 z"></path><path fill="black" stroke="none" d="M 217.8 144.125 A 1.8 1.8 0 1 1 217.8 144 z"></path><path fill="black" stroke="none" d="M 253.8 144.125 A 1.8 1.8 0 1 1 253.8 144 z"></path><path fill="black" stroke="none" d="M 289.8 144.125 A 1.8 1.8 0 1 1 289.8 144 z"></path><path fill="black" stroke="none" d="M 325.8 144.125 A 1.8 1.8 0 1 1 325.8 144 z"></path><path fill="black" stroke="none" d="M 1.8 180.125 A 1.8 1.8 0 1 1 1.8 180 z"></path><path fill="black" stroke="none" d="M 37.8 180.125 A 1.8 1.8 0 1 1 37.8 180 z"></path><path fill="black" stroke="none" d="M 73.8 180.125 A 1.8 1.8 0 1 1 73.8 180 z"></path><path fill="black" stroke="none" d="M 109.8 180.125 A 1.8 1.8 0 1 1 109.8 180 z"></path><path fill="black" stroke="none" d="M 145.8 180.125 A 1.8 1.8 0 1 1 145.8 180 z"></path><path fill="black" stroke="none" d="M 181.8 180.125 A 1.8 1.8 0 1 1 181.8 180 z"></path><path fill="black" stroke="none" d="M 217.8 180.125 A 1.8 1.8 0 1 1 217.8 180 z"></path><path fill="black" stroke="none" d="M 253.8 180.125 A 1.8 1.8 0 1 1 253.8 180 z"></path><path fill="black" stroke="none" d="M 289.8 180.125 A 1.8 1.8 0 1 1 289.8 180 z"></path><path fill="black" stroke="none" d="M 325.8 180.125 A 1.8 1.8 0 1 1 325.8 180 z"></path><path fill="black" stroke="none" d="M 1.8 216.125 A 1.8 1.8 0 1 1 1.8 216 z"></path><path fill="black" stroke="none" d="M 37.8 216.125 A 1.8 1.8 0 1 1 37.8 216 z"></path><path fill="black" stroke="none" d="M 73.8 216.125 A 1.8 1.8 0 1 1 73.8 216 z"></path><path fill="black" stroke="none" d="M 109.8 216.125 A 1.8 1.8 0 1 1 109.8 216 z"></path><path fill="black" stroke="none" d="M 145.8 216.125 A 1.8 1.8 0 1 1 145.8 216 z"></path><path fill="black" stroke="none" d="M 181.8 216.125 A 1.8 1.8 0 1 1 181.8 216 z"></path><path fill="black" stroke="none" d="M 217.8 216.125 A 1.8 1.8 0 1 1 217.8 216 z"></path><path fill="black" stroke="none" d="M 253.8 216.125 A 1.8 1.8 0 1 1 253.8 216 z"></path><path fill="black" stroke="none" d="M 289.8 216.125 A 1.8 1.8 0 1 1 289.8 216 z"></path><path fill="black" stroke="none" d="M 325.8 216.125 A 1.8 1.8 0 1 1 325.8 216 z"></path><path fill="black" stroke="none" d="M 1.8 252.125 A 1.8 1.8 0 1 1 1.8 252 z"></path><path fill="black" stroke="none" d="M 37.8 252.125 A 1.8 1.8 0 1 1 37.8 252 z"></path><path fill="black" stroke="none" d="M 73.8 252.125 A 1.8 1.8 0 1 1 73.8 252 z"></path><path fill="black" stroke="none" d="M 109.8 252.125 A 1.8 1.8 0 1 1 109.8 252 z"></path><path fill="black" stroke="none" d="M 145.8 252.125 A 1.8 1.8 0 1 1 145.8 252 z"></path><path fill="black" stroke="none" d="M 181.8 252.125 A 1.8 1.8 0 1 1 181.8 252 z"></path><path fill="black" stroke="none" d="M 217.8 252.125 A 1.8 1.8 0 1 1 217.8 252 z"></path><path fill="black" stroke="none" d="M 253.8 252.125 A 1.8 1.8 0 1 1 253.8 252 z"></path><path fill="black" stroke="none" d="M 289.8 252.125 A 1.8 1.8 0 1 1 289.8 252 z"></path><path fill="black" stroke="none" d="M 325.8 252.125 A 1.8 1.8 0 1 1 325.8 252 z"></path><path fill="black" stroke="none" d="M 1.8 288.125 A 1.8 1.8 0 1 1 1.8 288 z"></path><path fill="black" stroke="none" d="M 37.8 288.125 A 1.8 1.8 0 1 1 37.8 288 z"></path><path fill="black" stroke="none" d="M 73.8 288.125 A 1.8 1.8 0 1 1 73.8 288 z"></path><path fill="black" stroke="none" d="M 109.8 288.125 A 1.8 1.8 0 1 1 109.8 288 z"></path><path fill="black" stroke="none" d="M 145.8 288.125 A 1.8 1.8 0 1 1 145.8 288 z"></path><path fill="black" stroke="none" d="M 181.8 288.125 A 1.8 1.8 0 1 1 181.8 288 z"></path><path fill="black" stroke="none" d="M 217.8 288.125 A 1.8 1.8 0 1 1 217.8 288 z"></path><path fill="black" stroke="none" d="M 253.8 288.125 A 1.8 1.8 0 1 1 253.8 288 z"></path><path fill="black" stroke="none" d="M 289.8 288.125 A 1.8 1.8 0 1 1 289.8 288 z"></path><path fill="black" stroke="none" d="M 325.8 288.125 A 1.8 1.8 0 1 1 325.8 288 z"></path><path fill="black" stroke="none" d="M 1.8 324.125 A 1.8 1.8 0 1 1 1.8 324 z"></path><path fill="black" stroke="none" d="M 37.8 324.125 A 1.8 1.8 0 1 1 37.8 324 z"></path><path fill="black" stroke="none" d="M 73.8 324.125 A 1.8 1.8 0 1 1 73.8 324 z"></path><path fill="black" stroke="none" d="M 109.8 324.125 A 1.8 1.8 0 1 1 109.8 324 z"></path><path fill="black" stroke="none" d="M 145.8 324.125 A 1.8 1.8 0 1 1 145.8 324 z"></path><path fill="black" stroke="none" d="M 181.8 324.125 A 1.8 1.8 0 1 1 181.8 324 z"></path><path fill="black" stroke="none" d="M 217.8 324.125 A 1.8 1.8 0 1 1 217.8 324 z"></path><path fill="black" stroke="none" d="M 253.8 324.125 A 1.8 1.8 0 1 1 253.8 324 z"></path><path fill="black" stroke="none" d="M 289.8 324.125 A 1.8 1.8 0 1 1 289.8 324 z"></path><path fill="black" stroke="none" d="M 325.8 324.125 A 1.8 1.8 0 1 1 325.8 324 z"></path></g><g shape-rendering="crispEdges"><path fill="black" stroke="none" d="M -2 -2 L 2 -2 2 326 -2 326 z"></path><path fill="black" stroke="none" d="M 322 -2 L 326 -2 326 326 322 326 z"></path><path fill="black" stroke="none" d="M -2 -2 L 326 -2 326 2 -2 2 z"></path><path fill="black" stroke="none" d="M -2 322 L 326 322 326 326 -2 326 z"></path></g><g shape-rendering="auto"></g><g shape-rendering="auto"><text fill="black" x="162" y="27.799999999999997" text-anchor="middle" font-size="28">1</text><text fill="black" x="198" y="27.799999999999997" text-anchor="middle" font-size="28">3</text><text fill="black" x="234" y="27.799999999999997" text-anchor="middle" font-size="28">2</text><text fill="black" x="198" y="63.8" text-anchor="middle" font-size="28">3</text><text fill="black" x="198" y="99.8" text-anchor="middle" font-size="28">2</text><text fill="black" x="198" y="171.8" text-anchor="middle" font-size="28">2</text><text fill="black" x="198" y="243.8" text-anchor="middle" font-size="28">2</text><text fill="black" x="198" y="279.8" text-anchor="middle" font-size="28">1</text><text fill="black" x="162" y="315.8" text-anchor="middle" font-size="28">2</text><text fill="black" x="198" y="315.8" text-anchor="middle" font-size="28">1</text><text fill="black" x="306" y="315.8" text-anchor="middle" font-size="28">1</text></g><g shape-rendering="crispEdges"></g></svg>