<?xml version="1.0" encoding="UTF-8"?>
<svg xmlns="http://www.w3.org/2000/svg" xmlns:xlink="http://www.w3.org/1999/xlink" font-size="10px" font-family="sans-serif" width="357" height="357" viewBox="-3.5 -3.5 357 357"><g shape-rendering="crispEdges"><path fill="white" stroke="none" d="M -0.5 -0.5 L 350.5 -0.5 350.5 350.5 -0.5 350.5 z"></path></g><g shape-rendering="crispEdges"></g><g shape-rendering="crispEdges"><path fill="none" stroke="black" d="M 25 0 L 25 350" stroke-width="1" stroke-dasharray="1.953125 2.34375 3.90625 2.34375 3.90625 2.34375 3.90625 2.34375 1.953125 0"></path><path fill="none" stroke="black" d="M 50 0 L 50 350" stroke-width="1" stroke-dasharray="1.953125 2.34375 3.90625 2.34375 3.90625 2.34375 3.90625 2.34375 1.953125 0"></path><path fill="none" stroke="black" d="M 75 0 L 75 350" stroke-width="1" stroke-dasharray="1.953125 2.34375 3.90625 2.34375 3.90625 2.34375 3.90625 2.34375 1.953125 0"></path><path fill="none" stroke="black" d="M 100 0 L 100 350" stroke-width="1" stroke-dasharray="1.953125 2.34375 3.90625 2.34375 3.90625 2.34375 3.90625 2.34375 1.953125 0"></path><path fill="none" stroke="black" d="M 125 0 L 125 350" stroke-width="1" stroke-dasharray="1.953125 2.34375 3.90625 2.34375 3.90625 2.34375 3.90625 2.34375 1.953125 0"></path><path fill="none" stroke="black" d="M 150 0 L 150 350" stroke-width="1" stroke-dasharray="1.953125 2.34375 3.90625 2.34375 3.90625 2.34375 3.90625 2.34375 1.953125 0"></path><path fill="none" stroke="black" d="M 175 0 L 175 350" stroke-width="1" stroke-dasharray="1.953125 2.34375 3.90625 2.34375 3.90625 2.34375 3.90625 2.34375 1.953125 0"></path><path fill="none" stroke="black" d="M 200 0 L 200 350" stroke-width="1" stroke-dasharray="1.953125 2.34375 3.90625 2.34375 3.90625 2.34375 3.90625 2.34375 1.953125 0"></path><path fill="none" stroke="black" d="M 225 0 L 225 350" stroke-width="1" stroke-dasharray="1.953125 2.34375 3.90625 2.34375 3.90625 2.34375 3.90625 2.34375 1.953125 0"></path><path fill="none" stroke="black" d="M 250 0 L 250 350" stroke-width="1" stroke-dasharray="1.953125 2.34375 3.90625 2.34375 3.90625 2.34375 3.90625 2.34375 1.953125 0"></path><path fill="none" stroke="black" d="M 275 0 L 275 350" stroke-width="1" stroke-dasharray="1.953125 2.34375 3.90625 2.34375 3.90625 2.34375 3.90625 2.34375 1.953125 0"></path><path fill="none" stroke="black" d="M 300 0 L 300 350" stroke-width="1" stroke-dasharray="1.953125 2.34375 3.90625 2.34375 3.90625 2.34375 3.90625 2.34375 1.953125 0"></path><path fill="none" stroke="black" d="M 325 0 L 325 350" stroke-width="1" stroke-dasharray="1.953125 2.34375 3.90625 2.34375 3.90625 2.34375 3.90625 2.34375 1.953125 0"></path><path fill="none" stroke="black" d="M 0 25 L 350 25" stroke-width="1" stroke-dasharray="1.953125 2.34375 3.90625 2.34375 3.90625 2.34375 3.90625 2.34375 1.953125 0"></path><path fill="none" stroke="black" d="M 0 50 L 350 50" stroke-width="1" stroke-dasharray="1.953125 2.34375 3.90625 2.34375 3.90625 2.34375 3.90625 2.34375 1.953125 0"></path><path fill="none" stroke="black" d="M 0 75 L 350 75" stroke-width="1" stroke-dasharray="1.953125 2.34375 3.90625 2.34375 3.90625 2.34375 3.90625 2.34375 1.953125 0"></path><path fill="none" stroke="black" d="M 0 100 L 350 100" stroke-width="1" stroke-dasharray="1.953125 2.34375 3.90625 2.34375 3.90625 2.34375 3.90625 2.34375 1.953125 0"></path><path fill="none" stroke="black" d="M 0 125 L 350 125" stroke-width="1" stroke-dasharray="1.953125 2.34375 3.90625 2.34375 3.90625 2.34375 3.90625 2.34375 1.953125 0"></path><path fill="none" stroke="black" d="M 0 150 L 350 150" stroke-width="1" stroke-dasharray="1.953125 2.34375 3.90625 2.34375 3.90625 2.34375 3.90625 2.34375 1.953125 0"></path><path fill="none" stroke="black" d="M 0 175 L 350 175" stroke-width="1" stroke-dasharray="1.953125 2.34375 3.90625 2.34375 3.90625 2.34375 3.90625 2.34375 1.953125 0"></path><path fill="none" stroke="black" d="M 0 200 L 350 200" stroke-width="1" stroke-dasharray="1.953125 2.34375 3.90625 2.34375 3.90625 2.34375 3.90625 2.34375 1.953125 0"></path><path fill="none" stroke="black" d="M 0 225 L 350 225" stroke-width="1" stroke-dasharray="1.953125 2.34375 3.90625 2.34375 3.90625 2.34375 3.90625 2.34375 1.953125 0"></path><path fill="none" stroke="black" d="M 0 250 L 350 250" stroke-width="1" stroke-dasharray="1.953125 2.34375 3.90625 2.34375 3.90625 2.34375 3.90625 2.34375 1.953125 0"></path><path fill="none" stroke="black" d="M 0 275 L 350 275" stroke-width="1" stroke-dasharray="1.953125 2.34375 3.90625 2.34375 3.90625 2.34375 3.90625 2.34375 1.953125 0"></path><path fill="none" stroke="black" d="M 0 300 L 350 300" stroke-width="1" stroke-dasharray="1.953125 2.34375 3.90625 2.34375 3.90625 2.34375 3.90625 2.34375 1.953125 0"></path><path fill="none" stroke="black" d="M 0 325 L 350 325" stroke-width="1" stroke-dasharray="1.953125 2.34375 3.90625 2.34375 3.90625 2.34375 3.90625 2.34375 1.953125 0"></path></g><g shape-rendering="crispEdges"><path fill="black" stroke="none" d="M 73.5 -1.5 L 76.5 -1.5 76.5 26.5 73.5 26.5 z"></path><path fill="black" stroke="none" d="M 173.5 -1.5 L 176.5 -1.5 176.5 26.5 173.5 26.5 z"></path><path fill="black" stroke="none" d="M 248.5 -1.5 L 251.5 -1.5 251.5 26.5 248.5 26.5 z"></path><path fill="black" stroke="none" d="M 323.5 -1.5 L 326.5 -1.5 326.5 26.5 323.5 26.5 z"></path><path fill="black" stroke="none" d="M 23.5 23.5 L 51.5 23.5 51.5 26.5 23.5 26.5 z"></path><path fill="black" stroke="none" d="M 73.5 23.5 L 101.5 23.5 101.5 26.5 73.5 26.5 z"></path><path fill="black" stroke="none" d="M 98.5 23.5 L 126.5 23.5 126.5 26.5 98.5 26.5 z"></path><path fill="black" stroke="none" d="M 123.5 23.5 L 151.5 23.5 151.5 26.5 123.5 26.5 z"></path><path fill="black" stroke="none" d="M 273.5 23.5 L 301.5 23.5 301.5 26.5 273.5 26.5 z"></path><path fill="black" stroke="none" d="M 23.5 23.5 L 26.5 23.5 26.5 51.5 23.5 51.5 z"></path><path fill="black" stroke="none" d="M 48.5 23.5 L 51.5 23.5 51.5 51.5 48.5 51.5 z"></path><path fill="black" stroke="none" d="M 73.5 23.5 L 76.5 23.5 76.5 51.5 73.5 51.5 z"></path><path fill="black" stroke="none" d="M 148.5 23.5 L 151.5 23.5 151.5 51.5 148.5 51.5 z"></path><path fill="black" stroke="none" d="M 173.5 23.5 L 176.5 23.5 176.5 51.5 173.5 51.5 z"></path><path fill="black" stroke="none" d="M 248.5 23.5 L 251.5 23.5 251.5 51.5 248.5 51.5 z"></path><path fill="black" stroke="none" d="M 273.5 23.5 L 276.5 23.5 276.5 51.5 273.5 51.5 z"></path><path fill="black" stroke="none" d="M 298.5 23.5 L 301.5 23.5 301.5 51.5 298.5 51.5 z"></path><path fill="black" stroke="none" d="M 323.5 23.5 L 326.5 23.5 326.5 51.5 323.5 51.5 z"></path><path fill="black" stroke="none" d="M -1.5 48.5 L 26.5 48.5 26.5 51.5 -1.5 51.5 z"></path><path fill="black" stroke="none" d="M 73.5 48.5 L 101.5 48.5 101.5 51.5 73.5 51.5 z"></path><path fill="black" stroke="none" d="M 98.5 48.5 L 126.5 48.5 126.5 51.5 98.5 51.5 z"></path><path fill="black" stroke="none" d="M 248.5 48.5 L 276.5 48.5 276.5 51.5 248.5 51.5 z"></path><path fill="black" stroke="none" d="M 48.5 48.5 L 51.5 48.5 51.5 76.5 48.5 76.5 z"></path><path fill="black" stroke="none" d="M 123.5 48.5 L 126.5 48.5 126.5 76.5 123.5 76.5 z"></path><path fill="black" stroke="none" d="M 148.5 48.5 L 151.5 48.5 151.5 76.5 148.5 76.5 z"></path><path fill="black" stroke="none" d="M 173.5 48.5 L 176.5 48.5 176.5 76.5 173.5 76.5 z"></path><path fill="black" stroke="none" d="M 248.5 48.5 L 251.5 48.5 251.5 76.5 248.5 76.5 z"></path><path fill="black" stroke="none" d="M 298.5 48.5 L 301.5 48.5 301.5 76.5 298.5 76.5 z"></path><path fill="black" stroke="none" d="M 323.5 48.5 L 326.5 48.5 326.5 76.5 323.5 76.5 z"></path><path fill="black" stroke="none" d="M 23.5 73.5 L 51.5 73.5 51.5 76.5 23.5 76.5 z"></path><path fill="black" stroke="none" d="M 73.5 73.5 L 101.5 73.5 101.5 76.5 73.5 76.5 z"></path><path fill="black" stroke="none" d="M 98.5 73.5 L 126.5 73.5 126.5 76.5 98.5 76.5 z"></path><path fill="black" stroke="none" d="M 148.5 73.5 L 176.5 73.5 176.5 76.5 148.5 76.5 z"></path><path fill="black" stroke="none" d="M 223.5 73.5 L 251.5 73.5 251.5 76.5 223.5 76.5 z"></path><path fill="black" stroke="none" d="M 23.5 73.5 L 26.5 73.5 26.5 101.5 23.5 101.5 z"></path><path fill="black" stroke="none" d="M 48.5 73.5 L 51.5 73.5 51.5 101.5 48.5 101.5 z"></path><path fill="black" stroke="none" d="M 73.5 73.5 L 76.5 73.5 76.5 101.5 73.5 101.5 z"></path><path fill="black" stroke="none" d="M 223.5 73.5 L 226.5 73.5 226.5 101.5 223.5 101.5 z"></path><path fill="black" stroke="none" d="M 298.5 73.5 L 301.5 73.5 301.5 101.5 298.5 101.5 z"></path><path fill="black" stroke="none" d="M 323.5 73.5 L 326.5 73.5 326.5 101.5 323.5 101.5 z"></path><path fill="black" stroke="none" d="M 48.5 98.5 L 76.5 98.5 76.5 101.5 48.5 101.5 z"></path><path fill="black" stroke="none" d="M 198.5 98.5 L 226.5 98.5 226.5 101.5 198.5 101.5 z"></path><path fill="black" stroke="none" d="M 298.5 98.5 L 326.5 98.5 326.5 101.5 298.5 101.5 z"></path><path fill="black" stroke="none" d="M 23.5 98.5 L 26.5 98.5 26.5 126.5 23.5 126.5 z"></path><path fill="black" stroke="none" d="M 198.5 98.5 L 201.5 98.5 201.5 126.5 198.5 126.5 z"></path><path fill="black" stroke="none" d="M 298.5 98.5 L 301.5 98.5 301.5 126.5 298.5 126.5 z"></path><path fill="black" stroke="none" d="M 23.5 123.5 L 51.5 123.5 51.5 126.5 23.5 126.5 z"></path><path fill="black" stroke="none" d="M 48.5 123.5 L 76.5 123.5 76.5 126.5 48.5 126.5 z"></path><path fill="black" stroke="none" d="M 73.5 123.5 L 101.5 123.5 101.5 126.5 73.5 126.5 z"></path><path fill="black" stroke="none" d="M 248.5 123.5 L 276.5 123.5 276.5 126.5 248.5 126.5 z"></path><path fill="black" stroke="none" d="M 98.5 123.5 L 101.5 123.5 101.5 151.5 98.5 151.5 z"></path><path fill="black" stroke="none" d="M 198.5 123.5 L 201.5 123.5 201.5 151.5 198.5 151.5 z"></path><path fill="black" stroke="none" d="M 248.5 123.5 L 251.5 123.5 251.5 151.5 248.5 151.5 z"></path><path fill="black" stroke="none" d="M 273.5 123.5 L 276.5 123.5 276.5 151.5 273.5 151.5 z"></path><path fill="black" stroke="none" d="M 298.5 123.5 L 301.5 123.5 301.5 151.5 298.5 151.5 z"></path><path fill="black" stroke="none" d="M -1.5 148.5 L 26.5 148.5 26.5 151.5 -1.5 151.5 z"></path><path fill="black" stroke="none" d="M 23.5 148.5 L 51.5 148.5 51.5 151.5 23.5 151.5 z"></path><path fill="black" stroke="none" d="M 48.5 148.5 L 76.5 148.5 76.5 151.5 48.5 151.5 z"></path><path fill="black" stroke="none" d="M 73.5 148.5 L 101.5 148.5 101.5 151.5 73.5 151.5 z"></path><path fill="black" stroke="none" d="M 173.5 148.5 L 201.5 148.5 201.5 151.5 173.5 151.5 z"></path><path fill="black" stroke="none" d="M 223.5 148.5 L 251.5 148.5 251.5 151.5 223.5 151.5 z"></path><path fill="black" stroke="none" d="M 48.5 148.5 L 51.5 148.5 51.5 176.5 48.5 176.5 z"></path><path fill="black" stroke="none" d="M 173.5 148.5 L 176.5 148.5 176.5 176.5 173.5 176.5 z"></path><path fill="black" stroke="none" d="M 223.5 148.5 L 226.5 148.5 226.5 176.5 223.5 176.5 z"></path><path fill="black" stroke="none" d="M 273.5 148.5 L 276.5 148.5 276.5 176.5 273.5 176.5 z"></path><path fill="black" stroke="none" d="M 298.5 148.5 L 301.5 148.5 301.5 176.5 298.5 176.5 z"></path><path fill="black" stroke="none" d="M 23.5 173.5 L 51.5 173.5 51.5 176.5 23.5 176.5 z"></path><path fill="black" stroke="none" d="M 73.5 173.5 L 101.5 173.5 101.5 176.5 73.5 176.5 z"></path><path fill="black" stroke="none" d="M 98.5 173.5 L 126.5 173.5 126.5 176.5 98.5 176.5 z"></path><path fill="black" stroke="none" d="M 123.5 173.5 L 151.5 173.5 151.5 176.5 123.5 176.5 z"></path><path fill="black" stroke="none" d="M 148.5 173.5 L 176.5 173.5 176.5 176.5 148.5 176.5 z"></path><path fill="black" stroke="none" d="M 223.5 173.5 L 251.5 173.5 251.5 176.5 223.5 176.5 z"></path><path fill="black" stroke="none" d="M 273.5 173.5 L 301.5 173.5 301.5 176.5 273.5 176.5 z"></path><path fill="black" stroke="none" d="M 23.5 173.5 L 26.5 173.5 26.5 201.5 23.5 201.5 z"></path><path fill="black" stroke="none" d="M 73.5 173.5 L 76.5 173.5 76.5 201.5 73.5 201.5 z"></path><path fill="black" stroke="none" d="M 123.5 173.5 L 126.5 173.5 126.5 201.5 123.5 201.5 z"></path><path fill="black" stroke="none" d="M 173.5 173.5 L 176.5 173.5 176.5 201.5 173.5 201.5 z"></path><path fill="black" stroke="none" d="M 248.5 173.5 L 251.5 173.5 251.5 201.5 248.5 201.5 z"></path><path fill="black" stroke="none" d="M 273.5 173.5 L 276.5 173.5 276.5 201.5 273.5 201.5 z"></path><path fill="black" stroke="none" d="M 23.5 198.5 L 51.5 198.5 51.5 201.5 23.5 201.5 z"></path><path fill="black" stroke="none" d="M 48.5 198.5 L 76.5 198.5 76.5 201.5 48.5 201.5 z"></path><path fill="black" stroke="none" d="M 98.5 198.5 L 126.5 198.5 126.5 201.5 98.5 201.5 z"></path><path fill="black" stroke="none" d="M 173.5 198.5 L 201.5 198.5 201.5 201.5 173.5 201.5 z"></path><path fill="black" stroke="none" d="M 223.5 198.5 L 251.5 198.5 251.5 201.5 223.5 201.5 z"></path><path fill="black" stroke="none" d="M 23.5 198.5 L 26.5 198.5 26.5 226.5 23.5 226.5 z"></path><path fill="black" stroke="none" d="M 98.5 198.5 L 101.5 198.5 101.5 226.5 98.5 226.5 z"></path><path fill="black" stroke="none" d="M 173.5 198.5 L 176.5 198.5 176.5 226.5 173.5 226.5 z"></path><path fill="black" stroke="none" d="M 198.5 198.5 L 201.5 198.5 201.5 226.5 198.5 226.5 z"></path><path fill="black" stroke="none" d="M 223.5 198.5 L 226.5 198.5 226.5 226.5 223.5 226.5 z"></path><path fill="black" stroke="none" d="M 273.5 198.5 L 276.5 198.5 276.5 226.5 273.5 226.5 z"></path><path fill="black" stroke="none" d="M 48.5 223.5 L 76.5 223.5 76.5 226.5 48.5 226.5 z"></path><path fill="black" stroke="none" d="M 73.5 223.5 L 101.5 223.5 101.5 226.5 73.5 226.5 z"></path><path fill="black" stroke="none" d="M 123.5 223.5 L 151.5 223.5 151.5 226.5 123.5 226.5 z"></path><path fill="black" stroke="none" d="M 148.5 223.5 L 176.5 223.5 176.5 226.5 148.5 226.5 z"></path><path fill="black" stroke="none" d="M 223.5 223.5 L 251.5 223.5 251.5 226.5 223.5 226.5 z"></path><path fill="black" stroke="none" d="M 273.5 223.5 L 301.5 223.5 301.5 226.5 273.5 226.5 z"></path><path fill="black" stroke="none" d="M 298.5 223.5 L 326.5 223.5 326.5 226.5 298.5 226.5 z"></path><path fill="black" stroke="none" d="M 23.5 223.5 L 26.5 223.5 26.5 251.5 23.5 251.5 z"></path><path fill="black" stroke="none" d="M 48.5 223.5 L 51.5 223.5 51.5 251.5 48.5 251.5 z"></path><path fill="black" stroke="none" d="M 123.5 223.5 L 126.5 223.5 126.5 251.5 123.5 251.5 z"></path><path fill="black" stroke="none" d="M 198.5 223.5 L 201.5 223.5 201.5 251.5 198.5 251.5 z"></path><path fill="black" stroke="none" d="M 248.5 223.5 L 251.5 223.5 251.5 251.5 248.5 251.5 z"></path><path fill="black" stroke="none" d="M 323.5 223.5 L 326.5 223.5 326.5 251.5 323.5 251.5 z"></path><path fill="black" stroke="none" d="M 123.5 248.5 L 151.5 248.5 151.5 251.5 123.5 251.5 z"></path><path fill="black" stroke="none" d="M 198.5 248.5 L 226.5 248.5 226.5 251.5 198.5 251.5 z"></path><path fill="black" stroke="none" d="M 223.5 248.5 L 251.5 248.5 251.5 251.5 223.5 251.5 z"></path><path fill="black" stroke="none" d="M 323.5 248.5 L 351.5 248.5 351.5 251.5 323.5 251.5 z"></path><path fill="black" stroke="none" d="M 23.5 248.5 L 26.5 248.5 26.5 276.5 23.5 276.5 z"></path><path fill="black" stroke="none" d="M 48.5 248.5 L 51.5 248.5 51.5 276.5 48.5 276.5 z"></path><path fill="black" stroke="none" d="M 148.5 248.5 L 151.5 248.5 151.5 276.5 148.5 276.5 z"></path><path fill="black" stroke="none" d="M 248.5 248.5 L 251.5 248.5 251.5 276.5 248.5 276.5 z"></path><path fill="black" stroke="none" d="M 323.5 248.5 L 326.5 248.5 326.5 276.5 323.5 276.5 z"></path><path fill="black" stroke="none" d="M 23.5 273.5 L 51.5 273.5 51.5 276.5 23.5 276.5 z"></path><path fill="black" stroke="none" d="M 48.5 273.5 L 76.5 273.5 76.5 276.5 48.5 276.5 z"></path><path fill="black" stroke="none" d="M 73.5 273.5 L 101.5 273.5 101.5 276.5 73.5 276.5 z"></path><path fill="black" stroke="none" d="M 148.5 273.5 L 176.5 273.5 176.5 276.5 148.5 276.5 z"></path><path fill="black" stroke="none" d="M 198.5 273.5 L 226.5 273.5 226.5 276.5 198.5 276.5 z"></path><path fill="black" stroke="none" d="M 223.5 273.5 L 251.5 273.5 251.5 276.5 223.5 276.5 z"></path><path fill="black" stroke="none" d="M 248.5 273.5 L 276.5 273.5 276.5 276.5 248.5 276.5 z"></path><path fill="black" stroke="none" d="M 273.5 273.5 L 301.5 273.5 301.5 276.5 273.5 276.5 z"></path><path fill="black" stroke="none" d="M 298.5 273.5 L 326.5 273.5 326.5 276.5 298.5 276.5 z"></path><path fill="black" stroke="none" d="M 73.5 273.5 L 76.5 273.5 76.5 301.5 73.5 301.5 z"></path><path fill="black" stroke="none" d="M 98.5 273.5 L 101.5 273.5 101.5 301.5 98.5 301.5 z"></path><path fill="black" stroke="none" d="M 173.5 273.5 L 176.5 273.5 176.5 301.5 173.5 301.5 z"></path><path fill="black" stroke="none" d="M 198.5 273.5 L 201.5 273.5 201.5 301.5 198.5 301.5 z"></path><path fill="black" stroke="none" d="M -1.5 298.5 L 26.5 298.5 26.5 301.5 -1.5 301.5 z"></path><path fill="black" stroke="none" d="M 23.5 298.5 L 51.5 298.5 51.5 301.5 23.5 301.5 z"></path><path fill="black" stroke="none" d="M 148.5 298.5 L 176.5 298.5 176.5 301.5 148.5 301.5 z"></path><path fill="black" stroke="none" d="M 198.5 298.5 L 226.5 298.5 226.5 301.5 198.5 301.5 z"></path><path fill="black" stroke="none" d="M 223.5 298.5 L 251.5 298.5 251.5 301.5 223.5 301.5 z"></path><path fill="black" stroke="none" d="M 248.5 298.5 L 276.5 298.5 276.5 301.5 248.5 301.5 z"></path><path fill="black" stroke="none" d="M 273.5 298.5 L 301.5 298.5 301.5 301.5 273.5 301.5 z"></path><path fill="black" stroke="none" d="M 298.5 298.5 L 326.5 298.5 326.5 301.5 298.5 301.5 z"></path><path fill="black" stroke="none" d="M 323.5 298.5 L 351.5 298.5 351.5 301.5 323.5 301.5 z"></path><path fill="black" stroke="none" d="M 48.5 298.5 L 51.5 298.5 51.5 326.5 48.5 326.5 z"></path><path fill="black" stroke="none" d="M 73.5 298.5 L 76.5 298.5 76.5 326.5 73.5 326.5 z"></path><path fill="black" stroke="none" d="M 98.5 298.5 L 101.5 298.5 101.5 326.5 98.5 326.5 z"></path><path fill="black" stroke="none" d="M 148.5 298.5 L 151.5 298.5 151.5 326.5 148.5 326.5 z"></path><path fill="black" stroke="none" d="M 173.5 298.5 L 176.5 298.5 176.5 326.5 173.5 326.5 z"></path><path fill="black" stroke="none" d="M 48.5 323.5 L 76.5 323.5 76.5 326.5 48.5 326.5 z"></path><path fill="black" stroke="none" d="M 98.5 323.5 L 126.5 323.5 126.5 326.5 98.5 326.5 z"></path><path fill="black" stroke="none" d="M 123.5 323.5 L 151.5 323.5 151.5 326.5 123.5 326.5 z"></path><path fill="black" stroke="none" d="M 173.5 323.5 L 201.5 323.5 201.5 326.5 173.5 326.5 z"></path><path fill="black" stroke="none" d="M 198.5 323.5 L 226.5 323.5 226.5 326.5 198.5 326.5 z"></path><path fill="black" stroke="none" d="M 223.5 323.5 L 251.5 323.5 251.5 326.5 223.5 326.5 z"></path><path fill="black" stroke="none" d="M 248.5 323.5 L 276.5 323.5 276.5 326.5 248.5 326.5 z"></path><path fill="black" stroke="none" d="M 273.5 323.5 L 276.5 323.5 276.5 351.5 273.5 351.5 z"></path></g><g shape-rendering="auto"></g><g shape-rendering="auto"><path fill="none" stroke="rgb(0, 160, 0)" d="M 10 12.5 L 15 12.5" stroke-width="2"></path><path fill="none" stroke="rgb(0, 160, 0)" d="M 60 12.5 L 65 12.5" stroke-width="2"></path><path fill="none" stroke="rgb(0, 160, 0)" d="M 110 12.5 L 115 12.5" stroke-width="2"></path><path fill="none" stroke="rgb(0, 160, 0)" d="M 160 12.5 L 165 12.5" stroke-width="2"></path><path fill="none" stroke="rgb(0, 160, 0)" d="M 185 12.5 L 190 12.5" stroke-width="2"></path><path fill="none" stroke="rgb(0, 160, 0)" d="M 210 12.5 L 215 12.5" stroke-width="2"></path><path fill="none" stroke="rgb(0, 160, 0)" d="M 235 12.5 L 240 12.5" stroke-width="2"></path><path fill="none" stroke="rgb(0, 160, 0)" d="M 260 12.5 L 265 12.5" stroke-width="2"></path><path fill="none" stroke="rgb(0, 160, 0)" d="M 285 12.5 L 290 12.5" stroke-width="2"></path><path fill="none" stroke="rgb(0, 160, 0)" d="M 310 12.5 L 315 12.5" stroke-width="2"></path><path fill="none" stroke="rgb(0, 160, 0)" d="M 335 12.5 L 340 12.5" stroke-width="2"></path><path fill="none" stroke="rgb(0, 160, 0)" d="M 10 37.5 L 15 37.5" stroke-width="2"></path><path fill="none" stroke="rgb(0, 160, 0)" d="M 35 37.5 L 40 37.5" stroke-width="2"></path><path fill="none" stroke="rgb(0, 160, 0)" d="M 60 37.5 L 65 37.5" stroke-width="2"></path><path fill="none" stroke="rgb(0, 160, 0)" d="M 85 37.5 L 90 37.5" stroke-width="2"></path><path fill="none" stroke="rgb(0, 160, 0)" d="M 110 37.5 L 115 37.5" stroke-width="2"></path><path fill="none" stroke="rgb(0, 160, 0)" d="M 135 37.5 L 140 37.5" stroke-width="2"></path><path fill="none" stroke="rgb(0, 160, 0)" d="M 160 37.5 L 165 37.5" stroke-width="2"></path><path fill="none" stroke="rgb(0, 160, 0)" d="M 185 37.5 L 190 37.5" stroke-width="2"></path><path fill="none" stroke="rgb(0, 160, 0)" d="M 235 37.5 L 240 37.5" stroke-width="2"></path><path fill="none" stroke="rgb(0, 160, 0)" d="M 285 37.5 L 290 37.5" stroke-width="2"></path><path fill="none" stroke="rgb(0, 160, 0)" d="M 335 37.5 L 340 37.5" stroke-width="2"></path><path fill="none" stroke="rgb(0, 160, 0)" d="M 35 62.5 L 40 62.5" stroke-width="2"></path><path fill="none" stroke="rgb(0, 160, 0)" d="M 60 62.5 L 65 62.5" stroke-width="2"></path><path fill="none" stroke="rgb(0, 160, 0)" d="M 85 62.5 L 90 62.5" stroke-width="2"></path><path fill="none" stroke="rgb(0, 160, 0)" d="M 135 62.5 L 140 62.5" stroke-width="2"></path><path fill="none" stroke="rgb(0, 160, 0)" d="M 185 62.5 L 190 62.5" stroke-width="2"></path><path fill="none" stroke="rgb(0, 160, 0)" d="M 210 62.5 L 215 62.5" stroke-width="2"></path><path fill="none" stroke="rgb(0, 160, 0)" d="M 235 62.5 L 240 62.5" stroke-width="2"></path><path fill="none" stroke="rgb(0, 160, 0)" d="M 260 62.5 L 265 62.5" stroke-width="2"></path><path fill="none" stroke="rgb(0, 160, 0)" d="M 285 62.5 L 290 62.5" stroke-width="2"></path><path fill="none" stroke="rgb(0, 160, 0)" d="M 310 62.5 L 315 62.5" stroke-width="2"></path><path fill="none" stroke="rgb(0, 160, 0)" d="M 335 62.5 L 340 62.5" stroke-width="2"></path><path fill="none" stroke="rgb(0, 160, 0)" d="M 10 87.5 L 15 87.5" stroke-width="2"></path><path fill="none" stroke="rgb(0, 160, 0)" d="M 35 87.5 L 40 87.5" stroke-width="2"></path><path fill="none" stroke="rgb(0, 160, 0)" d="M 85 87.5 L 90 87.5" stroke-width="2"></path><path fill="none" stroke="rgb(0, 160, 0)" d="M 110 87.5 L 115 87.5" stroke-width="2"></path><path fill="none" stroke="rgb(0, 160, 0)" d="M 135 87.5 L 140 87.5" stroke-width="2"></path><path fill="none" stroke="rgb(0, 160, 0)" d="M 160 87.5 L 165 87.5" stroke-width="2"></path><path fill="none" stroke="rgb(0, 160, 0)" d="M 185 87.5 L 190 87.5" stroke-width="2"></path><path fill="none" stroke="rgb(0, 160, 0)" d="M 210 87.5 L 215 87.5" stroke-width="2"></path><path fill="none" stroke="rgb(0, 160, 0)" d="M 260 87.5 L 265 87.5" stroke-width="2"></path><path fill="none" stroke="rgb(0, 160, 0)" d="M 285 87.5 L 290 87.5" stroke-width="2"></path><path fill="none" stroke="rgb(0, 160, 0)" d="M 335 87.5 L 340 87.5" stroke-width="2"></path><path fill="none" stroke="rgb(0, 160, 0)" d="M 35 112.5 L 40 112.5" stroke-width="2"></path><path fill="none" stroke="rgb(0, 160, 0)" d="M 60 112.5 L 65 112.5" stroke-width="2"></path><path fill="none" stroke="rgb(0, 160, 0)" d="M 85 112.5 L 90 112.5" stroke-width="2"></path><path fill="none" stroke="rgb(0, 160, 0)" d="M 110 112.5 L 115 112.5" stroke-width="2"></path><path fill="none" stroke="rgb(0, 160, 0)" d="M 160 112.5 L 165 112.5" stroke-width="2"></path><path fill="none" stroke="rgb(0, 160, 0)" d="M 210 112.5 L 215 112.5" stroke-width="2"></path><path fill="none" stroke="rgb(0, 160, 0)" d="M 235 112.5 L 240 112.5" stroke-width="2"></path><path fill="none" stroke="rgb(0, 160, 0)" d="M 260 112.5 L 265 112.5" stroke-width="2"></path><path fill="none" stroke="rgb(0, 160, 0)" d="M 285 112.5 L 290 112.5" stroke-width="2"></path><path fill="none" stroke="rgb(0, 160, 0)" d="M 310 112.5 L 315 112.5" stroke-width="2"></path><path fill="none" stroke="rgb(0, 160, 0)" d="M 335 112.5 L 340 112.5" stroke-width="2"></path><path fill="none" stroke="rgb(0, 160, 0)" d="M 10 137.5 L 15 137.5" stroke-width="2"></path><path fill="none" stroke="rgb(0, 160, 0)" d="M 35 137.5 L 40 137.5" stroke-width="2"></path><path fill="none" stroke="rgb(0, 160, 0)" d="M 60 137.5 L 65 137.5" stroke-width="2"></path><path fill="none" stroke="rgb(0, 160, 0)" d="M 110 137.5 L 115 137.5" stroke-width="2"></path><path fill="none" stroke="rgb(0, 160, 0)" d="M 135 137.5 L 140 137.5" stroke-width="2"></path><path fill="none" stroke="rgb(0, 160, 0)" d="M 160 137.5 L 165 137.5" stroke-width="2"></path><path fill="none" stroke="rgb(0, 160, 0)" d="M 185 137.5 L 190 137.5" stroke-width="2"></path><path fill="none" stroke="rgb(0, 160, 0)" d="M 210 137.5 L 215 137.5" stroke-width="2"></path><path fill="none" stroke="rgb(0, 160, 0)" d="M 235 137.5 L 240 137.5" stroke-width="2"></path><path fill="none" stroke="rgb(0, 160, 0)" d="M 260 137.5 L 265 137.5" stroke-width="2"></path><path fill="none" stroke="rgb(0, 160, 0)" d="M 310 137.5 L 315 137.5" stroke-width="2"></path><path fill="none" stroke="rgb(0, 160, 0)" d="M 10 162.5 L 15 162.5" stroke-width="2"></path><path fill="none" stroke="rgb(0, 160, 0)" d="M 60 162.5 L 65 162.5" stroke-width="2"></path><path fill="none" stroke="rgb(0, 160, 0)" d="M 85 162.5 L 90 162.5" stroke-width="2"></path><path fill="none" stroke="rgb(0, 160, 0)" d="M 110 162.5 L 115 162.5" stroke-width="2"></path><path fill="none" stroke="rgb(0, 160, 0)" d="M 135 162.5 L 140 162.5" stroke-width="2"></path><path fill="none" stroke="rgb(0, 160, 0)" d="M 160 162.5 L 165 162.5" stroke-width="2"></path><path fill="none" stroke="rgb(0, 160, 0)" d="M 210 162.5 L 215 162.5" stroke-width="2"></path><path fill="none" stroke="rgb(0, 160, 0)" d="M 260 162.5 L 265 162.5" stroke-width="2"></path><path fill="none" stroke="rgb(0, 160, 0)" d="M 285 162.5 L 290 162.5" stroke-width="2"></path><path fill="none" stroke="rgb(0, 160, 0)" d="M 310 162.5 L 315 162.5" stroke-width="2"></path><path fill="none" stroke="rgb(0, 160, 0)" d="M 335 162.5 L 340 162.5" stroke-width="2"></path><path fill="none" stroke="rgb(0, 160, 0)" d="M 10 187.5 L 15 187.5" stroke-width="2"></path><path fill="none" stroke="rgb(0, 160, 0)" d="M 35 187.5 L 40 187.5" stroke-width="2"></path><path fill="none" stroke="rgb(0, 160, 0)" d="M 60 187.5 L 65 187.5" stroke-width="2"></path><path fill="none" stroke="rgb(0, 160, 0)" d="M 85 187.5 L 90 187.5" stroke-width="2"></path><path fill="none" stroke="rgb(0, 160, 0)" d="M 135 187.5 L 140 187.5" stroke-width="2"></path><path fill="none" stroke="rgb(0, 160, 0)" d="M 160 187.5 L 165 187.5" stroke-width="2"></path><path fill="none" stroke="rgb(0, 160, 0)" d="M 185 187.5 L 190 187.5" stroke-width="2"></path><path fill="none" stroke="rgb(0, 160, 0)" d="M 210 187.5 L 215 187.5" stroke-width="2"></path><path fill="none" stroke="rgb(0, 160, 0)" d="M 235 187.5 L 240 187.5" stroke-width="2"></path><path fill="none" stroke="rgb(0, 160, 0)" d="M 260 187.5 L 265 187.5" stroke-width="2"></path><path fill="none" stroke="rgb(0, 160, 0)" d="M 310 187.5 L 315 187.5" stroke-width="2"></path><path fill="none" stroke="rgb(0, 160, 0)" d="M 35 212.5 L 40 212.5" stroke-width="2"></path><path fill="none" stroke="rgb(0, 160, 0)" d="M 85 212.5 L 90 212.5" stroke-width="2"></path><path fill="none" stroke="rgb(0, 160, 0)" d="M 110 212.5 L 115 212.5" stroke-width="2"></path><path fill="none" stroke="rgb(0, 160, 0)" d="M 135 212.5 L 140 212.5" stroke-width="2"></path><path fill="none" stroke="rgb(0, 160, 0)" d="M 160 212.5 L 165 212.5" stroke-width="2"></path><path fill="none" stroke="rgb(0, 160, 0)" d="M 185 212.5 L 190 212.5" stroke-width="2"></path><path fill="none" stroke="rgb(0, 160, 0)" d="M 210 212.5 L 215 212.5" stroke-width="2"></path><path fill="none" stroke="rgb(0, 160, 0)" d="M 260 212.5 L 265 212.5" stroke-width="2"></path><path fill="none" stroke="rgb(0, 160, 0)" d="M 285 212.5 L 290 212.5" stroke-width="2"></path><path fill="none" stroke="rgb(0, 160, 0)" d="M 310 212.5 L 315 212.5" stroke-width="2"></path><path fill="none" stroke="rgb(0, 160, 0)" d="M 335 212.5 L 340 212.5" stroke-width="2"></path><path fill="none" stroke="rgb(0, 160, 0)" d="M 10 237.5 L 15 237.5" stroke-width="2"></path><path fill="none" stroke="rgb(0, 160, 0)" d="M 35 237.5 L 40 237.5" stroke-width="2"></path><path fill="none" stroke="rgb(0, 160, 0)" d="M 60 237.5 L 65 237.5" stroke-width="2"></path><path fill="none" stroke="rgb(0, 160, 0)" d="M 85 237.5 L 90 237.5" stroke-width="2"></path><path fill="none" stroke="rgb(0, 160, 0)" d="M 110 237.5 L 115 237.5" stroke-width="2"></path><path fill="none" stroke="rgb(0, 160, 0)" d="M 160 237.5 L 165 237.5" stroke-width="2"></path><path fill="none" stroke="rgb(0, 160, 0)" d="M 210 237.5 L 215 237.5" stroke-width="2"></path><path fill="none" stroke="rgb(0, 160, 0)" d="M 235 237.5 L 240 237.5" stroke-width="2"></path><path fill="none" stroke="rgb(0, 160, 0)" d="M 260 237.5 L 265 237.5" stroke-width="2"></path><path fill="none" stroke="rgb(0, 160, 0)" d="M 310 237.5 L 315 237.5" stroke-width="2"></path><path fill="none" stroke="rgb(0, 160, 0)" d="M 335 237.5 L 340 237.5" stroke-width="2"></path><path fill="none" stroke="rgb(0, 160, 0)" d="M 10 262.5 L 15 262.5" stroke-width="2"></path><path fill="none" stroke="rgb(0, 160, 0)" d="M 60 262.5 L 65 262.5" stroke-width="2"></path><path fill="none" stroke="rgb(0, 160, 0)" d="M 110 262.5 L 115 262.5" stroke-width="2"></path><path fill="none" stroke="rgb(0, 160, 0)" d="M 135 262.5 L 140 262.5" stroke-width="2"></path><path fill="none" stroke="rgb(0, 160, 0)" d="M 160 262.5 L 165 262.5" stroke-width="2"></path><path fill="none" stroke="rgb(0, 160, 0)" d="M 185 262.5 L 190 262.5" stroke-width="2"></path><path fill="none" stroke="rgb(0, 160, 0)" d="M 210 262.5 L 215 262.5" stroke-width="2"></path><path fill="none" stroke="rgb(0, 160, 0)" d="M 235 262.5 L 240 262.5" stroke-width="2"></path><path fill="none" stroke="rgb(0, 160, 0)" d="M 260 262.5 L 265 262.5" stroke-width="2"></path><path fill="none" stroke="rgb(0, 160, 0)" d="M 285 262.5 L 290 262.5" stroke-width="2"></path><path fill="none" stroke="rgb(0, 160, 0)" d="M 310 262.5 L 315 262.5" stroke-width="2"></path><path fill="none" stroke="rgb(0, 160, 0)" d="M 10 287.5 L 15 287.5" stroke-width="2"></path><path fill="none" stroke="rgb(0, 160, 0)" d="M 35 287.5 L 40 287.5" stroke-width="2"></path><path fill="none" stroke="rgb(0, 160, 0)" d="M 60 287.5 L 65 287.5" stroke-width="2"></path><path fill="none" stroke="rgb(0, 160, 0)" d="M 85 287.5 L 90 287.5" stroke-width="2"></path><path fill="none" stroke="rgb(0, 160, 0)" d="M 110 287.5 L 115 287.5" stroke-width="2"></path><path fill="none" stroke="rgb(0, 160, 0)" d="M 135 287.5 L 140 287.5" stroke-width="2"></path><path fill="none" stroke="rgb(0, 160, 0)" d="M 185 287.5 L 190 287.5" stroke-width="2"></path><path fill="none" stroke="rgb(0, 160, 0)" d="M 235 287.5 L 240 287.5" stroke-width="2"></path><path fill="none" stroke="rgb(0, 160, 0)" d="M 285 287.5 L 290 287.5" stroke-width="2"></path><path fill="none" stroke="rgb(0, 160, 0)" d="M 310 287.5 L 315 287.5" stroke-width="2"></path><path fill="none" stroke="rgb(0, 160, 0)" d="M 335 287.5 L 340 287.5" stroke-width="2"></path><path fill="none" stroke="rgb(0, 160, 0)" d="M 10 312.5 L 15 312.5" stroke-width="2"></path><path fill="none" stroke="rgb(0, 160, 0)" d="M 35 312.5 L 40 312.5" stroke-width="2"></path><path fill="none" stroke="rgb(0, 160, 0)" d="M 85 312.5 L 90 312.5" stroke-width="2"></path><path fill="none" stroke="rgb(0, 160, 0)" d="M 135 312.5 L 140 312.5" stroke-width="2"></path><path fill="none" stroke="rgb(0, 160, 0)" d="M 160 312.5 L 165 312.5" stroke-width="2"></path><path fill="none" stroke="rgb(0, 160, 0)" d="M 185 312.5 L 190 312.5" stroke-width="2"></path><path fill="none" stroke="rgb(0, 160, 0)" d="M 210 312.5 L 215 312.5" stroke-width="2"></path><path fill="none" stroke="rgb(0, 160, 0)" d="M 235 312.5 L 240 312.5" stroke-width="2"></path><path fill="none" stroke="rgb(0, 160, 0)" d="M 260 312.5 L 265 312.5" stroke-width="2"></path><path fill="none" stroke="rgb(0, 160, 0)" d="M 285 312.5 L 290 312.5" stroke-width="2"></path><path fill="none" stroke="rgb(0, 160, 0)" d="M 335 312.5 L 340 312.5" stroke-width="2"></path><path fill="none" stroke="rgb(0, 160, 0)" d="M 10 337.5 L 15 337.5" stroke-width="2"></path><path fill="none" stroke="rgb(0, 160, 0)" d="M 35 337.5 L 40 337.5" stroke-width="2"></path><path fill="none" stroke="rgb(0, 160, 0)" d="M 60 337.5 L 65 337.5" stroke-width="2"></path><path fill="none" stroke="rgb(0, 160, 0)" d="M 85 337.5 L 90 337.5" stroke-width="2"></path><path fill="none" stroke="rgb(0, 160, 0)" d="M 110 337.5 L 115 337.5" stroke-width="2"></path><path fill="none" stroke="rgb(0, 160, 0)" d="M 135 337.5 L 140 337.5" stroke-width="2"></path><path fill="none" stroke="rgb(0, 160, 0)" d="M 185 337.5 L 190 337.5" stroke-width="2"></path><path fill="none" stroke="rgb(0, 160, 0)" d="M 235 337.5 L 240 337.5" stroke-width="2"></path><path fill="none" stroke="rgb(0, 160, 0)" d="M 285 337.5 L 290 337.5" stroke-width="2"></path><path fill="none" stroke="rgb(0, 160, 0)" d="M 310 337.5 L 315 337.5" stroke-width="2"></path><path fill="none" stroke="rgb(0, 160, 0)" d="M 335 337.5 L 340 337.5" stroke-width="2"></path></g><g shape-rendering="auto"><path fill="rgb(0, 160, 0)" stroke="none" d="M 37.5 2.5 L 39.85 9.41 47 9.41 41.3 13.74 43.38 20.59 37.5 16.5 31.62 20.59 33.7 13.74 28 9.41 35.15 9.41 z"></path><path fill="rgb(0, 160, 0)" stroke="none" d="M 87.5 2.5 L 89.85 9.41 97 9.41 91.3 13.74 93.38 20.59 87.5 16.5 81.62 20.59 83.7 13.74 78 9.41 85.15 9.41 z"></path><path fill="rgb(0, 160, 0)" stroke="none" d="M 137.5 2.5 L 139.85 9.41 147 9.41 141.3 13.74 143.38 20.59 137.5 16.5 131.62 20.59 133.7 13.74 128 9.41 135.15 9.41 z"></path><path fill="rgb(0, 160, 0)" stroke="none" d="M 212.5 27.5 L 214.85 34.41 222 34.41 216.3 38.74 218.38 45.59 212.5 41.5 206.62 45.59 208.7 38.74 203 34.41 210.15 34.41 z"></path><path fill="rgb(0, 160, 0)" stroke="none" d="M 262.5 27.5 L 264.85 34.41 272 34.41 266.3 38.74 268.38 45.59 262.5 41.5 256.62 45.59 258.7 38.74 253 34.41 260.15 34.41 z"></path><path fill="rgb(0, 160, 0)" stroke="none" d="M 312.5 27.5 L 314.85 34.41 322 34.41 316.3 38.74 318.38 45.59 312.5 41.5 306.62 45.59 308.7 38.74 303 34.41 310.15 34.41 z"></path><path fill="rgb(0, 160, 0)" stroke="none" d="M 12.5 52.5 L 14.85 59.41 22 59.41 16.3 63.74 18.38 70.59 12.5 66.5 6.62 70.59 8.7 63.74 3 59.41 10.15 59.41 z"></path><path fill="rgb(0, 160, 0)" stroke="none" d="M 112.5 52.5 L 114.85 59.41 122 59.41 116.3 63.74 118.38 70.59 112.5 66.5 106.62 70.59 108.7 63.74 103 59.41 110.15 59.41 z"></path><path fill="rgb(0, 160, 0)" stroke="none" d="M 162.5 52.5 L 164.85 59.41 172 59.41 166.3 63.74 168.38 70.59 162.5 66.5 156.62 70.59 158.7 63.74 153 59.41 160.15 59.41 z"></path><path fill="rgb(0, 160, 0)" stroke="none" d="M 62.5 77.5 L 64.85 84.41 72 84.41 66.3 88.74 68.38 95.59 62.5 91.5 56.62 95.59 58.7 88.74 53 84.41 60.15 84.41 z"></path><path fill="rgb(0, 160, 0)" stroke="none" d="M 237.5 77.5 L 239.85 84.41 247 84.41 241.3 88.74 243.38 95.59 237.5 91.5 231.62 95.59 233.7 88.74 228 84.41 235.15 84.41 z"></path><path fill="rgb(0, 160, 0)" stroke="none" d="M 312.5 77.5 L 314.85 84.41 322 84.41 316.3 88.74 318.38 95.59 312.5 91.5 306.62 95.59 308.7 88.74 303 84.41 310.15 84.41 z"></path><path fill="rgb(0, 160, 0)" stroke="none" d="M 12.5 102.5 L 14.85 109.41 22 109.41 16.3 113.74 18.38 120.59 12.5 116.5 6.62 120.59 8.7 113.74 3 109.41 10.15 109.41 z"></path><path fill="rgb(0, 160, 0)" stroke="none" d="M 137.5 102.5 L 139.85 109.41 147 109.41 141.3 113.74 143.38 120.59 137.5 116.5 131.62 120.59 133.7 113.74 128 109.41 135.15 109.41 z"></path><path fill="rgb(0, 160, 0)" stroke="none" d="M 187.5 102.5 L 189.85 109.41 197 109.41 191.3 113.74 193.38 120.59 187.5 116.5 181.62 120.59 183.7 113.74 178 109.41 185.15 109.41 z"></path><path fill="rgb(0, 160, 0)" stroke="none" d="M 87.5 127.5 L 89.85 134.41 97 134.41 91.3 138.74 93.38 145.59 87.5 141.5 81.62 145.59 83.7 138.74 78 134.41 85.15 134.41 z"></path><path fill="rgb(0, 160, 0)" stroke="none" d="M 287.5 127.5 L 289.85 134.41 297 134.41 291.3 138.74 293.38 145.59 287.5 141.5 281.62 145.59 283.7 138.74 278 134.41 285.15 134.41 z"></path><path fill="rgb(0, 160, 0)" stroke="none" d="M 337.5 127.5 L 339.85 134.41 347 134.41 341.3 138.74 343.38 145.59 337.5 141.5 331.62 145.59 333.7 138.74 328 134.41 335.15 134.41 z"></path><path fill="rgb(0, 160, 0)" stroke="none" d="M 37.5 152.5 L 39.85 159.41 47 159.41 41.3 163.74 43.38 170.59 37.5 166.5 31.62 170.59 33.7 163.74 28 159.41 35.15 159.41 z"></path><path fill="rgb(0, 160, 0)" stroke="none" d="M 187.5 152.5 L 189.85 159.41 197 159.41 191.3 163.74 193.38 170.59 187.5 166.5 181.62 170.59 183.7 163.74 178 159.41 185.15 159.41 z"></path><path fill="rgb(0, 160, 0)" stroke="none" d="M 237.5 152.5 L 239.85 159.41 247 159.41 241.3 163.74 243.38 170.59 237.5 166.5 231.62 170.59 233.7 163.74 228 159.41 235.15 159.41 z"></path><path fill="rgb(0, 160, 0)" stroke="none" d="M 112.5 177.5 L 114.85 184.41 122 184.41 116.3 188.74 118.38 195.59 112.5 191.5 106.62 195.59 108.7 188.74 103 184.41 110.15 184.41 z"></path><path fill="rgb(0, 160, 0)" stroke="none" d="M 287.5 177.5 L 289.85 184.41 297 184.41 291.3 188.74 293.38 195.59 287.5 191.5 281.62 195.59 283.7 188.74 278 184.41 285.15 184.41 z"></path><path fill="rgb(0, 160, 0)" stroke="none" d="M 337.5 177.5 L 339.85 184.41 347 184.41 341.3 188.74 343.38 195.59 337.5 191.5 331.62 195.59 333.7 188.74 328 184.41 335.15 184.41 z"></path><path fill="rgb(0, 160, 0)" stroke="none" d="M 12.5 202.5 L 14.85 209.41 22 209.41 16.3 213.74 18.38 220.59 12.5 216.5 6.62 220.59 8.7 213.74 3 209.41 10.15 209.41 z"></path><path fill="rgb(0, 160, 0)" stroke="none" d="M 62.5 202.5 L 64.85 209.41 72 209.41 66.3 213.74 68.38 220.59 62.5 216.5 56.62 220.59 58.7 213.74 53 209.41 60.15 209.41 z"></path><path fill="rgb(0, 160, 0)" stroke="none" d="M 237.5 202.5 L 239.85 209.41 247 209.41 241.3 213.74 243.38 220.59 237.5 216.5 231.62 220.59 233.7 213.74 228 209.41 235.15 209.41 z"></path><path fill="rgb(0, 160, 0)" stroke="none" d="M 137.5 227.5 L 139.85 234.41 147 234.41 141.3 238.74 143.38 245.59 137.5 241.5 131.62 245.59 133.7 238.74 128 234.41 135.15 234.41 z"></path><path fill="rgb(0, 160, 0)" stroke="none" d="M 187.5 227.5 L 189.85 234.41 197 234.41 191.3 238.74 193.38 245.59 187.5 241.5 181.62 245.59 183.7 238.74 178 234.41 185.15 234.41 z"></path><path fill="rgb(0, 160, 0)" stroke="none" d="M 287.5 227.5 L 289.85 234.41 297 234.41 291.3 238.74 293.38 245.59 287.5 241.5 281.62 245.59 283.7 238.74 278 234.41 285.15 234.41 z"></path><path fill="rgb(0, 160, 0)" stroke="none" d="M 37.5 252.5 L 39.85 259.41 47 259.41 41.3 263.74 43.38 270.59 37.5 266.5 31.62 270.59 33.7 263.74 28 259.41 35.15 259.41 z"></path><path fill="rgb(0, 160, 0)" stroke="none" d="M 87.5 252.5 L 89.85 259.41 97 259.41 91.3 263.74 93.38 270.59 87.5 266.5 81.62 270.59 83.7 263.74 78 259.41 85.15 259.41 z"></path><path fill="rgb(0, 160, 0)" stroke="none" d="M 337.5 252.5 L 339.85 259.41 347 259.41 341.3 263.74 343.38 270.59 337.5 266.5 331.62 270.59 333.7 263.74 328 259.41 335.15 259.41 z"></path><path fill="rgb(0, 160, 0)" stroke="none" d="M 162.5 277.5 L 164.85 284.41 172 284.41 166.3 288.74 168.38 295.59 162.5 291.5 156.62 295.59 158.7 288.74 153 284.41 160.15 284.41 z"></path><path fill="rgb(0, 160, 0)" stroke="none" d="M 212.5 277.5 L 214.85 284.41 222 284.41 216.3 288.74 218.38 295.59 212.5 291.5 206.62 295.59 208.7 288.74 203 284.41 210.15 284.41 z"></path><path fill="rgb(0, 160, 0)" stroke="none" d="M 262.5 277.5 L 264.85 284.41 272 284.41 266.3 288.74 268.38 295.59 262.5 291.5 256.62 295.59 258.7 288.74 253 284.41 260.15 284.41 z"></path><path fill="rgb(0, 160, 0)" stroke="none" d="M 62.5 302.5 L 64.85 309.41 72 309.41 66.3 313.74 68.38 320.59 62.5 316.5 56.62 320.59 58.7 313.74 53 309.41 60.15 309.41 z"></path><path fill="rgb(0, 160, 0)" stroke="none" d="M 112.5 302.5 L 114.85 309.41 122 309.41 116.3 313.74 118.38 320.59 112.5 316.5 106.62 320.59 108.7 313.74 103 309.41 110.15 309.41 z"></path><path fill="rgb(0, 160, 0)" stroke="none" d="M 312.5 302.5 L 314.85 309.41 322 309.41 316.3 313.74 318.38 320.59 312.5 316.5 306.62 320.59 308.7 313.74 303 309.41 310.15 309.41 z"></path><path fill="rgb(0, 160, 0)" stroke="none" d="M 162.5 327.5 L 164.85 334.41 172 334.41 166.3 338.74 168.38 345.59 162.5 341.5 156.62 345.59 158.7 338.74 153 334.41 160.15 334.41 z"></path><path fill="rgb(0, 160, 0)" stroke="none" d="M 212.5 327.5 L 214.85 334.41 222 334.41 216.3 338.74 218.38 345.59 212.5 341.5 206.62 345.59 208.7 338.74 203 334.41 210.15 334.41 z"></path><path fill="rgb(0, 160, 0)" stroke="none" d="M 262.5 327.5 L 264.85 334.41 272 334.41 266.3 338.74 268.38 345.59 262.5 341.5 256.62 345.59 258.7 338.74 253 334.41 260.15 334.41 z"></path></g><g shape-rendering="crispEdges"><path fill="black" stroke="none" d="M -1.5 -1.5 L 1.5 -1.5 1.5 351.5 -1.5 351.5 z"></path><path fill="black" stroke="none" d="M 348.5 -1.5 L 351.5 -1.5 351.5 351.5 348.5 351.5 z"></path><path fill="black" stroke="none" d="M -1.5 -1.5 L 351.5 -1.5 351.5 1.5 -1.5 1.5 z"></path><path fill="black" stroke="none" d="M -1.5 348.5 L 351.5 348.5 351.5 351.5 -1.5 351.5 z"></path></g><g shape-rendering="auto"><text fill="black" x="327.5" y="-6.9" text-anchor="end" font-size="16">1</text><path fill="black" stroke="none" d="M 337.5 -21.25 L 339.55625 -15.20375 345.8125 -15.20375 340.825 -11.415 342.645 -5.42125 337.5 -9 332.355 -5.42125 334.175 -11.415 329.1875 -15.20375 335.44375 -15.20375 z"></path></g><g shape-rendering="crispEdges"></g></svg>