<svg width="550" height="550" xmlns="http://www.w3.org/2000/svg" version="1.1" xmlns:xlink="http://www.w3.org/1999/xlink" xmlns:svgjs="http://svgjs.com/svgjs"><rect width="550" height="550" x="0" y="0" fill="white" stroke="transparent"></rect><line x1="25" y1="25" x2="75" y2="25" stroke-linecap="square" stroke-width="5" stroke="black"></line><line x1="25" y1="525" x2="75" y2="525" stroke-linecap="square" stroke-width="5" stroke="black"></line><line x1="75" y1="25" x2="125" y2="25" stroke-linecap="square" stroke-width="5" stroke="black"></line><line x1="75" y1="525" x2="125" y2="525" stroke-linecap="square" stroke-width="5" stroke="black"></line><line x1="125" y1="25" x2="175" y2="25" stroke-linecap="square" stroke-width="5" stroke="black"></line><line x1="125" y1="525" x2="175" y2="525" stroke-linecap="square" stroke-width="5" stroke="black"></line><line x1="175" y1="25" x2="225" y2="25" stroke-linecap="square" stroke-width="5" stroke="black"></line><line x1="175" y1="525" x2="225" y2="525" stroke-linecap="square" stroke-width="5" stroke="black"></line><line x1="225" y1="25" x2="275" y2="25" stroke-linecap="square" stroke-width="5" stroke="black"></line><line x1="225" y1="525" x2="275" y2="525" stroke-linecap="square" stroke-width="5" stroke="black"></line><line x1="275" y1="25" x2="325" y2="25" stroke-linecap="square" stroke-width="5" stroke="black"></line><line x1="275" y1="525" x2="325" y2="525" stroke-linecap="square" stroke-width="5" stroke="black"></line><line x1="325" y1="25" x2="375" y2="25" stroke-linecap="square" stroke-width="5" stroke="black"></line><line x1="325" y1="525" x2="375" y2="525" stroke-linecap="square" stroke-width="5" stroke="black"></line><line x1="375" y1="25" x2="425" y2="25" stroke-linecap="square" stroke-width="5" stroke="black"></line><line x1="375" y1="525" x2="425" y2="525" stroke-linecap="square" stroke-width="5" stroke="black"></line><line x1="425" y1="25" x2="475" y2="25" stroke-linecap="square" stroke-width="5" stroke="black"></line><line x1="425" y1="525" x2="475" y2="525" stroke-linecap="square" stroke-width="5" stroke="black"></line><line x1="475" y1="25" x2="525" y2="25" stroke-linecap="square" stroke-width="5" stroke="black"></line><line x1="475" y1="525" x2="525" y2="525" stroke-linecap="square" stroke-width="5" stroke="black"></line><line x1="25" y1="25" x2="25" y2="75" stroke-linecap="square" stroke-width="5" stroke="black"></line><line x1="525" y1="25" x2="525" y2="75" stroke-linecap="square" stroke-width="5" stroke="black"></line><line x1="25" y1="75" x2="25" y2="125" stroke-linecap="square" stroke-width="5" stroke="black"></line><line x1="525" y1="75" x2="525" y2="125" stroke-linecap="square" stroke-width="5" stroke="black"></line><line x1="25" y1="125" x2="25" y2="175" stroke-linecap="square" stroke-width="5" stroke="black"></line><line x1="525" y1="125" x2="525" y2="175" stroke-linecap="square" stroke-width="5" stroke="black"></line><line x1="25" y1="175" x2="25" y2="225" stroke-linecap="square" stroke-width="5" stroke="black"></line><line x1="525" y1="175" x2="525" y2="225" stroke-linecap="square" stroke-width="5" stroke="black"></line><line x1="25" y1="225" x2="25" y2="275" stroke-linecap="square" stroke-width="5" stroke="black"></line><line x1="525" y1="225" x2="525" y2="275" stroke-linecap="square" stroke-width="5" stroke="black"></line><line x1="25" y1="275" x2="25" y2="325" stroke-linecap="square" stroke-width="5" stroke="black"></line><line x1="525" y1="275" x2="525" y2="325" stroke-linecap="square" stroke-width="5" stroke="black"></line><line x1="25" y1="325" x2="25" y2="375" stroke-linecap="square" stroke-width="5" stroke="black"></line><line x1="525" y1="325" x2="525" y2="375" stroke-linecap="square" stroke-width="5" stroke="black"></line><line x1="25" y1="375" x2="25" y2="425" stroke-linecap="square" stroke-width="5" stroke="black"></line><line x1="525" y1="375" x2="525" y2="425" stroke-linecap="square" stroke-width="5" stroke="black"></line><line x1="25" y1="425" x2="25" y2="475" stroke-linecap="square" stroke-width="5" stroke="black"></line><line x1="525" y1="425" x2="525" y2="475" stroke-linecap="square" stroke-width="5" stroke="black"></line><line x1="25" y1="475" x2="25" y2="525" stroke-linecap="square" stroke-width="5" stroke="black"></line><line x1="525" y1="475" x2="525" y2="525" stroke-linecap="square" stroke-width="5" stroke="black"></line><line x1="25" y1="75" x2="75" y2="75" stroke-linecap="square" stroke-width="1" stroke="black"></line><line x1="25" y1="125" x2="75" y2="125" stroke-linecap="square" stroke-width="1" stroke="black"></line><line x1="25" y1="175" x2="75" y2="175" stroke-linecap="square" stroke-width="1" stroke="black"></line><line x1="25" y1="225" x2="75" y2="225" stroke-linecap="square" stroke-width="1" stroke="black"></line><line x1="25" y1="275" x2="75" y2="275" stroke-linecap="square" stroke-width="1" stroke="black"></line><line x1="25" y1="325" x2="75" y2="325" stroke-linecap="square" stroke-width="1" stroke="black"></line><line x1="25" y1="375" x2="75" y2="375" stroke-linecap="square" stroke-width="1" stroke="black"></line><line x1="25" y1="425" x2="75" y2="425" stroke-linecap="square" stroke-width="1" stroke="black"></line><line x1="25" y1="475" x2="75" y2="475" stroke-linecap="square" stroke-width="1" stroke="black"></line><line x1="75" y1="25" x2="75" y2="75" stroke-linecap="square" stroke-width="1" stroke="black"></line><line x1="75" y1="75" x2="125" y2="75" stroke-linecap="square" stroke-width="1" stroke="black"></line><line x1="75" y1="75" x2="75" y2="125" stroke-linecap="square" stroke-width="1" stroke="black"></line><line x1="75" y1="125" x2="125" y2="125" stroke-linecap="square" stroke-width="1" stroke="black"></line><line x1="75" y1="125" x2="75" y2="175" stroke-linecap="square" stroke-width="1" stroke="black"></line><line x1="75" y1="175" x2="125" y2="175" stroke-linecap="square" stroke-width="1" stroke="black"></line><line x1="75" y1="175" x2="75" y2="225" stroke-linecap="square" stroke-width="1" stroke="black"></line><line x1="75" y1="225" x2="125" y2="225" stroke-linecap="square" stroke-width="1" stroke="black"></line><line x1="75" y1="225" x2="75" y2="275" stroke-linecap="square" stroke-width="1" stroke="black"></line><line x1="75" y1="275" x2="125" y2="275" stroke-linecap="square" stroke-width="1" stroke="black"></line><line x1="75" y1="275" x2="75" y2="325" stroke-linecap="square" stroke-width="1" stroke="black"></line><line x1="75" y1="325" x2="125" y2="325" stroke-linecap="square" stroke-width="1" stroke="black"></line><line x1="75" y1="325" x2="75" y2="375" stroke-linecap="square" stroke-width="1" stroke="black"></line><line x1="75" y1="375" x2="125" y2="375" stroke-linecap="square" stroke-width="1" stroke="black"></line><line x1="75" y1="375" x2="75" y2="425" stroke-linecap="square" stroke-width="1" stroke="black"></line><line x1="75" y1="425" x2="125" y2="425" stroke-linecap="square" stroke-width="1" stroke="black"></line><line x1="75" y1="425" x2="75" y2="475" stroke-linecap="square" stroke-width="1" stroke="black"></line><line x1="75" y1="475" x2="125" y2="475" stroke-linecap="square" stroke-width="1" stroke="black"></line><line x1="75" y1="475" x2="75" y2="525" stroke-linecap="square" stroke-width="1" stroke="black"></line><line x1="125" y1="25" x2="125" y2="75" stroke-linecap="square" stroke-width="1" stroke="black"></line><line x1="125" y1="75" x2="175" y2="75" stroke-linecap="square" stroke-width="1" stroke="black"></line><line x1="125" y1="75" x2="125" y2="125" stroke-linecap="square" stroke-width="1" stroke="black"></line><line x1="125" y1="125" x2="175" y2="125" stroke-linecap="square" stroke-width="1" stroke="black"></line><line x1="125" y1="125" x2="125" y2="175" stroke-linecap="square" stroke-width="1" stroke="black"></line><line x1="125" y1="175" x2="175" y2="175" stroke-linecap="square" stroke-width="1" stroke="black"></line><line x1="125" y1="175" x2="125" y2="225" stroke-linecap="square" stroke-width="1" stroke="black"></line><line x1="125" y1="225" x2="175" y2="225" stroke-linecap="square" stroke-width="1" stroke="black"></line><line x1="125" y1="225" x2="125" y2="275" stroke-linecap="square" stroke-width="1" stroke="black"></line><line x1="125" y1="275" x2="175" y2="275" stroke-linecap="square" stroke-width="1" stroke="black"></line><line x1="125" y1="275" x2="125" y2="325" stroke-linecap="square" stroke-width="1" stroke="black"></line><line x1="125" y1="325" x2="175" y2="325" stroke-linecap="square" stroke-width="1" stroke="black"></line><line x1="125" y1="325" x2="125" y2="375" stroke-linecap="square" stroke-width="1" stroke="black"></line><line x1="125" y1="375" x2="175" y2="375" stroke-linecap="square" stroke-width="1" stroke="black"></line><line x1="125" y1="375" x2="125" y2="425" stroke-linecap="square" stroke-width="1" stroke="black"></line><line x1="125" y1="425" x2="175" y2="425" stroke-linecap="square" stroke-width="1" stroke="black"></line><line x1="125" y1="425" x2="125" y2="475" stroke-linecap="square" stroke-width="1" stroke="black"></line><line x1="125" y1="475" x2="175" y2="475" stroke-linecap="square" stroke-width="1" stroke="black"></line><line x1="125" y1="475" x2="125" y2="525" stroke-linecap="square" stroke-width="1" stroke="black"></line><line x1="175" y1="25" x2="175" y2="75" stroke-linecap="square" stroke-width="1" stroke="black"></line><line x1="175" y1="75" x2="225" y2="75" stroke-linecap="square" stroke-width="1" stroke="black"></line><line x1="175" y1="75" x2="175" y2="125" stroke-linecap="square" stroke-width="1" stroke="black"></line><line x1="175" y1="125" x2="225" y2="125" stroke-linecap="square" stroke-width="1" stroke="black"></line><line x1="175" y1="125" x2="175" y2="175" stroke-linecap="square" stroke-width="1" stroke="black"></line><line x1="175" y1="175" x2="225" y2="175" stroke-linecap="square" stroke-width="1" stroke="black"></line><line x1="175" y1="175" x2="175" y2="225" stroke-linecap="square" stroke-width="1" stroke="black"></line><line x1="175" y1="225" x2="225" y2="225" stroke-linecap="square" stroke-width="1" stroke="black"></line><line x1="175" y1="225" x2="175" y2="275" stroke-linecap="square" stroke-width="1" stroke="black"></line><line x1="175" y1="275" x2="225" y2="275" stroke-linecap="square" stroke-width="1" stroke="black"></line><line x1="175" y1="275" x2="175" y2="325" stroke-linecap="square" stroke-width="1" stroke="black"></line><line x1="175" y1="325" x2="225" y2="325" stroke-linecap="square" stroke-width="1" stroke="black"></line><line x1="175" y1="325" x2="175" y2="375" stroke-linecap="square" stroke-width="1" stroke="black"></line><line x1="175" y1="375" x2="225" y2="375" stroke-linecap="square" stroke-width="1" stroke="black"></line><line x1="175" y1="375" x2="175" y2="425" stroke-linecap="square" stroke-width="1" stroke="black"></line><line x1="175" y1="425" x2="225" y2="425" stroke-linecap="square" stroke-width="1" stroke="black"></line><line x1="175" y1="425" x2="175" y2="475" stroke-linecap="square" stroke-width="1" stroke="black"></line><line x1="175" y1="475" x2="225" y2="475" stroke-linecap="square" stroke-width="1" stroke="black"></line><line x1="175" y1="475" x2="175" y2="525" stroke-linecap="square" stroke-width="1" stroke="black"></line><line x1="225" y1="25" x2="225" y2="75" stroke-linecap="square" stroke-width="1" stroke="black"></line><line x1="225" y1="75" x2="275" y2="75" stroke-linecap="square" stroke-width="1" stroke="black"></line><line x1="225" y1="75" x2="225" y2="125" stroke-linecap="square" stroke-width="1" stroke="black"></line><line x1="225" y1="125" x2="275" y2="125" stroke-linecap="square" stroke-width="1" stroke="black"></line><line x1="225" y1="125" x2="225" y2="175" stroke-linecap="square" stroke-width="1" stroke="black"></line><line x1="225" y1="175" x2="275" y2="175" stroke-linecap="square" stroke-width="1" stroke="black"></line><line x1="225" y1="175" x2="225" y2="225" stroke-linecap="square" stroke-width="1" stroke="black"></line><line x1="225" y1="225" x2="275" y2="225" stroke-linecap="square" stroke-width="1" stroke="black"></line><line x1="225" y1="225" x2="225" y2="275" stroke-linecap="square" stroke-width="1" stroke="black"></line><line x1="225" y1="275" x2="275" y2="275" stroke-linecap="square" stroke-width="1" stroke="black"></line><line x1="225" y1="275" x2="225" y2="325" stroke-linecap="square" stroke-width="1" stroke="black"></line><line x1="225" y1="325" x2="275" y2="325" stroke-linecap="square" stroke-width="1" stroke="black"></line><line x1="225" y1="325" x2="225" y2="375" stroke-linecap="square" stroke-width="1" stroke="black"></line><line x1="225" y1="375" x2="275" y2="375" stroke-linecap="square" stroke-width="1" stroke="black"></line><line x1="225" y1="375" x2="225" y2="425" stroke-linecap="square" stroke-width="1" stroke="black"></line><line x1="225" y1="425" x2="275" y2="425" stroke-linecap="square" stroke-width="1" stroke="black"></line><line x1="225" y1="425" x2="225" y2="475" stroke-linecap="square" stroke-width="1" stroke="black"></line><line x1="225" y1="475" x2="275" y2="475" stroke-linecap="square" stroke-width="1" stroke="black"></line><line x1="225" y1="475" x2="225" y2="525" stroke-linecap="square" stroke-width="1" stroke="black"></line><line x1="275" y1="25" x2="275" y2="75" stroke-linecap="square" stroke-width="1" stroke="black"></line><line x1="275" y1="75" x2="325" y2="75" stroke-linecap="square" stroke-width="1" stroke="black"></line><line x1="275" y1="75" x2="275" y2="125" stroke-linecap="square" stroke-width="1" stroke="black"></line><line x1="275" y1="125" x2="325" y2="125" stroke-linecap="square" stroke-width="1" stroke="black"></line><line x1="275" y1="125" x2="275" y2="175" stroke-linecap="square" stroke-width="1" stroke="black"></line><line x1="275" y1="175" x2="325" y2="175" stroke-linecap="square" stroke-width="1" stroke="black"></line><line x1="275" y1="175" x2="275" y2="225" stroke-linecap="square" stroke-width="1" stroke="black"></line><line x1="275" y1="225" x2="325" y2="225" stroke-linecap="square" stroke-width="1" stroke="black"></line><line x1="275" y1="225" x2="275" y2="275" stroke-linecap="square" stroke-width="1" stroke="black"></line><line x1="275" y1="275" x2="325" y2="275" stroke-linecap="square" stroke-width="1" stroke="black"></line><line x1="275" y1="275" x2="275" y2="325" stroke-linecap="square" stroke-width="1" stroke="black"></line><line x1="275" y1="325" x2="325" y2="325" stroke-linecap="square" stroke-width="1" stroke="black"></line><line x1="275" y1="325" x2="275" y2="375" stroke-linecap="square" stroke-width="1" stroke="black"></line><line x1="275" y1="375" x2="325" y2="375" stroke-linecap="square" stroke-width="1" stroke="black"></line><line x1="275" y1="375" x2="275" y2="425" stroke-linecap="square" stroke-width="1" stroke="black"></line><line x1="275" y1="425" x2="325" y2="425" stroke-linecap="square" stroke-width="1" stroke="black"></line><line x1="275" y1="425" x2="275" y2="475" stroke-linecap="square" stroke-width="1" stroke="black"></line><line x1="275" y1="475" x2="325" y2="475" stroke-linecap="square" stroke-width="1" stroke="black"></line><line x1="275" y1="475" x2="275" y2="525" stroke-linecap="square" stroke-width="1" stroke="black"></line><line x1="325" y1="25" x2="325" y2="75" stroke-linecap="square" stroke-width="1" stroke="black"></line><line x1="325" y1="75" x2="375" y2="75" stroke-linecap="square" stroke-width="1" stroke="black"></line><line x1="325" y1="75" x2="325" y2="125" stroke-linecap="square" stroke-width="1" stroke="black"></line><line x1="325" y1="125" x2="375" y2="125" stroke-linecap="square" stroke-width="1" stroke="black"></line><line x1="325" y1="125" x2="325" y2="175" stroke-linecap="square" stroke-width="1" stroke="black"></line><line x1="325" y1="175" x2="375" y2="175" stroke-linecap="square" stroke-width="1" stroke="black"></line><line x1="325" y1="175" x2="325" y2="225" stroke-linecap="square" stroke-width="1" stroke="black"></line><line x1="325" y1="225" x2="375" y2="225" stroke-linecap="square" stroke-width="1" stroke="black"></line><line x1="325" y1="225" x2="325" y2="275" stroke-linecap="square" stroke-width="1" stroke="black"></line><line x1="325" y1="275" x2="375" y2="275" stroke-linecap="square" stroke-width="1" stroke="black"></line><line x1="325" y1="275" x2="325" y2="325" stroke-linecap="square" stroke-width="1" stroke="black"></line><line x1="325" y1="325" x2="375" y2="325" stroke-linecap="square" stroke-width="1" stroke="black"></line><line x1="325" y1="325" x2="325" y2="375" stroke-linecap="square" stroke-width="1" stroke="black"></line><line x1="325" y1="375" x2="375" y2="375" stroke-linecap="square" stroke-width="1" stroke="black"></line><line x1="325" y1="375" x2="325" y2="425" stroke-linecap="square" stroke-width="1" stroke="black"></line><line x1="325" y1="425" x2="375" y2="425" stroke-linecap="square" stroke-width="1" stroke="black"></line><line x1="325" y1="425" x2="325" y2="475" stroke-linecap="square" stroke-width="1" stroke="black"></line><line x1="325" y1="475" x2="375" y2="475" stroke-linecap="square" stroke-width="1" stroke="black"></line><line x1="325" y1="475" x2="325" y2="525" stroke-linecap="square" stroke-width="1" stroke="black"></line><line x1="375" y1="25" x2="375" y2="75" stroke-linecap="square" stroke-width="1" stroke="black"></line><line x1="375" y1="75" x2="425" y2="75" stroke-linecap="square" stroke-width="1" stroke="black"></line><line x1="375" y1="75" x2="375" y2="125" stroke-linecap="square" stroke-width="1" stroke="black"></line><line x1="375" y1="125" x2="425" y2="125" stroke-linecap="square" stroke-width="1" stroke="black"></line><line x1="375" y1="125" x2="375" y2="175" stroke-linecap="square" stroke-width="1" stroke="black"></line><line x1="375" y1="175" x2="425" y2="175" stroke-linecap="square" stroke-width="1" stroke="black"></line><line x1="375" y1="175" x2="375" y2="225" stroke-linecap="square" stroke-width="1" stroke="black"></line><line x1="375" y1="225" x2="425" y2="225" stroke-linecap="square" stroke-width="1" stroke="black"></line><line x1="375" y1="225" x2="375" y2="275" stroke-linecap="square" stroke-width="1" stroke="black"></line><line x1="375" y1="275" x2="425" y2="275" stroke-linecap="square" stroke-width="1" stroke="black"></line><line x1="375" y1="275" x2="375" y2="325" stroke-linecap="square" stroke-width="1" stroke="black"></line><line x1="375" y1="325" x2="425" y2="325" stroke-linecap="square" stroke-width="1" stroke="black"></line><line x1="375" y1="325" x2="375" y2="375" stroke-linecap="square" stroke-width="1" stroke="black"></line><line x1="375" y1="375" x2="425" y2="375" stroke-linecap="square" stroke-width="1" stroke="black"></line><line x1="375" y1="375" x2="375" y2="425" stroke-linecap="square" stroke-width="1" stroke="black"></line><line x1="375" y1="425" x2="425" y2="425" stroke-linecap="square" stroke-width="1" stroke="black"></line><line x1="375" y1="425" x2="375" y2="475" stroke-linecap="square" stroke-width="1" stroke="black"></line><line x1="375" y1="475" x2="425" y2="475" stroke-linecap="square" stroke-width="1" stroke="black"></line><line x1="375" y1="475" x2="375" y2="525" stroke-linecap="square" stroke-width="1" stroke="black"></line><line x1="425" y1="25" x2="425" y2="75" stroke-linecap="square" stroke-width="1" stroke="black"></line><line x1="425" y1="75" x2="475" y2="75" stroke-linecap="square" stroke-width="1" stroke="black"></line><line x1="425" y1="75" x2="425" y2="125" stroke-linecap="square" stroke-width="1" stroke="black"></line><line x1="425" y1="125" x2="475" y2="125" stroke-linecap="square" stroke-width="1" stroke="black"></line><line x1="425" y1="125" x2="425" y2="175" stroke-linecap="square" stroke-width="1" stroke="black"></line><line x1="425" y1="175" x2="475" y2="175" stroke-linecap="square" stroke-width="1" stroke="black"></line><line x1="425" y1="175" x2="425" y2="225" stroke-linecap="square" stroke-width="1" stroke="black"></line><line x1="425" y1="225" x2="475" y2="225" stroke-linecap="square" stroke-width="1" stroke="black"></line><line x1="425" y1="225" x2="425" y2="275" stroke-linecap="square" stroke-width="1" stroke="black"></line><line x1="425" y1="275" x2="475" y2="275" stroke-linecap="square" stroke-width="1" stroke="black"></line><line x1="425" y1="275" x2="425" y2="325" stroke-linecap="square" stroke-width="1" stroke="black"></line><line x1="425" y1="325" x2="475" y2="325" stroke-linecap="square" stroke-width="1" stroke="black"></line><line x1="425" y1="325" x2="425" y2="375" stroke-linecap="square" stroke-width="1" stroke="black"></line><line x1="425" y1="375" x2="475" y2="375" stroke-linecap="square" stroke-width="1" stroke="black"></line><line x1="425" y1="375" x2="425" y2="425" stroke-linecap="square" stroke-width="1" stroke="black"></line><line x1="425" y1="425" x2="475" y2="425" stroke-linecap="square" stroke-width="1" stroke="black"></line><line x1="425" y1="425" x2="425" y2="475" stroke-linecap="square" stroke-width="1" stroke="black"></line><line x1="425" y1="475" x2="475" y2="475" stroke-linecap="square" stroke-width="1" stroke="black"></line><line x1="425" y1="475" x2="425" y2="525" stroke-linecap="square" stroke-width="1" stroke="black"></line><line x1="475" y1="25" x2="475" y2="75" stroke-linecap="square" stroke-width="1" stroke="black"></line><line x1="475" y1="75" x2="525" y2="75" stroke-linecap="square" stroke-width="1" stroke="black"></line><line x1="475" y1="75" x2="475" y2="125" stroke-linecap="square" stroke-width="1" stroke="black"></line><line x1="475" y1="125" x2="525" y2="125" stroke-linecap="square" stroke-width="1" stroke="black"></line><line x1="475" y1="125" x2="475" y2="175" stroke-linecap="square" stroke-width="1" stroke="black"></line><line x1="475" y1="175" x2="525" y2="175" stroke-linecap="square" stroke-width="1" stroke="black"></line><line x1="475" y1="175" x2="475" y2="225" stroke-linecap="square" stroke-width="1" stroke="black"></line><line x1="475" y1="225" x2="525" y2="225" stroke-linecap="square" stroke-width="1" stroke="black"></line><line x1="475" y1="225" x2="475" y2="275" stroke-linecap="square" stroke-width="1" stroke="black"></line><line x1="475" y1="275" x2="525" y2="275" stroke-linecap="square" stroke-width="1" stroke="black"></line><line x1="475" y1="275" x2="475" y2="325" stroke-linecap="square" stroke-width="1" stroke="black"></line><line x1="475" y1="325" x2="525" y2="325" stroke-linecap="square" stroke-width="1" stroke="black"></line><line x1="475" y1="325" x2="475" y2="375" stroke-linecap="square" stroke-width="1" stroke="black"></line><line x1="475" y1="375" x2="525" y2="375" stroke-linecap="square" stroke-width="1" stroke="black"></line><line x1="475" y1="375" x2="475" y2="425" stroke-linecap="square" stroke-width="1" stroke="black"></line><line x1="475" y1="425" x2="525" y2="425" stroke-linecap="square" stroke-width="1" stroke="black"></line><line x1="475" y1="425" x2="475" y2="475" stroke-linecap="square" stroke-width="1" stroke="black"></line><line x1="475" y1="475" x2="525" y2="475" stroke-linecap="square" stroke-width="1" stroke="black"></line><line x1="475" y1="475" x2="475" y2="525" stroke-linecap="square" stroke-width="1" stroke="black"></line><text font-family="Helvetica, Arial, sans-serif" x="50" y="50" font-size="30" text-anchor="middle" dominant-baseline="central" svgjs:data="{&quot;leading&quot;:&quot;1.3&quot;}">9</text><rect width="50" height="50" x="175" y="25" stroke="transparent"></rect><rect width="50" height="50" x="225" y="25" stroke="transparent"></rect><rect width="50" height="50" x="425" y="25" stroke="transparent"></rect><text font-family="Helvetica, Arial, sans-serif" x="500" y="50" font-size="30" text-anchor="middle" dominant-baseline="central" svgjs:data="{&quot;leading&quot;:&quot;1.3&quot;}">1</text><rect width="50" height="50" x="225" y="75" stroke="transparent"></rect><rect width="50" height="50" x="325" y="75" stroke="transparent"></rect><rect width="50" height="50" x="425" y="75" stroke="transparent"></rect><rect width="50" height="50" x="475" y="75" stroke="transparent"></rect><rect width="50" height="50" x="125" y="125" stroke="transparent"></rect><rect width="50" height="50" x="175" y="125" stroke="transparent"></rect><rect width="50" height="50" x="325" y="125" stroke="transparent"></rect><rect width="50" height="50" x="375" y="125" stroke="transparent"></rect><rect width="50" height="50" x="25" y="175" stroke="transparent"></rect><rect width="50" height="50" x="75" y="175" stroke="transparent"></rect><rect width="50" height="50" x="175" y="175" stroke="transparent"></rect><rect width="50" height="50" x="275" y="175" stroke="transparent"></rect><rect width="50" height="50" x="25" y="225" stroke="transparent"></rect><text font-family="Helvetica, Arial, sans-serif" x="100" y="250" font-size="30" text-anchor="middle" dominant-baseline="central" svgjs:data="{&quot;leading&quot;:&quot;1.3&quot;}">8</text><rect width="50" height="50" x="225" y="225" stroke="transparent"></rect><rect width="50" height="50" x="275" y="225" stroke="transparent"></rect><rect width="50" height="50" x="375" y="225" stroke="transparent"></rect><rect width="50" height="50" x="125" y="275" stroke="transparent"></rect><rect width="50" height="50" x="175" y="275" stroke="transparent"></rect><text font-family="Helvetica, Arial, sans-serif" x="300" y="300" font-size="30" text-anchor="middle" dominant-baseline="central" svgjs:data="{&quot;leading&quot;:&quot;1.3&quot;}">2</text><rect width="50" height="50" x="325" y="275" stroke="transparent"></rect><rect width="50" height="50" x="375" y="275" stroke="transparent"></rect><rect width="50" height="50" x="475" y="275" stroke="transparent"></rect><rect width="50" height="50" x="125" y="325" stroke="transparent"></rect><rect width="50" height="50" x="225" y="325" stroke="transparent"></rect><rect width="50" height="50" x="275" y="325" stroke="transparent"></rect><rect width="50" height="50" x="425" y="325" stroke="transparent"></rect><rect width="50" height="50" x="475" y="325" stroke="transparent"></rect><rect width="50" height="50" x="25" y="375" stroke="transparent"></rect><rect width="50" height="50" x="75" y="375" stroke="transparent"></rect><rect width="50" height="50" x="225" y="375" stroke="transparent"></rect><rect width="50" height="50" x="325" y="375" stroke="transparent"></rect><rect width="50" height="50" x="375" y="375" stroke="transparent"></rect><text font-family="Helvetica, Arial, sans-serif" x="450" y="400" font-size="30" text-anchor="middle" dominant-baseline="central" svgjs:data="{&quot;leading&quot;:&quot;1.3&quot;}">2</text><rect width="50" height="50" x="25" y="425" stroke="transparent"></rect><rect width="50" height="50" x="125" y="425" stroke="transparent"></rect><rect width="50" height="50" x="325" y="425" stroke="transparent"></rect><rect width="50" height="50" x="425" y="425" stroke="transparent"></rect><rect width="50" height="50" x="475" y="425" stroke="transparent"></rect><text font-family="Helvetica, Arial, sans-serif" x="50" y="500" font-size="30" text-anchor="middle" dominant-baseline="central" svgjs:data="{&quot;leading&quot;:&quot;1.3&quot;}">1</text><rect width="50" height="50" x="75" y="475" stroke="transparent"></rect><rect width="50" height="50" x="125" y="475" stroke="transparent"></rect><text font-family="Helvetica, Arial, sans-serif" x="400" y="500" font-size="30" text-anchor="middle" dominant-baseline="central" svgjs:data="{&quot;leading&quot;:&quot;1.3&quot;}">13</text><rect width="50" height="50" x="425" y="475" stroke="transparent"></rect></svg>