<svg width="385" height="385" xmlns="http://www.w3.org/2000/svg" version="1.1" xmlns:xlink="http://www.w3.org/1999/xlink" xmlns:svgjs="http://svgjs.com/svgjs"><rect width="385" height="385" x="0" y="0" fill="white" stroke="transparent"></rect><line x1="17.5" y1="17.5" x2="52.5" y2="17.5" stroke-linecap="square" stroke-width="5" stroke="black"></line><line x1="17.5" y1="367.5" x2="52.5" y2="367.5" stroke-linecap="square" stroke-width="5" stroke="black"></line><line x1="52.5" y1="17.5" x2="87.5" y2="17.5" stroke-linecap="square" stroke-width="5" stroke="black"></line><line x1="52.5" y1="367.5" x2="87.5" y2="367.5" stroke-linecap="square" stroke-width="5" stroke="black"></line><line x1="87.5" y1="17.5" x2="122.5" y2="17.5" stroke-linecap="square" stroke-width="5" stroke="black"></line><line x1="87.5" y1="367.5" x2="122.5" y2="367.5" stroke-linecap="square" stroke-width="5" stroke="black"></line><line x1="122.5" y1="17.5" x2="157.5" y2="17.5" stroke-linecap="square" stroke-width="5" stroke="black"></line><line x1="122.5" y1="367.5" x2="157.5" y2="367.5" stroke-linecap="square" stroke-width="5" stroke="black"></line><line x1="157.5" y1="17.5" x2="192.5" y2="17.5" stroke-linecap="square" stroke-width="5" stroke="black"></line><line x1="157.5" y1="367.5" x2="192.5" y2="367.5" stroke-linecap="square" stroke-width="5" stroke="black"></line><line x1="192.5" y1="17.5" x2="227.5" y2="17.5" stroke-linecap="square" stroke-width="5" stroke="black"></line><line x1="192.5" y1="367.5" x2="227.5" y2="367.5" stroke-linecap="square" stroke-width="5" stroke="black"></line><line x1="227.5" y1="17.5" x2="262.5" y2="17.5" stroke-linecap="square" stroke-width="5" stroke="black"></line><line x1="227.5" y1="367.5" x2="262.5" y2="367.5" stroke-linecap="square" stroke-width="5" stroke="black"></line><line x1="262.5" y1="17.5" x2="297.5" y2="17.5" stroke-linecap="square" stroke-width="5" stroke="black"></line><line x1="262.5" y1="367.5" x2="297.5" y2="367.5" stroke-linecap="square" stroke-width="5" stroke="black"></line><line x1="297.5" y1="17.5" x2="332.5" y2="17.5" stroke-linecap="square" stroke-width="5" stroke="black"></line><line x1="297.5" y1="367.5" x2="332.5" y2="367.5" stroke-linecap="square" stroke-width="5" stroke="black"></line><line x1="332.5" y1="17.5" x2="367.5" y2="17.5" stroke-linecap="square" stroke-width="5" stroke="black"></line><line x1="332.5" y1="367.5" x2="367.5" y2="367.5" stroke-linecap="square" stroke-width="5" stroke="black"></line><line x1="17.5" y1="17.5" x2="17.5" y2="52.5" stroke-linecap="square" stroke-width="5" stroke="black"></line><line x1="367.5" y1="17.5" x2="367.5" y2="52.5" stroke-linecap="square" stroke-width="5" stroke="black"></line><line x1="17.5" y1="52.5" x2="17.5" y2="87.5" stroke-linecap="square" stroke-width="5" stroke="black"></line><line x1="367.5" y1="52.5" x2="367.5" y2="87.5" stroke-linecap="square" stroke-width="5" stroke="black"></line><line x1="17.5" y1="87.5" x2="17.5" y2="122.5" stroke-linecap="square" stroke-width="5" stroke="black"></line><line x1="367.5" y1="87.5" x2="367.5" y2="122.5" stroke-linecap="square" stroke-width="5" stroke="black"></line><line x1="17.5" y1="122.5" x2="17.5" y2="157.5" stroke-linecap="square" stroke-width="5" stroke="black"></line><line x1="367.5" y1="122.5" x2="367.5" y2="157.5" stroke-linecap="square" stroke-width="5" stroke="black"></line><line x1="17.5" y1="157.5" x2="17.5" y2="192.5" stroke-linecap="square" stroke-width="5" stroke="black"></line><line x1="367.5" y1="157.5" x2="367.5" y2="192.5" stroke-linecap="square" stroke-width="5" stroke="black"></line><line x1="17.5" y1="192.5" x2="17.5" y2="227.5" stroke-linecap="square" stroke-width="5" stroke="black"></line><line x1="367.5" y1="192.5" x2="367.5" y2="227.5" stroke-linecap="square" stroke-width="5" stroke="black"></line><line x1="17.5" y1="227.5" x2="17.5" y2="262.5" stroke-linecap="square" stroke-width="5" stroke="black"></line><line x1="367.5" y1="227.5" x2="367.5" y2="262.5" stroke-linecap="square" stroke-width="5" stroke="black"></line><line x1="17.5" y1="262.5" x2="17.5" y2="297.5" stroke-linecap="square" stroke-width="5" stroke="black"></line><line x1="367.5" y1="262.5" x2="367.5" y2="297.5" stroke-linecap="square" stroke-width="5" stroke="black"></line><line x1="17.5" y1="297.5" x2="17.5" y2="332.5" stroke-linecap="square" stroke-width="5" stroke="black"></line><line x1="367.5" y1="297.5" x2="367.5" y2="332.5" stroke-linecap="square" stroke-width="5" stroke="black"></line><line x1="17.5" y1="332.5" x2="17.5" y2="367.5" stroke-linecap="square" stroke-width="5" stroke="black"></line><line x1="367.5" y1="332.5" x2="367.5" y2="367.5" stroke-linecap="square" stroke-width="5" stroke="black"></line><line x1="17.5" y1="52.5" x2="52.5" y2="52.5" stroke-linecap="square" stroke-width="1" stroke="black"></line><line x1="17.5" y1="87.5" x2="52.5" y2="87.5" stroke-linecap="square" stroke-width="1" stroke="black"></line><line x1="17.5" y1="122.5" x2="52.5" y2="122.5" stroke-linecap="square" stroke-width="1" stroke="black"></line><line x1="17.5" y1="157.5" x2="52.5" y2="157.5" stroke-linecap="square" stroke-width="1" stroke="black"></line><line x1="17.5" y1="192.5" x2="52.5" y2="192.5" stroke-linecap="square" stroke-width="1" stroke="black"></line><line x1="17.5" y1="227.5" x2="52.5" y2="227.5" stroke-linecap="square" stroke-width="1" stroke="black"></line><line x1="17.5" y1="262.5" x2="52.5" y2="262.5" stroke-linecap="square" stroke-width="1" stroke="black"></line><line x1="17.5" y1="297.5" x2="52.5" y2="297.5" stroke-linecap="square" stroke-width="1" stroke="black"></line><line x1="17.5" y1="332.5" x2="52.5" y2="332.5" stroke-linecap="square" stroke-width="1" stroke="black"></line><line x1="52.5" y1="17.5" x2="52.5" y2="52.5" stroke-linecap="square" stroke-width="1" stroke="black"></line><line x1="52.5" y1="52.5" x2="87.5" y2="52.5" stroke-linecap="square" stroke-width="1" stroke="black"></line><line x1="52.5" y1="52.5" x2="52.5" y2="87.5" stroke-linecap="square" stroke-width="1" stroke="black"></line><line x1="52.5" y1="87.5" x2="87.5" y2="87.5" stroke-linecap="square" stroke-width="1" stroke="black"></line><line x1="52.5" y1="87.5" x2="52.5" y2="122.5" stroke-linecap="square" stroke-width="1" stroke="black"></line><line x1="52.5" y1="122.5" x2="87.5" y2="122.5" stroke-linecap="square" stroke-width="1" stroke="black"></line><line x1="52.5" y1="122.5" x2="52.5" y2="157.5" stroke-linecap="square" stroke-width="1" stroke="black"></line><line x1="52.5" y1="157.5" x2="87.5" y2="157.5" stroke-linecap="square" stroke-width="1" stroke="black"></line><line x1="52.5" y1="157.5" x2="52.5" y2="192.5" stroke-linecap="square" stroke-width="1" stroke="black"></line><line x1="52.5" y1="192.5" x2="87.5" y2="192.5" stroke-linecap="square" stroke-width="1" stroke="black"></line><line x1="52.5" y1="192.5" x2="52.5" y2="227.5" stroke-linecap="square" stroke-width="1" stroke="black"></line><line x1="52.5" y1="227.5" x2="87.5" y2="227.5" stroke-linecap="square" stroke-width="1" stroke="black"></line><line x1="52.5" y1="227.5" x2="52.5" y2="262.5" stroke-linecap="square" stroke-width="1" stroke="black"></line><line x1="52.5" y1="262.5" x2="87.5" y2="262.5" stroke-linecap="square" stroke-width="1" stroke="black"></line><line x1="52.5" y1="262.5" x2="52.5" y2="297.5" stroke-linecap="square" stroke-width="1" stroke="black"></line><line x1="52.5" y1="297.5" x2="87.5" y2="297.5" stroke-linecap="square" stroke-width="1" stroke="black"></line><line x1="52.5" y1="297.5" x2="52.5" y2="332.5" stroke-linecap="square" stroke-width="1" stroke="black"></line><line x1="52.5" y1="332.5" x2="87.5" y2="332.5" stroke-linecap="square" stroke-width="1" stroke="black"></line><line x1="52.5" y1="332.5" x2="52.5" y2="367.5" stroke-linecap="square" stroke-width="1" stroke="black"></line><line x1="87.5" y1="17.5" x2="87.5" y2="52.5" stroke-linecap="square" stroke-width="1" stroke="black"></line><line x1="87.5" y1="52.5" x2="122.5" y2="52.5" stroke-linecap="square" stroke-width="1" stroke="black"></line><line x1="87.5" y1="52.5" x2="87.5" y2="87.5" stroke-linecap="square" stroke-width="1" stroke="black"></line><line x1="87.5" y1="87.5" x2="122.5" y2="87.5" stroke-linecap="square" stroke-width="1" stroke="black"></line><line x1="87.5" y1="87.5" x2="87.5" y2="122.5" stroke-linecap="square" stroke-width="1" stroke="black"></line><line x1="87.5" y1="122.5" x2="122.5" y2="122.5" stroke-linecap="square" stroke-width="1" stroke="black"></line><line x1="87.5" y1="122.5" x2="87.5" y2="157.5" stroke-linecap="square" stroke-width="1" stroke="black"></line><line x1="87.5" y1="157.5" x2="122.5" y2="157.5" stroke-linecap="square" stroke-width="1" stroke="black"></line><line x1="87.5" y1="157.5" x2="87.5" y2="192.5" stroke-linecap="square" stroke-width="1" stroke="black"></line><line x1="87.5" y1="192.5" x2="122.5" y2="192.5" stroke-linecap="square" stroke-width="1" stroke="black"></line><line x1="87.5" y1="192.5" x2="87.5" y2="227.5" stroke-linecap="square" stroke-width="1" stroke="black"></line><line x1="87.5" y1="227.5" x2="122.5" y2="227.5" stroke-linecap="square" stroke-width="1" stroke="black"></line><line x1="87.5" y1="227.5" x2="87.5" y2="262.5" stroke-linecap="square" stroke-width="1" stroke="black"></line><line x1="87.5" y1="262.5" x2="122.5" y2="262.5" stroke-linecap="square" stroke-width="1" stroke="black"></line><line x1="87.5" y1="262.5" x2="87.5" y2="297.5" stroke-linecap="square" stroke-width="1" stroke="black"></line><line x1="87.5" y1="297.5" x2="122.5" y2="297.5" stroke-linecap="square" stroke-width="1" stroke="black"></line><line x1="87.5" y1="297.5" x2="87.5" y2="332.5" stroke-linecap="square" stroke-width="1" stroke="black"></line><line x1="87.5" y1="332.5" x2="122.5" y2="332.5" stroke-linecap="square" stroke-width="1" stroke="black"></line><line x1="87.5" y1="332.5" x2="87.5" y2="367.5" stroke-linecap="square" stroke-width="1" stroke="black"></line><line x1="122.5" y1="17.5" x2="122.5" y2="52.5" stroke-linecap="square" stroke-width="1" stroke="black"></line><line x1="122.5" y1="52.5" x2="157.5" y2="52.5" stroke-linecap="square" stroke-width="1" stroke="black"></line><line x1="122.5" y1="52.5" x2="122.5" y2="87.5" stroke-linecap="square" stroke-width="1" stroke="black"></line><line x1="122.5" y1="87.5" x2="157.5" y2="87.5" stroke-linecap="square" stroke-width="1" stroke="black"></line><line x1="122.5" y1="87.5" x2="122.5" y2="122.5" stroke-linecap="square" stroke-width="1" stroke="black"></line><line x1="122.5" y1="122.5" x2="157.5" y2="122.5" stroke-linecap="square" stroke-width="1" stroke="black"></line><line x1="122.5" y1="122.5" x2="122.5" y2="157.5" stroke-linecap="square" stroke-width="1" stroke="black"></line><line x1="122.5" y1="157.5" x2="157.5" y2="157.5" stroke-linecap="square" stroke-width="1" stroke="black"></line><line x1="122.5" y1="157.5" x2="122.5" y2="192.5" stroke-linecap="square" stroke-width="1" stroke="black"></line><line x1="122.5" y1="192.5" x2="157.5" y2="192.5" stroke-linecap="square" stroke-width="1" stroke="black"></line><line x1="122.5" y1="192.5" x2="122.5" y2="227.5" stroke-linecap="square" stroke-width="1" stroke="black"></line><line x1="122.5" y1="227.5" x2="157.5" y2="227.5" stroke-linecap="square" stroke-width="1" stroke="black"></line><line x1="122.5" y1="227.5" x2="122.5" y2="262.5" stroke-linecap="square" stroke-width="1" stroke="black"></line><line x1="122.5" y1="262.5" x2="157.5" y2="262.5" stroke-linecap="square" stroke-width="1" stroke="black"></line><line x1="122.5" y1="262.5" x2="122.5" y2="297.5" stroke-linecap="square" stroke-width="1" stroke="black"></line><line x1="122.5" y1="297.5" x2="157.5" y2="297.5" stroke-linecap="square" stroke-width="1" stroke="black"></line><line x1="122.5" y1="297.5" x2="122.5" y2="332.5" stroke-linecap="square" stroke-width="1" stroke="black"></line><line x1="122.5" y1="332.5" x2="157.5" y2="332.5" stroke-linecap="square" stroke-width="1" stroke="black"></line><line x1="122.5" y1="332.5" x2="122.5" y2="367.5" stroke-linecap="square" stroke-width="1" stroke="black"></line><line x1="157.5" y1="17.5" x2="157.5" y2="52.5" stroke-linecap="square" stroke-width="1" stroke="black"></line><line x1="157.5" y1="52.5" x2="192.5" y2="52.5" stroke-linecap="square" stroke-width="1" stroke="black"></line><line x1="157.5" y1="52.5" x2="157.5" y2="87.5" stroke-linecap="square" stroke-width="1" stroke="black"></line><line x1="157.5" y1="87.5" x2="192.5" y2="87.5" stroke-linecap="square" stroke-width="1" stroke="black"></line><line x1="157.5" y1="87.5" x2="157.5" y2="122.5" stroke-linecap="square" stroke-width="1" stroke="black"></line><line x1="157.5" y1="122.5" x2="192.5" y2="122.5" stroke-linecap="square" stroke-width="1" stroke="black"></line><line x1="157.5" y1="122.5" x2="157.5" y2="157.5" stroke-linecap="square" stroke-width="1" stroke="black"></line><line x1="157.5" y1="157.5" x2="192.5" y2="157.5" stroke-linecap="square" stroke-width="1" stroke="black"></line><line x1="157.5" y1="157.5" x2="157.5" y2="192.5" stroke-linecap="square" stroke-width="1" stroke="black"></line><line x1="157.5" y1="192.5" x2="192.5" y2="192.5" stroke-linecap="square" stroke-width="1" stroke="black"></line><line x1="157.5" y1="192.5" x2="157.5" y2="227.5" stroke-linecap="square" stroke-width="1" stroke="black"></line><line x1="157.5" y1="227.5" x2="192.5" y2="227.5" stroke-linecap="square" stroke-width="1" stroke="black"></line><line x1="157.5" y1="227.5" x2="157.5" y2="262.5" stroke-linecap="square" stroke-width="1" stroke="black"></line><line x1="157.5" y1="262.5" x2="192.5" y2="262.5" stroke-linecap="square" stroke-width="1" stroke="black"></line><line x1="157.5" y1="262.5" x2="157.5" y2="297.5" stroke-linecap="square" stroke-width="1" stroke="black"></line><line x1="157.5" y1="297.5" x2="192.5" y2="297.5" stroke-linecap="square" stroke-width="1" stroke="black"></line><line x1="157.5" y1="297.5" x2="157.5" y2="332.5" stroke-linecap="square" stroke-width="1" stroke="black"></line><line x1="157.5" y1="332.5" x2="192.5" y2="332.5" stroke-linecap="square" stroke-width="1" stroke="black"></line><line x1="157.5" y1="332.5" x2="157.5" y2="367.5" stroke-linecap="square" stroke-width="1" stroke="black"></line><line x1="192.5" y1="17.5" x2="192.5" y2="52.5" stroke-linecap="square" stroke-width="1" stroke="black"></line><line x1="192.5" y1="52.5" x2="227.5" y2="52.5" stroke-linecap="square" stroke-width="1" stroke="black"></line><line x1="192.5" y1="52.5" x2="192.5" y2="87.5" stroke-linecap="square" stroke-width="1" stroke="black"></line><line x1="192.5" y1="87.5" x2="227.5" y2="87.5" stroke-linecap="square" stroke-width="1" stroke="black"></line><line x1="192.5" y1="87.5" x2="192.5" y2="122.5" stroke-linecap="square" stroke-width="1" stroke="black"></line><line x1="192.5" y1="122.5" x2="227.5" y2="122.5" stroke-linecap="square" stroke-width="1" stroke="black"></line><line x1="192.5" y1="122.5" x2="192.5" y2="157.5" stroke-linecap="square" stroke-width="1" stroke="black"></line><line x1="192.5" y1="157.5" x2="227.5" y2="157.5" stroke-linecap="square" stroke-width="1" stroke="black"></line><line x1="192.5" y1="157.5" x2="192.5" y2="192.5" stroke-linecap="square" stroke-width="1" stroke="black"></line><line x1="192.5" y1="192.5" x2="227.5" y2="192.5" stroke-linecap="square" stroke-width="1" stroke="black"></line><line x1="192.5" y1="192.5" x2="192.5" y2="227.5" stroke-linecap="square" stroke-width="1" stroke="black"></line><line x1="192.5" y1="227.5" x2="227.5" y2="227.5" stroke-linecap="square" stroke-width="1" stroke="black"></line><line x1="192.5" y1="227.5" x2="192.5" y2="262.5" stroke-linecap="square" stroke-width="1" stroke="black"></line><line x1="192.5" y1="262.5" x2="227.5" y2="262.5" stroke-linecap="square" stroke-width="1" stroke="black"></line><line x1="192.5" y1="262.5" x2="192.5" y2="297.5" stroke-linecap="square" stroke-width="1" stroke="black"></line><line x1="192.5" y1="297.5" x2="227.5" y2="297.5" stroke-linecap="square" stroke-width="1" stroke="black"></line><line x1="192.5" y1="297.5" x2="192.5" y2="332.5" stroke-linecap="square" stroke-width="1" stroke="black"></line><line x1="192.5" y1="332.5" x2="227.5" y2="332.5" stroke-linecap="square" stroke-width="1" stroke="black"></line><line x1="192.5" y1="332.5" x2="192.5" y2="367.5" stroke-linecap="square" stroke-width="1" stroke="black"></line><line x1="227.5" y1="17.5" x2="227.5" y2="52.5" stroke-linecap="square" stroke-width="1" stroke="black"></line><line x1="227.5" y1="52.5" x2="262.5" y2="52.5" stroke-linecap="square" stroke-width="1" stroke="black"></line><line x1="227.5" y1="52.5" x2="227.5" y2="87.5" stroke-linecap="square" stroke-width="1" stroke="black"></line><line x1="227.5" y1="87.5" x2="262.5" y2="87.5" stroke-linecap="square" stroke-width="1" stroke="black"></line><line x1="227.5" y1="87.5" x2="227.5" y2="122.5" stroke-linecap="square" stroke-width="1" stroke="black"></line><line x1="227.5" y1="122.5" x2="262.5" y2="122.5" stroke-linecap="square" stroke-width="1" stroke="black"></line><line x1="227.5" y1="122.5" x2="227.5" y2="157.5" stroke-linecap="square" stroke-width="1" stroke="black"></line><line x1="227.5" y1="157.5" x2="262.5" y2="157.5" stroke-linecap="square" stroke-width="1" stroke="black"></line><line x1="227.5" y1="157.5" x2="227.5" y2="192.5" stroke-linecap="square" stroke-width="1" stroke="black"></line><line x1="227.5" y1="192.5" x2="262.5" y2="192.5" stroke-linecap="square" stroke-width="1" stroke="black"></line><line x1="227.5" y1="192.5" x2="227.5" y2="227.5" stroke-linecap="square" stroke-width="1" stroke="black"></line><line x1="227.5" y1="227.5" x2="262.5" y2="227.5" stroke-linecap="square" stroke-width="1" stroke="black"></line><line x1="227.5" y1="227.5" x2="227.5" y2="262.5" stroke-linecap="square" stroke-width="1" stroke="black"></line><line x1="227.5" y1="262.5" x2="262.5" y2="262.5" stroke-linecap="square" stroke-width="1" stroke="black"></line><line x1="227.5" y1="262.5" x2="227.5" y2="297.5" stroke-linecap="square" stroke-width="1" stroke="black"></line><line x1="227.5" y1="297.5" x2="262.5" y2="297.5" stroke-linecap="square" stroke-width="1" stroke="black"></line><line x1="227.5" y1="297.5" x2="227.5" y2="332.5" stroke-linecap="square" stroke-width="1" stroke="black"></line><line x1="227.5" y1="332.5" x2="262.5" y2="332.5" stroke-linecap="square" stroke-width="1" stroke="black"></line><line x1="227.5" y1="332.5" x2="227.5" y2="367.5" stroke-linecap="square" stroke-width="1" stroke="black"></line><line x1="262.5" y1="17.5" x2="262.5" y2="52.5" stroke-linecap="square" stroke-width="1" stroke="black"></line><line x1="262.5" y1="52.5" x2="297.5" y2="52.5" stroke-linecap="square" stroke-width="1" stroke="black"></line><line x1="262.5" y1="52.5" x2="262.5" y2="87.5" stroke-linecap="square" stroke-width="1" stroke="black"></line><line x1="262.5" y1="87.5" x2="297.5" y2="87.5" stroke-linecap="square" stroke-width="1" stroke="black"></line><line x1="262.5" y1="87.5" x2="262.5" y2="122.5" stroke-linecap="square" stroke-width="1" stroke="black"></line><line x1="262.5" y1="122.5" x2="297.5" y2="122.5" stroke-linecap="square" stroke-width="1" stroke="black"></line><line x1="262.5" y1="122.5" x2="262.5" y2="157.5" stroke-linecap="square" stroke-width="1" stroke="black"></line><line x1="262.5" y1="157.5" x2="297.5" y2="157.5" stroke-linecap="square" stroke-width="1" stroke="black"></line><line x1="262.5" y1="157.5" x2="262.5" y2="192.5" stroke-linecap="square" stroke-width="1" stroke="black"></line><line x1="262.5" y1="192.5" x2="297.5" y2="192.5" stroke-linecap="square" stroke-width="1" stroke="black"></line><line x1="262.5" y1="192.5" x2="262.5" y2="227.5" stroke-linecap="square" stroke-width="1" stroke="black"></line><line x1="262.5" y1="227.5" x2="297.5" y2="227.5" stroke-linecap="square" stroke-width="1" stroke="black"></line><line x1="262.5" y1="227.5" x2="262.5" y2="262.5" stroke-linecap="square" stroke-width="1" stroke="black"></line><line x1="262.5" y1="262.5" x2="297.5" y2="262.5" stroke-linecap="square" stroke-width="1" stroke="black"></line><line x1="262.5" y1="262.5" x2="262.5" y2="297.5" stroke-linecap="square" stroke-width="1" stroke="black"></line><line x1="262.5" y1="297.5" x2="297.5" y2="297.5" stroke-linecap="square" stroke-width="1" stroke="black"></line><line x1="262.5" y1="297.5" x2="262.5" y2="332.5" stroke-linecap="square" stroke-width="1" stroke="black"></line><line x1="262.5" y1="332.5" x2="297.5" y2="332.5" stroke-linecap="square" stroke-width="1" stroke="black"></line><line x1="262.5" y1="332.5" x2="262.5" y2="367.5" stroke-linecap="square" stroke-width="1" stroke="black"></line><line x1="297.5" y1="17.5" x2="297.5" y2="52.5" stroke-linecap="square" stroke-width="1" stroke="black"></line><line x1="297.5" y1="52.5" x2="332.5" y2="52.5" stroke-linecap="square" stroke-width="1" stroke="black"></line><line x1="297.5" y1="52.5" x2="297.5" y2="87.5" stroke-linecap="square" stroke-width="1" stroke="black"></line><line x1="297.5" y1="87.5" x2="332.5" y2="87.5" stroke-linecap="square" stroke-width="1" stroke="black"></line><line x1="297.5" y1="87.5" x2="297.5" y2="122.5" stroke-linecap="square" stroke-width="1" stroke="black"></line><line x1="297.5" y1="122.5" x2="332.5" y2="122.5" stroke-linecap="square" stroke-width="1" stroke="black"></line><line x1="297.5" y1="122.5" x2="297.5" y2="157.5" stroke-linecap="square" stroke-width="1" stroke="black"></line><line x1="297.5" y1="157.5" x2="332.5" y2="157.5" stroke-linecap="square" stroke-width="1" stroke="black"></line><line x1="297.5" y1="157.5" x2="297.5" y2="192.5" stroke-linecap="square" stroke-width="1" stroke="black"></line><line x1="297.5" y1="192.5" x2="332.5" y2="192.5" stroke-linecap="square" stroke-width="1" stroke="black"></line><line x1="297.5" y1="192.5" x2="297.5" y2="227.5" stroke-linecap="square" stroke-width="1" stroke="black"></line><line x1="297.5" y1="227.5" x2="332.5" y2="227.5" stroke-linecap="square" stroke-width="1" stroke="black"></line><line x1="297.5" y1="227.5" x2="297.5" y2="262.5" stroke-linecap="square" stroke-width="1" stroke="black"></line><line x1="297.5" y1="262.5" x2="332.5" y2="262.5" stroke-linecap="square" stroke-width="1" stroke="black"></line><line x1="297.5" y1="262.5" x2="297.5" y2="297.5" stroke-linecap="square" stroke-width="1" stroke="black"></line><line x1="297.5" y1="297.5" x2="332.5" y2="297.5" stroke-linecap="square" stroke-width="1" stroke="black"></line><line x1="297.5" y1="297.5" x2="297.5" y2="332.5" stroke-linecap="square" stroke-width="1" stroke="black"></line><line x1="297.5" y1="332.5" x2="332.5" y2="332.5" stroke-linecap="square" stroke-width="1" stroke="black"></line><line x1="297.5" y1="332.5" x2="297.5" y2="367.5" stroke-linecap="square" stroke-width="1" stroke="black"></line><line x1="332.5" y1="17.5" x2="332.5" y2="52.5" stroke-linecap="square" stroke-width="1" stroke="black"></line><line x1="332.5" y1="52.5" x2="367.5" y2="52.5" stroke-linecap="square" stroke-width="1" stroke="black"></line><line x1="332.5" y1="52.5" x2="332.5" y2="87.5" stroke-linecap="square" stroke-width="1" stroke="black"></line><line x1="332.5" y1="87.5" x2="367.5" y2="87.5" stroke-linecap="square" stroke-width="1" stroke="black"></line><line x1="332.5" y1="87.5" x2="332.5" y2="122.5" stroke-linecap="square" stroke-width="1" stroke="black"></line><line x1="332.5" y1="122.5" x2="367.5" y2="122.5" stroke-linecap="square" stroke-width="1" stroke="black"></line><line x1="332.5" y1="122.5" x2="332.5" y2="157.5" stroke-linecap="square" stroke-width="1" stroke="black"></line><line x1="332.5" y1="157.5" x2="367.5" y2="157.5" stroke-linecap="square" stroke-width="1" stroke="black"></line><line x1="332.5" y1="157.5" x2="332.5" y2="192.5" stroke-linecap="square" stroke-width="1" stroke="black"></line><line x1="332.5" y1="192.5" x2="367.5" y2="192.5" stroke-linecap="square" stroke-width="1" stroke="black"></line><line x1="332.5" y1="192.5" x2="332.5" y2="227.5" stroke-linecap="square" stroke-width="1" stroke="black"></line><line x1="332.5" y1="227.5" x2="367.5" y2="227.5" stroke-linecap="square" stroke-width="1" stroke="black"></line><line x1="332.5" y1="227.5" x2="332.5" y2="262.5" stroke-linecap="square" stroke-width="1" stroke="black"></line><line x1="332.5" y1="262.5" x2="367.5" y2="262.5" stroke-linecap="square" stroke-width="1" stroke="black"></line><line x1="332.5" y1="262.5" x2="332.5" y2="297.5" stroke-linecap="square" stroke-width="1" stroke="black"></line><line x1="332.5" y1="297.5" x2="367.5" y2="297.5" stroke-linecap="square" stroke-width="1" stroke="black"></line><line x1="332.5" y1="297.5" x2="332.5" y2="332.5" stroke-linecap="square" stroke-width="1" stroke="black"></line><line x1="332.5" y1="332.5" x2="367.5" y2="332.5" stroke-linecap="square" stroke-width="1" stroke="black"></line><line x1="332.5" y1="332.5" x2="332.5" y2="367.5" stroke-linecap="square" stroke-width="1" stroke="black"></line><text font-family="Helvetica, Arial, sans-serif" x="210" y="35" font-size="21" text-anchor="middle" dominant-baseline="central" svgjs:data="{&quot;leading&quot;:&quot;1.3&quot;}">5</text><text font-family="Helvetica, Arial, sans-serif" x="350" y="35" font-size="21" text-anchor="middle" dominant-baseline="central" svgjs:data="{&quot;leading&quot;:&quot;1.3&quot;}">4</text><text font-family="Helvetica, Arial, sans-serif" x="140" y="210" font-size="21" text-anchor="middle" dominant-baseline="central" svgjs:data="{&quot;leading&quot;:&quot;1.3&quot;}">3</text><text font-family="Helvetica, Arial, sans-serif" x="315" y="210" font-size="21" text-anchor="middle" dominant-baseline="central" svgjs:data="{&quot;leading&quot;:&quot;1.3&quot;}">3</text><text font-family="Helvetica, Arial, sans-serif" x="70" y="280" font-size="21" text-anchor="middle" dominant-baseline="central" svgjs:data="{&quot;leading&quot;:&quot;1.3&quot;}">7</text><text font-family="Helvetica, Arial, sans-serif" x="315" y="315" font-size="21" text-anchor="middle" dominant-baseline="central" svgjs:data="{&quot;leading&quot;:&quot;1.3&quot;}">4</text><text font-family="Helvetica, Arial, sans-serif" x="35" y="350" font-size="21" text-anchor="middle" dominant-baseline="central" svgjs:data="{&quot;leading&quot;:&quot;1.3&quot;}">3</text></svg>