<?xml version="1.0" encoding="UTF-8"?>
<svg xmlns="http://www.w3.org/2000/svg" xmlns:xlink="http://www.w3.org/1999/xlink" font-size="10px" font-family="sans-serif" width="395" height="395" viewBox="-5.5 -5.5 395 395"><g shape-rendering="crispEdges"><path fill="white" stroke="none" d="M -0.5 -0.5 L 385.5 -0.5 385.5 385.5 -0.5 385.5 z"></path></g><g shape-rendering="crispEdges"></g><g shape-rendering="crispEdges"></g><g shape-rendering="auto"></g><g shape-rendering="crispEdges"><path fill="none" stroke="black" d="M 35 0 L 35 385" stroke-width="1"></path><path fill="none" stroke="black" d="M 70 0 L 70 385" stroke-width="1"></path><path fill="none" stroke="black" d="M 105 0 L 105 385" stroke-width="1"></path><path fill="none" stroke="black" d="M 140 0 L 140 385" stroke-width="1"></path><path fill="none" stroke="black" d="M 175 0 L 175 385" stroke-width="1"></path><path fill="none" stroke="black" d="M 210 0 L 210 385" stroke-width="1"></path><path fill="none" stroke="black" d="M 245 0 L 245 385" stroke-width="1"></path><path fill="none" stroke="black" d="M 280 0 L 280 385" stroke-width="1"></path><path fill="none" stroke="black" d="M 315 0 L 315 385" stroke-width="1"></path><path fill="none" stroke="black" d="M 350 0 L 350 385" stroke-width="1"></path><path fill="none" stroke="black" d="M 0 35 L 385 35" stroke-width="1"></path><path fill="none" stroke="black" d="M 0 70 L 385 70" stroke-width="1"></path><path fill="none" stroke="black" d="M 0 105 L 385 105" stroke-width="1"></path><path fill="none" stroke="black" d="M 0 140 L 385 140" stroke-width="1"></path><path fill="none" stroke="black" d="M 0 175 L 385 175" stroke-width="1"></path><path fill="none" stroke="black" d="M 0 210 L 385 210" stroke-width="1"></path><path fill="none" stroke="black" d="M 0 245 L 385 245" stroke-width="1"></path><path fill="none" stroke="black" d="M 0 280 L 385 280" stroke-width="1"></path><path fill="none" stroke="black" d="M 0 315 L 385 315" stroke-width="1"></path><path fill="none" stroke="black" d="M 0 350 L 385 350" stroke-width="1"></path></g><g shape-rendering="auto"><text fill="black" x="192.5" y="62.3" text-anchor="middle" textLength="28" lengthAdjust="spacingAndGlyphs" font-size="28">11</text><text fill="black" x="157.5" y="132.3" text-anchor="middle" font-size="28">?</text><text fill="black" x="227.5" y="132.3" text-anchor="middle" textLength="28" lengthAdjust="spacingAndGlyphs" font-size="28">14</text><text fill="black" x="122.5" y="202.3" text-anchor="middle" font-size="28">?</text><text fill="black" x="192.5" y="202.3" text-anchor="middle" font-size="28">6</text><text fill="black" x="262.5" y="202.3" text-anchor="middle" font-size="28">3</text><text fill="black" x="87.5" y="272.3" text-anchor="middle" font-size="28">?</text><text fill="black" x="297.5" y="272.3" text-anchor="middle" font-size="28">7</text><text fill="black" x="52.5" y="342.3" text-anchor="middle" font-size="28">6</text><text fill="black" x="332.5" y="342.3" text-anchor="middle" font-size="28">?</text></g><g shape-rendering="crispEdges"><path fill="black" stroke="none" d="M -2 -2 L 2 -2 2 387 -2 387 z"></path><path fill="black" stroke="none" d="M 383 -2 L 387 -2 387 387 383 387 z"></path><path fill="black" stroke="none" d="M -2 -2 L 387 -2 387 2 -2 2 z"></path><path fill="black" stroke="none" d="M -2 383 L 387 383 387 387 -2 387 z"></path></g><g shape-rendering="crispEdges"></g></svg>