<?xml version="1.0" encoding="UTF-8"?>
<svg xmlns="http://www.w3.org/2000/svg" xmlns:xlink="http://www.w3.org/1999/xlink" font-size="10px" font-family="sans-serif" width="395" height="395" viewBox="-5.5 -5.5 395 395"><g shape-rendering="crispEdges"><path fill="white" stroke="none" d="M -0.5 -0.5 L 385.5 -0.5 385.5 385.5 -0.5 385.5 z"></path></g><g shape-rendering="crispEdges"></g><g shape-rendering="crispEdges"><path fill="black" stroke="none" d="M 209.5 -0.5 L 245.5 -0.5 245.5 35.5 209.5 35.5 z"></path><path fill="black" stroke="none" d="M 244.5 -0.5 L 280.5 -0.5 280.5 35.5 244.5 35.5 z"></path><path fill="black" stroke="none" d="M 69.5 34.5 L 105.5 34.5 105.5 70.5 69.5 70.5 z"></path><path fill="black" stroke="none" d="M 104.5 34.5 L 140.5 34.5 140.5 70.5 104.5 70.5 z"></path><path fill="black" stroke="none" d="M 209.5 34.5 L 245.5 34.5 245.5 70.5 209.5 70.5 z"></path><path fill="black" stroke="none" d="M -0.5 69.5 L 35.5 69.5 35.5 105.5 -0.5 105.5 z"></path><path fill="black" stroke="none" d="M 69.5 69.5 L 105.5 69.5 105.5 105.5 69.5 105.5 z"></path><path fill="black" stroke="none" d="M 139.5 69.5 L 175.5 69.5 175.5 105.5 139.5 105.5 z"></path><path fill="black" stroke="none" d="M 174.5 69.5 L 210.5 69.5 210.5 105.5 174.5 105.5 z"></path><path fill="black" stroke="none" d="M 279.5 69.5 L 315.5 69.5 315.5 105.5 279.5 105.5 z"></path><path fill="black" stroke="none" d="M 314.5 69.5 L 350.5 69.5 350.5 105.5 314.5 105.5 z"></path><path fill="black" stroke="none" d="M -0.5 104.5 L 35.5 104.5 35.5 140.5 -0.5 140.5 z"></path><path fill="black" stroke="none" d="M 34.5 104.5 L 70.5 104.5 70.5 140.5 34.5 140.5 z"></path><path fill="black" stroke="none" d="M 174.5 104.5 L 210.5 104.5 210.5 140.5 174.5 140.5 z"></path><path fill="black" stroke="none" d="M 279.5 104.5 L 315.5 104.5 315.5 140.5 279.5 140.5 z"></path><path fill="black" stroke="none" d="M 104.5 139.5 L 140.5 139.5 140.5 175.5 104.5 175.5 z"></path><path fill="black" stroke="none" d="M 139.5 139.5 L 175.5 139.5 175.5 175.5 139.5 175.5 z"></path><path fill="black" stroke="none" d="M 209.5 139.5 L 245.5 139.5 245.5 175.5 209.5 175.5 z"></path><path fill="black" stroke="none" d="M 244.5 139.5 L 280.5 139.5 280.5 175.5 244.5 175.5 z"></path><path fill="black" stroke="none" d="M 314.5 139.5 L 350.5 139.5 350.5 175.5 314.5 175.5 z"></path><path fill="black" stroke="none" d="M 349.5 139.5 L 385.5 139.5 385.5 175.5 349.5 175.5 z"></path><path fill="black" stroke="none" d="M 69.5 174.5 L 105.5 174.5 105.5 210.5 69.5 210.5 z"></path><path fill="black" stroke="none" d="M 139.5 174.5 L 175.5 174.5 175.5 210.5 139.5 210.5 z"></path><path fill="black" stroke="none" d="M 209.5 174.5 L 245.5 174.5 245.5 210.5 209.5 210.5 z"></path><path fill="black" stroke="none" d="M 314.5 174.5 L 350.5 174.5 350.5 210.5 314.5 210.5 z"></path><path fill="black" stroke="none" d="M 69.5 209.5 L 105.5 209.5 105.5 245.5 69.5 245.5 z"></path><path fill="black" stroke="none" d="M 104.5 209.5 L 140.5 209.5 140.5 245.5 104.5 245.5 z"></path><path fill="black" stroke="none" d="M 244.5 209.5 L 280.5 209.5 280.5 245.5 244.5 245.5 z"></path><path fill="black" stroke="none" d="M 279.5 209.5 L 315.5 209.5 315.5 245.5 279.5 245.5 z"></path><path fill="black" stroke="none" d="M -0.5 244.5 L 35.5 244.5 35.5 280.5 -0.5 280.5 z"></path><path fill="black" stroke="none" d="M 34.5 244.5 L 70.5 244.5 70.5 280.5 34.5 280.5 z"></path><path fill="black" stroke="none" d="M 139.5 244.5 L 175.5 244.5 175.5 280.5 139.5 280.5 z"></path><path fill="black" stroke="none" d="M 174.5 244.5 L 210.5 244.5 210.5 280.5 174.5 280.5 z"></path><path fill="black" stroke="none" d="M 244.5 244.5 L 280.5 244.5 280.5 280.5 244.5 280.5 z"></path><path fill="black" stroke="none" d="M 34.5 279.5 L 70.5 279.5 70.5 315.5 34.5 315.5 z"></path><path fill="black" stroke="none" d="M 139.5 279.5 L 175.5 279.5 175.5 315.5 139.5 315.5 z"></path><path fill="black" stroke="none" d="M 209.5 279.5 L 245.5 279.5 245.5 315.5 209.5 315.5 z"></path><path fill="black" stroke="none" d="M 279.5 279.5 L 315.5 279.5 315.5 315.5 279.5 315.5 z"></path><path fill="black" stroke="none" d="M 314.5 279.5 L 350.5 279.5 350.5 315.5 314.5 315.5 z"></path><path fill="black" stroke="none" d="M 69.5 314.5 L 105.5 314.5 105.5 350.5 69.5 350.5 z"></path><path fill="black" stroke="none" d="M 104.5 314.5 L 140.5 314.5 140.5 350.5 104.5 350.5 z"></path><path fill="black" stroke="none" d="M 174.5 314.5 L 210.5 314.5 210.5 350.5 174.5 350.5 z"></path><path fill="black" stroke="none" d="M 209.5 314.5 L 245.5 314.5 245.5 350.5 209.5 350.5 z"></path><path fill="black" stroke="none" d="M 279.5 314.5 L 315.5 314.5 315.5 350.5 279.5 350.5 z"></path><path fill="black" stroke="none" d="M 349.5 314.5 L 385.5 314.5 385.5 350.5 349.5 350.5 z"></path><path fill="black" stroke="none" d="M 104.5 349.5 L 140.5 349.5 140.5 385.5 104.5 385.5 z"></path><path fill="black" stroke="none" d="M 314.5 349.5 L 350.5 349.5 350.5 385.5 314.5 385.5 z"></path><path fill="black" stroke="none" d="M 349.5 349.5 L 385.5 349.5 385.5 385.5 349.5 385.5 z"></path></g><g shape-rendering="auto"><path fill="black" stroke="none" d="M 19.6 17.625 A 2.1 2.1 0 1 1 19.6 17.5 z"></path><path fill="black" stroke="none" d="M 54.6 17.625 A 2.1 2.1 0 1 1 54.6 17.5 z"></path><path fill="black" stroke="none" d="M 89.6 17.625 A 2.1 2.1 0 1 1 89.6 17.5 z"></path><path fill="black" stroke="none" d="M 124.6 17.625 A 2.1 2.1 0 1 1 124.6 17.5 z"></path><path fill="black" stroke="none" d="M 159.6 17.625 A 2.1 2.1 0 1 1 159.6 17.5 z"></path><path fill="black" stroke="none" d="M 194.6 17.625 A 2.1 2.1 0 1 1 194.6 17.5 z"></path><path fill="black" stroke="none" d="M 299.6 17.625 A 2.1 2.1 0 1 1 299.6 17.5 z"></path><path fill="black" stroke="none" d="M 334.6 17.625 A 2.1 2.1 0 1 1 334.6 17.5 z"></path><path fill="black" stroke="none" d="M 369.6 17.625 A 2.1 2.1 0 1 1 369.6 17.5 z"></path><path fill="black" stroke="none" d="M 19.6 52.625 A 2.1 2.1 0 1 1 19.6 52.5 z"></path><path fill="black" stroke="none" d="M 54.6 52.625 A 2.1 2.1 0 1 1 54.6 52.5 z"></path><path fill="black" stroke="none" d="M 159.6 52.625 A 2.1 2.1 0 1 1 159.6 52.5 z"></path><path fill="black" stroke="none" d="M 264.6 52.625 A 2.1 2.1 0 1 1 264.6 52.5 z"></path><path fill="black" stroke="none" d="M 299.6 52.625 A 2.1 2.1 0 1 1 299.6 52.5 z"></path><path fill="black" stroke="none" d="M 334.6 52.625 A 2.1 2.1 0 1 1 334.6 52.5 z"></path><path fill="black" stroke="none" d="M 369.6 52.625 A 2.1 2.1 0 1 1 369.6 52.5 z"></path><path fill="black" stroke="none" d="M 54.6 87.625 A 2.1 2.1 0 1 1 54.6 87.5 z"></path><path fill="black" stroke="none" d="M 124.6 87.625 A 2.1 2.1 0 1 1 124.6 87.5 z"></path><path fill="black" stroke="none" d="M 229.6 87.625 A 2.1 2.1 0 1 1 229.6 87.5 z"></path><path fill="black" stroke="none" d="M 264.6 87.625 A 2.1 2.1 0 1 1 264.6 87.5 z"></path><path fill="black" stroke="none" d="M 369.6 87.625 A 2.1 2.1 0 1 1 369.6 87.5 z"></path><path fill="black" stroke="none" d="M 89.6 122.625 A 2.1 2.1 0 1 1 89.6 122.5 z"></path><path fill="black" stroke="none" d="M 124.6 122.625 A 2.1 2.1 0 1 1 124.6 122.5 z"></path><path fill="black" stroke="none" d="M 264.6 122.625 A 2.1 2.1 0 1 1 264.6 122.5 z"></path><path fill="black" stroke="none" d="M 334.6 122.625 A 2.1 2.1 0 1 1 334.6 122.5 z"></path><path fill="black" stroke="none" d="M 369.6 122.625 A 2.1 2.1 0 1 1 369.6 122.5 z"></path><path fill="black" stroke="none" d="M 19.6 157.625 A 2.1 2.1 0 1 1 19.6 157.5 z"></path><path fill="black" stroke="none" d="M 54.6 157.625 A 2.1 2.1 0 1 1 54.6 157.5 z"></path><path fill="black" stroke="none" d="M 89.6 157.625 A 2.1 2.1 0 1 1 89.6 157.5 z"></path><path fill="black" stroke="none" d="M 194.6 157.625 A 2.1 2.1 0 1 1 194.6 157.5 z"></path><path fill="black" stroke="none" d="M 299.6 157.625 A 2.1 2.1 0 1 1 299.6 157.5 z"></path><path fill="black" stroke="none" d="M 19.6 192.625 A 2.1 2.1 0 1 1 19.6 192.5 z"></path><path fill="black" stroke="none" d="M 54.6 192.625 A 2.1 2.1 0 1 1 54.6 192.5 z"></path><path fill="black" stroke="none" d="M 299.6 192.625 A 2.1 2.1 0 1 1 299.6 192.5 z"></path><path fill="black" stroke="none" d="M 369.6 192.625 A 2.1 2.1 0 1 1 369.6 192.5 z"></path><path fill="black" stroke="none" d="M 19.6 227.625 A 2.1 2.1 0 1 1 19.6 227.5 z"></path><path fill="black" stroke="none" d="M 54.6 227.625 A 2.1 2.1 0 1 1 54.6 227.5 z"></path><path fill="black" stroke="none" d="M 159.6 227.625 A 2.1 2.1 0 1 1 159.6 227.5 z"></path><path fill="black" stroke="none" d="M 194.6 227.625 A 2.1 2.1 0 1 1 194.6 227.5 z"></path><path fill="black" stroke="none" d="M 229.6 227.625 A 2.1 2.1 0 1 1 229.6 227.5 z"></path><path fill="black" stroke="none" d="M 334.6 227.625 A 2.1 2.1 0 1 1 334.6 227.5 z"></path><path fill="black" stroke="none" d="M 369.6 227.625 A 2.1 2.1 0 1 1 369.6 227.5 z"></path><path fill="black" stroke="none" d="M 124.6 262.625 A 2.1 2.1 0 1 1 124.6 262.5 z"></path><path fill="black" stroke="none" d="M 229.6 262.625 A 2.1 2.1 0 1 1 229.6 262.5 z"></path><path fill="black" stroke="none" d="M 334.6 262.625 A 2.1 2.1 0 1 1 334.6 262.5 z"></path><path fill="black" stroke="none" d="M 369.6 262.625 A 2.1 2.1 0 1 1 369.6 262.5 z"></path><path fill="black" stroke="none" d="M 19.6 297.625 A 2.1 2.1 0 1 1 19.6 297.5 z"></path><path fill="black" stroke="none" d="M 89.6 297.625 A 2.1 2.1 0 1 1 89.6 297.5 z"></path><path fill="black" stroke="none" d="M 124.6 297.625 A 2.1 2.1 0 1 1 124.6 297.5 z"></path><path fill="black" stroke="none" d="M 194.6 297.625 A 2.1 2.1 0 1 1 194.6 297.5 z"></path><path fill="black" stroke="none" d="M 264.6 297.625 A 2.1 2.1 0 1 1 264.6 297.5 z"></path><path fill="black" stroke="none" d="M 369.6 297.625 A 2.1 2.1 0 1 1 369.6 297.5 z"></path><path fill="black" stroke="none" d="M 19.6 332.625 A 2.1 2.1 0 1 1 19.6 332.5 z"></path><path fill="black" stroke="none" d="M 159.6 332.625 A 2.1 2.1 0 1 1 159.6 332.5 z"></path><path fill="black" stroke="none" d="M 264.6 332.625 A 2.1 2.1 0 1 1 264.6 332.5 z"></path><path fill="black" stroke="none" d="M 19.6 367.625 A 2.1 2.1 0 1 1 19.6 367.5 z"></path><path fill="black" stroke="none" d="M 54.6 367.625 A 2.1 2.1 0 1 1 54.6 367.5 z"></path><path fill="black" stroke="none" d="M 89.6 367.625 A 2.1 2.1 0 1 1 89.6 367.5 z"></path><path fill="black" stroke="none" d="M 159.6 367.625 A 2.1 2.1 0 1 1 159.6 367.5 z"></path><path fill="black" stroke="none" d="M 194.6 367.625 A 2.1 2.1 0 1 1 194.6 367.5 z"></path><path fill="black" stroke="none" d="M 229.6 367.625 A 2.1 2.1 0 1 1 229.6 367.5 z"></path><path fill="black" stroke="none" d="M 264.6 367.625 A 2.1 2.1 0 1 1 264.6 367.5 z"></path><path fill="black" stroke="none" d="M 299.6 367.625 A 2.1 2.1 0 1 1 299.6 367.5 z"></path></g><g shape-rendering="crispEdges"><path fill="none" stroke="black" d="M 35 0 L 35 385" stroke-width="1"></path><path fill="none" stroke="black" d="M 70 0 L 70 385" stroke-width="1"></path><path fill="none" stroke="black" d="M 105 0 L 105 385" stroke-width="1"></path><path fill="none" stroke="black" d="M 140 0 L 140 385" stroke-width="1"></path><path fill="none" stroke="black" d="M 175 0 L 175 385" stroke-width="1"></path><path fill="none" stroke="black" d="M 210 0 L 210 385" stroke-width="1"></path><path fill="none" stroke="black" d="M 245 0 L 245 385" stroke-width="1"></path><path fill="none" stroke="black" d="M 280 0 L 280 385" stroke-width="1"></path><path fill="none" stroke="black" d="M 315 0 L 315 385" stroke-width="1"></path><path fill="none" stroke="black" d="M 350 0 L 350 385" stroke-width="1"></path><path fill="none" stroke="black" d="M 0 35 L 385 35" stroke-width="1"></path><path fill="none" stroke="black" d="M 0 70 L 385 70" stroke-width="1"></path><path fill="none" stroke="black" d="M 0 105 L 385 105" stroke-width="1"></path><path fill="none" stroke="black" d="M 0 140 L 385 140" stroke-width="1"></path><path fill="none" stroke="black" d="M 0 175 L 385 175" stroke-width="1"></path><path fill="none" stroke="black" d="M 0 210 L 385 210" stroke-width="1"></path><path fill="none" stroke="black" d="M 0 245 L 385 245" stroke-width="1"></path><path fill="none" stroke="black" d="M 0 280 L 385 280" stroke-width="1"></path><path fill="none" stroke="black" d="M 0 315 L 385 315" stroke-width="1"></path><path fill="none" stroke="black" d="M 0 350 L 385 350" stroke-width="1"></path></g><g shape-rendering="auto"><text fill="black" x="192.5" y="62.3" text-anchor="middle" textLength="28" lengthAdjust="spacingAndGlyphs" font-size="28">11</text><text fill="black" x="157.5" y="132.3" text-anchor="middle" font-size="28">?</text><text fill="black" x="227.5" y="132.3" text-anchor="middle" textLength="28" lengthAdjust="spacingAndGlyphs" font-size="28">14</text><text fill="black" x="122.5" y="202.3" text-anchor="middle" font-size="28">?</text><text fill="black" x="192.5" y="202.3" text-anchor="middle" font-size="28">6</text><text fill="black" x="262.5" y="202.3" text-anchor="middle" font-size="28">3</text><text fill="black" x="87.5" y="272.3" text-anchor="middle" font-size="28">?</text><text fill="black" x="297.5" y="272.3" text-anchor="middle" font-size="28">7</text><text fill="black" x="52.5" y="342.3" text-anchor="middle" font-size="28">6</text><text fill="black" x="332.5" y="342.3" text-anchor="middle" font-size="28">?</text></g><g shape-rendering="crispEdges"><path fill="black" stroke="none" d="M -2 -2 L 2 -2 2 387 -2 387 z"></path><path fill="black" stroke="none" d="M 383 -2 L 387 -2 387 387 383 387 z"></path><path fill="black" stroke="none" d="M -2 -2 L 387 -2 387 2 -2 2 z"></path><path fill="black" stroke="none" d="M -2 383 L 387 383 387 387 -2 387 z"></path></g><g shape-rendering="crispEdges"></g></svg>