<svg width="350" height="350" xmlns="http://www.w3.org/2000/svg" version="1.1" xmlns:xlink="http://www.w3.org/1999/xlink" xmlns:svgjs="http://svgjs.com/svgjs"><rect width="350" height="350" x="0" y="0" fill="white" stroke="transparent"></rect><line x1="25" y1="25" x2="75" y2="25" stroke-linecap="square" stroke-width="5" stroke="black"></line><line x1="25" y1="325" x2="75" y2="325" stroke-linecap="square" stroke-width="5" stroke="black"></line><line x1="75" y1="25" x2="125" y2="25" stroke-linecap="square" stroke-width="5" stroke="black"></line><line x1="75" y1="325" x2="125" y2="325" stroke-linecap="square" stroke-width="5" stroke="black"></line><line x1="125" y1="25" x2="175" y2="25" stroke-linecap="square" stroke-width="5" stroke="black"></line><line x1="125" y1="325" x2="175" y2="325" stroke-linecap="square" stroke-width="5" stroke="black"></line><line x1="175" y1="25" x2="225" y2="25" stroke-linecap="square" stroke-width="5" stroke="black"></line><line x1="175" y1="325" x2="225" y2="325" stroke-linecap="square" stroke-width="5" stroke="black"></line><line x1="225" y1="25" x2="275" y2="25" stroke-linecap="square" stroke-width="5" stroke="black"></line><line x1="225" y1="325" x2="275" y2="325" stroke-linecap="square" stroke-width="5" stroke="black"></line><line x1="275" y1="25" x2="325" y2="25" stroke-linecap="square" stroke-width="5" stroke="black"></line><line x1="275" y1="325" x2="325" y2="325" stroke-linecap="square" stroke-width="5" stroke="black"></line><line x1="25" y1="25" x2="25" y2="75" stroke-linecap="square" stroke-width="5" stroke="black"></line><line x1="325" y1="25" x2="325" y2="75" stroke-linecap="square" stroke-width="5" stroke="black"></line><line x1="25" y1="75" x2="25" y2="125" stroke-linecap="square" stroke-width="5" stroke="black"></line><line x1="325" y1="75" x2="325" y2="125" stroke-linecap="square" stroke-width="5" stroke="black"></line><line x1="25" y1="125" x2="25" y2="175" stroke-linecap="square" stroke-width="5" stroke="black"></line><line x1="325" y1="125" x2="325" y2="175" stroke-linecap="square" stroke-width="5" stroke="black"></line><line x1="25" y1="175" x2="25" y2="225" stroke-linecap="square" stroke-width="5" stroke="black"></line><line x1="325" y1="175" x2="325" y2="225" stroke-linecap="square" stroke-width="5" stroke="black"></line><line x1="25" y1="225" x2="25" y2="275" stroke-linecap="square" stroke-width="5" stroke="black"></line><line x1="325" y1="225" x2="325" y2="275" stroke-linecap="square" stroke-width="5" stroke="black"></line><line x1="25" y1="275" x2="25" y2="325" stroke-linecap="square" stroke-width="5" stroke="black"></line><line x1="325" y1="275" x2="325" y2="325" stroke-linecap="square" stroke-width="5" stroke="black"></line><line x1="25" y1="75" x2="75" y2="75" stroke-linecap="square" stroke-width="1" stroke="black"></line><line x1="25" y1="125" x2="75" y2="125" stroke-linecap="square" stroke-width="1" stroke="black"></line><line x1="25" y1="175" x2="75" y2="175" stroke-linecap="square" stroke-width="1" stroke="black"></line><line x1="25" y1="225" x2="75" y2="225" stroke-linecap="square" stroke-width="1" stroke="black"></line><line x1="25" y1="275" x2="75" y2="275" stroke-linecap="square" stroke-width="1" stroke="black"></line><line x1="75" y1="25" x2="75" y2="75" stroke-linecap="square" stroke-width="1" stroke="black"></line><line x1="75" y1="75" x2="125" y2="75" stroke-linecap="square" stroke-width="1" stroke="black"></line><line x1="75" y1="75" x2="75" y2="125" stroke-linecap="square" stroke-width="1" stroke="black"></line><line x1="75" y1="125" x2="125" y2="125" stroke-linecap="square" stroke-width="1" stroke="black"></line><line x1="75" y1="125" x2="75" y2="175" stroke-linecap="square" stroke-width="1" stroke="black"></line><line x1="75" y1="175" x2="125" y2="175" stroke-linecap="square" stroke-width="1" stroke="black"></line><line x1="75" y1="175" x2="75" y2="225" stroke-linecap="square" stroke-width="1" stroke="black"></line><line x1="75" y1="225" x2="125" y2="225" stroke-linecap="square" stroke-width="1" stroke="black"></line><line x1="75" y1="225" x2="75" y2="275" stroke-linecap="square" stroke-width="1" stroke="black"></line><line x1="75" y1="275" x2="125" y2="275" stroke-linecap="square" stroke-width="1" stroke="black"></line><line x1="75" y1="275" x2="75" y2="325" stroke-linecap="square" stroke-width="1" stroke="black"></line><line x1="125" y1="25" x2="125" y2="75" stroke-linecap="square" stroke-width="1" stroke="black"></line><line x1="125" y1="75" x2="175" y2="75" stroke-linecap="square" stroke-width="1" stroke="black"></line><line x1="125" y1="75" x2="125" y2="125" stroke-linecap="square" stroke-width="1" stroke="black"></line><line x1="125" y1="125" x2="175" y2="125" stroke-linecap="square" stroke-width="1" stroke="black"></line><line x1="125" y1="125" x2="125" y2="175" stroke-linecap="square" stroke-width="1" stroke="black"></line><line x1="125" y1="175" x2="175" y2="175" stroke-linecap="square" stroke-width="1" stroke="black"></line><line x1="125" y1="175" x2="125" y2="225" stroke-linecap="square" stroke-width="1" stroke="black"></line><line x1="125" y1="225" x2="175" y2="225" stroke-linecap="square" stroke-width="1" stroke="black"></line><line x1="125" y1="225" x2="125" y2="275" stroke-linecap="square" stroke-width="1" stroke="black"></line><line x1="125" y1="275" x2="175" y2="275" stroke-linecap="square" stroke-width="1" stroke="black"></line><line x1="125" y1="275" x2="125" y2="325" stroke-linecap="square" stroke-width="1" stroke="black"></line><line x1="175" y1="25" x2="175" y2="75" stroke-linecap="square" stroke-width="1" stroke="black"></line><line x1="175" y1="75" x2="225" y2="75" stroke-linecap="square" stroke-width="1" stroke="black"></line><line x1="175" y1="75" x2="175" y2="125" stroke-linecap="square" stroke-width="1" stroke="black"></line><line x1="175" y1="125" x2="225" y2="125" stroke-linecap="square" stroke-width="1" stroke="black"></line><line x1="175" y1="125" x2="175" y2="175" stroke-linecap="square" stroke-width="1" stroke="black"></line><line x1="175" y1="175" x2="225" y2="175" stroke-linecap="square" stroke-width="1" stroke="black"></line><line x1="175" y1="175" x2="175" y2="225" stroke-linecap="square" stroke-width="1" stroke="black"></line><line x1="175" y1="225" x2="225" y2="225" stroke-linecap="square" stroke-width="1" stroke="black"></line><line x1="175" y1="225" x2="175" y2="275" stroke-linecap="square" stroke-width="1" stroke="black"></line><line x1="175" y1="275" x2="225" y2="275" stroke-linecap="square" stroke-width="1" stroke="black"></line><line x1="175" y1="275" x2="175" y2="325" stroke-linecap="square" stroke-width="1" stroke="black"></line><line x1="225" y1="25" x2="225" y2="75" stroke-linecap="square" stroke-width="1" stroke="black"></line><line x1="225" y1="75" x2="275" y2="75" stroke-linecap="square" stroke-width="1" stroke="black"></line><line x1="225" y1="75" x2="225" y2="125" stroke-linecap="square" stroke-width="1" stroke="black"></line><line x1="225" y1="125" x2="275" y2="125" stroke-linecap="square" stroke-width="1" stroke="black"></line><line x1="225" y1="125" x2="225" y2="175" stroke-linecap="square" stroke-width="1" stroke="black"></line><line x1="225" y1="175" x2="275" y2="175" stroke-linecap="square" stroke-width="1" stroke="black"></line><line x1="225" y1="175" x2="225" y2="225" stroke-linecap="square" stroke-width="1" stroke="black"></line><line x1="225" y1="225" x2="275" y2="225" stroke-linecap="square" stroke-width="1" stroke="black"></line><line x1="225" y1="225" x2="225" y2="275" stroke-linecap="square" stroke-width="1" stroke="black"></line><line x1="225" y1="275" x2="275" y2="275" stroke-linecap="square" stroke-width="1" stroke="black"></line><line x1="225" y1="275" x2="225" y2="325" stroke-linecap="square" stroke-width="1" stroke="black"></line><line x1="275" y1="25" x2="275" y2="75" stroke-linecap="square" stroke-width="1" stroke="black"></line><line x1="275" y1="75" x2="325" y2="75" stroke-linecap="square" stroke-width="1" stroke="black"></line><line x1="275" y1="75" x2="275" y2="125" stroke-linecap="square" stroke-width="1" stroke="black"></line><line x1="275" y1="125" x2="325" y2="125" stroke-linecap="square" stroke-width="1" stroke="black"></line><line x1="275" y1="125" x2="275" y2="175" stroke-linecap="square" stroke-width="1" stroke="black"></line><line x1="275" y1="175" x2="325" y2="175" stroke-linecap="square" stroke-width="1" stroke="black"></line><line x1="275" y1="175" x2="275" y2="225" stroke-linecap="square" stroke-width="1" stroke="black"></line><line x1="275" y1="225" x2="325" y2="225" stroke-linecap="square" stroke-width="1" stroke="black"></line><line x1="275" y1="225" x2="275" y2="275" stroke-linecap="square" stroke-width="1" stroke="black"></line><line x1="275" y1="275" x2="325" y2="275" stroke-linecap="square" stroke-width="1" stroke="black"></line><line x1="275" y1="275" x2="275" y2="325" stroke-linecap="square" stroke-width="1" stroke="black"></line><text font-family="Helvetica, Arial, sans-serif" x="100" y="50" font-size="30" text-anchor="middle" dominant-baseline="central" svgjs:data="{&quot;leading&quot;:&quot;1.3&quot;}">2</text><rect width="50" height="50" x="125" y="25" stroke="transparent"></rect><rect width="50" height="50" x="175" y="25" stroke="transparent"></rect><rect width="50" height="50" x="25" y="75" stroke="transparent"></rect><rect width="50" height="50" x="75" y="75" stroke="transparent"></rect><rect width="50" height="50" x="175" y="75" stroke="transparent"></rect><rect width="50" height="50" x="25" y="125" stroke="transparent"></rect><rect width="50" height="50" x="225" y="125" stroke="transparent"></rect><text font-family="Helvetica, Arial, sans-serif" x="300" y="150" font-size="30" text-anchor="middle" dominant-baseline="central" svgjs:data="{&quot;leading&quot;:&quot;1.3&quot;}">5</text><text font-family="Helvetica, Arial, sans-serif" x="50" y="200" font-size="30" text-anchor="middle" dominant-baseline="central" svgjs:data="{&quot;leading&quot;:&quot;1.3&quot;}">1</text><rect width="50" height="50" x="75" y="175" stroke="transparent"></rect><rect width="50" height="50" x="225" y="175" stroke="transparent"></rect><rect width="50" height="50" x="275" y="175" stroke="transparent"></rect><rect width="50" height="50" x="25" y="225" stroke="transparent"></rect><rect width="50" height="50" x="75" y="225" stroke="transparent"></rect><rect width="50" height="50" x="175" y="225" stroke="transparent"></rect><rect width="50" height="50" x="125" y="275" stroke="transparent"></rect><rect width="50" height="50" x="175" y="275" stroke="transparent"></rect><text font-family="Helvetica, Arial, sans-serif" x="250" y="300" font-size="30" text-anchor="middle" dominant-baseline="central" svgjs:data="{&quot;leading&quot;:&quot;1.3&quot;}">4</text></svg>