<svg width="245" height="245" xmlns="http://www.w3.org/2000/svg" version="1.1" xmlns:xlink="http://www.w3.org/1999/xlink" xmlns:svgjs="http://svgjs.com/svgjs"><rect width="245" height="245" x="0" y="0" fill="white" stroke="transparent"></rect><line x1="17.5" y1="17.5" x2="52.5" y2="17.5" stroke-linecap="square" stroke-width="5" stroke="black"></line><line x1="17.5" y1="227.5" x2="52.5" y2="227.5" stroke-linecap="square" stroke-width="5" stroke="black"></line><line x1="52.5" y1="17.5" x2="87.5" y2="17.5" stroke-linecap="square" stroke-width="5" stroke="black"></line><line x1="52.5" y1="227.5" x2="87.5" y2="227.5" stroke-linecap="square" stroke-width="5" stroke="black"></line><line x1="87.5" y1="17.5" x2="122.5" y2="17.5" stroke-linecap="square" stroke-width="5" stroke="black"></line><line x1="87.5" y1="227.5" x2="122.5" y2="227.5" stroke-linecap="square" stroke-width="5" stroke="black"></line><line x1="122.5" y1="17.5" x2="157.5" y2="17.5" stroke-linecap="square" stroke-width="5" stroke="black"></line><line x1="122.5" y1="227.5" x2="157.5" y2="227.5" stroke-linecap="square" stroke-width="5" stroke="black"></line><line x1="157.5" y1="17.5" x2="192.5" y2="17.5" stroke-linecap="square" stroke-width="5" stroke="black"></line><line x1="157.5" y1="227.5" x2="192.5" y2="227.5" stroke-linecap="square" stroke-width="5" stroke="black"></line><line x1="192.5" y1="17.5" x2="227.5" y2="17.5" stroke-linecap="square" stroke-width="5" stroke="black"></line><line x1="192.5" y1="227.5" x2="227.5" y2="227.5" stroke-linecap="square" stroke-width="5" stroke="black"></line><line x1="17.5" y1="17.5" x2="17.5" y2="52.5" stroke-linecap="square" stroke-width="5" stroke="black"></line><line x1="227.5" y1="17.5" x2="227.5" y2="52.5" stroke-linecap="square" stroke-width="5" stroke="black"></line><line x1="17.5" y1="52.5" x2="17.5" y2="87.5" stroke-linecap="square" stroke-width="5" stroke="black"></line><line x1="227.5" y1="52.5" x2="227.5" y2="87.5" stroke-linecap="square" stroke-width="5" stroke="black"></line><line x1="17.5" y1="87.5" x2="17.5" y2="122.5" stroke-linecap="square" stroke-width="5" stroke="black"></line><line x1="227.5" y1="87.5" x2="227.5" y2="122.5" stroke-linecap="square" stroke-width="5" stroke="black"></line><line x1="17.5" y1="122.5" x2="17.5" y2="157.5" stroke-linecap="square" stroke-width="5" stroke="black"></line><line x1="227.5" y1="122.5" x2="227.5" y2="157.5" stroke-linecap="square" stroke-width="5" stroke="black"></line><line x1="17.5" y1="157.5" x2="17.5" y2="192.5" stroke-linecap="square" stroke-width="5" stroke="black"></line><line x1="227.5" y1="157.5" x2="227.5" y2="192.5" stroke-linecap="square" stroke-width="5" stroke="black"></line><line x1="17.5" y1="192.5" x2="17.5" y2="227.5" stroke-linecap="square" stroke-width="5" stroke="black"></line><line x1="227.5" y1="192.5" x2="227.5" y2="227.5" stroke-linecap="square" stroke-width="5" stroke="black"></line><line x1="17.5" y1="52.5" x2="52.5" y2="52.5" stroke-linecap="square" stroke-width="1" stroke="black"></line><line x1="17.5" y1="87.5" x2="52.5" y2="87.5" stroke-linecap="square" stroke-width="1" stroke="black"></line><line x1="17.5" y1="122.5" x2="52.5" y2="122.5" stroke-linecap="square" stroke-width="1" stroke="black"></line><line x1="17.5" y1="157.5" x2="52.5" y2="157.5" stroke-linecap="square" stroke-width="1" stroke="black"></line><line x1="17.5" y1="192.5" x2="52.5" y2="192.5" stroke-linecap="square" stroke-width="1" stroke="black"></line><line x1="52.5" y1="17.5" x2="52.5" y2="52.5" stroke-linecap="square" stroke-width="1" stroke="black"></line><line x1="52.5" y1="52.5" x2="87.5" y2="52.5" stroke-linecap="square" stroke-width="1" stroke="black"></line><line x1="52.5" y1="52.5" x2="52.5" y2="87.5" stroke-linecap="square" stroke-width="1" stroke="black"></line><line x1="52.5" y1="87.5" x2="87.5" y2="87.5" stroke-linecap="square" stroke-width="1" stroke="black"></line><line x1="52.5" y1="87.5" x2="52.5" y2="122.5" stroke-linecap="square" stroke-width="1" stroke="black"></line><line x1="52.5" y1="122.5" x2="87.5" y2="122.5" stroke-linecap="square" stroke-width="1" stroke="black"></line><line x1="52.5" y1="122.5" x2="52.5" y2="157.5" stroke-linecap="square" stroke-width="1" stroke="black"></line><line x1="52.5" y1="157.5" x2="87.5" y2="157.5" stroke-linecap="square" stroke-width="1" stroke="black"></line><line x1="52.5" y1="157.5" x2="52.5" y2="192.5" stroke-linecap="square" stroke-width="1" stroke="black"></line><line x1="52.5" y1="192.5" x2="87.5" y2="192.5" stroke-linecap="square" stroke-width="1" stroke="black"></line><line x1="52.5" y1="192.5" x2="52.5" y2="227.5" stroke-linecap="square" stroke-width="1" stroke="black"></line><line x1="87.5" y1="17.5" x2="87.5" y2="52.5" stroke-linecap="square" stroke-width="1" stroke="black"></line><line x1="87.5" y1="52.5" x2="122.5" y2="52.5" stroke-linecap="square" stroke-width="1" stroke="black"></line><line x1="87.5" y1="52.5" x2="87.5" y2="87.5" stroke-linecap="square" stroke-width="1" stroke="black"></line><line x1="87.5" y1="87.5" x2="122.5" y2="87.5" stroke-linecap="square" stroke-width="1" stroke="black"></line><line x1="87.5" y1="87.5" x2="87.5" y2="122.5" stroke-linecap="square" stroke-width="1" stroke="black"></line><line x1="87.5" y1="122.5" x2="122.5" y2="122.5" stroke-linecap="square" stroke-width="1" stroke="black"></line><line x1="87.5" y1="122.5" x2="87.5" y2="157.5" stroke-linecap="square" stroke-width="1" stroke="black"></line><line x1="87.5" y1="157.5" x2="122.5" y2="157.5" stroke-linecap="square" stroke-width="1" stroke="black"></line><line x1="87.5" y1="157.5" x2="87.5" y2="192.5" stroke-linecap="square" stroke-width="1" stroke="black"></line><line x1="87.5" y1="192.5" x2="122.5" y2="192.5" stroke-linecap="square" stroke-width="1" stroke="black"></line><line x1="87.5" y1="192.5" x2="87.5" y2="227.5" stroke-linecap="square" stroke-width="1" stroke="black"></line><line x1="122.5" y1="17.5" x2="122.5" y2="52.5" stroke-linecap="square" stroke-width="1" stroke="black"></line><line x1="122.5" y1="52.5" x2="157.5" y2="52.5" stroke-linecap="square" stroke-width="1" stroke="black"></line><line x1="122.5" y1="52.5" x2="122.5" y2="87.5" stroke-linecap="square" stroke-width="1" stroke="black"></line><line x1="122.5" y1="87.5" x2="157.5" y2="87.5" stroke-linecap="square" stroke-width="1" stroke="black"></line><line x1="122.5" y1="87.5" x2="122.5" y2="122.5" stroke-linecap="square" stroke-width="1" stroke="black"></line><line x1="122.5" y1="122.5" x2="157.5" y2="122.5" stroke-linecap="square" stroke-width="1" stroke="black"></line><line x1="122.5" y1="122.5" x2="122.5" y2="157.5" stroke-linecap="square" stroke-width="1" stroke="black"></line><line x1="122.5" y1="157.5" x2="157.5" y2="157.5" stroke-linecap="square" stroke-width="1" stroke="black"></line><line x1="122.5" y1="157.5" x2="122.5" y2="192.5" stroke-linecap="square" stroke-width="1" stroke="black"></line><line x1="122.5" y1="192.5" x2="157.5" y2="192.5" stroke-linecap="square" stroke-width="1" stroke="black"></line><line x1="122.5" y1="192.5" x2="122.5" y2="227.5" stroke-linecap="square" stroke-width="1" stroke="black"></line><line x1="157.5" y1="17.5" x2="157.5" y2="52.5" stroke-linecap="square" stroke-width="1" stroke="black"></line><line x1="157.5" y1="52.5" x2="192.5" y2="52.5" stroke-linecap="square" stroke-width="1" stroke="black"></line><line x1="157.5" y1="52.5" x2="157.5" y2="87.5" stroke-linecap="square" stroke-width="1" stroke="black"></line><line x1="157.5" y1="87.5" x2="192.5" y2="87.5" stroke-linecap="square" stroke-width="1" stroke="black"></line><line x1="157.5" y1="87.5" x2="157.5" y2="122.5" stroke-linecap="square" stroke-width="1" stroke="black"></line><line x1="157.5" y1="122.5" x2="192.5" y2="122.5" stroke-linecap="square" stroke-width="1" stroke="black"></line><line x1="157.5" y1="122.5" x2="157.5" y2="157.5" stroke-linecap="square" stroke-width="1" stroke="black"></line><line x1="157.5" y1="157.5" x2="192.5" y2="157.5" stroke-linecap="square" stroke-width="1" stroke="black"></line><line x1="157.5" y1="157.5" x2="157.5" y2="192.5" stroke-linecap="square" stroke-width="1" stroke="black"></line><line x1="157.5" y1="192.5" x2="192.5" y2="192.5" stroke-linecap="square" stroke-width="1" stroke="black"></line><line x1="157.5" y1="192.5" x2="157.5" y2="227.5" stroke-linecap="square" stroke-width="1" stroke="black"></line><line x1="192.5" y1="17.5" x2="192.5" y2="52.5" stroke-linecap="square" stroke-width="1" stroke="black"></line><line x1="192.5" y1="52.5" x2="227.5" y2="52.5" stroke-linecap="square" stroke-width="1" stroke="black"></line><line x1="192.5" y1="52.5" x2="192.5" y2="87.5" stroke-linecap="square" stroke-width="1" stroke="black"></line><line x1="192.5" y1="87.5" x2="227.5" y2="87.5" stroke-linecap="square" stroke-width="1" stroke="black"></line><line x1="192.5" y1="87.5" x2="192.5" y2="122.5" stroke-linecap="square" stroke-width="1" stroke="black"></line><line x1="192.5" y1="122.5" x2="227.5" y2="122.5" stroke-linecap="square" stroke-width="1" stroke="black"></line><line x1="192.5" y1="122.5" x2="192.5" y2="157.5" stroke-linecap="square" stroke-width="1" stroke="black"></line><line x1="192.5" y1="157.5" x2="227.5" y2="157.5" stroke-linecap="square" stroke-width="1" stroke="black"></line><line x1="192.5" y1="157.5" x2="192.5" y2="192.5" stroke-linecap="square" stroke-width="1" stroke="black"></line><line x1="192.5" y1="192.5" x2="227.5" y2="192.5" stroke-linecap="square" stroke-width="1" stroke="black"></line><line x1="192.5" y1="192.5" x2="192.5" y2="227.5" stroke-linecap="square" stroke-width="1" stroke="black"></line><text font-family="Helvetica, Arial, sans-serif" x="70" y="35" font-size="21" text-anchor="middle" dominant-baseline="central" svgjs:data="{&quot;leading&quot;:&quot;1.3&quot;}">2</text><rect width="35" height="35" x="87.5" y="17.5" stroke="transparent"></rect><rect width="35" height="35" x="122.5" y="17.5" stroke="transparent"></rect><rect width="35" height="35" x="17.5" y="52.5" stroke="transparent"></rect><rect width="35" height="35" x="52.5" y="52.5" stroke="transparent"></rect><rect width="35" height="35" x="122.5" y="52.5" stroke="transparent"></rect><rect width="35" height="35" x="17.5" y="87.5" stroke="transparent"></rect><rect width="35" height="35" x="157.5" y="87.5" stroke="transparent"></rect><text font-family="Helvetica, Arial, sans-serif" x="210" y="105" font-size="21" text-anchor="middle" dominant-baseline="central" svgjs:data="{&quot;leading&quot;:&quot;1.3&quot;}">5</text><text font-family="Helvetica, Arial, sans-serif" x="35" y="140" font-size="21" text-anchor="middle" dominant-baseline="central" svgjs:data="{&quot;leading&quot;:&quot;1.3&quot;}">1</text><rect width="35" height="35" x="52.5" y="122.5" stroke="transparent"></rect><rect width="35" height="35" x="157.5" y="122.5" stroke="transparent"></rect><rect width="35" height="35" x="192.5" y="122.5" stroke="transparent"></rect><rect width="35" height="35" x="17.5" y="157.5" stroke="transparent"></rect><rect width="35" height="35" x="52.5" y="157.5" stroke="transparent"></rect><rect width="35" height="35" x="122.5" y="157.5" stroke="transparent"></rect><rect width="35" height="35" x="87.5" y="192.5" stroke="transparent"></rect><rect width="35" height="35" x="122.5" y="192.5" stroke="transparent"></rect><text font-family="Helvetica, Arial, sans-serif" x="175" y="210" font-size="21" text-anchor="middle" dominant-baseline="central" svgjs:data="{&quot;leading&quot;:&quot;1.3&quot;}">4</text></svg>