<?xml version="1.0" encoding="UTF-8"?>
<svg xmlns="http://www.w3.org/2000/svg" xmlns:xlink="http://www.w3.org/1999/xlink" font-size="10px" font-family="sans-serif" width="442" height="442" viewBox="-5.5 -5.5 442 442"><g shape-rendering="crispEdges"><path fill="white" stroke="none" d="M -0.5 -0.5 L 432.5 -0.5 432.5 432.5 -0.5 432.5 z"></path></g><g shape-rendering="crispEdges"><path fill="rgb(160, 255, 160)" stroke="none" d="M -0.5 -0.5 L 36.5 -0.5 36.5 36.5 -0.5 36.5 z"></path><path fill="rgb(160, 255, 160)" stroke="none" d="M 71.5 -0.5 L 108.5 -0.5 108.5 36.5 71.5 36.5 z"></path><path fill="rgb(160, 255, 160)" stroke="none" d="M 143.5 -0.5 L 180.5 -0.5 180.5 36.5 143.5 36.5 z"></path><path fill="rgb(160, 255, 160)" stroke="none" d="M 251.5 -0.5 L 288.5 -0.5 288.5 36.5 251.5 36.5 z"></path><path fill="rgb(160, 255, 160)" stroke="none" d="M 323.5 -0.5 L 360.5 -0.5 360.5 36.5 323.5 36.5 z"></path><path fill="rgb(160, 255, 160)" stroke="none" d="M 359.5 -0.5 L 396.5 -0.5 396.5 36.5 359.5 36.5 z"></path><path fill="rgb(160, 255, 160)" stroke="none" d="M 395.5 -0.5 L 432.5 -0.5 432.5 36.5 395.5 36.5 z"></path><path fill="rgb(160, 255, 160)" stroke="none" d="M -0.5 35.5 L 36.5 35.5 36.5 72.5 -0.5 72.5 z"></path><path fill="rgb(160, 255, 160)" stroke="none" d="M 71.5 35.5 L 108.5 35.5 108.5 72.5 71.5 72.5 z"></path><path fill="rgb(160, 255, 160)" stroke="none" d="M 143.5 35.5 L 180.5 35.5 180.5 72.5 143.5 72.5 z"></path><path fill="rgb(160, 255, 160)" stroke="none" d="M 179.5 35.5 L 216.5 35.5 216.5 72.5 179.5 72.5 z"></path><path fill="rgb(160, 255, 160)" stroke="none" d="M 215.5 35.5 L 252.5 35.5 252.5 72.5 215.5 72.5 z"></path><path fill="rgb(160, 255, 160)" stroke="none" d="M 251.5 35.5 L 288.5 35.5 288.5 72.5 251.5 72.5 z"></path><path fill="rgb(160, 255, 160)" stroke="none" d="M 323.5 35.5 L 360.5 35.5 360.5 72.5 323.5 72.5 z"></path><path fill="rgb(160, 255, 160)" stroke="none" d="M 395.5 35.5 L 432.5 35.5 432.5 72.5 395.5 72.5 z"></path><path fill="rgb(160, 255, 160)" stroke="none" d="M -0.5 71.5 L 36.5 71.5 36.5 108.5 -0.5 108.5 z"></path><path fill="rgb(160, 255, 160)" stroke="none" d="M 35.5 71.5 L 72.5 71.5 72.5 108.5 35.5 108.5 z"></path><path fill="rgb(160, 255, 160)" stroke="none" d="M 71.5 71.5 L 108.5 71.5 108.5 108.5 71.5 108.5 z"></path><path fill="rgb(160, 255, 160)" stroke="none" d="M 107.5 71.5 L 144.5 71.5 144.5 108.5 107.5 108.5 z"></path><path fill="rgb(160, 255, 160)" stroke="none" d="M 215.5 71.5 L 252.5 71.5 252.5 108.5 215.5 108.5 z"></path><path fill="rgb(160, 255, 160)" stroke="none" d="M 287.5 71.5 L 324.5 71.5 324.5 108.5 287.5 108.5 z"></path><path fill="rgb(160, 255, 160)" stroke="none" d="M 323.5 71.5 L 360.5 71.5 360.5 108.5 323.5 108.5 z"></path><path fill="rgb(160, 255, 160)" stroke="none" d="M 395.5 71.5 L 432.5 71.5 432.5 108.5 395.5 108.5 z"></path><path fill="rgb(160, 255, 160)" stroke="none" d="M 71.5 107.5 L 108.5 107.5 108.5 144.5 71.5 144.5 z"></path><path fill="rgb(160, 255, 160)" stroke="none" d="M 107.5 107.5 L 144.5 107.5 144.5 144.5 107.5 144.5 z"></path><path fill="rgb(160, 255, 160)" stroke="none" d="M 143.5 107.5 L 180.5 107.5 180.5 144.5 143.5 144.5 z"></path><path fill="rgb(160, 255, 160)" stroke="none" d="M 179.5 107.5 L 216.5 107.5 216.5 144.5 179.5 144.5 z"></path><path fill="rgb(160, 255, 160)" stroke="none" d="M 215.5 107.5 L 252.5 107.5 252.5 144.5 215.5 144.5 z"></path><path fill="rgb(160, 255, 160)" stroke="none" d="M 287.5 107.5 L 324.5 107.5 324.5 144.5 287.5 144.5 z"></path><path fill="rgb(160, 255, 160)" stroke="none" d="M 359.5 107.5 L 396.5 107.5 396.5 144.5 359.5 144.5 z"></path><path fill="rgb(160, 255, 160)" stroke="none" d="M -0.5 143.5 L 36.5 143.5 36.5 180.5 -0.5 180.5 z"></path><path fill="rgb(160, 255, 160)" stroke="none" d="M 35.5 143.5 L 72.5 143.5 72.5 180.5 35.5 180.5 z"></path><path fill="rgb(160, 255, 160)" stroke="none" d="M 107.5 143.5 L 144.5 143.5 144.5 180.5 107.5 180.5 z"></path><path fill="rgb(160, 255, 160)" stroke="none" d="M 179.5 143.5 L 216.5 143.5 216.5 180.5 179.5 180.5 z"></path><path fill="rgb(160, 255, 160)" stroke="none" d="M 251.5 143.5 L 288.5 143.5 288.5 180.5 251.5 180.5 z"></path><path fill="rgb(160, 255, 160)" stroke="none" d="M 287.5 143.5 L 324.5 143.5 324.5 180.5 287.5 180.5 z"></path><path fill="rgb(160, 255, 160)" stroke="none" d="M 359.5 143.5 L 396.5 143.5 396.5 180.5 359.5 180.5 z"></path><path fill="rgb(160, 255, 160)" stroke="none" d="M 35.5 179.5 L 72.5 179.5 72.5 216.5 35.5 216.5 z"></path><path fill="rgb(160, 255, 160)" stroke="none" d="M 107.5 179.5 L 144.5 179.5 144.5 216.5 107.5 216.5 z"></path><path fill="rgb(160, 255, 160)" stroke="none" d="M 179.5 179.5 L 216.5 179.5 216.5 216.5 179.5 216.5 z"></path><path fill="rgb(160, 255, 160)" stroke="none" d="M 251.5 179.5 L 288.5 179.5 288.5 216.5 251.5 216.5 z"></path><path fill="rgb(160, 255, 160)" stroke="none" d="M 287.5 179.5 L 324.5 179.5 324.5 216.5 287.5 216.5 z"></path><path fill="rgb(160, 255, 160)" stroke="none" d="M 323.5 179.5 L 360.5 179.5 360.5 216.5 323.5 216.5 z"></path><path fill="rgb(160, 255, 160)" stroke="none" d="M 359.5 179.5 L 396.5 179.5 396.5 216.5 359.5 216.5 z"></path><path fill="rgb(160, 255, 160)" stroke="none" d="M 395.5 179.5 L 432.5 179.5 432.5 216.5 395.5 216.5 z"></path><path fill="rgb(160, 255, 160)" stroke="none" d="M 35.5 215.5 L 72.5 215.5 72.5 252.5 35.5 252.5 z"></path><path fill="rgb(160, 255, 160)" stroke="none" d="M 71.5 215.5 L 108.5 215.5 108.5 252.5 71.5 252.5 z"></path><path fill="rgb(160, 255, 160)" stroke="none" d="M 143.5 215.5 L 180.5 215.5 180.5 252.5 143.5 252.5 z"></path><path fill="rgb(160, 255, 160)" stroke="none" d="M 179.5 215.5 L 216.5 215.5 216.5 252.5 179.5 252.5 z"></path><path fill="rgb(160, 255, 160)" stroke="none" d="M 215.5 215.5 L 252.5 215.5 252.5 252.5 215.5 252.5 z"></path><path fill="rgb(160, 255, 160)" stroke="none" d="M 287.5 215.5 L 324.5 215.5 324.5 252.5 287.5 252.5 z"></path><path fill="rgb(160, 255, 160)" stroke="none" d="M 359.5 215.5 L 396.5 215.5 396.5 252.5 359.5 252.5 z"></path><path fill="rgb(160, 255, 160)" stroke="none" d="M 395.5 215.5 L 432.5 215.5 432.5 252.5 395.5 252.5 z"></path><path fill="rgb(160, 255, 160)" stroke="none" d="M -0.5 251.5 L 36.5 251.5 36.5 288.5 -0.5 288.5 z"></path><path fill="rgb(160, 255, 160)" stroke="none" d="M 35.5 251.5 L 72.5 251.5 72.5 288.5 35.5 288.5 z"></path><path fill="rgb(160, 255, 160)" stroke="none" d="M 71.5 251.5 L 108.5 251.5 108.5 288.5 71.5 288.5 z"></path><path fill="rgb(160, 255, 160)" stroke="none" d="M 143.5 251.5 L 180.5 251.5 180.5 288.5 143.5 288.5 z"></path><path fill="rgb(160, 255, 160)" stroke="none" d="M 179.5 251.5 L 216.5 251.5 216.5 288.5 179.5 288.5 z"></path><path fill="rgb(160, 255, 160)" stroke="none" d="M 215.5 251.5 L 252.5 251.5 252.5 288.5 215.5 288.5 z"></path><path fill="rgb(160, 255, 160)" stroke="none" d="M 287.5 251.5 L 324.5 251.5 324.5 288.5 287.5 288.5 z"></path><path fill="rgb(160, 255, 160)" stroke="none" d="M 359.5 251.5 L 396.5 251.5 396.5 288.5 359.5 288.5 z"></path><path fill="rgb(160, 255, 160)" stroke="none" d="M 395.5 251.5 L 432.5 251.5 432.5 288.5 395.5 288.5 z"></path><path fill="rgb(160, 255, 160)" stroke="none" d="M 35.5 287.5 L 72.5 287.5 72.5 324.5 35.5 324.5 z"></path><path fill="rgb(160, 255, 160)" stroke="none" d="M 71.5 287.5 L 108.5 287.5 108.5 324.5 71.5 324.5 z"></path><path fill="rgb(160, 255, 160)" stroke="none" d="M 107.5 287.5 L 144.5 287.5 144.5 324.5 107.5 324.5 z"></path><path fill="rgb(160, 255, 160)" stroke="none" d="M 143.5 287.5 L 180.5 287.5 180.5 324.5 143.5 324.5 z"></path><path fill="rgb(160, 255, 160)" stroke="none" d="M 179.5 287.5 L 216.5 287.5 216.5 324.5 179.5 324.5 z"></path><path fill="rgb(160, 255, 160)" stroke="none" d="M 251.5 287.5 L 288.5 287.5 288.5 324.5 251.5 324.5 z"></path><path fill="rgb(160, 255, 160)" stroke="none" d="M 287.5 287.5 L 324.5 287.5 324.5 324.5 287.5 324.5 z"></path><path fill="rgb(160, 255, 160)" stroke="none" d="M 323.5 287.5 L 360.5 287.5 360.5 324.5 323.5 324.5 z"></path><path fill="rgb(160, 255, 160)" stroke="none" d="M 35.5 323.5 L 72.5 323.5 72.5 360.5 35.5 360.5 z"></path><path fill="rgb(160, 255, 160)" stroke="none" d="M 107.5 323.5 L 144.5 323.5 144.5 360.5 107.5 360.5 z"></path><path fill="rgb(160, 255, 160)" stroke="none" d="M 179.5 323.5 L 216.5 323.5 216.5 360.5 179.5 360.5 z"></path><path fill="rgb(160, 255, 160)" stroke="none" d="M 251.5 323.5 L 288.5 323.5 288.5 360.5 251.5 360.5 z"></path><path fill="rgb(160, 255, 160)" stroke="none" d="M 359.5 323.5 L 396.5 323.5 396.5 360.5 359.5 360.5 z"></path><path fill="rgb(160, 255, 160)" stroke="none" d="M 395.5 323.5 L 432.5 323.5 432.5 360.5 395.5 360.5 z"></path><path fill="rgb(160, 255, 160)" stroke="none" d="M -0.5 359.5 L 36.5 359.5 36.5 396.5 -0.5 396.5 z"></path><path fill="rgb(160, 255, 160)" stroke="none" d="M 35.5 359.5 L 72.5 359.5 72.5 396.5 35.5 396.5 z"></path><path fill="rgb(160, 255, 160)" stroke="none" d="M 107.5 359.5 L 144.5 359.5 144.5 396.5 107.5 396.5 z"></path><path fill="rgb(160, 255, 160)" stroke="none" d="M 179.5 359.5 L 216.5 359.5 216.5 396.5 179.5 396.5 z"></path><path fill="rgb(160, 255, 160)" stroke="none" d="M 215.5 359.5 L 252.5 359.5 252.5 396.5 215.5 396.5 z"></path><path fill="rgb(160, 255, 160)" stroke="none" d="M 251.5 359.5 L 288.5 359.5 288.5 396.5 251.5 396.5 z"></path><path fill="rgb(160, 255, 160)" stroke="none" d="M 287.5 359.5 L 324.5 359.5 324.5 396.5 287.5 396.5 z"></path><path fill="rgb(160, 255, 160)" stroke="none" d="M 323.5 359.5 L 360.5 359.5 360.5 396.5 323.5 396.5 z"></path><path fill="rgb(160, 255, 160)" stroke="none" d="M 359.5 359.5 L 396.5 359.5 396.5 396.5 359.5 396.5 z"></path><path fill="rgb(160, 255, 160)" stroke="none" d="M 395.5 359.5 L 432.5 359.5 432.5 396.5 395.5 396.5 z"></path><path fill="rgb(160, 255, 160)" stroke="none" d="M 71.5 395.5 L 108.5 395.5 108.5 432.5 71.5 432.5 z"></path><path fill="rgb(160, 255, 160)" stroke="none" d="M 107.5 395.5 L 144.5 395.5 144.5 432.5 107.5 432.5 z"></path><path fill="rgb(160, 255, 160)" stroke="none" d="M 143.5 395.5 L 180.5 395.5 180.5 432.5 143.5 432.5 z"></path><path fill="rgb(160, 255, 160)" stroke="none" d="M 251.5 395.5 L 288.5 395.5 288.5 432.5 251.5 432.5 z"></path><path fill="rgb(160, 255, 160)" stroke="none" d="M 287.5 395.5 L 324.5 395.5 324.5 432.5 287.5 432.5 z"></path><path fill="rgb(160, 255, 160)" stroke="none" d="M 395.5 395.5 L 432.5 395.5 432.5 432.5 395.5 432.5 z"></path></g><g shape-rendering="crispEdges"><path fill="none" stroke="rgb(127, 127, 127)" d="M 36 0 L 36 432" stroke-width="1"></path><path fill="none" stroke="rgb(127, 127, 127)" d="M 72 0 L 72 432" stroke-width="1"></path><path fill="none" stroke="rgb(127, 127, 127)" d="M 108 0 L 108 432" stroke-width="1"></path><path fill="none" stroke="rgb(127, 127, 127)" d="M 144 0 L 144 432" stroke-width="1"></path><path fill="none" stroke="rgb(127, 127, 127)" d="M 180 0 L 180 432" stroke-width="1"></path><path fill="none" stroke="rgb(127, 127, 127)" d="M 216 0 L 216 432" stroke-width="1"></path><path fill="none" stroke="rgb(127, 127, 127)" d="M 252 0 L 252 432" stroke-width="1"></path><path fill="none" stroke="rgb(127, 127, 127)" d="M 288 0 L 288 432" stroke-width="1"></path><path fill="none" stroke="rgb(127, 127, 127)" d="M 324 0 L 324 432" stroke-width="1"></path><path fill="none" stroke="rgb(127, 127, 127)" d="M 360 0 L 360 432" stroke-width="1"></path><path fill="none" stroke="rgb(127, 127, 127)" d="M 396 0 L 396 432" stroke-width="1"></path><path fill="none" stroke="rgb(127, 127, 127)" d="M 0 36 L 432 36" stroke-width="1"></path><path fill="none" stroke="rgb(127, 127, 127)" d="M 0 72 L 432 72" stroke-width="1"></path><path fill="none" stroke="rgb(127, 127, 127)" d="M 0 108 L 432 108" stroke-width="1"></path><path fill="none" stroke="rgb(127, 127, 127)" d="M 0 144 L 432 144" stroke-width="1"></path><path fill="none" stroke="rgb(127, 127, 127)" d="M 0 180 L 432 180" stroke-width="1"></path><path fill="none" stroke="rgb(127, 127, 127)" d="M 0 216 L 432 216" stroke-width="1"></path><path fill="none" stroke="rgb(127, 127, 127)" d="M 0 252 L 432 252" stroke-width="1"></path><path fill="none" stroke="rgb(127, 127, 127)" d="M 0 288 L 432 288" stroke-width="1"></path><path fill="none" stroke="rgb(127, 127, 127)" d="M 0 324 L 432 324" stroke-width="1"></path><path fill="none" stroke="rgb(127, 127, 127)" d="M 0 360 L 432 360" stroke-width="1"></path><path fill="none" stroke="rgb(127, 127, 127)" d="M 0 396 L 432 396" stroke-width="1"></path></g><g shape-rendering="crispEdges"><path fill="black" stroke="none" d="M 35.5 -0.5 L 72.5 -0.5 72.5 36.5 35.5 36.5 z"></path><path fill="black" stroke="none" d="M 107.5 -0.5 L 144.5 -0.5 144.5 36.5 107.5 36.5 z"></path><path fill="black" stroke="none" d="M 179.5 -0.5 L 216.5 -0.5 216.5 36.5 179.5 36.5 z"></path><path fill="black" stroke="none" d="M 215.5 -0.5 L 252.5 -0.5 252.5 36.5 215.5 36.5 z"></path><path fill="black" stroke="none" d="M 287.5 -0.5 L 324.5 -0.5 324.5 36.5 287.5 36.5 z"></path><path fill="black" stroke="none" d="M 35.5 35.5 L 72.5 35.5 72.5 72.5 35.5 72.5 z"></path><path fill="black" stroke="none" d="M 107.5 35.5 L 144.5 35.5 144.5 72.5 107.5 72.5 z"></path><path fill="black" stroke="none" d="M 287.5 35.5 L 324.5 35.5 324.5 72.5 287.5 72.5 z"></path><path fill="black" stroke="none" d="M 359.5 35.5 L 396.5 35.5 396.5 72.5 359.5 72.5 z"></path><path fill="black" stroke="none" d="M 143.5 71.5 L 180.5 71.5 180.5 108.5 143.5 108.5 z"></path><path fill="black" stroke="none" d="M 179.5 71.5 L 216.5 71.5 216.5 108.5 179.5 108.5 z"></path><path fill="black" stroke="none" d="M 251.5 71.5 L 288.5 71.5 288.5 108.5 251.5 108.5 z"></path><path fill="black" stroke="none" d="M 359.5 71.5 L 396.5 71.5 396.5 108.5 359.5 108.5 z"></path><path fill="black" stroke="none" d="M -0.5 107.5 L 36.5 107.5 36.5 144.5 -0.5 144.5 z"></path><path fill="black" stroke="none" d="M 35.5 107.5 L 72.5 107.5 72.5 144.5 35.5 144.5 z"></path><path fill="black" stroke="none" d="M 251.5 107.5 L 288.5 107.5 288.5 144.5 251.5 144.5 z"></path><path fill="black" stroke="none" d="M 323.5 107.5 L 360.5 107.5 360.5 144.5 323.5 144.5 z"></path><path fill="black" stroke="none" d="M 395.5 107.5 L 432.5 107.5 432.5 144.5 395.5 144.5 z"></path><path fill="black" stroke="none" d="M 71.5 143.5 L 108.5 143.5 108.5 180.5 71.5 180.5 z"></path><path fill="black" stroke="none" d="M 143.5 143.5 L 180.5 143.5 180.5 180.5 143.5 180.5 z"></path><path fill="black" stroke="none" d="M 215.5 143.5 L 252.5 143.5 252.5 180.5 215.5 180.5 z"></path><path fill="black" stroke="none" d="M 323.5 143.5 L 360.5 143.5 360.5 180.5 323.5 180.5 z"></path><path fill="black" stroke="none" d="M 395.5 143.5 L 432.5 143.5 432.5 180.5 395.5 180.5 z"></path><path fill="black" stroke="none" d="M -0.5 179.5 L 36.5 179.5 36.5 216.5 -0.5 216.5 z"></path><path fill="black" stroke="none" d="M 71.5 179.5 L 108.5 179.5 108.5 216.5 71.5 216.5 z"></path><path fill="black" stroke="none" d="M 143.5 179.5 L 180.5 179.5 180.5 216.5 143.5 216.5 z"></path><path fill="black" stroke="none" d="M 215.5 179.5 L 252.5 179.5 252.5 216.5 215.5 216.5 z"></path><path fill="black" stroke="none" d="M -0.5 215.5 L 36.5 215.5 36.5 252.5 -0.5 252.5 z"></path><path fill="black" stroke="none" d="M 107.5 215.5 L 144.5 215.5 144.5 252.5 107.5 252.5 z"></path><path fill="black" stroke="none" d="M 251.5 215.5 L 288.5 215.5 288.5 252.5 251.5 252.5 z"></path><path fill="black" stroke="none" d="M 323.5 215.5 L 360.5 215.5 360.5 252.5 323.5 252.5 z"></path><path fill="black" stroke="none" d="M 107.5 251.5 L 144.5 251.5 144.5 288.5 107.5 288.5 z"></path><path fill="black" stroke="none" d="M 251.5 251.5 L 288.5 251.5 288.5 288.5 251.5 288.5 z"></path><path fill="black" stroke="none" d="M 323.5 251.5 L 360.5 251.5 360.5 288.5 323.5 288.5 z"></path><path fill="black" stroke="none" d="M -0.5 287.5 L 36.5 287.5 36.5 324.5 -0.5 324.5 z"></path><path fill="black" stroke="none" d="M 215.5 287.5 L 252.5 287.5 252.5 324.5 215.5 324.5 z"></path><path fill="black" stroke="none" d="M 359.5 287.5 L 396.5 287.5 396.5 324.5 359.5 324.5 z"></path><path fill="black" stroke="none" d="M 395.5 287.5 L 432.5 287.5 432.5 324.5 395.5 324.5 z"></path><path fill="black" stroke="none" d="M -0.5 323.5 L 36.5 323.5 36.5 360.5 -0.5 360.5 z"></path><path fill="black" stroke="none" d="M 71.5 323.5 L 108.5 323.5 108.5 360.5 71.5 360.5 z"></path><path fill="black" stroke="none" d="M 143.5 323.5 L 180.5 323.5 180.5 360.5 143.5 360.5 z"></path><path fill="black" stroke="none" d="M 215.5 323.5 L 252.5 323.5 252.5 360.5 215.5 360.5 z"></path><path fill="black" stroke="none" d="M 287.5 323.5 L 324.5 323.5 324.5 360.5 287.5 360.5 z"></path><path fill="black" stroke="none" d="M 323.5 323.5 L 360.5 323.5 360.5 360.5 323.5 360.5 z"></path><path fill="black" stroke="none" d="M 71.5 359.5 L 108.5 359.5 108.5 396.5 71.5 396.5 z"></path><path fill="black" stroke="none" d="M 143.5 359.5 L 180.5 359.5 180.5 396.5 143.5 396.5 z"></path><path fill="black" stroke="none" d="M -0.5 395.5 L 36.5 395.5 36.5 432.5 -0.5 432.5 z"></path><path fill="black" stroke="none" d="M 35.5 395.5 L 72.5 395.5 72.5 432.5 35.5 432.5 z"></path><path fill="black" stroke="none" d="M 179.5 395.5 L 216.5 395.5 216.5 432.5 179.5 432.5 z"></path><path fill="black" stroke="none" d="M 215.5 395.5 L 252.5 395.5 252.5 432.5 215.5 432.5 z"></path><path fill="black" stroke="none" d="M 323.5 395.5 L 360.5 395.5 360.5 432.5 323.5 432.5 z"></path><path fill="black" stroke="none" d="M 359.5 395.5 L 396.5 395.5 396.5 432.5 359.5 432.5 z"></path></g><g shape-rendering="auto"><text fill="black" x="18" y="27.799999999999997" text-anchor="middle" font-size="28">8</text><text fill="rgb(96,96,96)" x="54" y="27.799999999999997" text-anchor="middle" font-size="28">6</text><text fill="black" x="90" y="27.799999999999997" text-anchor="middle" font-size="28">2</text><text fill="rgb(96,96,96)" x="126" y="27.799999999999997" text-anchor="middle" textLength="28" lengthAdjust="spacingAndGlyphs" font-size="28">11</text><text fill="black" x="162" y="27.799999999999997" text-anchor="middle" font-size="28">4</text><text fill="rgb(96,96,96)" x="198" y="27.799999999999997" text-anchor="middle" textLength="28" lengthAdjust="spacingAndGlyphs" font-size="28">10</text><text fill="rgb(96,96,96)" x="234" y="27.799999999999997" text-anchor="middle" font-size="28">9</text><text fill="black" x="270" y="27.799999999999997" text-anchor="middle" font-size="28">9</text><text fill="rgb(96,96,96)" x="306" y="27.799999999999997" text-anchor="middle" font-size="28">9</text><text fill="black" x="342" y="27.799999999999997" text-anchor="middle" font-size="28">5</text><text fill="black" x="378" y="27.799999999999997" text-anchor="middle" font-size="28">1</text><text fill="black" x="414" y="27.799999999999997" text-anchor="middle" textLength="28" lengthAdjust="spacingAndGlyphs" font-size="28">12</text><text fill="black" x="18" y="63.8" text-anchor="middle" font-size="28">6</text><text fill="rgb(96,96,96)" x="54" y="63.8" text-anchor="middle" font-size="28">6</text><text fill="black" x="90" y="63.8" text-anchor="middle" font-size="28">4</text><text fill="rgb(96,96,96)" x="126" y="63.8" text-anchor="middle" font-size="28">7</text><text fill="black" x="162" y="63.8" text-anchor="middle" font-size="28">7</text><text fill="black" x="198" y="63.8" text-anchor="middle" font-size="28">1</text><text fill="black" x="234" y="63.8" text-anchor="middle" font-size="28">9</text><text fill="black" x="270" y="63.8" text-anchor="middle" font-size="28">3</text><text fill="rgb(96,96,96)" x="306" y="63.8" text-anchor="middle" font-size="28">9</text><text fill="black" x="342" y="63.8" text-anchor="middle" textLength="28" lengthAdjust="spacingAndGlyphs" font-size="28">12</text><text fill="rgb(96,96,96)" x="378" y="63.8" text-anchor="middle" font-size="28">2</text><text fill="black" x="414" y="63.8" text-anchor="middle" font-size="28">8</text><text fill="black" x="18" y="99.8" text-anchor="middle" textLength="28" lengthAdjust="spacingAndGlyphs" font-size="28">12</text><text fill="black" x="54" y="99.8" text-anchor="middle" font-size="28">6</text><text fill="black" x="90" y="99.8" text-anchor="middle" textLength="28" lengthAdjust="spacingAndGlyphs" font-size="28">10</text><text fill="black" x="126" y="99.8" text-anchor="middle" font-size="28">5</text><text fill="rgb(96,96,96)" x="162" y="99.8" text-anchor="middle" font-size="28">7</text><text fill="rgb(96,96,96)" x="198" y="99.8" text-anchor="middle" font-size="28">7</text><text fill="black" x="234" y="99.8" text-anchor="middle" font-size="28">8</text><text fill="rgb(96,96,96)" x="270" y="99.8" text-anchor="middle" font-size="28">9</text><text fill="black" x="306" y="99.8" text-anchor="middle" font-size="28">9</text><text fill="black" x="342" y="99.8" text-anchor="middle" font-size="28">4</text><text fill="rgb(96,96,96)" x="378" y="99.8" text-anchor="middle" font-size="28">6</text><text fill="black" x="414" y="99.8" text-anchor="middle" font-size="28">1</text><text fill="rgb(96,96,96)" x="18" y="135.8" text-anchor="middle" font-size="28">5</text><text fill="rgb(96,96,96)" x="54" y="135.8" text-anchor="middle" textLength="28" lengthAdjust="spacingAndGlyphs" font-size="28">11</text><text fill="black" x="90" y="135.8" text-anchor="middle" textLength="28" lengthAdjust="spacingAndGlyphs" font-size="28">12</text><text fill="black" x="126" y="135.8" text-anchor="middle" font-size="28">3</text><text fill="black" x="162" y="135.8" text-anchor="middle" font-size="28">8</text><text fill="black" x="198" y="135.8" text-anchor="middle" font-size="28">2</text><text fill="black" x="234" y="135.8" text-anchor="middle" font-size="28">1</text><text fill="rgb(96,96,96)" x="270" y="135.8" text-anchor="middle" font-size="28">4</text><text fill="black" x="306" y="135.8" text-anchor="middle" textLength="28" lengthAdjust="spacingAndGlyphs" font-size="28">10</text><text fill="rgb(96,96,96)" x="342" y="135.8" text-anchor="middle" textLength="28" lengthAdjust="spacingAndGlyphs" font-size="28">11</text><text fill="black" x="378" y="135.8" text-anchor="middle" textLength="28" lengthAdjust="spacingAndGlyphs" font-size="28">11</text><text fill="rgb(96,96,96)" x="414" y="135.8" text-anchor="middle" textLength="28" lengthAdjust="spacingAndGlyphs" font-size="28">11</text><text fill="black" x="18" y="171.8" text-anchor="middle" textLength="28" lengthAdjust="spacingAndGlyphs" font-size="28">11</text><text fill="black" x="54" y="171.8" text-anchor="middle" textLength="28" lengthAdjust="spacingAndGlyphs" font-size="28">10</text><text fill="rgb(96,96,96)" x="90" y="171.8" text-anchor="middle" textLength="28" lengthAdjust="spacingAndGlyphs" font-size="28">11</text><text fill="black" x="126" y="171.8" text-anchor="middle" font-size="28">1</text><text fill="rgb(96,96,96)" x="162" y="171.8" text-anchor="middle" font-size="28">6</text><text fill="black" x="198" y="171.8" text-anchor="middle" font-size="28">6</text><text fill="rgb(96,96,96)" x="234" y="171.8" text-anchor="middle" font-size="28">5</text><text fill="black" x="270" y="171.8" text-anchor="middle" font-size="28">8</text><text fill="black" x="306" y="171.8" text-anchor="middle" textLength="28" lengthAdjust="spacingAndGlyphs" font-size="28">12</text><text fill="rgb(96,96,96)" x="342" y="171.8" text-anchor="middle" font-size="28">6</text><text fill="black" x="378" y="171.8" text-anchor="middle" font-size="28">4</text><text fill="rgb(96,96,96)" x="414" y="171.8" text-anchor="middle" font-size="28">6</text><text fill="rgb(96,96,96)" x="18" y="207.8" text-anchor="middle" textLength="28" lengthAdjust="spacingAndGlyphs" font-size="28">11</text><text fill="black" x="54" y="207.8" text-anchor="middle" textLength="28" lengthAdjust="spacingAndGlyphs" font-size="28">11</text><text fill="rgb(96,96,96)" x="90" y="207.8" text-anchor="middle" font-size="28">6</text><text fill="black" x="126" y="207.8" text-anchor="middle" font-size="28">9</text><text fill="rgb(96,96,96)" x="162" y="207.8" text-anchor="middle" font-size="28">9</text><text fill="black" x="198" y="207.8" text-anchor="middle" font-size="28">3</text><text fill="rgb(96,96,96)" x="234" y="207.8" text-anchor="middle" font-size="28">6</text><text fill="black" x="270" y="207.8" text-anchor="middle" font-size="28">6</text><text fill="black" x="306" y="207.8" text-anchor="middle" font-size="28">1</text><text fill="black" x="342" y="207.8" text-anchor="middle" font-size="28">8</text><text fill="black" x="378" y="207.8" text-anchor="middle" textLength="28" lengthAdjust="spacingAndGlyphs" font-size="28">12</text><text fill="black" x="414" y="207.8" text-anchor="middle" font-size="28">5</text><text fill="rgb(96,96,96)" x="18" y="243.8" text-anchor="middle" font-size="28">6</text><text fill="black" x="54" y="243.8" text-anchor="middle" font-size="28">7</text><text fill="black" x="90" y="243.8" text-anchor="middle" font-size="28">1</text><text fill="rgb(96,96,96)" x="126" y="243.8" text-anchor="middle" font-size="28">6</text><text fill="black" x="162" y="243.8" text-anchor="middle" textLength="28" lengthAdjust="spacingAndGlyphs" font-size="28">12</text><text fill="black" x="198" y="243.8" text-anchor="middle" font-size="28">8</text><text fill="black" x="234" y="243.8" text-anchor="middle" font-size="28">6</text><text fill="rgb(96,96,96)" x="270" y="243.8" text-anchor="middle" font-size="28">6</text><text fill="black" x="306" y="243.8" text-anchor="middle" font-size="28">5</text><text fill="rgb(96,96,96)" x="342" y="243.8" text-anchor="middle" font-size="28">9</text><text fill="black" x="378" y="243.8" text-anchor="middle" font-size="28">3</text><text fill="black" x="414" y="243.8" text-anchor="middle" textLength="28" lengthAdjust="spacingAndGlyphs" font-size="28">10</text><text fill="black" x="18" y="279.8" text-anchor="middle" font-size="28">1</text><text fill="black" x="54" y="279.8" text-anchor="middle" textLength="28" lengthAdjust="spacingAndGlyphs" font-size="28">12</text><text fill="black" x="90" y="279.8" text-anchor="middle" font-size="28">3</text><text fill="rgb(96,96,96)" x="126" y="279.8" text-anchor="middle" font-size="28">2</text><text fill="black" x="162" y="279.8" text-anchor="middle" font-size="28">5</text><text fill="black" x="198" y="279.8" text-anchor="middle" font-size="28">4</text><text fill="black" x="234" y="279.8" text-anchor="middle" textLength="28" lengthAdjust="spacingAndGlyphs" font-size="28">11</text><text fill="rgb(96,96,96)" x="270" y="279.8" text-anchor="middle" textLength="28" lengthAdjust="spacingAndGlyphs" font-size="28">11</text><text fill="black" x="306" y="279.8" text-anchor="middle" font-size="28">8</text><text fill="rgb(96,96,96)" x="342" y="279.8" text-anchor="middle" font-size="28">9</text><text fill="black" x="378" y="279.8" text-anchor="middle" font-size="28">6</text><text fill="black" x="414" y="279.8" text-anchor="middle" font-size="28">7</text><text fill="rgb(96,96,96)" x="18" y="315.8" text-anchor="middle" font-size="28">7</text><text fill="black" x="54" y="315.8" text-anchor="middle" font-size="28">8</text><text fill="black" x="90" y="315.8" text-anchor="middle" font-size="28">5</text><text fill="black" x="126" y="315.8" text-anchor="middle" font-size="28">4</text><text fill="black" x="162" y="315.8" text-anchor="middle" font-size="28">1</text><text fill="black" x="198" y="315.8" text-anchor="middle" textLength="28" lengthAdjust="spacingAndGlyphs" font-size="28">12</text><text fill="rgb(96,96,96)" x="234" y="315.8" text-anchor="middle" textLength="28" lengthAdjust="spacingAndGlyphs" font-size="28">11</text><text fill="black" x="270" y="315.8" text-anchor="middle" textLength="28" lengthAdjust="spacingAndGlyphs" font-size="28">11</text><text fill="black" x="306" y="315.8" text-anchor="middle" font-size="28">3</text><text fill="black" x="342" y="315.8" text-anchor="middle" font-size="28">9</text><text fill="rgb(96,96,96)" x="378" y="315.8" text-anchor="middle" font-size="28">6</text><text fill="rgb(96,96,96)" x="414" y="315.8" text-anchor="middle" font-size="28">6</text><text fill="rgb(96,96,96)" x="18" y="351.8" text-anchor="middle" font-size="28">7</text><text fill="black" x="54" y="351.8" text-anchor="middle" font-size="28">1</text><text fill="rgb(96,96,96)" x="90" y="351.8" text-anchor="middle" font-size="28">7</text><text fill="black" x="126" y="351.8" text-anchor="middle" font-size="28">8</text><text fill="rgb(96,96,96)" x="162" y="351.8" text-anchor="middle" font-size="28">3</text><text fill="black" x="198" y="351.8" text-anchor="middle" font-size="28">7</text><text fill="rgb(96,96,96)" x="234" y="351.8" text-anchor="middle" font-size="28">7</text><text fill="black" x="270" y="351.8" text-anchor="middle" textLength="28" lengthAdjust="spacingAndGlyphs" font-size="28">12</text><text fill="rgb(96,96,96)" x="306" y="351.8" text-anchor="middle" font-size="28">6</text><text fill="rgb(96,96,96)" x="342" y="351.8" text-anchor="middle" font-size="28">9</text><text fill="black" x="378" y="351.8" text-anchor="middle" font-size="28">5</text><text fill="black" x="414" y="351.8" text-anchor="middle" textLength="28" lengthAdjust="spacingAndGlyphs" font-size="28">11</text><text fill="black" x="18" y="387.8" text-anchor="middle" font-size="28">7</text><text fill="black" x="54" y="387.8" text-anchor="middle" font-size="28">3</text><text fill="rgb(96,96,96)" x="90" y="387.8" text-anchor="middle" font-size="28">6</text><text fill="black" x="126" y="387.8" text-anchor="middle" textLength="28" lengthAdjust="spacingAndGlyphs" font-size="28">10</text><text fill="rgb(96,96,96)" x="162" y="387.8" text-anchor="middle" textLength="28" lengthAdjust="spacingAndGlyphs" font-size="28">11</text><text fill="black" x="198" y="387.8" text-anchor="middle" textLength="28" lengthAdjust="spacingAndGlyphs" font-size="28">11</text><text fill="black" x="234" y="387.8" text-anchor="middle" textLength="28" lengthAdjust="spacingAndGlyphs" font-size="28">12</text><text fill="black" x="270" y="387.8" text-anchor="middle" font-size="28">5</text><text fill="black" x="306" y="387.8" text-anchor="middle" font-size="28">6</text><text fill="black" x="342" y="387.8" text-anchor="middle" font-size="28">1</text><text fill="black" x="378" y="387.8" text-anchor="middle" font-size="28">8</text><text fill="black" x="414" y="387.8" text-anchor="middle" font-size="28">4</text><text fill="rgb(96,96,96)" x="18" y="423.8" text-anchor="middle" font-size="28">7</text><text fill="rgb(96,96,96)" x="54" y="423.8" text-anchor="middle" font-size="28">4</text><text fill="black" x="90" y="423.8" text-anchor="middle" font-size="28">8</text><text fill="black" x="126" y="423.8" text-anchor="middle" textLength="28" lengthAdjust="spacingAndGlyphs" font-size="28">12</text><text fill="black" x="162" y="423.8" text-anchor="middle" textLength="28" lengthAdjust="spacingAndGlyphs" font-size="28">11</text><text fill="rgb(96,96,96)" x="198" y="423.8" text-anchor="middle" textLength="28" lengthAdjust="spacingAndGlyphs" font-size="28">11</text><text fill="rgb(96,96,96)" x="234" y="423.8" text-anchor="middle" textLength="28" lengthAdjust="spacingAndGlyphs" font-size="28">10</text><text fill="black" x="270" y="423.8" text-anchor="middle" font-size="28">1</text><text fill="black" x="306" y="423.8" text-anchor="middle" font-size="28">4</text><text fill="rgb(96,96,96)" x="342" y="423.8" text-anchor="middle" textLength="28" lengthAdjust="spacingAndGlyphs" font-size="28">11</text><text fill="rgb(96,96,96)" x="378" y="423.8" text-anchor="middle" textLength="28" lengthAdjust="spacingAndGlyphs" font-size="28">11</text><text fill="black" x="414" y="423.8" text-anchor="middle" font-size="28">3</text></g><g shape-rendering="crispEdges"><path fill="black" stroke="none" d="M -2 -2 L 2 -2 2 434 -2 434 z"></path><path fill="black" stroke="none" d="M 430 -2 L 434 -2 434 434 430 434 z"></path><path fill="black" stroke="none" d="M -2 -2 L 434 -2 434 2 -2 2 z"></path><path fill="black" stroke="none" d="M -2 430 L 434 430 434 434 -2 434 z"></path></g><g shape-rendering="crispEdges"></g></svg>