<?xml version="1.0" encoding="UTF-8"?>
<svg xmlns="http://www.w3.org/2000/svg" xmlns:xlink="http://www.w3.org/1999/xlink" font-size="10px" font-family="sans-serif" width="442" height="442" viewBox="-5.5 -5.5 442 442"><g shape-rendering="crispEdges"><path fill="white" stroke="none" d="M -0.5 -0.5 L 432.5 -0.5 432.5 432.5 -0.5 432.5 z"></path></g><g shape-rendering="crispEdges"></g><g shape-rendering="crispEdges"><path fill="none" stroke="rgb(127, 127, 127)" d="M 36 0 L 36 432" stroke-width="1"></path><path fill="none" stroke="rgb(127, 127, 127)" d="M 72 0 L 72 432" stroke-width="1"></path><path fill="none" stroke="rgb(127, 127, 127)" d="M 108 0 L 108 432" stroke-width="1"></path><path fill="none" stroke="rgb(127, 127, 127)" d="M 144 0 L 144 432" stroke-width="1"></path><path fill="none" stroke="rgb(127, 127, 127)" d="M 180 0 L 180 432" stroke-width="1"></path><path fill="none" stroke="rgb(127, 127, 127)" d="M 216 0 L 216 432" stroke-width="1"></path><path fill="none" stroke="rgb(127, 127, 127)" d="M 252 0 L 252 432" stroke-width="1"></path><path fill="none" stroke="rgb(127, 127, 127)" d="M 288 0 L 288 432" stroke-width="1"></path><path fill="none" stroke="rgb(127, 127, 127)" d="M 324 0 L 324 432" stroke-width="1"></path><path fill="none" stroke="rgb(127, 127, 127)" d="M 360 0 L 360 432" stroke-width="1"></path><path fill="none" stroke="rgb(127, 127, 127)" d="M 396 0 L 396 432" stroke-width="1"></path><path fill="none" stroke="rgb(127, 127, 127)" d="M 0 36 L 432 36" stroke-width="1"></path><path fill="none" stroke="rgb(127, 127, 127)" d="M 0 72 L 432 72" stroke-width="1"></path><path fill="none" stroke="rgb(127, 127, 127)" d="M 0 108 L 432 108" stroke-width="1"></path><path fill="none" stroke="rgb(127, 127, 127)" d="M 0 144 L 432 144" stroke-width="1"></path><path fill="none" stroke="rgb(127, 127, 127)" d="M 0 180 L 432 180" stroke-width="1"></path><path fill="none" stroke="rgb(127, 127, 127)" d="M 0 216 L 432 216" stroke-width="1"></path><path fill="none" stroke="rgb(127, 127, 127)" d="M 0 252 L 432 252" stroke-width="1"></path><path fill="none" stroke="rgb(127, 127, 127)" d="M 0 288 L 432 288" stroke-width="1"></path><path fill="none" stroke="rgb(127, 127, 127)" d="M 0 324 L 432 324" stroke-width="1"></path><path fill="none" stroke="rgb(127, 127, 127)" d="M 0 360 L 432 360" stroke-width="1"></path><path fill="none" stroke="rgb(127, 127, 127)" d="M 0 396 L 432 396" stroke-width="1"></path></g><g shape-rendering="crispEdges"></g><g shape-rendering="auto"><text fill="black" x="18" y="27.799999999999997" text-anchor="middle" font-size="28">8</text><text fill="black" x="54" y="27.799999999999997" text-anchor="middle" font-size="28">6</text><text fill="black" x="90" y="27.799999999999997" text-anchor="middle" font-size="28">2</text><text fill="black" x="126" y="27.799999999999997" text-anchor="middle" textLength="28" lengthAdjust="spacingAndGlyphs" font-size="28">11</text><text fill="black" x="162" y="27.799999999999997" text-anchor="middle" font-size="28">4</text><text fill="black" x="198" y="27.799999999999997" text-anchor="middle" textLength="28" lengthAdjust="spacingAndGlyphs" font-size="28">10</text><text fill="black" x="234" y="27.799999999999997" text-anchor="middle" font-size="28">9</text><text fill="black" x="270" y="27.799999999999997" text-anchor="middle" font-size="28">9</text><text fill="black" x="306" y="27.799999999999997" text-anchor="middle" font-size="28">9</text><text fill="black" x="342" y="27.799999999999997" text-anchor="middle" font-size="28">5</text><text fill="black" x="378" y="27.799999999999997" text-anchor="middle" font-size="28">1</text><text fill="black" x="414" y="27.799999999999997" text-anchor="middle" textLength="28" lengthAdjust="spacingAndGlyphs" font-size="28">12</text><text fill="black" x="18" y="63.8" text-anchor="middle" font-size="28">6</text><text fill="black" x="54" y="63.8" text-anchor="middle" font-size="28">6</text><text fill="black" x="90" y="63.8" text-anchor="middle" font-size="28">4</text><text fill="black" x="126" y="63.8" text-anchor="middle" font-size="28">7</text><text fill="black" x="162" y="63.8" text-anchor="middle" font-size="28">7</text><text fill="black" x="198" y="63.8" text-anchor="middle" font-size="28">1</text><text fill="black" x="234" y="63.8" text-anchor="middle" font-size="28">9</text><text fill="black" x="270" y="63.8" text-anchor="middle" font-size="28">3</text><text fill="black" x="306" y="63.8" text-anchor="middle" font-size="28">9</text><text fill="black" x="342" y="63.8" text-anchor="middle" textLength="28" lengthAdjust="spacingAndGlyphs" font-size="28">12</text><text fill="black" x="378" y="63.8" text-anchor="middle" font-size="28">2</text><text fill="black" x="414" y="63.8" text-anchor="middle" font-size="28">8</text><text fill="black" x="18" y="99.8" text-anchor="middle" textLength="28" lengthAdjust="spacingAndGlyphs" font-size="28">12</text><text fill="black" x="54" y="99.8" text-anchor="middle" font-size="28">6</text><text fill="black" x="90" y="99.8" text-anchor="middle" textLength="28" lengthAdjust="spacingAndGlyphs" font-size="28">10</text><text fill="black" x="126" y="99.8" text-anchor="middle" font-size="28">5</text><text fill="black" x="162" y="99.8" text-anchor="middle" font-size="28">7</text><text fill="black" x="198" y="99.8" text-anchor="middle" font-size="28">7</text><text fill="black" x="234" y="99.8" text-anchor="middle" font-size="28">8</text><text fill="black" x="270" y="99.8" text-anchor="middle" font-size="28">9</text><text fill="black" x="306" y="99.8" text-anchor="middle" font-size="28">9</text><text fill="black" x="342" y="99.8" text-anchor="middle" font-size="28">4</text><text fill="black" x="378" y="99.8" text-anchor="middle" font-size="28">6</text><text fill="black" x="414" y="99.8" text-anchor="middle" font-size="28">1</text><text fill="black" x="18" y="135.8" text-anchor="middle" font-size="28">5</text><text fill="black" x="54" y="135.8" text-anchor="middle" textLength="28" lengthAdjust="spacingAndGlyphs" font-size="28">11</text><text fill="black" x="90" y="135.8" text-anchor="middle" textLength="28" lengthAdjust="spacingAndGlyphs" font-size="28">12</text><text fill="black" x="126" y="135.8" text-anchor="middle" font-size="28">3</text><text fill="black" x="162" y="135.8" text-anchor="middle" font-size="28">8</text><text fill="black" x="198" y="135.8" text-anchor="middle" font-size="28">2</text><text fill="black" x="234" y="135.8" text-anchor="middle" font-size="28">1</text><text fill="black" x="270" y="135.8" text-anchor="middle" font-size="28">4</text><text fill="black" x="306" y="135.8" text-anchor="middle" textLength="28" lengthAdjust="spacingAndGlyphs" font-size="28">10</text><text fill="black" x="342" y="135.8" text-anchor="middle" textLength="28" lengthAdjust="spacingAndGlyphs" font-size="28">11</text><text fill="black" x="378" y="135.8" text-anchor="middle" textLength="28" lengthAdjust="spacingAndGlyphs" font-size="28">11</text><text fill="black" x="414" y="135.8" text-anchor="middle" textLength="28" lengthAdjust="spacingAndGlyphs" font-size="28">11</text><text fill="black" x="18" y="171.8" text-anchor="middle" textLength="28" lengthAdjust="spacingAndGlyphs" font-size="28">11</text><text fill="black" x="54" y="171.8" text-anchor="middle" textLength="28" lengthAdjust="spacingAndGlyphs" font-size="28">10</text><text fill="black" x="90" y="171.8" text-anchor="middle" textLength="28" lengthAdjust="spacingAndGlyphs" font-size="28">11</text><text fill="black" x="126" y="171.8" text-anchor="middle" font-size="28">1</text><text fill="black" x="162" y="171.8" text-anchor="middle" font-size="28">6</text><text fill="black" x="198" y="171.8" text-anchor="middle" font-size="28">6</text><text fill="black" x="234" y="171.8" text-anchor="middle" font-size="28">5</text><text fill="black" x="270" y="171.8" text-anchor="middle" font-size="28">8</text><text fill="black" x="306" y="171.8" text-anchor="middle" textLength="28" lengthAdjust="spacingAndGlyphs" font-size="28">12</text><text fill="black" x="342" y="171.8" text-anchor="middle" font-size="28">6</text><text fill="black" x="378" y="171.8" text-anchor="middle" font-size="28">4</text><text fill="black" x="414" y="171.8" text-anchor="middle" font-size="28">6</text><text fill="black" x="18" y="207.8" text-anchor="middle" textLength="28" lengthAdjust="spacingAndGlyphs" font-size="28">11</text><text fill="black" x="54" y="207.8" text-anchor="middle" textLength="28" lengthAdjust="spacingAndGlyphs" font-size="28">11</text><text fill="black" x="90" y="207.8" text-anchor="middle" font-size="28">6</text><text fill="black" x="126" y="207.8" text-anchor="middle" font-size="28">9</text><text fill="black" x="162" y="207.8" text-anchor="middle" font-size="28">9</text><text fill="black" x="198" y="207.8" text-anchor="middle" font-size="28">3</text><text fill="black" x="234" y="207.8" text-anchor="middle" font-size="28">6</text><text fill="black" x="270" y="207.8" text-anchor="middle" font-size="28">6</text><text fill="black" x="306" y="207.8" text-anchor="middle" font-size="28">1</text><text fill="black" x="342" y="207.8" text-anchor="middle" font-size="28">8</text><text fill="black" x="378" y="207.8" text-anchor="middle" textLength="28" lengthAdjust="spacingAndGlyphs" font-size="28">12</text><text fill="black" x="414" y="207.8" text-anchor="middle" font-size="28">5</text><text fill="black" x="18" y="243.8" text-anchor="middle" font-size="28">6</text><text fill="black" x="54" y="243.8" text-anchor="middle" font-size="28">7</text><text fill="black" x="90" y="243.8" text-anchor="middle" font-size="28">1</text><text fill="black" x="126" y="243.8" text-anchor="middle" font-size="28">6</text><text fill="black" x="162" y="243.8" text-anchor="middle" textLength="28" lengthAdjust="spacingAndGlyphs" font-size="28">12</text><text fill="black" x="198" y="243.8" text-anchor="middle" font-size="28">8</text><text fill="black" x="234" y="243.8" text-anchor="middle" font-size="28">6</text><text fill="black" x="270" y="243.8" text-anchor="middle" font-size="28">6</text><text fill="black" x="306" y="243.8" text-anchor="middle" font-size="28">5</text><text fill="black" x="342" y="243.8" text-anchor="middle" font-size="28">9</text><text fill="black" x="378" y="243.8" text-anchor="middle" font-size="28">3</text><text fill="black" x="414" y="243.8" text-anchor="middle" textLength="28" lengthAdjust="spacingAndGlyphs" font-size="28">10</text><text fill="black" x="18" y="279.8" text-anchor="middle" font-size="28">1</text><text fill="black" x="54" y="279.8" text-anchor="middle" textLength="28" lengthAdjust="spacingAndGlyphs" font-size="28">12</text><text fill="black" x="90" y="279.8" text-anchor="middle" font-size="28">3</text><text fill="black" x="126" y="279.8" text-anchor="middle" font-size="28">2</text><text fill="black" x="162" y="279.8" text-anchor="middle" font-size="28">5</text><text fill="black" x="198" y="279.8" text-anchor="middle" font-size="28">4</text><text fill="black" x="234" y="279.8" text-anchor="middle" textLength="28" lengthAdjust="spacingAndGlyphs" font-size="28">11</text><text fill="black" x="270" y="279.8" text-anchor="middle" textLength="28" lengthAdjust="spacingAndGlyphs" font-size="28">11</text><text fill="black" x="306" y="279.8" text-anchor="middle" font-size="28">8</text><text fill="black" x="342" y="279.8" text-anchor="middle" font-size="28">9</text><text fill="black" x="378" y="279.8" text-anchor="middle" font-size="28">6</text><text fill="black" x="414" y="279.8" text-anchor="middle" font-size="28">7</text><text fill="black" x="18" y="315.8" text-anchor="middle" font-size="28">7</text><text fill="black" x="54" y="315.8" text-anchor="middle" font-size="28">8</text><text fill="black" x="90" y="315.8" text-anchor="middle" font-size="28">5</text><text fill="black" x="126" y="315.8" text-anchor="middle" font-size="28">4</text><text fill="black" x="162" y="315.8" text-anchor="middle" font-size="28">1</text><text fill="black" x="198" y="315.8" text-anchor="middle" textLength="28" lengthAdjust="spacingAndGlyphs" font-size="28">12</text><text fill="black" x="234" y="315.8" text-anchor="middle" textLength="28" lengthAdjust="spacingAndGlyphs" font-size="28">11</text><text fill="black" x="270" y="315.8" text-anchor="middle" textLength="28" lengthAdjust="spacingAndGlyphs" font-size="28">11</text><text fill="black" x="306" y="315.8" text-anchor="middle" font-size="28">3</text><text fill="black" x="342" y="315.8" text-anchor="middle" font-size="28">9</text><text fill="black" x="378" y="315.8" text-anchor="middle" font-size="28">6</text><text fill="black" x="414" y="315.8" text-anchor="middle" font-size="28">6</text><text fill="black" x="18" y="351.8" text-anchor="middle" font-size="28">7</text><text fill="black" x="54" y="351.8" text-anchor="middle" font-size="28">1</text><text fill="black" x="90" y="351.8" text-anchor="middle" font-size="28">7</text><text fill="black" x="126" y="351.8" text-anchor="middle" font-size="28">8</text><text fill="black" x="162" y="351.8" text-anchor="middle" font-size="28">3</text><text fill="black" x="198" y="351.8" text-anchor="middle" font-size="28">7</text><text fill="black" x="234" y="351.8" text-anchor="middle" font-size="28">7</text><text fill="black" x="270" y="351.8" text-anchor="middle" textLength="28" lengthAdjust="spacingAndGlyphs" font-size="28">12</text><text fill="black" x="306" y="351.8" text-anchor="middle" font-size="28">6</text><text fill="black" x="342" y="351.8" text-anchor="middle" font-size="28">9</text><text fill="black" x="378" y="351.8" text-anchor="middle" font-size="28">5</text><text fill="black" x="414" y="351.8" text-anchor="middle" textLength="28" lengthAdjust="spacingAndGlyphs" font-size="28">11</text><text fill="black" x="18" y="387.8" text-anchor="middle" font-size="28">7</text><text fill="black" x="54" y="387.8" text-anchor="middle" font-size="28">3</text><text fill="black" x="90" y="387.8" text-anchor="middle" font-size="28">6</text><text fill="black" x="126" y="387.8" text-anchor="middle" textLength="28" lengthAdjust="spacingAndGlyphs" font-size="28">10</text><text fill="black" x="162" y="387.8" text-anchor="middle" textLength="28" lengthAdjust="spacingAndGlyphs" font-size="28">11</text><text fill="black" x="198" y="387.8" text-anchor="middle" textLength="28" lengthAdjust="spacingAndGlyphs" font-size="28">11</text><text fill="black" x="234" y="387.8" text-anchor="middle" textLength="28" lengthAdjust="spacingAndGlyphs" font-size="28">12</text><text fill="black" x="270" y="387.8" text-anchor="middle" font-size="28">5</text><text fill="black" x="306" y="387.8" text-anchor="middle" font-size="28">6</text><text fill="black" x="342" y="387.8" text-anchor="middle" font-size="28">1</text><text fill="black" x="378" y="387.8" text-anchor="middle" font-size="28">8</text><text fill="black" x="414" y="387.8" text-anchor="middle" font-size="28">4</text><text fill="black" x="18" y="423.8" text-anchor="middle" font-size="28">7</text><text fill="black" x="54" y="423.8" text-anchor="middle" font-size="28">4</text><text fill="black" x="90" y="423.8" text-anchor="middle" font-size="28">8</text><text fill="black" x="126" y="423.8" text-anchor="middle" textLength="28" lengthAdjust="spacingAndGlyphs" font-size="28">12</text><text fill="black" x="162" y="423.8" text-anchor="middle" textLength="28" lengthAdjust="spacingAndGlyphs" font-size="28">11</text><text fill="black" x="198" y="423.8" text-anchor="middle" textLength="28" lengthAdjust="spacingAndGlyphs" font-size="28">11</text><text fill="black" x="234" y="423.8" text-anchor="middle" textLength="28" lengthAdjust="spacingAndGlyphs" font-size="28">10</text><text fill="black" x="270" y="423.8" text-anchor="middle" font-size="28">1</text><text fill="black" x="306" y="423.8" text-anchor="middle" font-size="28">4</text><text fill="black" x="342" y="423.8" text-anchor="middle" textLength="28" lengthAdjust="spacingAndGlyphs" font-size="28">11</text><text fill="black" x="378" y="423.8" text-anchor="middle" textLength="28" lengthAdjust="spacingAndGlyphs" font-size="28">11</text><text fill="black" x="414" y="423.8" text-anchor="middle" font-size="28">3</text></g><g shape-rendering="crispEdges"><path fill="black" stroke="none" d="M -2 -2 L 2 -2 2 434 -2 434 z"></path><path fill="black" stroke="none" d="M 430 -2 L 434 -2 434 434 430 434 z"></path><path fill="black" stroke="none" d="M -2 -2 L 434 -2 434 2 -2 2 z"></path><path fill="black" stroke="none" d="M -2 430 L 434 430 434 434 -2 434 z"></path></g><g shape-rendering="crispEdges"></g></svg>